%TF.GenerationSoftware,KiCad,Pcbnew,8.0.1*%
%TF.CreationDate,2024-04-21T19:45:24+02:00*%
%TF.ProjectId,Hypersonic_pcb,48797065-7273-46f6-9e69-635f7063622e,rev?*%
%TF.SameCoordinates,Original*%
%TF.FileFunction,Copper,L3,Inr*%
%TF.FilePolarity,Positive*%
%FSLAX46Y46*%
G04 Gerber Fmt 4.6, Leading zero omitted, Abs format (unit mm)*
G04 Created by KiCad (PCBNEW 8.0.1) date 2024-04-21 19:45:24*
%MOMM*%
%LPD*%
G01*
G04 APERTURE LIST*
%TA.AperFunction,HeatsinkPad*%
%ADD10C,0.600000*%
%TD*%
%TA.AperFunction,ComponentPad*%
%ADD11O,2.100000X1.000000*%
%TD*%
%TA.AperFunction,ComponentPad*%
%ADD12O,1.600000X1.000000*%
%TD*%
%TA.AperFunction,ViaPad*%
%ADD13C,0.500000*%
%TD*%
G04 APERTURE END LIST*
D10*
%TO.N,GND*%
%TO.C,U1*%
X125545606Y-94500000D03*
X125545606Y-93100000D03*
X124845606Y-95200000D03*
X124845606Y-93800000D03*
X124845606Y-92400000D03*
X124145606Y-94500000D03*
X124145606Y-93100000D03*
X123445606Y-95200000D03*
X123445606Y-93800000D03*
X123445606Y-92400000D03*
X122745606Y-94500000D03*
X122745606Y-93100000D03*
%TD*%
D11*
%TO.N,Net-(J1-SHIELD)*%
%TO.C,J1*%
X144370000Y-91380000D03*
D12*
X148550000Y-91380000D03*
D11*
X144370000Y-82740000D03*
D12*
X148550000Y-82740000D03*
%TD*%
D13*
%TO.N,/VBUS*%
X137298800Y-82720664D03*
X140918749Y-83081251D03*
%TO.N,GND*%
X110500000Y-86000000D03*
X94434431Y-100001735D03*
X145900000Y-90600000D03*
X142250000Y-83500000D03*
X105500000Y-93012500D03*
X141000000Y-102000000D03*
X102362500Y-92564479D03*
X94500000Y-89750000D03*
X143000000Y-100500000D03*
X96000000Y-83299999D03*
X112745604Y-87604681D03*
X142250000Y-93750000D03*
X130250000Y-92000000D03*
X94250000Y-85250000D03*
X135875000Y-102125000D03*
X93000000Y-89750000D03*
X96750000Y-89000000D03*
X110000000Y-83250000D03*
X129500000Y-94000000D03*
X142000000Y-98000000D03*
X147500000Y-95500000D03*
X129750000Y-85500000D03*
X143750000Y-96500000D03*
X103000000Y-96725000D03*
X99500000Y-93500000D03*
X111000000Y-81750000D03*
X108493750Y-86006250D03*
X130250000Y-89500000D03*
X128500000Y-88000000D03*
X133000000Y-101500000D03*
X98340765Y-86108937D03*
X122750000Y-85500000D03*
X107664124Y-92348376D03*
X100662902Y-89459458D03*
X112000000Y-82000000D03*
X133250000Y-88500000D03*
X135750000Y-83000000D03*
X118975013Y-100800036D03*
X94000000Y-83750000D03*
X109604394Y-100700000D03*
X138000000Y-86500000D03*
X111000000Y-82750000D03*
X97000000Y-86750000D03*
X95250000Y-88250000D03*
X100500000Y-96725000D03*
X115243185Y-86329635D03*
X93250000Y-91750000D03*
X138000000Y-87500000D03*
X98250000Y-87750000D03*
X103000000Y-88012500D03*
X122750000Y-81750000D03*
X98000000Y-92250000D03*
X111000000Y-85250000D03*
X98500000Y-94512500D03*
X125250000Y-87750000D03*
X105500000Y-90512500D03*
X93434431Y-101001735D03*
X116000000Y-99000000D03*
X147500000Y-98250000D03*
X93434431Y-99001735D03*
X114000000Y-81750000D03*
X148500000Y-102250000D03*
X142750000Y-81750000D03*
X100500000Y-83225000D03*
X145750000Y-83500000D03*
X111000000Y-84000000D03*
X120250000Y-90750000D03*
X117303165Y-99895966D03*
X130000000Y-101500000D03*
X97500000Y-86000000D03*
X107500000Y-84250000D03*
X112289124Y-89539124D03*
X136615979Y-84456840D03*
X149250000Y-87000000D03*
X92763689Y-94024218D03*
X135000000Y-97250000D03*
X94250000Y-86500000D03*
X142250000Y-96500000D03*
X97250000Y-91500000D03*
X98500000Y-89460508D03*
X103000000Y-90512500D03*
X104200000Y-89212500D03*
X119000000Y-85500000D03*
X96125000Y-90625000D03*
X142250000Y-95000000D03*
X93500000Y-88250000D03*
X105500000Y-88012500D03*
X117750000Y-85500000D03*
X101339637Y-95563196D03*
X137250000Y-81750000D03*
X113000000Y-83000000D03*
X142500000Y-91000000D03*
X131500000Y-83750000D03*
X124000000Y-85500000D03*
X105500000Y-94262500D03*
X142000000Y-100500000D03*
X147000000Y-81750000D03*
X103000000Y-95750000D03*
X108250000Y-83250000D03*
X133500000Y-96750000D03*
X112500000Y-100250000D03*
X126500000Y-81750000D03*
X101000000Y-92000000D03*
X116500000Y-85500000D03*
X144000000Y-100500000D03*
X96250000Y-85500000D03*
X116750000Y-95500000D03*
X135750000Y-88750000D03*
X107843264Y-101761357D03*
X130250000Y-90750000D03*
X109500000Y-86000000D03*
X103750000Y-82000000D03*
X133250000Y-89500000D03*
X135250000Y-86000000D03*
X103000000Y-83225000D03*
X120579177Y-101914588D03*
X130500000Y-81750000D03*
X105500000Y-83112499D03*
X145000000Y-102135002D03*
%TO.N,Net-(J1-CC1)*%
X142250000Y-88310000D03*
X145250000Y-92810000D03*
%TO.N,Net-(J1-CC2)*%
X142250000Y-85310000D03*
X147000000Y-92810000D03*
%TO.N,+3V3*%
X132750000Y-91750000D03*
X121250000Y-81750000D03*
X94434431Y-99001735D03*
X107738459Y-93814740D03*
X113875000Y-83625000D03*
X109000000Y-87750000D03*
X118250000Y-81750000D03*
%TO.N,+1V8*%
X106869059Y-91893441D03*
X108500000Y-89012500D03*
%TO.N,/RIGHT_LO+*%
X103205952Y-93422899D03*
%TO.N,/LEFT_LO+*%
X103163550Y-92535487D03*
%TO.N,/LEFT_LO-*%
X103975000Y-92612500D03*
%TO.N,/MICBIAS*%
X101837500Y-86350000D03*
%TO.N,/RIGHT_LO-*%
X104111536Y-93565248D03*
%TO.N,/I2C_SDA*%
X118250000Y-86500000D03*
X107779529Y-86397781D03*
%TO.N,/I2C_SCL*%
X107250000Y-87000000D03*
X116750000Y-86500000D03*
%TO.N,/CODEC_EN*%
X106300000Y-92712500D03*
X115250000Y-87250000D03*
%TO.N,A3V0*%
X100497518Y-93752482D03*
X99389585Y-87286264D03*
%TO.N,VIN*%
X132500000Y-82000000D03*
X94434431Y-101001735D03*
%TO.N,/SPI_MOSI*%
X124500000Y-86250000D03*
%TO.N,/SPI_CLK*%
X123250000Y-86250000D03*
%TO.N,/SPI_MISO*%
X122000000Y-86250000D03*
%TO.N,/IO5*%
X109250000Y-101750000D03*
X119750000Y-101925000D03*
%TO.N,/VBUS_OUT*%
X137500000Y-84500000D03*
X135500000Y-87000000D03*
%TO.N,/IO6*%
X110250000Y-101175000D03*
X119000000Y-101625000D03*
%TO.N,/IO7*%
X118000000Y-101250000D03*
X111000000Y-100750000D03*
%TO.N,/IO9*%
X116250000Y-100250000D03*
X111546752Y-99953248D03*
%TO.N,/IO8*%
X117250000Y-100750000D03*
X111842738Y-100747728D03*
%TO.N,/IO10*%
X115500000Y-99675000D03*
X112035249Y-99250000D03*
%TO.N,/IO18*%
X129750000Y-88750000D03*
%TO.N,/IO17*%
X129375000Y-90125000D03*
%TO.N,/IO16*%
X129500000Y-91250000D03*
%TO.N,/IO14*%
X119250000Y-90750000D03*
%TO.N,/IO15*%
X129500000Y-92500000D03*
%TO.N,/IO4*%
X108500000Y-102250000D03*
X121500000Y-102249994D03*
%TO.N,/MIC2L*%
X103475000Y-86177943D03*
%TO.N,/MIC2R*%
X99200000Y-86087500D03*
%TD*%
%TA.AperFunction,Conductor*%
%TO.N,GND*%
G36*
X117838914Y-81320185D02*
G01*
X117884669Y-81372989D01*
X117894613Y-81442147D01*
X117870280Y-81495427D01*
X117871913Y-81496476D01*
X117867117Y-81503938D01*
X117813302Y-81621774D01*
X117794867Y-81750000D01*
X117813302Y-81878225D01*
X117867117Y-81996061D01*
X117867118Y-81996063D01*
X117951951Y-82093967D01*
X118060931Y-82164004D01*
X118185225Y-82200499D01*
X118185227Y-82200500D01*
X118185228Y-82200500D01*
X118314773Y-82200500D01*
X118314773Y-82200499D01*
X118439069Y-82164004D01*
X118548049Y-82093967D01*
X118632882Y-81996063D01*
X118686697Y-81878226D01*
X118705133Y-81750000D01*
X118686697Y-81621774D01*
X118632882Y-81503937D01*
X118632879Y-81503934D01*
X118628087Y-81496476D01*
X118629719Y-81495426D01*
X118605387Y-81442148D01*
X118615330Y-81372989D01*
X118661085Y-81320185D01*
X118728124Y-81300500D01*
X120771875Y-81300500D01*
X120838914Y-81320185D01*
X120884669Y-81372989D01*
X120894613Y-81442147D01*
X120870280Y-81495427D01*
X120871913Y-81496476D01*
X120867117Y-81503938D01*
X120813302Y-81621774D01*
X120794867Y-81750000D01*
X120813302Y-81878225D01*
X120867117Y-81996061D01*
X120867118Y-81996063D01*
X120951951Y-82093967D01*
X121060931Y-82164004D01*
X121185225Y-82200499D01*
X121185227Y-82200500D01*
X121185228Y-82200500D01*
X121314773Y-82200500D01*
X121314773Y-82200499D01*
X121439069Y-82164004D01*
X121548049Y-82093967D01*
X121629471Y-82000000D01*
X132044867Y-82000000D01*
X132063302Y-82128225D01*
X132117117Y-82246061D01*
X132117118Y-82246063D01*
X132201951Y-82343967D01*
X132310931Y-82414004D01*
X132435225Y-82450499D01*
X132435227Y-82450500D01*
X132435228Y-82450500D01*
X132564773Y-82450500D01*
X132564773Y-82450499D01*
X132689069Y-82414004D01*
X132798049Y-82343967D01*
X132882882Y-82246063D01*
X132936697Y-82128226D01*
X132955133Y-82000000D01*
X132936697Y-81871774D01*
X132882882Y-81753937D01*
X132798049Y-81656033D01*
X132689069Y-81585996D01*
X132689065Y-81585994D01*
X132689064Y-81585994D01*
X132564774Y-81549500D01*
X132564772Y-81549500D01*
X132435228Y-81549500D01*
X132435226Y-81549500D01*
X132310935Y-81585994D01*
X132310932Y-81585995D01*
X132310931Y-81585996D01*
X132259677Y-81618934D01*
X132201950Y-81656033D01*
X132117118Y-81753937D01*
X132117117Y-81753938D01*
X132063302Y-81871774D01*
X132044867Y-82000000D01*
X121629471Y-82000000D01*
X121632882Y-81996063D01*
X121686697Y-81878226D01*
X121705133Y-81750000D01*
X121686697Y-81621774D01*
X121632882Y-81503937D01*
X121632879Y-81503934D01*
X121628087Y-81496476D01*
X121629719Y-81495426D01*
X121605387Y-81442148D01*
X121615330Y-81372989D01*
X121661085Y-81320185D01*
X121728124Y-81300500D01*
X149575500Y-81300500D01*
X149642539Y-81320185D01*
X149688294Y-81372989D01*
X149699500Y-81424500D01*
X149699500Y-82467647D01*
X149679815Y-82534686D01*
X149627011Y-82580441D01*
X149557853Y-82590385D01*
X149494297Y-82561360D01*
X149460939Y-82515100D01*
X149441283Y-82467647D01*
X149426465Y-82431873D01*
X149426463Y-82431870D01*
X149426461Y-82431866D01*
X149355276Y-82325331D01*
X149355273Y-82325327D01*
X149264672Y-82234726D01*
X149264668Y-82234723D01*
X149158133Y-82163538D01*
X149158124Y-82163533D01*
X149039744Y-82114499D01*
X149039738Y-82114497D01*
X148914071Y-82089500D01*
X148914069Y-82089500D01*
X148185931Y-82089500D01*
X148185929Y-82089500D01*
X148060261Y-82114497D01*
X148060255Y-82114499D01*
X147941875Y-82163533D01*
X147941866Y-82163538D01*
X147835331Y-82234723D01*
X147835327Y-82234726D01*
X147744726Y-82325327D01*
X147744723Y-82325331D01*
X147673538Y-82431866D01*
X147673533Y-82431875D01*
X147624499Y-82550255D01*
X147624497Y-82550261D01*
X147599500Y-82675928D01*
X147599500Y-82675931D01*
X147599500Y-82804069D01*
X147599500Y-82804071D01*
X147599499Y-82804071D01*
X147624497Y-82929738D01*
X147624499Y-82929744D01*
X147673533Y-83048124D01*
X147673538Y-83048133D01*
X147744723Y-83154668D01*
X147744726Y-83154672D01*
X147835327Y-83245273D01*
X147835331Y-83245276D01*
X147941866Y-83316461D01*
X147941872Y-83316464D01*
X147941873Y-83316465D01*
X148060256Y-83365501D01*
X148060260Y-83365501D01*
X148060261Y-83365502D01*
X148185928Y-83390500D01*
X148185931Y-83390500D01*
X148914071Y-83390500D01*
X148998615Y-83373682D01*
X149039744Y-83365501D01*
X149158127Y-83316465D01*
X149264669Y-83245276D01*
X149355276Y-83154669D01*
X149426465Y-83048127D01*
X149460939Y-82964900D01*
X149504780Y-82910496D01*
X149571074Y-82888431D01*
X149638773Y-82905710D01*
X149686384Y-82956847D01*
X149699500Y-83012352D01*
X149699500Y-91107647D01*
X149679815Y-91174686D01*
X149627011Y-91220441D01*
X149557853Y-91230385D01*
X149494297Y-91201360D01*
X149460939Y-91155100D01*
X149441283Y-91107647D01*
X149426465Y-91071873D01*
X149426463Y-91071870D01*
X149426461Y-91071866D01*
X149355276Y-90965331D01*
X149355273Y-90965327D01*
X149264672Y-90874726D01*
X149264668Y-90874723D01*
X149158133Y-90803538D01*
X149158124Y-90803533D01*
X149039744Y-90754499D01*
X149039738Y-90754497D01*
X148914071Y-90729500D01*
X148914069Y-90729500D01*
X148185931Y-90729500D01*
X148185929Y-90729500D01*
X148060261Y-90754497D01*
X148060255Y-90754499D01*
X147941875Y-90803533D01*
X147941866Y-90803538D01*
X147835331Y-90874723D01*
X147835327Y-90874726D01*
X147744726Y-90965327D01*
X147744723Y-90965331D01*
X147673538Y-91071866D01*
X147673533Y-91071875D01*
X147624499Y-91190255D01*
X147624497Y-91190261D01*
X147599500Y-91315928D01*
X147599500Y-91315931D01*
X147599500Y-91444069D01*
X147599500Y-91444071D01*
X147599499Y-91444071D01*
X147624497Y-91569738D01*
X147624499Y-91569744D01*
X147673533Y-91688124D01*
X147673538Y-91688133D01*
X147744723Y-91794668D01*
X147744726Y-91794672D01*
X147835327Y-91885273D01*
X147835331Y-91885276D01*
X147941866Y-91956461D01*
X147941875Y-91956466D01*
X147968692Y-91967574D01*
X148060256Y-92005501D01*
X148060260Y-92005501D01*
X148060261Y-92005502D01*
X148185928Y-92030500D01*
X148185931Y-92030500D01*
X148914071Y-92030500D01*
X148998615Y-92013682D01*
X149039744Y-92005501D01*
X149158127Y-91956465D01*
X149264669Y-91885276D01*
X149355276Y-91794669D01*
X149426465Y-91688127D01*
X149441284Y-91652352D01*
X149460939Y-91604900D01*
X149504780Y-91550496D01*
X149571074Y-91528431D01*
X149638773Y-91545710D01*
X149686384Y-91596847D01*
X149699500Y-91652352D01*
X149699500Y-97587547D01*
X149679815Y-97654586D01*
X149627011Y-97700341D01*
X149613819Y-97705478D01*
X149481583Y-97748444D01*
X149292179Y-97844951D01*
X149120213Y-97969890D01*
X148969890Y-98120213D01*
X148844951Y-98292179D01*
X148748444Y-98481585D01*
X148682753Y-98683760D01*
X148657293Y-98844508D01*
X148649500Y-98893713D01*
X148649500Y-99106287D01*
X148653250Y-99129961D01*
X148672262Y-99250003D01*
X148682754Y-99316243D01*
X148738674Y-99488347D01*
X148748444Y-99518414D01*
X148844951Y-99707820D01*
X148969890Y-99879786D01*
X149120213Y-100030109D01*
X149292179Y-100155048D01*
X149292181Y-100155049D01*
X149292184Y-100155051D01*
X149481588Y-100251557D01*
X149613818Y-100294521D01*
X149671494Y-100333959D01*
X149698692Y-100398317D01*
X149699500Y-100412452D01*
X149699500Y-102575500D01*
X149679815Y-102642539D01*
X149627011Y-102688294D01*
X149575500Y-102699500D01*
X121916249Y-102699500D01*
X121849210Y-102679815D01*
X121803455Y-102627011D01*
X121793511Y-102557853D01*
X121822536Y-102494297D01*
X121827918Y-102488517D01*
X121828044Y-102488342D01*
X121828050Y-102488336D01*
X121885646Y-102375298D01*
X121885646Y-102375296D01*
X121885647Y-102375295D01*
X121885647Y-102375294D01*
X121905492Y-102249997D01*
X121905492Y-102249990D01*
X121885647Y-102124693D01*
X121885647Y-102124692D01*
X121873623Y-102101094D01*
X121828050Y-102011652D01*
X121828046Y-102011648D01*
X121828045Y-102011646D01*
X121738347Y-101921948D01*
X121738344Y-101921946D01*
X121738342Y-101921944D01*
X121625304Y-101864348D01*
X121625303Y-101864347D01*
X121625300Y-101864346D01*
X121500003Y-101844502D01*
X121499997Y-101844502D01*
X121374699Y-101864346D01*
X121374698Y-101864346D01*
X121306874Y-101898905D01*
X121261658Y-101921944D01*
X121261657Y-101921945D01*
X121261652Y-101921948D01*
X121171954Y-102011646D01*
X121171951Y-102011651D01*
X121171950Y-102011652D01*
X121157002Y-102040989D01*
X121114352Y-102124692D01*
X121114352Y-102124693D01*
X121094508Y-102249990D01*
X121094508Y-102249997D01*
X121114352Y-102375294D01*
X121114352Y-102375295D01*
X121132805Y-102411511D01*
X121171950Y-102488336D01*
X121171953Y-102488339D01*
X121177689Y-102496235D01*
X121176499Y-102497099D01*
X121204917Y-102549142D01*
X121199933Y-102618834D01*
X121158061Y-102674767D01*
X121092597Y-102699184D01*
X121083751Y-102699500D01*
X108916255Y-102699500D01*
X108849216Y-102679815D01*
X108803461Y-102627011D01*
X108793517Y-102557853D01*
X108822542Y-102494297D01*
X108827916Y-102488525D01*
X108828042Y-102488349D01*
X108828050Y-102488342D01*
X108885646Y-102375304D01*
X108885646Y-102375302D01*
X108885647Y-102375301D01*
X108885647Y-102375300D01*
X108905492Y-102250003D01*
X108905492Y-102249996D01*
X108904618Y-102244478D01*
X108913573Y-102175185D01*
X108958570Y-102121733D01*
X109025321Y-102101094D01*
X109083382Y-102114595D01*
X109124696Y-102135646D01*
X109124697Y-102135646D01*
X109124699Y-102135647D01*
X109249997Y-102155492D01*
X109250000Y-102155492D01*
X109250003Y-102155492D01*
X109375300Y-102135647D01*
X109375301Y-102135647D01*
X109375302Y-102135646D01*
X109375304Y-102135646D01*
X109488342Y-102078050D01*
X109578050Y-101988342D01*
X109635646Y-101875304D01*
X109635646Y-101875302D01*
X109635647Y-101875301D01*
X109635647Y-101875300D01*
X109655492Y-101750003D01*
X109655492Y-101749996D01*
X109635647Y-101624699D01*
X109635647Y-101624698D01*
X109625516Y-101604815D01*
X109578050Y-101511658D01*
X109578046Y-101511654D01*
X109578045Y-101511652D01*
X109488347Y-101421954D01*
X109488344Y-101421952D01*
X109488342Y-101421950D01*
X109375304Y-101364354D01*
X109375303Y-101364353D01*
X109375300Y-101364352D01*
X109250003Y-101344508D01*
X109249997Y-101344508D01*
X109124699Y-101364352D01*
X109124698Y-101364352D01*
X109049337Y-101402751D01*
X109011658Y-101421950D01*
X109011657Y-101421951D01*
X109011652Y-101421954D01*
X108921954Y-101511652D01*
X108921951Y-101511657D01*
X108921950Y-101511658D01*
X108907839Y-101539352D01*
X108864352Y-101624698D01*
X108864352Y-101624699D01*
X108844508Y-101749996D01*
X108844508Y-101750001D01*
X108845383Y-101755528D01*
X108836423Y-101824821D01*
X108791424Y-101878270D01*
X108724671Y-101898905D01*
X108666613Y-101885402D01*
X108647388Y-101875606D01*
X108625303Y-101864353D01*
X108625300Y-101864352D01*
X108500003Y-101844508D01*
X108499997Y-101844508D01*
X108374699Y-101864352D01*
X108374698Y-101864352D01*
X108306886Y-101898905D01*
X108261658Y-101921950D01*
X108261657Y-101921951D01*
X108261652Y-101921954D01*
X108171954Y-102011652D01*
X108171951Y-102011657D01*
X108114352Y-102124698D01*
X108114352Y-102124699D01*
X108094508Y-102249996D01*
X108094508Y-102250003D01*
X108114352Y-102375300D01*
X108114352Y-102375301D01*
X108132805Y-102411517D01*
X108171950Y-102488342D01*
X108171953Y-102488345D01*
X108177689Y-102496241D01*
X108176497Y-102497106D01*
X108204911Y-102549142D01*
X108199927Y-102618834D01*
X108158055Y-102674767D01*
X108092591Y-102699184D01*
X108083745Y-102699500D01*
X94424500Y-102699500D01*
X94357461Y-102679815D01*
X94311706Y-102627011D01*
X94300500Y-102575500D01*
X94300500Y-102346155D01*
X94300499Y-102346153D01*
X94293436Y-102310646D01*
X94269737Y-102191503D01*
X94258950Y-102165460D01*
X94209397Y-102045827D01*
X94209390Y-102045814D01*
X94121789Y-101914711D01*
X94121786Y-101914707D01*
X94010292Y-101803213D01*
X94010288Y-101803210D01*
X93879185Y-101715609D01*
X93879172Y-101715602D01*
X93733501Y-101655264D01*
X93733489Y-101655261D01*
X93578845Y-101624500D01*
X93578842Y-101624500D01*
X93539562Y-101624500D01*
X90424500Y-101624500D01*
X90357461Y-101604815D01*
X90311706Y-101552011D01*
X90300500Y-101500500D01*
X90300500Y-101001735D01*
X93979298Y-101001735D01*
X93997733Y-101129960D01*
X94018304Y-101175003D01*
X94051549Y-101247798D01*
X94136382Y-101345702D01*
X94245362Y-101415739D01*
X94266519Y-101421951D01*
X94369656Y-101452234D01*
X94369658Y-101452235D01*
X94369659Y-101452235D01*
X94499204Y-101452235D01*
X94499204Y-101452234D01*
X94623500Y-101415739D01*
X94732480Y-101345702D01*
X94817313Y-101247798D01*
X94850558Y-101175003D01*
X109844508Y-101175003D01*
X109864352Y-101300300D01*
X109864352Y-101300301D01*
X109864354Y-101300304D01*
X109921950Y-101413342D01*
X109921952Y-101413344D01*
X109921954Y-101413347D01*
X110011652Y-101503045D01*
X110011654Y-101503046D01*
X110011658Y-101503050D01*
X110124696Y-101560646D01*
X110124697Y-101560646D01*
X110124699Y-101560647D01*
X110249997Y-101580492D01*
X110250000Y-101580492D01*
X110250003Y-101580492D01*
X110375300Y-101560647D01*
X110375301Y-101560647D01*
X110375302Y-101560646D01*
X110375304Y-101560646D01*
X110488342Y-101503050D01*
X110578050Y-101413342D01*
X110635646Y-101300304D01*
X110635646Y-101300302D01*
X110635647Y-101300301D01*
X110635647Y-101300300D01*
X110650930Y-101203805D01*
X110680859Y-101140670D01*
X110740170Y-101103738D01*
X110810032Y-101104736D01*
X110829687Y-101112712D01*
X110874696Y-101135646D01*
X110874697Y-101135646D01*
X110874699Y-101135647D01*
X110999997Y-101155492D01*
X111000000Y-101155492D01*
X111000003Y-101155492D01*
X111125300Y-101135647D01*
X111125301Y-101135647D01*
X111125302Y-101135646D01*
X111125304Y-101135646D01*
X111238342Y-101078050D01*
X111266696Y-101049696D01*
X111334824Y-100981569D01*
X111396147Y-100948084D01*
X111465839Y-100953068D01*
X111510186Y-100981569D01*
X111604390Y-101075773D01*
X111604392Y-101075774D01*
X111604396Y-101075778D01*
X111717434Y-101133374D01*
X111717435Y-101133374D01*
X111717437Y-101133375D01*
X111842735Y-101153220D01*
X111842738Y-101153220D01*
X111842741Y-101153220D01*
X111968038Y-101133375D01*
X111968039Y-101133375D01*
X111968040Y-101133374D01*
X111968042Y-101133374D01*
X112081080Y-101075778D01*
X112170788Y-100986070D01*
X112228384Y-100873032D01*
X112228384Y-100873030D01*
X112228385Y-100873029D01*
X112228385Y-100873028D01*
X112247870Y-100750003D01*
X116844508Y-100750003D01*
X116864352Y-100875300D01*
X116864352Y-100875301D01*
X116882805Y-100911517D01*
X116921950Y-100988342D01*
X116921952Y-100988344D01*
X116921954Y-100988347D01*
X117011652Y-101078045D01*
X117011654Y-101078046D01*
X117011658Y-101078050D01*
X117124696Y-101135646D01*
X117124697Y-101135646D01*
X117124699Y-101135647D01*
X117249997Y-101155492D01*
X117250000Y-101155492D01*
X117250003Y-101155492D01*
X117375300Y-101135647D01*
X117375301Y-101135646D01*
X117375304Y-101135646D01*
X117416614Y-101114597D01*
X117485279Y-101101700D01*
X117550020Y-101127974D01*
X117590279Y-101185080D01*
X117595383Y-101244470D01*
X117594508Y-101249997D01*
X117594508Y-101250003D01*
X117614352Y-101375300D01*
X117614352Y-101375301D01*
X117620139Y-101386658D01*
X117671950Y-101488342D01*
X117671952Y-101488344D01*
X117671954Y-101488347D01*
X117761652Y-101578045D01*
X117761654Y-101578046D01*
X117761658Y-101578050D01*
X117874696Y-101635646D01*
X117874697Y-101635646D01*
X117874699Y-101635647D01*
X117999997Y-101655492D01*
X118000000Y-101655492D01*
X118000003Y-101655492D01*
X118125300Y-101635647D01*
X118125301Y-101635647D01*
X118125302Y-101635646D01*
X118125304Y-101635646D01*
X118146192Y-101625003D01*
X118594508Y-101625003D01*
X118614352Y-101750300D01*
X118614352Y-101750301D01*
X118632805Y-101786517D01*
X118671950Y-101863342D01*
X118671952Y-101863344D01*
X118671954Y-101863347D01*
X118761652Y-101953045D01*
X118761654Y-101953046D01*
X118761658Y-101953050D01*
X118874696Y-102010646D01*
X118874697Y-102010646D01*
X118874699Y-102010647D01*
X118999997Y-102030492D01*
X119000000Y-102030492D01*
X119000003Y-102030492D01*
X119125300Y-102010647D01*
X119125301Y-102010646D01*
X119125304Y-102010646D01*
X119189985Y-101977688D01*
X119258649Y-101964793D01*
X119323390Y-101991068D01*
X119359258Y-102041947D01*
X119359924Y-102041609D01*
X119362281Y-102046235D01*
X119363648Y-102048174D01*
X119364206Y-102049850D01*
X119364352Y-102050299D01*
X119364353Y-102050302D01*
X119364354Y-102050304D01*
X119421950Y-102163342D01*
X119421952Y-102163344D01*
X119421954Y-102163347D01*
X119511652Y-102253045D01*
X119511654Y-102253046D01*
X119511658Y-102253050D01*
X119624696Y-102310646D01*
X119624697Y-102310646D01*
X119624699Y-102310647D01*
X119749997Y-102330492D01*
X119750000Y-102330492D01*
X119750003Y-102330492D01*
X119875300Y-102310647D01*
X119875301Y-102310647D01*
X119875302Y-102310646D01*
X119875304Y-102310646D01*
X119988342Y-102253050D01*
X120078050Y-102163342D01*
X120135646Y-102050304D01*
X120135646Y-102050302D01*
X120135647Y-102050301D01*
X120135647Y-102050300D01*
X120155492Y-101925003D01*
X120155492Y-101924996D01*
X120135647Y-101799699D01*
X120135647Y-101799698D01*
X120110479Y-101750304D01*
X120078050Y-101686658D01*
X120078046Y-101686654D01*
X120078045Y-101686652D01*
X119988347Y-101596954D01*
X119988344Y-101596952D01*
X119988342Y-101596950D01*
X119875304Y-101539354D01*
X119875303Y-101539353D01*
X119875300Y-101539352D01*
X119750003Y-101519508D01*
X119749997Y-101519508D01*
X119624699Y-101539352D01*
X119624698Y-101539352D01*
X119560017Y-101572310D01*
X119491348Y-101585206D01*
X119426607Y-101558930D01*
X119390741Y-101508052D01*
X119390076Y-101508391D01*
X119387718Y-101503764D01*
X119386350Y-101501823D01*
X119385790Y-101500142D01*
X119385646Y-101499698D01*
X119385646Y-101499696D01*
X119328050Y-101386658D01*
X119328046Y-101386654D01*
X119328045Y-101386652D01*
X119238347Y-101296954D01*
X119238344Y-101296952D01*
X119238342Y-101296950D01*
X119125304Y-101239354D01*
X119125303Y-101239353D01*
X119125300Y-101239352D01*
X119000003Y-101219508D01*
X118999997Y-101219508D01*
X118874699Y-101239352D01*
X118874698Y-101239352D01*
X118799337Y-101277751D01*
X118761658Y-101296950D01*
X118761657Y-101296951D01*
X118761652Y-101296954D01*
X118671954Y-101386652D01*
X118671951Y-101386657D01*
X118671950Y-101386658D01*
X118657132Y-101415740D01*
X118614352Y-101499698D01*
X118614352Y-101499699D01*
X118594508Y-101624996D01*
X118594508Y-101625003D01*
X118146192Y-101625003D01*
X118238342Y-101578050D01*
X118328050Y-101488342D01*
X118385646Y-101375304D01*
X118385646Y-101375302D01*
X118385647Y-101375301D01*
X118385647Y-101375300D01*
X118405492Y-101250003D01*
X118405492Y-101249996D01*
X118385647Y-101124699D01*
X118385647Y-101124698D01*
X118373929Y-101101700D01*
X118328050Y-101011658D01*
X118328046Y-101011654D01*
X118328045Y-101011652D01*
X118238347Y-100921954D01*
X118238344Y-100921952D01*
X118238342Y-100921950D01*
X118125304Y-100864354D01*
X118125303Y-100864353D01*
X118125300Y-100864352D01*
X118000003Y-100844508D01*
X117999997Y-100844508D01*
X117874699Y-100864352D01*
X117874698Y-100864352D01*
X117845518Y-100879220D01*
X117833384Y-100885403D01*
X117764717Y-100898299D01*
X117699976Y-100872023D01*
X117659719Y-100814917D01*
X117654618Y-100755520D01*
X117655492Y-100750001D01*
X117655492Y-100749996D01*
X117635647Y-100624699D01*
X117635647Y-100624698D01*
X117616810Y-100587729D01*
X117578050Y-100511658D01*
X117578046Y-100511654D01*
X117578045Y-100511652D01*
X117488347Y-100421954D01*
X117488344Y-100421952D01*
X117488342Y-100421950D01*
X117375304Y-100364354D01*
X117375303Y-100364353D01*
X117375300Y-100364352D01*
X117250003Y-100344508D01*
X117249997Y-100344508D01*
X117124699Y-100364352D01*
X117124698Y-100364352D01*
X117058040Y-100398317D01*
X117011658Y-100421950D01*
X117011657Y-100421951D01*
X117011652Y-100421954D01*
X116921954Y-100511652D01*
X116921951Y-100511657D01*
X116864352Y-100624698D01*
X116864352Y-100624699D01*
X116844508Y-100749996D01*
X116844508Y-100750003D01*
X112247870Y-100750003D01*
X112248230Y-100747731D01*
X112248230Y-100747724D01*
X112228385Y-100622427D01*
X112228385Y-100622426D01*
X112228384Y-100622424D01*
X112170788Y-100509386D01*
X112170784Y-100509382D01*
X112170783Y-100509380D01*
X112081085Y-100419682D01*
X112081082Y-100419680D01*
X112081080Y-100419678D01*
X111993984Y-100375300D01*
X111968039Y-100362080D01*
X111958758Y-100359065D01*
X111959316Y-100357344D01*
X111906808Y-100332447D01*
X111869882Y-100273132D01*
X111870886Y-100203270D01*
X111878861Y-100183623D01*
X111932398Y-100078552D01*
X111932398Y-100078550D01*
X111932399Y-100078548D01*
X111952244Y-99953251D01*
X111952244Y-99953244D01*
X111932399Y-99827947D01*
X111929383Y-99818665D01*
X111932874Y-99817530D01*
X111923360Y-99766822D01*
X111949647Y-99702086D01*
X111988079Y-99675003D01*
X115094508Y-99675003D01*
X115114352Y-99800300D01*
X115114352Y-99800301D01*
X115114354Y-99800304D01*
X115171950Y-99913342D01*
X115171952Y-99913344D01*
X115171954Y-99913347D01*
X115261652Y-100003045D01*
X115261654Y-100003046D01*
X115261658Y-100003050D01*
X115374696Y-100060646D01*
X115374697Y-100060646D01*
X115374699Y-100060647D01*
X115499997Y-100080492D01*
X115500000Y-100080492D01*
X115500003Y-100080492D01*
X115625300Y-100060647D01*
X115625302Y-100060646D01*
X115625304Y-100060646D01*
X115679534Y-100033013D01*
X115748203Y-100020117D01*
X115812944Y-100046393D01*
X115853202Y-100103499D01*
X115858303Y-100162895D01*
X115844508Y-100249996D01*
X115844508Y-100250003D01*
X115864352Y-100375300D01*
X115864352Y-100375301D01*
X115864354Y-100375304D01*
X115921950Y-100488342D01*
X115921952Y-100488344D01*
X115921954Y-100488347D01*
X116011652Y-100578045D01*
X116011654Y-100578046D01*
X116011658Y-100578050D01*
X116124696Y-100635646D01*
X116124697Y-100635646D01*
X116124699Y-100635647D01*
X116249997Y-100655492D01*
X116250000Y-100655492D01*
X116250003Y-100655492D01*
X116375300Y-100635647D01*
X116375301Y-100635647D01*
X116375302Y-100635646D01*
X116375304Y-100635646D01*
X116488342Y-100578050D01*
X116578050Y-100488342D01*
X116635646Y-100375304D01*
X116635646Y-100375302D01*
X116635647Y-100375301D01*
X116635647Y-100375300D01*
X116655492Y-100250003D01*
X116655492Y-100249996D01*
X116635647Y-100124699D01*
X116635647Y-100124698D01*
X116635646Y-100124696D01*
X116578050Y-100011658D01*
X116578046Y-100011654D01*
X116578045Y-100011652D01*
X116488347Y-99921954D01*
X116488344Y-99921952D01*
X116488342Y-99921950D01*
X116375304Y-99864354D01*
X116375303Y-99864353D01*
X116375300Y-99864352D01*
X116250003Y-99844508D01*
X116249997Y-99844508D01*
X116124699Y-99864352D01*
X116124695Y-99864354D01*
X116070463Y-99891986D01*
X116001793Y-99904882D01*
X115937053Y-99878605D01*
X115896797Y-99821498D01*
X115891696Y-99762104D01*
X115905492Y-99675000D01*
X115905492Y-99674996D01*
X115885647Y-99549699D01*
X115885647Y-99549698D01*
X115885646Y-99549696D01*
X115828050Y-99436658D01*
X115828046Y-99436654D01*
X115828045Y-99436652D01*
X115738347Y-99346954D01*
X115738344Y-99346952D01*
X115738342Y-99346950D01*
X115625304Y-99289354D01*
X115625303Y-99289353D01*
X115625300Y-99289352D01*
X115500003Y-99269508D01*
X115499997Y-99269508D01*
X115374699Y-99289352D01*
X115374698Y-99289352D01*
X115299337Y-99327751D01*
X115261658Y-99346950D01*
X115261657Y-99346951D01*
X115261652Y-99346954D01*
X115171954Y-99436652D01*
X115171951Y-99436657D01*
X115114352Y-99549698D01*
X115114352Y-99549699D01*
X115094508Y-99674996D01*
X115094508Y-99675003D01*
X111988079Y-99675003D01*
X112006760Y-99661839D01*
X112027342Y-99656743D01*
X112035244Y-99655491D01*
X112035249Y-99655492D01*
X112160553Y-99635646D01*
X112273591Y-99578050D01*
X112363299Y-99488342D01*
X112420895Y-99375304D01*
X112420895Y-99375302D01*
X112420896Y-99375301D01*
X112420896Y-99375300D01*
X112440741Y-99250003D01*
X112440741Y-99249996D01*
X112420896Y-99124699D01*
X112420896Y-99124698D01*
X112411515Y-99106287D01*
X112363299Y-99011658D01*
X112363295Y-99011654D01*
X112363294Y-99011652D01*
X112273596Y-98921954D01*
X112273593Y-98921952D01*
X112273591Y-98921950D01*
X112160553Y-98864354D01*
X112160552Y-98864353D01*
X112160549Y-98864352D01*
X112035252Y-98844508D01*
X112035246Y-98844508D01*
X111909948Y-98864352D01*
X111909947Y-98864352D01*
X111852325Y-98893713D01*
X111796907Y-98921950D01*
X111796906Y-98921951D01*
X111796901Y-98921954D01*
X111707203Y-99011652D01*
X111707200Y-99011657D01*
X111649601Y-99124698D01*
X111649601Y-99124699D01*
X111629757Y-99249996D01*
X111629757Y-99250003D01*
X111649601Y-99375300D01*
X111652618Y-99384583D01*
X111649131Y-99385715D01*
X111658636Y-99436468D01*
X111632326Y-99501194D01*
X111575199Y-99541422D01*
X111554659Y-99546503D01*
X111421450Y-99567600D01*
X111346089Y-99605999D01*
X111308410Y-99625198D01*
X111308409Y-99625199D01*
X111308404Y-99625202D01*
X111218706Y-99714900D01*
X111218703Y-99714905D01*
X111161104Y-99827946D01*
X111161104Y-99827947D01*
X111141260Y-99953244D01*
X111141260Y-99953251D01*
X111161104Y-100078548D01*
X111161104Y-100078549D01*
X111212171Y-100178772D01*
X111225067Y-100247441D01*
X111198791Y-100312182D01*
X111141684Y-100352439D01*
X111082289Y-100357541D01*
X111061240Y-100354207D01*
X111000000Y-100344508D01*
X110999998Y-100344508D01*
X110999997Y-100344508D01*
X110874699Y-100364352D01*
X110874698Y-100364352D01*
X110808040Y-100398317D01*
X110761658Y-100421950D01*
X110761657Y-100421951D01*
X110761652Y-100421954D01*
X110671954Y-100511652D01*
X110671951Y-100511657D01*
X110614352Y-100624698D01*
X110614352Y-100624699D01*
X110599069Y-100721195D01*
X110569140Y-100784330D01*
X110509828Y-100821261D01*
X110439965Y-100820263D01*
X110420302Y-100812282D01*
X110403635Y-100803789D01*
X110375303Y-100789353D01*
X110375300Y-100789352D01*
X110250003Y-100769508D01*
X110249997Y-100769508D01*
X110124699Y-100789352D01*
X110124698Y-100789352D01*
X110064034Y-100820263D01*
X110011658Y-100846950D01*
X110011657Y-100846951D01*
X110011652Y-100846954D01*
X109921954Y-100936652D01*
X109921951Y-100936657D01*
X109864352Y-101049698D01*
X109864352Y-101049699D01*
X109844508Y-101174996D01*
X109844508Y-101175003D01*
X94850558Y-101175003D01*
X94871128Y-101129961D01*
X94889564Y-101001735D01*
X94871128Y-100873509D01*
X94817313Y-100755672D01*
X94732480Y-100657768D01*
X94623500Y-100587731D01*
X94623496Y-100587729D01*
X94623495Y-100587729D01*
X94499205Y-100551235D01*
X94499203Y-100551235D01*
X94369659Y-100551235D01*
X94369657Y-100551235D01*
X94245366Y-100587729D01*
X94245363Y-100587730D01*
X94245362Y-100587731D01*
X94194108Y-100620669D01*
X94136381Y-100657768D01*
X94051549Y-100755672D01*
X94051548Y-100755673D01*
X93997733Y-100873509D01*
X93979298Y-101001735D01*
X90300500Y-101001735D01*
X90300500Y-99001735D01*
X93979298Y-99001735D01*
X93997733Y-99129960D01*
X94051548Y-99247796D01*
X94051549Y-99247798D01*
X94136382Y-99345702D01*
X94245362Y-99415739D01*
X94369656Y-99452234D01*
X94369658Y-99452235D01*
X94369659Y-99452235D01*
X94499204Y-99452235D01*
X94499204Y-99452234D01*
X94623500Y-99415739D01*
X94732480Y-99345702D01*
X94817313Y-99247798D01*
X94871128Y-99129961D01*
X94889564Y-99001735D01*
X94871128Y-98873509D01*
X94817313Y-98755672D01*
X94732480Y-98657768D01*
X94623500Y-98587731D01*
X94623496Y-98587729D01*
X94623495Y-98587729D01*
X94499205Y-98551235D01*
X94499203Y-98551235D01*
X94369659Y-98551235D01*
X94369657Y-98551235D01*
X94245366Y-98587729D01*
X94245363Y-98587730D01*
X94245362Y-98587731D01*
X94194108Y-98620669D01*
X94136381Y-98657768D01*
X94051549Y-98755672D01*
X94051548Y-98755673D01*
X93997733Y-98873509D01*
X93979298Y-99001735D01*
X90300500Y-99001735D01*
X90300500Y-98649500D01*
X90320185Y-98582461D01*
X90372989Y-98536706D01*
X90424500Y-98525500D01*
X92988693Y-98525500D01*
X92988694Y-98525499D01*
X93046682Y-98513964D01*
X93162658Y-98490896D01*
X93162661Y-98490894D01*
X93162666Y-98490894D01*
X93326547Y-98423013D01*
X93474035Y-98324464D01*
X93599464Y-98199035D01*
X93698013Y-98051547D01*
X93765894Y-97887666D01*
X93800500Y-97713691D01*
X93800500Y-97536309D01*
X93800500Y-97536306D01*
X93800499Y-97536304D01*
X93765896Y-97362341D01*
X93765893Y-97362332D01*
X93698016Y-97198459D01*
X93698009Y-97198446D01*
X93599464Y-97050965D01*
X93599461Y-97050961D01*
X93474038Y-96925538D01*
X93474034Y-96925535D01*
X93326553Y-96826990D01*
X93326540Y-96826983D01*
X93162667Y-96759106D01*
X93162658Y-96759103D01*
X92988694Y-96724500D01*
X92988691Y-96724500D01*
X92939562Y-96724500D01*
X90424500Y-96724500D01*
X90357461Y-96704815D01*
X90311706Y-96652011D01*
X90300500Y-96600500D01*
X90300500Y-93752482D01*
X100042385Y-93752482D01*
X100060820Y-93880707D01*
X100101938Y-93970740D01*
X100114636Y-93998545D01*
X100199469Y-94096449D01*
X100308449Y-94166486D01*
X100432743Y-94202981D01*
X100432745Y-94202982D01*
X100432746Y-94202982D01*
X100562291Y-94202982D01*
X100562291Y-94202981D01*
X100686587Y-94166486D01*
X100795567Y-94096449D01*
X100880400Y-93998545D01*
X100934215Y-93880708D01*
X100952651Y-93752482D01*
X100934215Y-93624256D01*
X100880400Y-93506419D01*
X100795567Y-93408515D01*
X100686587Y-93338478D01*
X100686583Y-93338476D01*
X100686582Y-93338476D01*
X100562292Y-93301982D01*
X100562290Y-93301982D01*
X100432746Y-93301982D01*
X100432744Y-93301982D01*
X100308453Y-93338476D01*
X100308450Y-93338477D01*
X100308449Y-93338478D01*
X100257195Y-93371416D01*
X100199468Y-93408515D01*
X100114636Y-93506419D01*
X100114635Y-93506420D01*
X100060820Y-93624256D01*
X100042385Y-93752482D01*
X90300500Y-93752482D01*
X90300500Y-92535490D01*
X102758058Y-92535490D01*
X102777902Y-92660787D01*
X102777902Y-92660788D01*
X102777904Y-92660791D01*
X102835500Y-92773829D01*
X102835502Y-92773831D01*
X102835504Y-92773834D01*
X102925202Y-92863532D01*
X102925204Y-92863533D01*
X102925208Y-92863537D01*
X102956973Y-92879722D01*
X103007768Y-92927696D01*
X103024563Y-92995517D01*
X103002025Y-93061652D01*
X102973562Y-93090525D01*
X102967605Y-93094852D01*
X102877906Y-93184551D01*
X102877904Y-93184555D01*
X102877902Y-93184557D01*
X102862237Y-93215301D01*
X102820304Y-93297597D01*
X102820304Y-93297598D01*
X102800460Y-93422895D01*
X102800460Y-93422902D01*
X102820304Y-93548199D01*
X102820304Y-93548200D01*
X102838757Y-93584416D01*
X102877902Y-93661241D01*
X102877904Y-93661243D01*
X102877906Y-93661246D01*
X102967604Y-93750944D01*
X102967606Y-93750945D01*
X102967610Y-93750949D01*
X103080648Y-93808545D01*
X103080649Y-93808545D01*
X103080651Y-93808546D01*
X103205949Y-93828391D01*
X103205952Y-93828391D01*
X103205955Y-93828391D01*
X103331252Y-93808546D01*
X103331253Y-93808546D01*
X103331254Y-93808545D01*
X103331256Y-93808545D01*
X103444294Y-93750949D01*
X103530545Y-93664697D01*
X103591866Y-93631214D01*
X103661558Y-93636198D01*
X103717492Y-93678069D01*
X103728705Y-93696078D01*
X103783486Y-93803590D01*
X103783488Y-93803592D01*
X103783490Y-93803595D01*
X103873188Y-93893293D01*
X103873190Y-93893294D01*
X103873194Y-93893298D01*
X103986232Y-93950894D01*
X103986233Y-93950894D01*
X103986235Y-93950895D01*
X104111533Y-93970740D01*
X104111536Y-93970740D01*
X104111539Y-93970740D01*
X104236836Y-93950895D01*
X104236837Y-93950895D01*
X104236838Y-93950894D01*
X104236840Y-93950894D01*
X104349878Y-93893298D01*
X104428436Y-93814740D01*
X107283326Y-93814740D01*
X107301761Y-93942965D01*
X107305383Y-93950895D01*
X107355577Y-94060803D01*
X107440410Y-94158707D01*
X107549390Y-94228744D01*
X107673684Y-94265239D01*
X107673686Y-94265240D01*
X107673687Y-94265240D01*
X107803232Y-94265240D01*
X107803232Y-94265239D01*
X107927528Y-94228744D01*
X108036508Y-94158707D01*
X108121341Y-94060803D01*
X108175156Y-93942966D01*
X108193592Y-93814740D01*
X108175156Y-93686514D01*
X108121341Y-93568677D01*
X108036508Y-93470773D01*
X107927528Y-93400736D01*
X107927524Y-93400734D01*
X107927523Y-93400734D01*
X107803233Y-93364240D01*
X107803231Y-93364240D01*
X107673687Y-93364240D01*
X107673685Y-93364240D01*
X107549394Y-93400734D01*
X107549391Y-93400735D01*
X107549390Y-93400736D01*
X107537286Y-93408515D01*
X107440409Y-93470773D01*
X107355577Y-93568677D01*
X107355576Y-93568678D01*
X107301761Y-93686514D01*
X107283326Y-93814740D01*
X104428436Y-93814740D01*
X104439586Y-93803590D01*
X104497182Y-93690552D01*
X104497182Y-93690550D01*
X104497183Y-93690549D01*
X104497183Y-93690548D01*
X104517028Y-93565251D01*
X104517028Y-93565244D01*
X104497183Y-93439947D01*
X104497183Y-93439946D01*
X104497182Y-93439944D01*
X104439586Y-93326906D01*
X104439582Y-93326902D01*
X104439581Y-93326900D01*
X104349883Y-93237202D01*
X104349880Y-93237200D01*
X104349878Y-93237198D01*
X104246561Y-93184555D01*
X104236837Y-93179600D01*
X104227556Y-93176585D01*
X104228043Y-93175085D01*
X104174802Y-93149845D01*
X104137871Y-93090533D01*
X104138869Y-93020671D01*
X104177480Y-92962438D01*
X104201034Y-92946821D01*
X104213342Y-92940550D01*
X104303050Y-92850842D01*
X104360646Y-92737804D01*
X104360646Y-92737802D01*
X104360647Y-92737801D01*
X104360647Y-92737800D01*
X104364654Y-92712503D01*
X105894508Y-92712503D01*
X105914352Y-92837800D01*
X105914352Y-92837801D01*
X105927463Y-92863532D01*
X105971950Y-92950842D01*
X105971952Y-92950844D01*
X105971954Y-92950847D01*
X106061652Y-93040545D01*
X106061654Y-93040546D01*
X106061658Y-93040550D01*
X106174696Y-93098146D01*
X106174697Y-93098146D01*
X106174699Y-93098147D01*
X106299997Y-93117992D01*
X106300000Y-93117992D01*
X106300003Y-93117992D01*
X106425300Y-93098147D01*
X106425301Y-93098147D01*
X106425302Y-93098146D01*
X106425304Y-93098146D01*
X106538342Y-93040550D01*
X106628050Y-92950842D01*
X106685646Y-92837804D01*
X106685646Y-92837802D01*
X106685647Y-92837801D01*
X106685647Y-92837800D01*
X106705492Y-92712503D01*
X106705492Y-92712496D01*
X106685647Y-92587199D01*
X106685646Y-92587196D01*
X106659299Y-92535487D01*
X106649623Y-92516498D01*
X106646525Y-92500003D01*
X129094508Y-92500003D01*
X129114352Y-92625300D01*
X129114352Y-92625301D01*
X129114354Y-92625304D01*
X129171950Y-92738342D01*
X129171952Y-92738344D01*
X129171954Y-92738347D01*
X129261652Y-92828045D01*
X129261654Y-92828046D01*
X129261658Y-92828050D01*
X129374696Y-92885646D01*
X129374697Y-92885646D01*
X129374699Y-92885647D01*
X129499997Y-92905492D01*
X129500000Y-92905492D01*
X129500003Y-92905492D01*
X129625300Y-92885647D01*
X129625301Y-92885647D01*
X129625302Y-92885646D01*
X129625304Y-92885646D01*
X129738342Y-92828050D01*
X129756389Y-92810003D01*
X144844508Y-92810003D01*
X144864352Y-92935300D01*
X144864352Y-92935301D01*
X144878398Y-92962867D01*
X144921950Y-93048342D01*
X144921952Y-93048344D01*
X144921954Y-93048347D01*
X145011652Y-93138045D01*
X145011654Y-93138046D01*
X145011658Y-93138050D01*
X145124696Y-93195646D01*
X145124697Y-93195646D01*
X145124699Y-93195647D01*
X145249997Y-93215492D01*
X145250000Y-93215492D01*
X145250003Y-93215492D01*
X145375300Y-93195647D01*
X145375301Y-93195647D01*
X145375302Y-93195646D01*
X145375304Y-93195646D01*
X145488342Y-93138050D01*
X145578050Y-93048342D01*
X145635646Y-92935304D01*
X145635646Y-92935302D01*
X145635647Y-92935301D01*
X145635647Y-92935300D01*
X145655492Y-92810003D01*
X146594508Y-92810003D01*
X146614352Y-92935300D01*
X146614352Y-92935301D01*
X146628398Y-92962867D01*
X146671950Y-93048342D01*
X146671952Y-93048344D01*
X146671954Y-93048347D01*
X146761652Y-93138045D01*
X146761654Y-93138046D01*
X146761658Y-93138050D01*
X146874696Y-93195646D01*
X146874697Y-93195646D01*
X146874699Y-93195647D01*
X146999997Y-93215492D01*
X147000000Y-93215492D01*
X147000003Y-93215492D01*
X147125300Y-93195647D01*
X147125301Y-93195647D01*
X147125302Y-93195646D01*
X147125304Y-93195646D01*
X147238342Y-93138050D01*
X147328050Y-93048342D01*
X147385646Y-92935304D01*
X147385646Y-92935302D01*
X147385647Y-92935301D01*
X147385647Y-92935300D01*
X147405492Y-92810003D01*
X147405492Y-92809996D01*
X147385647Y-92684699D01*
X147385647Y-92684698D01*
X147385646Y-92684696D01*
X147328050Y-92571658D01*
X147328046Y-92571654D01*
X147328045Y-92571652D01*
X147238347Y-92481954D01*
X147238344Y-92481952D01*
X147238342Y-92481950D01*
X147125304Y-92424354D01*
X147125303Y-92424353D01*
X147125300Y-92424352D01*
X147000003Y-92404508D01*
X146999997Y-92404508D01*
X146874699Y-92424352D01*
X146874698Y-92424352D01*
X146799337Y-92462751D01*
X146761658Y-92481950D01*
X146761657Y-92481951D01*
X146761652Y-92481954D01*
X146671954Y-92571652D01*
X146671951Y-92571657D01*
X146671950Y-92571658D01*
X146652751Y-92609337D01*
X146614352Y-92684698D01*
X146614352Y-92684699D01*
X146594508Y-92809996D01*
X146594508Y-92810003D01*
X145655492Y-92810003D01*
X145655492Y-92809996D01*
X145635647Y-92684699D01*
X145635647Y-92684698D01*
X145635646Y-92684696D01*
X145578050Y-92571658D01*
X145578046Y-92571654D01*
X145578045Y-92571652D01*
X145488347Y-92481954D01*
X145488344Y-92481952D01*
X145488342Y-92481950D01*
X145375304Y-92424354D01*
X145375303Y-92424353D01*
X145375300Y-92424352D01*
X145250003Y-92404508D01*
X145249997Y-92404508D01*
X145124699Y-92424352D01*
X145124698Y-92424352D01*
X145049337Y-92462751D01*
X145011658Y-92481950D01*
X145011657Y-92481951D01*
X145011652Y-92481954D01*
X144921954Y-92571652D01*
X144921951Y-92571657D01*
X144921950Y-92571658D01*
X144902751Y-92609337D01*
X144864352Y-92684698D01*
X144864352Y-92684699D01*
X144844508Y-92809996D01*
X144844508Y-92810003D01*
X129756389Y-92810003D01*
X129828050Y-92738342D01*
X129885646Y-92625304D01*
X129885646Y-92625302D01*
X129885647Y-92625301D01*
X129885647Y-92625300D01*
X129905492Y-92500003D01*
X129905492Y-92499996D01*
X129885647Y-92374699D01*
X129885647Y-92374698D01*
X129869410Y-92342832D01*
X129828050Y-92261658D01*
X129828046Y-92261654D01*
X129828045Y-92261652D01*
X129738347Y-92171954D01*
X129738344Y-92171952D01*
X129738342Y-92171950D01*
X129625304Y-92114354D01*
X129625303Y-92114353D01*
X129625300Y-92114352D01*
X129500003Y-92094508D01*
X129499997Y-92094508D01*
X129374699Y-92114352D01*
X129374698Y-92114352D01*
X129305053Y-92149839D01*
X129261658Y-92171950D01*
X129261657Y-92171951D01*
X129261652Y-92171954D01*
X129171954Y-92261652D01*
X129171951Y-92261657D01*
X129171950Y-92261658D01*
X129160335Y-92284454D01*
X129114352Y-92374698D01*
X129114352Y-92374699D01*
X129094508Y-92499996D01*
X129094508Y-92500003D01*
X106646525Y-92500003D01*
X106636727Y-92447831D01*
X106663003Y-92383090D01*
X106720109Y-92342832D01*
X106789914Y-92339840D01*
X106795043Y-92341227D01*
X106804286Y-92343941D01*
X106804287Y-92343941D01*
X106933832Y-92343941D01*
X106933832Y-92343940D01*
X107058128Y-92307445D01*
X107167108Y-92237408D01*
X107251941Y-92139504D01*
X107305756Y-92021667D01*
X107324192Y-91893441D01*
X107305756Y-91765215D01*
X107298807Y-91750000D01*
X132294867Y-91750000D01*
X132313302Y-91878225D01*
X132349032Y-91956461D01*
X132367118Y-91996063D01*
X132451951Y-92093967D01*
X132560931Y-92164004D01*
X132587997Y-92171951D01*
X132685225Y-92200499D01*
X132685227Y-92200500D01*
X132685228Y-92200500D01*
X132814773Y-92200500D01*
X132814773Y-92200499D01*
X132939069Y-92164004D01*
X133048049Y-92093967D01*
X133132882Y-91996063D01*
X133186697Y-91878226D01*
X133205133Y-91750000D01*
X133186697Y-91621774D01*
X133132882Y-91503937D01*
X133081009Y-91444071D01*
X143169499Y-91444071D01*
X143194497Y-91569738D01*
X143194499Y-91569744D01*
X143243533Y-91688124D01*
X143243538Y-91688133D01*
X143314723Y-91794668D01*
X143314726Y-91794672D01*
X143405327Y-91885273D01*
X143405331Y-91885276D01*
X143511866Y-91956461D01*
X143511875Y-91956466D01*
X143538692Y-91967574D01*
X143630256Y-92005501D01*
X143630260Y-92005501D01*
X143630261Y-92005502D01*
X143755928Y-92030500D01*
X143755931Y-92030500D01*
X144984071Y-92030500D01*
X145068615Y-92013682D01*
X145109744Y-92005501D01*
X145228127Y-91956465D01*
X145334669Y-91885276D01*
X145425276Y-91794669D01*
X145496465Y-91688127D01*
X145545501Y-91569744D01*
X145558591Y-91503937D01*
X145570500Y-91444071D01*
X145570500Y-91315928D01*
X145545502Y-91190261D01*
X145545501Y-91190260D01*
X145545501Y-91190256D01*
X145496465Y-91071873D01*
X145496464Y-91071872D01*
X145496461Y-91071866D01*
X145425276Y-90965331D01*
X145425273Y-90965327D01*
X145334672Y-90874726D01*
X145334668Y-90874723D01*
X145228133Y-90803538D01*
X145228124Y-90803533D01*
X145109744Y-90754499D01*
X145109739Y-90754497D01*
X145063929Y-90745385D01*
X145002019Y-90712999D01*
X144967445Y-90652283D01*
X144971186Y-90582513D01*
X145012053Y-90525842D01*
X145056027Y-90503994D01*
X145122135Y-90486281D01*
X145253365Y-90410515D01*
X145360515Y-90303365D01*
X145436281Y-90172135D01*
X145475500Y-90025766D01*
X145475500Y-89874234D01*
X145436281Y-89727865D01*
X145360515Y-89596635D01*
X145253365Y-89489485D01*
X145187750Y-89451602D01*
X145122136Y-89413719D01*
X145048950Y-89394109D01*
X144975766Y-89374500D01*
X144824234Y-89374500D01*
X144677863Y-89413719D01*
X144546635Y-89489485D01*
X144546632Y-89489487D01*
X144439487Y-89596632D01*
X144439485Y-89596635D01*
X144363719Y-89727863D01*
X144324500Y-89874234D01*
X144324500Y-90025765D01*
X144363719Y-90172136D01*
X144401602Y-90237750D01*
X144439485Y-90303365D01*
X144546635Y-90410515D01*
X144677863Y-90486280D01*
X144677865Y-90486281D01*
X144685369Y-90489389D01*
X144684650Y-90491124D01*
X144735453Y-90522091D01*
X144765981Y-90584938D01*
X144757686Y-90654314D01*
X144713200Y-90708191D01*
X144646648Y-90729465D01*
X144643698Y-90729500D01*
X143755929Y-90729500D01*
X143630261Y-90754497D01*
X143630255Y-90754499D01*
X143511875Y-90803533D01*
X143511866Y-90803538D01*
X143405331Y-90874723D01*
X143405327Y-90874726D01*
X143314726Y-90965327D01*
X143314723Y-90965331D01*
X143243538Y-91071866D01*
X143243533Y-91071875D01*
X143194499Y-91190255D01*
X143194497Y-91190261D01*
X143169500Y-91315928D01*
X143169500Y-91315931D01*
X143169500Y-91444069D01*
X143169500Y-91444071D01*
X143169499Y-91444071D01*
X133081009Y-91444071D01*
X133048049Y-91406033D01*
X132939069Y-91335996D01*
X132939065Y-91335994D01*
X132939064Y-91335994D01*
X132814774Y-91299500D01*
X132814772Y-91299500D01*
X132685228Y-91299500D01*
X132685226Y-91299500D01*
X132560935Y-91335994D01*
X132560932Y-91335995D01*
X132560931Y-91335996D01*
X132509677Y-91368934D01*
X132451950Y-91406033D01*
X132367118Y-91503937D01*
X132367117Y-91503938D01*
X132313302Y-91621774D01*
X132294867Y-91750000D01*
X107298807Y-91750000D01*
X107251941Y-91647378D01*
X107167108Y-91549474D01*
X107058128Y-91479437D01*
X107058124Y-91479435D01*
X107058123Y-91479435D01*
X106933833Y-91442941D01*
X106933831Y-91442941D01*
X106804287Y-91442941D01*
X106804285Y-91442941D01*
X106679994Y-91479435D01*
X106679991Y-91479436D01*
X106679990Y-91479437D01*
X106666134Y-91488342D01*
X106571009Y-91549474D01*
X106486177Y-91647378D01*
X106486176Y-91647379D01*
X106432361Y-91765215D01*
X106413926Y-91893441D01*
X106432361Y-92021666D01*
X106487195Y-92141734D01*
X106497139Y-92210893D01*
X106468114Y-92274449D01*
X106409336Y-92312223D01*
X106355004Y-92315719D01*
X106300003Y-92307008D01*
X106299997Y-92307008D01*
X106174699Y-92326852D01*
X106174698Y-92326852D01*
X106111818Y-92358892D01*
X106061658Y-92384450D01*
X106061657Y-92384451D01*
X106061652Y-92384454D01*
X105971954Y-92474152D01*
X105971951Y-92474157D01*
X105971950Y-92474158D01*
X105958785Y-92499996D01*
X105914352Y-92587198D01*
X105914352Y-92587199D01*
X105894508Y-92712496D01*
X105894508Y-92712503D01*
X104364654Y-92712503D01*
X104380492Y-92612503D01*
X104380492Y-92612496D01*
X104360647Y-92487199D01*
X104360647Y-92487198D01*
X104357975Y-92481954D01*
X104303050Y-92374158D01*
X104303046Y-92374154D01*
X104303045Y-92374152D01*
X104213347Y-92284454D01*
X104213344Y-92284452D01*
X104213342Y-92284450D01*
X104100304Y-92226854D01*
X104100303Y-92226853D01*
X104100300Y-92226852D01*
X103975003Y-92207008D01*
X103974997Y-92207008D01*
X103849699Y-92226852D01*
X103849698Y-92226852D01*
X103774337Y-92265251D01*
X103736658Y-92284450D01*
X103736657Y-92284451D01*
X103736652Y-92284454D01*
X103690713Y-92330393D01*
X103629390Y-92363877D01*
X103559698Y-92358892D01*
X103503765Y-92317020D01*
X103492550Y-92299010D01*
X103491600Y-92297145D01*
X103491597Y-92297142D01*
X103491595Y-92297139D01*
X103401897Y-92207441D01*
X103401894Y-92207439D01*
X103401892Y-92207437D01*
X103288854Y-92149841D01*
X103288853Y-92149840D01*
X103288850Y-92149839D01*
X103163553Y-92129995D01*
X103163547Y-92129995D01*
X103038249Y-92149839D01*
X103038248Y-92149839D01*
X102962887Y-92188238D01*
X102925208Y-92207437D01*
X102925207Y-92207438D01*
X102925202Y-92207441D01*
X102835504Y-92297139D01*
X102835501Y-92297144D01*
X102835500Y-92297145D01*
X102818559Y-92330393D01*
X102777902Y-92410185D01*
X102777902Y-92410186D01*
X102758058Y-92535483D01*
X102758058Y-92535490D01*
X90300500Y-92535490D01*
X90300500Y-91250003D01*
X129094508Y-91250003D01*
X129114352Y-91375300D01*
X129114352Y-91375301D01*
X129114354Y-91375304D01*
X129171950Y-91488342D01*
X129171952Y-91488344D01*
X129171954Y-91488347D01*
X129261652Y-91578045D01*
X129261654Y-91578046D01*
X129261658Y-91578050D01*
X129374696Y-91635646D01*
X129374697Y-91635646D01*
X129374699Y-91635647D01*
X129499997Y-91655492D01*
X129500000Y-91655492D01*
X129500003Y-91655492D01*
X129625300Y-91635647D01*
X129625301Y-91635647D01*
X129625302Y-91635646D01*
X129625304Y-91635646D01*
X129738342Y-91578050D01*
X129828050Y-91488342D01*
X129885646Y-91375304D01*
X129885646Y-91375302D01*
X129885647Y-91375301D01*
X129885647Y-91375300D01*
X129905492Y-91250003D01*
X129905492Y-91249996D01*
X129885647Y-91124699D01*
X129885647Y-91124698D01*
X129876959Y-91107647D01*
X129828050Y-91011658D01*
X129828046Y-91011654D01*
X129828045Y-91011652D01*
X129738347Y-90921954D01*
X129738344Y-90921952D01*
X129738342Y-90921950D01*
X129625304Y-90864354D01*
X129625303Y-90864353D01*
X129625300Y-90864352D01*
X129500003Y-90844508D01*
X129499997Y-90844508D01*
X129374699Y-90864352D01*
X129374698Y-90864352D01*
X129299337Y-90902751D01*
X129261658Y-90921950D01*
X129261657Y-90921951D01*
X129261652Y-90921954D01*
X129171954Y-91011652D01*
X129171951Y-91011657D01*
X129114352Y-91124698D01*
X129114352Y-91124699D01*
X129094508Y-91249996D01*
X129094508Y-91250003D01*
X90300500Y-91250003D01*
X90300500Y-90750003D01*
X118844508Y-90750003D01*
X118864352Y-90875300D01*
X118864352Y-90875301D01*
X118864354Y-90875304D01*
X118921950Y-90988342D01*
X118921952Y-90988344D01*
X118921954Y-90988347D01*
X119011652Y-91078045D01*
X119011654Y-91078046D01*
X119011658Y-91078050D01*
X119124696Y-91135646D01*
X119124697Y-91135646D01*
X119124699Y-91135647D01*
X119249997Y-91155492D01*
X119250000Y-91155492D01*
X119250003Y-91155492D01*
X119375300Y-91135647D01*
X119375301Y-91135647D01*
X119375302Y-91135646D01*
X119375304Y-91135646D01*
X119488342Y-91078050D01*
X119578050Y-90988342D01*
X119635646Y-90875304D01*
X119635646Y-90875302D01*
X119635647Y-90875301D01*
X119635647Y-90875300D01*
X119655492Y-90750003D01*
X119655492Y-90749996D01*
X119635647Y-90624699D01*
X119635647Y-90624698D01*
X119615388Y-90584938D01*
X119578050Y-90511658D01*
X119578046Y-90511654D01*
X119578045Y-90511652D01*
X119488347Y-90421954D01*
X119488344Y-90421952D01*
X119488342Y-90421950D01*
X119375304Y-90364354D01*
X119375303Y-90364353D01*
X119375300Y-90364352D01*
X119250003Y-90344508D01*
X119249997Y-90344508D01*
X119124699Y-90364352D01*
X119124698Y-90364352D01*
X119049337Y-90402751D01*
X119011658Y-90421950D01*
X119011657Y-90421951D01*
X119011652Y-90421954D01*
X118921954Y-90511652D01*
X118921951Y-90511657D01*
X118864352Y-90624698D01*
X118864352Y-90624699D01*
X118844508Y-90749996D01*
X118844508Y-90750003D01*
X90300500Y-90750003D01*
X90300500Y-90125003D01*
X128969508Y-90125003D01*
X128989352Y-90250300D01*
X128989352Y-90250301D01*
X128989354Y-90250304D01*
X129046950Y-90363342D01*
X129046952Y-90363344D01*
X129046954Y-90363347D01*
X129136652Y-90453045D01*
X129136654Y-90453046D01*
X129136658Y-90453050D01*
X129249696Y-90510646D01*
X129249697Y-90510646D01*
X129249699Y-90510647D01*
X129374997Y-90530492D01*
X129375000Y-90530492D01*
X129375003Y-90530492D01*
X129500300Y-90510647D01*
X129500301Y-90510647D01*
X129500302Y-90510646D01*
X129500304Y-90510646D01*
X129613342Y-90453050D01*
X129703050Y-90363342D01*
X129760646Y-90250304D01*
X129760646Y-90250302D01*
X129760647Y-90250301D01*
X129760647Y-90250300D01*
X129780492Y-90125003D01*
X129780492Y-90124996D01*
X129760647Y-89999699D01*
X129760647Y-89999698D01*
X129760646Y-89999696D01*
X129703050Y-89886658D01*
X129703046Y-89886654D01*
X129703045Y-89886652D01*
X129613347Y-89796954D01*
X129613344Y-89796952D01*
X129613342Y-89796950D01*
X129500304Y-89739354D01*
X129500303Y-89739353D01*
X129500300Y-89739352D01*
X129375003Y-89719508D01*
X129374997Y-89719508D01*
X129249699Y-89739352D01*
X129249698Y-89739352D01*
X129174337Y-89777751D01*
X129136658Y-89796950D01*
X129136657Y-89796951D01*
X129136652Y-89796954D01*
X129046954Y-89886652D01*
X129046951Y-89886657D01*
X128989352Y-89999698D01*
X128989352Y-89999699D01*
X128969508Y-90124996D01*
X128969508Y-90125003D01*
X90300500Y-90125003D01*
X90300500Y-89012500D01*
X108044867Y-89012500D01*
X108063302Y-89140725D01*
X108070046Y-89155492D01*
X108117118Y-89258563D01*
X108201951Y-89356467D01*
X108310931Y-89426504D01*
X108435225Y-89462999D01*
X108435227Y-89463000D01*
X108435228Y-89463000D01*
X108564773Y-89463000D01*
X108564773Y-89462999D01*
X108689069Y-89426504D01*
X108798049Y-89356467D01*
X108882882Y-89258563D01*
X108936697Y-89140726D01*
X108955133Y-89012500D01*
X108936697Y-88884274D01*
X108882882Y-88766437D01*
X108868642Y-88750003D01*
X129344508Y-88750003D01*
X129364352Y-88875300D01*
X129364352Y-88875301D01*
X129364354Y-88875304D01*
X129421950Y-88988342D01*
X129421952Y-88988344D01*
X129421954Y-88988347D01*
X129511652Y-89078045D01*
X129511654Y-89078046D01*
X129511658Y-89078050D01*
X129624696Y-89135646D01*
X129624697Y-89135646D01*
X129624699Y-89135647D01*
X129749997Y-89155492D01*
X129750000Y-89155492D01*
X129750003Y-89155492D01*
X129875300Y-89135647D01*
X129875301Y-89135647D01*
X129875302Y-89135646D01*
X129875304Y-89135646D01*
X129988342Y-89078050D01*
X130078050Y-88988342D01*
X130135646Y-88875304D01*
X130135646Y-88875302D01*
X130135647Y-88875301D01*
X130135647Y-88875300D01*
X130155492Y-88750003D01*
X130155492Y-88749996D01*
X130135647Y-88624699D01*
X130135647Y-88624698D01*
X130122295Y-88598494D01*
X130078050Y-88511658D01*
X130078046Y-88511654D01*
X130078045Y-88511652D01*
X129988347Y-88421954D01*
X129988344Y-88421952D01*
X129988342Y-88421950D01*
X129875304Y-88364354D01*
X129875303Y-88364353D01*
X129875300Y-88364352D01*
X129750003Y-88344508D01*
X129749997Y-88344508D01*
X129624699Y-88364352D01*
X129624698Y-88364352D01*
X129549337Y-88402751D01*
X129511658Y-88421950D01*
X129511657Y-88421951D01*
X129511652Y-88421954D01*
X129421954Y-88511652D01*
X129421951Y-88511657D01*
X129364352Y-88624698D01*
X129364352Y-88624699D01*
X129344508Y-88749996D01*
X129344508Y-88750003D01*
X108868642Y-88750003D01*
X108798049Y-88668533D01*
X108689069Y-88598496D01*
X108689065Y-88598494D01*
X108689064Y-88598494D01*
X108564774Y-88562000D01*
X108564772Y-88562000D01*
X108435228Y-88562000D01*
X108435226Y-88562000D01*
X108310935Y-88598494D01*
X108310932Y-88598495D01*
X108310931Y-88598496D01*
X108270163Y-88624696D01*
X108201950Y-88668533D01*
X108117118Y-88766437D01*
X108117117Y-88766438D01*
X108063302Y-88884274D01*
X108044867Y-89012500D01*
X90300500Y-89012500D01*
X90300500Y-88310003D01*
X141844508Y-88310003D01*
X141864352Y-88435300D01*
X141864352Y-88435301D01*
X141864354Y-88435304D01*
X141921950Y-88548342D01*
X141921952Y-88548344D01*
X141921954Y-88548347D01*
X142011652Y-88638045D01*
X142011654Y-88638046D01*
X142011658Y-88638050D01*
X142124696Y-88695646D01*
X142124697Y-88695646D01*
X142124699Y-88695647D01*
X142249997Y-88715492D01*
X142250000Y-88715492D01*
X142250003Y-88715492D01*
X142375300Y-88695647D01*
X142375301Y-88695647D01*
X142375302Y-88695646D01*
X142375304Y-88695646D01*
X142488342Y-88638050D01*
X142578050Y-88548342D01*
X142635646Y-88435304D01*
X142635646Y-88435302D01*
X142635647Y-88435301D01*
X142635647Y-88435300D01*
X142655492Y-88310003D01*
X142655492Y-88309996D01*
X142635647Y-88184699D01*
X142635647Y-88184698D01*
X142625103Y-88164004D01*
X142578050Y-88071658D01*
X142578046Y-88071654D01*
X142578045Y-88071652D01*
X142488347Y-87981954D01*
X142488344Y-87981952D01*
X142488342Y-87981950D01*
X142375304Y-87924354D01*
X142375303Y-87924353D01*
X142375300Y-87924352D01*
X142250003Y-87904508D01*
X142249997Y-87904508D01*
X142124699Y-87924352D01*
X142124698Y-87924352D01*
X142049337Y-87962751D01*
X142011658Y-87981950D01*
X142011657Y-87981951D01*
X142011652Y-87981954D01*
X141921954Y-88071652D01*
X141921951Y-88071657D01*
X141921950Y-88071658D01*
X141910583Y-88093967D01*
X141864352Y-88184698D01*
X141864352Y-88184699D01*
X141844508Y-88309996D01*
X141844508Y-88310003D01*
X90300500Y-88310003D01*
X90300500Y-87750000D01*
X108544867Y-87750000D01*
X108563302Y-87878225D01*
X108617117Y-87996061D01*
X108617118Y-87996063D01*
X108701951Y-88093967D01*
X108810931Y-88164004D01*
X108935225Y-88200499D01*
X108935227Y-88200500D01*
X108935228Y-88200500D01*
X109064773Y-88200500D01*
X109064773Y-88200499D01*
X109189069Y-88164004D01*
X109298049Y-88093967D01*
X109382882Y-87996063D01*
X109436697Y-87878226D01*
X109455133Y-87750000D01*
X109436697Y-87621774D01*
X109382882Y-87503937D01*
X109298049Y-87406033D01*
X109189069Y-87335996D01*
X109189065Y-87335994D01*
X109189064Y-87335994D01*
X109064774Y-87299500D01*
X109064772Y-87299500D01*
X108935228Y-87299500D01*
X108935226Y-87299500D01*
X108810935Y-87335994D01*
X108810932Y-87335995D01*
X108810931Y-87335996D01*
X108759677Y-87368934D01*
X108701950Y-87406033D01*
X108617118Y-87503937D01*
X108617117Y-87503938D01*
X108563302Y-87621774D01*
X108544867Y-87750000D01*
X90300500Y-87750000D01*
X90300500Y-87286264D01*
X98934452Y-87286264D01*
X98952887Y-87414489D01*
X98993738Y-87503938D01*
X99006703Y-87532327D01*
X99091536Y-87630231D01*
X99200516Y-87700268D01*
X99324810Y-87736763D01*
X99324812Y-87736764D01*
X99324813Y-87736764D01*
X99454358Y-87736764D01*
X99454358Y-87736763D01*
X99578654Y-87700268D01*
X99687634Y-87630231D01*
X99772467Y-87532327D01*
X99826282Y-87414490D01*
X99844718Y-87286264D01*
X99826282Y-87158038D01*
X99772467Y-87040201D01*
X99737636Y-87000003D01*
X106844508Y-87000003D01*
X106864352Y-87125300D01*
X106864352Y-87125301D01*
X106881033Y-87158038D01*
X106921950Y-87238342D01*
X106921952Y-87238344D01*
X106921954Y-87238347D01*
X107011652Y-87328045D01*
X107011654Y-87328046D01*
X107011658Y-87328050D01*
X107124696Y-87385646D01*
X107124697Y-87385646D01*
X107124699Y-87385647D01*
X107249997Y-87405492D01*
X107250000Y-87405492D01*
X107250003Y-87405492D01*
X107375300Y-87385647D01*
X107375301Y-87385647D01*
X107375302Y-87385646D01*
X107375304Y-87385646D01*
X107488342Y-87328050D01*
X107566389Y-87250003D01*
X114844508Y-87250003D01*
X114864352Y-87375300D01*
X114864352Y-87375301D01*
X114869624Y-87385647D01*
X114921950Y-87488342D01*
X114921952Y-87488344D01*
X114921954Y-87488347D01*
X115011652Y-87578045D01*
X115011654Y-87578046D01*
X115011658Y-87578050D01*
X115124696Y-87635646D01*
X115124697Y-87635646D01*
X115124699Y-87635647D01*
X115249997Y-87655492D01*
X115250000Y-87655492D01*
X115250003Y-87655492D01*
X115375300Y-87635647D01*
X115375301Y-87635647D01*
X115375302Y-87635646D01*
X115375304Y-87635646D01*
X115488342Y-87578050D01*
X115578050Y-87488342D01*
X115635646Y-87375304D01*
X115635646Y-87375302D01*
X115635647Y-87375301D01*
X115635647Y-87375300D01*
X115655492Y-87250003D01*
X115655492Y-87249996D01*
X115635647Y-87124699D01*
X115635647Y-87124698D01*
X115635646Y-87124696D01*
X115578050Y-87011658D01*
X115578046Y-87011654D01*
X115578045Y-87011652D01*
X115566393Y-87000000D01*
X135044867Y-87000000D01*
X135063302Y-87128225D01*
X135113592Y-87238342D01*
X135117118Y-87246063D01*
X135201951Y-87343967D01*
X135310931Y-87414004D01*
X135435225Y-87450499D01*
X135435227Y-87450500D01*
X135435228Y-87450500D01*
X135564773Y-87450500D01*
X135564773Y-87450499D01*
X135689069Y-87414004D01*
X135798049Y-87343967D01*
X135882882Y-87246063D01*
X135936697Y-87128226D01*
X135955133Y-87000000D01*
X135936697Y-86871774D01*
X135882882Y-86753937D01*
X135798049Y-86656033D01*
X135689069Y-86585996D01*
X135689065Y-86585994D01*
X135689064Y-86585994D01*
X135564774Y-86549500D01*
X135564772Y-86549500D01*
X135435228Y-86549500D01*
X135435226Y-86549500D01*
X135310935Y-86585994D01*
X135310932Y-86585995D01*
X135310931Y-86585996D01*
X135266808Y-86614352D01*
X135201950Y-86656033D01*
X135117118Y-86753937D01*
X135117117Y-86753938D01*
X135063302Y-86871774D01*
X135044867Y-87000000D01*
X115566393Y-87000000D01*
X115488347Y-86921954D01*
X115488344Y-86921952D01*
X115488342Y-86921950D01*
X115375304Y-86864354D01*
X115375303Y-86864353D01*
X115375300Y-86864352D01*
X115250003Y-86844508D01*
X115249997Y-86844508D01*
X115124699Y-86864352D01*
X115124698Y-86864352D01*
X115055718Y-86899500D01*
X115011658Y-86921950D01*
X115011657Y-86921951D01*
X115011652Y-86921954D01*
X114921954Y-87011652D01*
X114921951Y-87011657D01*
X114864352Y-87124698D01*
X114864352Y-87124699D01*
X114844508Y-87249996D01*
X114844508Y-87250003D01*
X107566389Y-87250003D01*
X107578050Y-87238342D01*
X107635646Y-87125304D01*
X107635646Y-87125302D01*
X107635647Y-87125301D01*
X107635647Y-87125300D01*
X107655492Y-87000003D01*
X107655492Y-86999999D01*
X107647039Y-86946631D01*
X107655993Y-86877337D01*
X107700989Y-86823885D01*
X107767741Y-86803245D01*
X107769770Y-86803390D01*
X107769770Y-86803273D01*
X107779532Y-86803273D01*
X107904829Y-86783428D01*
X107904830Y-86783428D01*
X107904831Y-86783427D01*
X107904833Y-86783427D01*
X108017871Y-86725831D01*
X108107579Y-86636123D01*
X108165175Y-86523085D01*
X108165175Y-86523083D01*
X108165176Y-86523082D01*
X108165176Y-86523081D01*
X108168831Y-86500003D01*
X116344508Y-86500003D01*
X116364352Y-86625300D01*
X116364352Y-86625301D01*
X116369869Y-86636128D01*
X116421950Y-86738342D01*
X116421952Y-86738344D01*
X116421954Y-86738347D01*
X116511652Y-86828045D01*
X116511654Y-86828046D01*
X116511658Y-86828050D01*
X116624696Y-86885646D01*
X116624697Y-86885646D01*
X116624699Y-86885647D01*
X116749997Y-86905492D01*
X116750000Y-86905492D01*
X116750003Y-86905492D01*
X116875300Y-86885647D01*
X116875301Y-86885647D01*
X116875302Y-86885646D01*
X116875304Y-86885646D01*
X116988342Y-86828050D01*
X117078050Y-86738342D01*
X117135646Y-86625304D01*
X117135646Y-86625302D01*
X117135647Y-86625301D01*
X117135647Y-86625300D01*
X117155492Y-86500003D01*
X117844508Y-86500003D01*
X117864352Y-86625300D01*
X117864352Y-86625301D01*
X117869869Y-86636128D01*
X117921950Y-86738342D01*
X117921952Y-86738344D01*
X117921954Y-86738347D01*
X118011652Y-86828045D01*
X118011654Y-86828046D01*
X118011658Y-86828050D01*
X118124696Y-86885646D01*
X118124697Y-86885646D01*
X118124699Y-86885647D01*
X118249997Y-86905492D01*
X118250000Y-86905492D01*
X118250003Y-86905492D01*
X118375300Y-86885647D01*
X118375301Y-86885647D01*
X118375302Y-86885646D01*
X118375304Y-86885646D01*
X118488342Y-86828050D01*
X118578050Y-86738342D01*
X118635646Y-86625304D01*
X118635646Y-86625302D01*
X118635647Y-86625301D01*
X118635647Y-86625300D01*
X118655492Y-86500003D01*
X118655492Y-86499996D01*
X118635647Y-86374699D01*
X118635647Y-86374698D01*
X118623064Y-86350003D01*
X118578050Y-86261658D01*
X118578046Y-86261654D01*
X118578045Y-86261652D01*
X118566396Y-86250003D01*
X121594508Y-86250003D01*
X121614352Y-86375300D01*
X121614352Y-86375301D01*
X121625808Y-86397784D01*
X121671950Y-86488342D01*
X121671952Y-86488344D01*
X121671954Y-86488347D01*
X121761652Y-86578045D01*
X121761654Y-86578046D01*
X121761658Y-86578050D01*
X121874696Y-86635646D01*
X121874697Y-86635646D01*
X121874699Y-86635647D01*
X121999997Y-86655492D01*
X122000000Y-86655492D01*
X122000003Y-86655492D01*
X122125300Y-86635647D01*
X122125301Y-86635647D01*
X122125302Y-86635646D01*
X122125304Y-86635646D01*
X122238342Y-86578050D01*
X122328050Y-86488342D01*
X122385646Y-86375304D01*
X122385646Y-86375302D01*
X122385647Y-86375301D01*
X122385647Y-86375300D01*
X122405492Y-86250003D01*
X122844508Y-86250003D01*
X122864352Y-86375300D01*
X122864352Y-86375301D01*
X122875808Y-86397784D01*
X122921950Y-86488342D01*
X122921952Y-86488344D01*
X122921954Y-86488347D01*
X123011652Y-86578045D01*
X123011654Y-86578046D01*
X123011658Y-86578050D01*
X123124696Y-86635646D01*
X123124697Y-86635646D01*
X123124699Y-86635647D01*
X123249997Y-86655492D01*
X123250000Y-86655492D01*
X123250003Y-86655492D01*
X123375300Y-86635647D01*
X123375301Y-86635647D01*
X123375302Y-86635646D01*
X123375304Y-86635646D01*
X123488342Y-86578050D01*
X123578050Y-86488342D01*
X123635646Y-86375304D01*
X123635646Y-86375302D01*
X123635647Y-86375301D01*
X123635647Y-86375300D01*
X123655492Y-86250003D01*
X124094508Y-86250003D01*
X124114352Y-86375300D01*
X124114352Y-86375301D01*
X124125808Y-86397784D01*
X124171950Y-86488342D01*
X124171952Y-86488344D01*
X124171954Y-86488347D01*
X124261652Y-86578045D01*
X124261654Y-86578046D01*
X124261658Y-86578050D01*
X124374696Y-86635646D01*
X124374697Y-86635646D01*
X124374699Y-86635647D01*
X124499997Y-86655492D01*
X124500000Y-86655492D01*
X124500003Y-86655492D01*
X124625300Y-86635647D01*
X124625301Y-86635647D01*
X124625302Y-86635646D01*
X124625304Y-86635646D01*
X124738342Y-86578050D01*
X124828050Y-86488342D01*
X124885646Y-86375304D01*
X124885646Y-86375302D01*
X124885647Y-86375301D01*
X124885647Y-86375300D01*
X124905492Y-86250003D01*
X124905492Y-86249996D01*
X124885647Y-86124699D01*
X124885647Y-86124698D01*
X124866695Y-86087503D01*
X124828050Y-86011658D01*
X124828046Y-86011654D01*
X124828045Y-86011652D01*
X124738347Y-85921954D01*
X124738344Y-85921952D01*
X124738342Y-85921950D01*
X124625304Y-85864354D01*
X124625303Y-85864353D01*
X124625300Y-85864352D01*
X124500003Y-85844508D01*
X124499997Y-85844508D01*
X124374699Y-85864352D01*
X124374698Y-85864352D01*
X124299337Y-85902751D01*
X124261658Y-85921950D01*
X124261657Y-85921951D01*
X124261652Y-85921954D01*
X124171954Y-86011652D01*
X124171951Y-86011657D01*
X124171950Y-86011658D01*
X124166704Y-86021954D01*
X124114352Y-86124698D01*
X124114352Y-86124699D01*
X124094508Y-86249996D01*
X124094508Y-86250003D01*
X123655492Y-86250003D01*
X123655492Y-86249996D01*
X123635647Y-86124699D01*
X123635647Y-86124698D01*
X123616695Y-86087503D01*
X123578050Y-86011658D01*
X123578046Y-86011654D01*
X123578045Y-86011652D01*
X123488347Y-85921954D01*
X123488344Y-85921952D01*
X123488342Y-85921950D01*
X123375304Y-85864354D01*
X123375303Y-85864353D01*
X123375300Y-85864352D01*
X123250003Y-85844508D01*
X123249997Y-85844508D01*
X123124699Y-85864352D01*
X123124698Y-85864352D01*
X123049337Y-85902751D01*
X123011658Y-85921950D01*
X123011657Y-85921951D01*
X123011652Y-85921954D01*
X122921954Y-86011652D01*
X122921951Y-86011657D01*
X122921950Y-86011658D01*
X122916704Y-86021954D01*
X122864352Y-86124698D01*
X122864352Y-86124699D01*
X122844508Y-86249996D01*
X122844508Y-86250003D01*
X122405492Y-86250003D01*
X122405492Y-86249996D01*
X122385647Y-86124699D01*
X122385647Y-86124698D01*
X122366695Y-86087503D01*
X122328050Y-86011658D01*
X122328046Y-86011654D01*
X122328045Y-86011652D01*
X122238347Y-85921954D01*
X122238344Y-85921952D01*
X122238342Y-85921950D01*
X122125304Y-85864354D01*
X122125303Y-85864353D01*
X122125300Y-85864352D01*
X122000003Y-85844508D01*
X121999997Y-85844508D01*
X121874699Y-85864352D01*
X121874698Y-85864352D01*
X121799337Y-85902751D01*
X121761658Y-85921950D01*
X121761657Y-85921951D01*
X121761652Y-85921954D01*
X121671954Y-86011652D01*
X121671951Y-86011657D01*
X121671950Y-86011658D01*
X121666704Y-86021954D01*
X121614352Y-86124698D01*
X121614352Y-86124699D01*
X121594508Y-86249996D01*
X121594508Y-86250003D01*
X118566396Y-86250003D01*
X118488347Y-86171954D01*
X118488344Y-86171952D01*
X118488342Y-86171950D01*
X118375304Y-86114354D01*
X118375303Y-86114353D01*
X118375300Y-86114352D01*
X118250003Y-86094508D01*
X118249997Y-86094508D01*
X118124699Y-86114352D01*
X118124698Y-86114352D01*
X118049337Y-86152751D01*
X118011658Y-86171950D01*
X118011657Y-86171951D01*
X118011652Y-86171954D01*
X117921954Y-86261652D01*
X117921951Y-86261657D01*
X117921950Y-86261658D01*
X117916436Y-86272480D01*
X117864352Y-86374698D01*
X117864352Y-86374699D01*
X117844508Y-86499996D01*
X117844508Y-86500003D01*
X117155492Y-86500003D01*
X117155492Y-86499996D01*
X117135647Y-86374699D01*
X117135647Y-86374698D01*
X117123064Y-86350003D01*
X117078050Y-86261658D01*
X117078046Y-86261654D01*
X117078045Y-86261652D01*
X116988347Y-86171954D01*
X116988344Y-86171952D01*
X116988342Y-86171950D01*
X116875304Y-86114354D01*
X116875303Y-86114353D01*
X116875300Y-86114352D01*
X116750003Y-86094508D01*
X116749997Y-86094508D01*
X116624699Y-86114352D01*
X116624698Y-86114352D01*
X116549337Y-86152751D01*
X116511658Y-86171950D01*
X116511657Y-86171951D01*
X116511652Y-86171954D01*
X116421954Y-86261652D01*
X116421951Y-86261657D01*
X116421950Y-86261658D01*
X116416436Y-86272480D01*
X116364352Y-86374698D01*
X116364352Y-86374699D01*
X116344508Y-86499996D01*
X116344508Y-86500003D01*
X108168831Y-86500003D01*
X108185021Y-86397784D01*
X108185021Y-86397777D01*
X108165176Y-86272480D01*
X108165176Y-86272479D01*
X108145845Y-86234540D01*
X108107579Y-86159439D01*
X108107575Y-86159435D01*
X108107574Y-86159433D01*
X108017876Y-86069735D01*
X108017873Y-86069733D01*
X108017871Y-86069731D01*
X107904833Y-86012135D01*
X107904832Y-86012134D01*
X107904829Y-86012133D01*
X107779532Y-85992289D01*
X107779526Y-85992289D01*
X107654228Y-86012133D01*
X107654227Y-86012133D01*
X107578866Y-86050532D01*
X107541187Y-86069731D01*
X107541186Y-86069732D01*
X107541181Y-86069735D01*
X107451483Y-86159433D01*
X107451480Y-86159438D01*
X107451479Y-86159439D01*
X107443805Y-86174500D01*
X107393881Y-86272479D01*
X107393881Y-86272480D01*
X107374037Y-86397777D01*
X107374037Y-86397778D01*
X107374037Y-86397781D01*
X107376968Y-86416285D01*
X107382490Y-86451151D01*
X107373534Y-86520444D01*
X107328537Y-86573896D01*
X107261786Y-86594535D01*
X107259759Y-86594392D01*
X107259759Y-86594508D01*
X107249997Y-86594508D01*
X107124699Y-86614352D01*
X107124698Y-86614352D01*
X107049337Y-86652751D01*
X107011658Y-86671950D01*
X107011657Y-86671951D01*
X107011652Y-86671954D01*
X106921954Y-86761652D01*
X106921951Y-86761657D01*
X106921950Y-86761658D01*
X106902751Y-86799337D01*
X106864352Y-86874698D01*
X106864352Y-86874699D01*
X106844508Y-86999996D01*
X106844508Y-87000003D01*
X99737636Y-87000003D01*
X99687634Y-86942297D01*
X99578654Y-86872260D01*
X99578650Y-86872258D01*
X99578649Y-86872258D01*
X99454359Y-86835764D01*
X99454357Y-86835764D01*
X99324813Y-86835764D01*
X99324811Y-86835764D01*
X99200520Y-86872258D01*
X99200517Y-86872259D01*
X99200516Y-86872260D01*
X99158130Y-86899500D01*
X99091535Y-86942297D01*
X99006703Y-87040201D01*
X99006702Y-87040202D01*
X98952887Y-87158038D01*
X98934452Y-87286264D01*
X90300500Y-87286264D01*
X90300500Y-86899500D01*
X90320185Y-86832461D01*
X90372989Y-86786706D01*
X90424500Y-86775500D01*
X92988693Y-86775500D01*
X92988694Y-86775499D01*
X93058309Y-86761652D01*
X93162658Y-86740896D01*
X93162661Y-86740894D01*
X93162666Y-86740894D01*
X93302535Y-86682958D01*
X93326540Y-86673016D01*
X93326540Y-86673015D01*
X93326547Y-86673013D01*
X93474035Y-86574464D01*
X93599464Y-86449035D01*
X93698013Y-86301547D01*
X93765894Y-86137666D01*
X93768474Y-86124699D01*
X93775873Y-86087503D01*
X98794508Y-86087503D01*
X98814352Y-86212800D01*
X98814352Y-86212801D01*
X98814354Y-86212804D01*
X98871950Y-86325842D01*
X98871952Y-86325844D01*
X98871954Y-86325847D01*
X98961652Y-86415545D01*
X98961654Y-86415546D01*
X98961658Y-86415550D01*
X99074696Y-86473146D01*
X99074697Y-86473146D01*
X99074699Y-86473147D01*
X99199997Y-86492992D01*
X99200000Y-86492992D01*
X99200003Y-86492992D01*
X99325300Y-86473147D01*
X99325301Y-86473147D01*
X99325302Y-86473146D01*
X99325304Y-86473146D01*
X99438342Y-86415550D01*
X99503889Y-86350003D01*
X101432008Y-86350003D01*
X101451852Y-86475300D01*
X101451852Y-86475301D01*
X101464435Y-86499996D01*
X101509450Y-86588342D01*
X101509452Y-86588344D01*
X101509454Y-86588347D01*
X101599152Y-86678045D01*
X101599154Y-86678046D01*
X101599158Y-86678050D01*
X101712196Y-86735646D01*
X101712197Y-86735646D01*
X101712199Y-86735647D01*
X101837497Y-86755492D01*
X101837500Y-86755492D01*
X101837503Y-86755492D01*
X101962800Y-86735647D01*
X101962801Y-86735647D01*
X101962802Y-86735646D01*
X101962804Y-86735646D01*
X102075842Y-86678050D01*
X102165550Y-86588342D01*
X102223146Y-86475304D01*
X102223146Y-86475302D01*
X102223147Y-86475301D01*
X102223147Y-86475300D01*
X102242992Y-86350003D01*
X102242992Y-86349996D01*
X102223147Y-86224699D01*
X102223147Y-86224698D01*
X102217085Y-86212801D01*
X102199325Y-86177946D01*
X103069508Y-86177946D01*
X103089352Y-86303243D01*
X103089352Y-86303244D01*
X103089354Y-86303247D01*
X103146950Y-86416285D01*
X103146952Y-86416287D01*
X103146954Y-86416290D01*
X103236652Y-86505988D01*
X103236654Y-86505989D01*
X103236658Y-86505993D01*
X103349696Y-86563589D01*
X103349697Y-86563589D01*
X103349699Y-86563590D01*
X103474997Y-86583435D01*
X103475000Y-86583435D01*
X103475003Y-86583435D01*
X103600300Y-86563590D01*
X103600301Y-86563590D01*
X103600302Y-86563589D01*
X103600304Y-86563589D01*
X103713342Y-86505993D01*
X103803050Y-86416285D01*
X103860646Y-86303247D01*
X103860646Y-86303245D01*
X103860647Y-86303244D01*
X103860647Y-86303243D01*
X103880492Y-86177946D01*
X103880492Y-86177939D01*
X103860647Y-86052642D01*
X103860647Y-86052641D01*
X103845011Y-86021954D01*
X103803050Y-85939601D01*
X103803046Y-85939597D01*
X103803045Y-85939595D01*
X103713347Y-85849897D01*
X103713344Y-85849895D01*
X103713342Y-85849893D01*
X103600304Y-85792297D01*
X103600303Y-85792296D01*
X103600300Y-85792295D01*
X103475003Y-85772451D01*
X103474997Y-85772451D01*
X103349699Y-85792295D01*
X103349698Y-85792295D01*
X103274337Y-85830694D01*
X103236658Y-85849893D01*
X103236657Y-85849894D01*
X103236652Y-85849897D01*
X103146954Y-85939595D01*
X103146951Y-85939600D01*
X103146950Y-85939601D01*
X103134339Y-85964352D01*
X103089352Y-86052641D01*
X103089352Y-86052642D01*
X103069508Y-86177939D01*
X103069508Y-86177946D01*
X102199325Y-86177946D01*
X102165550Y-86111658D01*
X102165546Y-86111654D01*
X102165545Y-86111652D01*
X102075847Y-86021954D01*
X102075844Y-86021952D01*
X102075842Y-86021950D01*
X101962804Y-85964354D01*
X101962803Y-85964353D01*
X101962800Y-85964352D01*
X101837503Y-85944508D01*
X101837497Y-85944508D01*
X101712199Y-85964352D01*
X101712198Y-85964352D01*
X101636837Y-86002751D01*
X101599158Y-86021950D01*
X101599157Y-86021951D01*
X101599152Y-86021954D01*
X101509454Y-86111652D01*
X101509451Y-86111657D01*
X101509450Y-86111658D01*
X101496202Y-86137658D01*
X101451852Y-86224698D01*
X101451852Y-86224699D01*
X101432008Y-86349996D01*
X101432008Y-86350003D01*
X99503889Y-86350003D01*
X99528050Y-86325842D01*
X99585646Y-86212804D01*
X99585646Y-86212802D01*
X99585647Y-86212801D01*
X99585647Y-86212800D01*
X99605492Y-86087503D01*
X99605492Y-86087496D01*
X99585647Y-85962199D01*
X99585647Y-85962198D01*
X99574133Y-85939601D01*
X99528050Y-85849158D01*
X99528046Y-85849154D01*
X99528045Y-85849152D01*
X99438347Y-85759454D01*
X99438344Y-85759452D01*
X99438342Y-85759450D01*
X99325304Y-85701854D01*
X99325303Y-85701853D01*
X99325300Y-85701852D01*
X99200003Y-85682008D01*
X99199997Y-85682008D01*
X99074699Y-85701852D01*
X99074698Y-85701852D01*
X98999337Y-85740251D01*
X98961658Y-85759450D01*
X98961657Y-85759451D01*
X98961652Y-85759454D01*
X98871954Y-85849152D01*
X98871951Y-85849157D01*
X98871950Y-85849158D01*
X98858783Y-85875000D01*
X98814352Y-85962198D01*
X98814352Y-85962199D01*
X98794508Y-86087496D01*
X98794508Y-86087503D01*
X93775873Y-86087503D01*
X93800368Y-85964354D01*
X93800500Y-85963691D01*
X93800500Y-85786309D01*
X93800500Y-85786306D01*
X93800499Y-85786304D01*
X93765896Y-85612341D01*
X93765893Y-85612332D01*
X93698016Y-85448459D01*
X93698009Y-85448446D01*
X93605503Y-85310003D01*
X141844508Y-85310003D01*
X141864352Y-85435300D01*
X141864352Y-85435301D01*
X141871057Y-85448459D01*
X141921950Y-85548342D01*
X141921952Y-85548344D01*
X141921954Y-85548347D01*
X142011652Y-85638045D01*
X142011654Y-85638046D01*
X142011658Y-85638050D01*
X142124696Y-85695646D01*
X142124697Y-85695646D01*
X142124699Y-85695647D01*
X142249997Y-85715492D01*
X142250000Y-85715492D01*
X142250003Y-85715492D01*
X142375300Y-85695647D01*
X142375301Y-85695647D01*
X142375302Y-85695646D01*
X142375304Y-85695646D01*
X142488342Y-85638050D01*
X142578050Y-85548342D01*
X142635646Y-85435304D01*
X142635646Y-85435302D01*
X142635647Y-85435301D01*
X142635647Y-85435300D01*
X142655492Y-85310003D01*
X142655492Y-85309996D01*
X142635647Y-85184699D01*
X142635647Y-85184698D01*
X142630978Y-85175535D01*
X142578050Y-85071658D01*
X142578046Y-85071654D01*
X142578045Y-85071652D01*
X142488347Y-84981954D01*
X142488344Y-84981952D01*
X142488342Y-84981950D01*
X142375304Y-84924354D01*
X142375303Y-84924353D01*
X142375300Y-84924352D01*
X142250003Y-84904508D01*
X142249997Y-84904508D01*
X142124699Y-84924352D01*
X142124698Y-84924352D01*
X142064913Y-84954815D01*
X142011658Y-84981950D01*
X142011657Y-84981951D01*
X142011652Y-84981954D01*
X141921954Y-85071652D01*
X141921951Y-85071657D01*
X141921950Y-85071658D01*
X141902751Y-85109337D01*
X141864352Y-85184698D01*
X141864352Y-85184699D01*
X141844508Y-85309996D01*
X141844508Y-85310003D01*
X93605503Y-85310003D01*
X93599464Y-85300965D01*
X93599461Y-85300961D01*
X93474038Y-85175538D01*
X93474034Y-85175535D01*
X93326553Y-85076990D01*
X93326540Y-85076983D01*
X93162667Y-85009106D01*
X93162658Y-85009103D01*
X92988694Y-84974500D01*
X92988691Y-84974500D01*
X92939562Y-84974500D01*
X90424500Y-84974500D01*
X90357461Y-84954815D01*
X90311706Y-84902011D01*
X90300500Y-84850500D01*
X90300500Y-84500000D01*
X137044867Y-84500000D01*
X137063302Y-84628225D01*
X137064348Y-84630515D01*
X137117118Y-84746063D01*
X137201951Y-84843967D01*
X137310931Y-84914004D01*
X137346174Y-84924352D01*
X137435225Y-84950499D01*
X137435227Y-84950500D01*
X137435228Y-84950500D01*
X137564773Y-84950500D01*
X137564773Y-84950499D01*
X137689069Y-84914004D01*
X137798049Y-84843967D01*
X137882882Y-84746063D01*
X137936697Y-84628226D01*
X137955133Y-84500000D01*
X137936697Y-84371774D01*
X137882882Y-84253937D01*
X137798049Y-84156033D01*
X137689069Y-84085996D01*
X137689065Y-84085994D01*
X137689064Y-84085994D01*
X137564774Y-84049500D01*
X137564772Y-84049500D01*
X137435228Y-84049500D01*
X137435226Y-84049500D01*
X137310935Y-84085994D01*
X137310932Y-84085995D01*
X137310931Y-84085996D01*
X137259677Y-84118934D01*
X137201950Y-84156033D01*
X137117118Y-84253937D01*
X137117117Y-84253938D01*
X137063302Y-84371774D01*
X137044867Y-84500000D01*
X90300500Y-84500000D01*
X90300500Y-83625000D01*
X113419867Y-83625000D01*
X113438302Y-83753225D01*
X113467260Y-83816632D01*
X113492118Y-83871063D01*
X113576951Y-83968967D01*
X113685931Y-84039004D01*
X113810225Y-84075499D01*
X113810227Y-84075500D01*
X113810228Y-84075500D01*
X113939773Y-84075500D01*
X113939773Y-84075499D01*
X114064069Y-84039004D01*
X114173049Y-83968967D01*
X114257882Y-83871063D01*
X114311697Y-83753226D01*
X114330133Y-83625000D01*
X114311697Y-83496774D01*
X114257882Y-83378937D01*
X114173049Y-83281033D01*
X114064069Y-83210996D01*
X114064065Y-83210994D01*
X114064064Y-83210994D01*
X113939774Y-83174500D01*
X113939772Y-83174500D01*
X113810228Y-83174500D01*
X113810226Y-83174500D01*
X113685935Y-83210994D01*
X113685932Y-83210995D01*
X113685931Y-83210996D01*
X113634677Y-83243934D01*
X113576950Y-83281033D01*
X113492118Y-83378937D01*
X113492117Y-83378938D01*
X113438302Y-83496774D01*
X113419867Y-83625000D01*
X90300500Y-83625000D01*
X90300500Y-82720664D01*
X136843667Y-82720664D01*
X136862102Y-82848889D01*
X136880161Y-82888431D01*
X136915918Y-82966727D01*
X137000751Y-83064631D01*
X137109731Y-83134668D01*
X137234025Y-83171163D01*
X137234027Y-83171164D01*
X137234028Y-83171164D01*
X137363573Y-83171164D01*
X137363573Y-83171163D01*
X137487869Y-83134668D01*
X137570988Y-83081251D01*
X140463616Y-83081251D01*
X140482051Y-83209476D01*
X140530912Y-83316465D01*
X140535867Y-83327314D01*
X140620700Y-83425218D01*
X140729680Y-83495255D01*
X140853974Y-83531750D01*
X140853976Y-83531751D01*
X140853977Y-83531751D01*
X140983522Y-83531751D01*
X140983522Y-83531750D01*
X141107818Y-83495255D01*
X141216798Y-83425218D01*
X141301631Y-83327314D01*
X141355446Y-83209477D01*
X141373882Y-83081251D01*
X141355446Y-82953025D01*
X141301631Y-82835188D01*
X141274668Y-82804071D01*
X143169499Y-82804071D01*
X143194497Y-82929738D01*
X143194499Y-82929744D01*
X143243533Y-83048124D01*
X143243538Y-83048133D01*
X143314723Y-83154668D01*
X143314726Y-83154672D01*
X143405327Y-83245273D01*
X143405331Y-83245276D01*
X143511866Y-83316461D01*
X143511872Y-83316464D01*
X143511873Y-83316465D01*
X143630256Y-83365501D01*
X143630260Y-83365501D01*
X143630261Y-83365502D01*
X143755928Y-83390500D01*
X144643698Y-83390500D01*
X144710737Y-83410185D01*
X144756492Y-83462989D01*
X144766436Y-83532147D01*
X144737411Y-83595703D01*
X144684890Y-83629455D01*
X144685369Y-83630611D01*
X144678966Y-83633262D01*
X144678633Y-83633477D01*
X144678061Y-83633637D01*
X144677865Y-83633718D01*
X144546635Y-83709485D01*
X144546632Y-83709487D01*
X144439487Y-83816632D01*
X144439485Y-83816635D01*
X144363719Y-83947863D01*
X144339298Y-84039005D01*
X144324500Y-84094234D01*
X144324500Y-84245766D01*
X144326690Y-84253938D01*
X144363719Y-84392136D01*
X144401602Y-84457750D01*
X144439485Y-84523365D01*
X144546635Y-84630515D01*
X144677865Y-84706281D01*
X144824234Y-84745500D01*
X144824236Y-84745500D01*
X144975764Y-84745500D01*
X144975766Y-84745500D01*
X145122135Y-84706281D01*
X145253365Y-84630515D01*
X145360515Y-84523365D01*
X145436281Y-84392135D01*
X145475500Y-84245766D01*
X145475500Y-84094234D01*
X145436281Y-83947865D01*
X145360515Y-83816635D01*
X145253365Y-83709485D01*
X145122135Y-83633719D01*
X145056027Y-83616005D01*
X144996368Y-83579641D01*
X144965839Y-83516793D01*
X144974134Y-83447418D01*
X145018619Y-83393540D01*
X145063931Y-83374614D01*
X145109744Y-83365501D01*
X145228127Y-83316465D01*
X145334669Y-83245276D01*
X145425276Y-83154669D01*
X145496465Y-83048127D01*
X145545501Y-82929744D01*
X145570500Y-82804069D01*
X145570500Y-82675931D01*
X145570500Y-82675928D01*
X145545502Y-82550261D01*
X145545501Y-82550260D01*
X145545501Y-82550256D01*
X145496465Y-82431873D01*
X145496464Y-82431872D01*
X145496461Y-82431866D01*
X145425276Y-82325331D01*
X145425273Y-82325327D01*
X145334672Y-82234726D01*
X145334668Y-82234723D01*
X145228133Y-82163538D01*
X145228124Y-82163533D01*
X145109744Y-82114499D01*
X145109738Y-82114497D01*
X144984071Y-82089500D01*
X144984069Y-82089500D01*
X143755931Y-82089500D01*
X143755929Y-82089500D01*
X143630261Y-82114497D01*
X143630255Y-82114499D01*
X143511875Y-82163533D01*
X143511866Y-82163538D01*
X143405331Y-82234723D01*
X143405327Y-82234726D01*
X143314726Y-82325327D01*
X143314723Y-82325331D01*
X143243538Y-82431866D01*
X143243533Y-82431875D01*
X143194499Y-82550255D01*
X143194497Y-82550261D01*
X143169500Y-82675928D01*
X143169500Y-82675931D01*
X143169500Y-82804069D01*
X143169500Y-82804071D01*
X143169499Y-82804071D01*
X141274668Y-82804071D01*
X141216798Y-82737284D01*
X141107818Y-82667247D01*
X141107814Y-82667245D01*
X141107813Y-82667245D01*
X140983523Y-82630751D01*
X140983521Y-82630751D01*
X140853977Y-82630751D01*
X140853975Y-82630751D01*
X140729684Y-82667245D01*
X140729681Y-82667246D01*
X140729680Y-82667247D01*
X140678426Y-82700185D01*
X140620699Y-82737284D01*
X140535867Y-82835188D01*
X140535866Y-82835189D01*
X140482051Y-82953025D01*
X140463616Y-83081251D01*
X137570988Y-83081251D01*
X137596849Y-83064631D01*
X137681682Y-82966727D01*
X137735497Y-82848890D01*
X137753933Y-82720664D01*
X137735497Y-82592438D01*
X137681682Y-82474601D01*
X137596849Y-82376697D01*
X137487869Y-82306660D01*
X137487865Y-82306658D01*
X137487864Y-82306658D01*
X137363574Y-82270164D01*
X137363572Y-82270164D01*
X137234028Y-82270164D01*
X137234026Y-82270164D01*
X137109735Y-82306658D01*
X137109732Y-82306659D01*
X137109731Y-82306660D01*
X137058477Y-82339598D01*
X137000750Y-82376697D01*
X136915918Y-82474601D01*
X136915917Y-82474602D01*
X136862102Y-82592438D01*
X136843667Y-82720664D01*
X90300500Y-82720664D01*
X90300500Y-82499500D01*
X90320185Y-82432461D01*
X90372989Y-82386706D01*
X90424500Y-82375500D01*
X93578844Y-82375500D01*
X93578845Y-82375499D01*
X93733497Y-82344737D01*
X93879179Y-82284394D01*
X94010289Y-82196789D01*
X94121789Y-82085289D01*
X94209394Y-81954179D01*
X94269737Y-81808497D01*
X94300500Y-81653842D01*
X94300500Y-81575000D01*
X94300500Y-81527405D01*
X94300500Y-81424500D01*
X94320185Y-81357461D01*
X94372989Y-81311706D01*
X94424500Y-81300500D01*
X117771875Y-81300500D01*
X117838914Y-81320185D01*
G37*
%TD.AperFunction*%
%TD*%
M02*
