%TF.GenerationSoftware,KiCad,Pcbnew,8.0.1*%
%TF.CreationDate,2024-04-21T19:45:24+02:00*%
%TF.ProjectId,Hypersonic_pcb,48797065-7273-46f6-9e69-635f7063622e,rev?*%
%TF.SameCoordinates,Original*%
%TF.FileFunction,Copper,L1,Top*%
%TF.FilePolarity,Positive*%
%FSLAX46Y46*%
G04 Gerber Fmt 4.6, Leading zero omitted, Abs format (unit mm)*
G04 Created by KiCad (PCBNEW 8.0.1) date 2024-04-21 19:45:24*
%MOMM*%
%LPD*%
G01*
G04 APERTURE LIST*
G04 Aperture macros list*
%AMRoundRect*
0 Rectangle with rounded corners*
0 $1 Rounding radius*
0 $2 $3 $4 $5 $6 $7 $8 $9 X,Y pos of 4 corners*
0 Add a 4 corners polygon primitive as box body*
4,1,4,$2,$3,$4,$5,$6,$7,$8,$9,$2,$3,0*
0 Add four circle primitives for the rounded corners*
1,1,$1+$1,$2,$3*
1,1,$1+$1,$4,$5*
1,1,$1+$1,$6,$7*
1,1,$1+$1,$8,$9*
0 Add four rect primitives between the rounded corners*
20,1,$1+$1,$2,$3,$4,$5,0*
20,1,$1+$1,$4,$5,$6,$7,0*
20,1,$1+$1,$6,$7,$8,$9,0*
20,1,$1+$1,$8,$9,$2,$3,0*%
G04 Aperture macros list end*
%TA.AperFunction,SMDPad,CuDef*%
%ADD10R,1.500000X0.900000*%
%TD*%
%TA.AperFunction,SMDPad,CuDef*%
%ADD11R,0.900000X1.500000*%
%TD*%
%TA.AperFunction,HeatsinkPad*%
%ADD12C,0.600000*%
%TD*%
%TA.AperFunction,SMDPad,CuDef*%
%ADD13R,3.900000X3.900000*%
%TD*%
%TA.AperFunction,SMDPad,CuDef*%
%ADD14RoundRect,0.250000X-1.412500X-0.550000X1.412500X-0.550000X1.412500X0.550000X-1.412500X0.550000X0*%
%TD*%
%TA.AperFunction,SMDPad,CuDef*%
%ADD15RoundRect,0.250000X1.100000X-0.325000X1.100000X0.325000X-1.100000X0.325000X-1.100000X-0.325000X0*%
%TD*%
%TA.AperFunction,SMDPad,CuDef*%
%ADD16RoundRect,0.140000X0.140000X0.170000X-0.140000X0.170000X-0.140000X-0.170000X0.140000X-0.170000X0*%
%TD*%
%TA.AperFunction,SMDPad,CuDef*%
%ADD17RoundRect,0.250000X0.250000X0.250000X-0.250000X0.250000X-0.250000X-0.250000X0.250000X-0.250000X0*%
%TD*%
%TA.AperFunction,SMDPad,CuDef*%
%ADD18RoundRect,0.135000X-0.185000X0.135000X-0.185000X-0.135000X0.185000X-0.135000X0.185000X0.135000X0*%
%TD*%
%TA.AperFunction,SMDPad,CuDef*%
%ADD19RoundRect,0.250000X0.475000X-0.250000X0.475000X0.250000X-0.475000X0.250000X-0.475000X-0.250000X0*%
%TD*%
%TA.AperFunction,SMDPad,CuDef*%
%ADD20RoundRect,0.135000X-0.135000X-0.185000X0.135000X-0.185000X0.135000X0.185000X-0.135000X0.185000X0*%
%TD*%
%TA.AperFunction,SMDPad,CuDef*%
%ADD21RoundRect,0.140000X-0.140000X-0.170000X0.140000X-0.170000X0.140000X0.170000X-0.140000X0.170000X0*%
%TD*%
%TA.AperFunction,SMDPad,CuDef*%
%ADD22RoundRect,0.150000X0.512500X0.150000X-0.512500X0.150000X-0.512500X-0.150000X0.512500X-0.150000X0*%
%TD*%
%TA.AperFunction,SMDPad,CuDef*%
%ADD23RoundRect,0.150000X-0.150000X0.512500X-0.150000X-0.512500X0.150000X-0.512500X0.150000X0.512500X0*%
%TD*%
%TA.AperFunction,SMDPad,CuDef*%
%ADD24RoundRect,0.375000X0.625000X0.375000X-0.625000X0.375000X-0.625000X-0.375000X0.625000X-0.375000X0*%
%TD*%
%TA.AperFunction,SMDPad,CuDef*%
%ADD25RoundRect,0.500000X0.500000X1.400000X-0.500000X1.400000X-0.500000X-1.400000X0.500000X-1.400000X0*%
%TD*%
%TA.AperFunction,SMDPad,CuDef*%
%ADD26RoundRect,0.140000X-0.170000X0.140000X-0.170000X-0.140000X0.170000X-0.140000X0.170000X0.140000X0*%
%TD*%
%TA.AperFunction,SMDPad,CuDef*%
%ADD27R,1.450000X0.600000*%
%TD*%
%TA.AperFunction,SMDPad,CuDef*%
%ADD28R,1.450000X0.300000*%
%TD*%
%TA.AperFunction,ComponentPad*%
%ADD29O,2.100000X1.000000*%
%TD*%
%TA.AperFunction,ComponentPad*%
%ADD30O,1.600000X1.000000*%
%TD*%
%TA.AperFunction,SMDPad,CuDef*%
%ADD31RoundRect,0.225000X0.225000X0.250000X-0.225000X0.250000X-0.225000X-0.250000X0.225000X-0.250000X0*%
%TD*%
%TA.AperFunction,SMDPad,CuDef*%
%ADD32RoundRect,0.250000X0.250000X-0.250000X0.250000X0.250000X-0.250000X0.250000X-0.250000X-0.250000X0*%
%TD*%
%TA.AperFunction,SMDPad,CuDef*%
%ADD33RoundRect,0.218750X-0.256250X0.218750X-0.256250X-0.218750X0.256250X-0.218750X0.256250X0.218750X0*%
%TD*%
%TA.AperFunction,SMDPad,CuDef*%
%ADD34R,1.450000X0.350000*%
%TD*%
%TA.AperFunction,SMDPad,CuDef*%
%ADD35RoundRect,0.250000X-0.475000X0.250000X-0.475000X-0.250000X0.475000X-0.250000X0.475000X0.250000X0*%
%TD*%
%TA.AperFunction,SMDPad,CuDef*%
%ADD36RoundRect,0.250000X0.250000X0.475000X-0.250000X0.475000X-0.250000X-0.475000X0.250000X-0.475000X0*%
%TD*%
%TA.AperFunction,SMDPad,CuDef*%
%ADD37RoundRect,0.135000X0.185000X-0.135000X0.185000X0.135000X-0.185000X0.135000X-0.185000X-0.135000X0*%
%TD*%
%TA.AperFunction,SMDPad,CuDef*%
%ADD38RoundRect,0.062500X0.375000X0.062500X-0.375000X0.062500X-0.375000X-0.062500X0.375000X-0.062500X0*%
%TD*%
%TA.AperFunction,SMDPad,CuDef*%
%ADD39RoundRect,0.062500X0.062500X0.375000X-0.062500X0.375000X-0.062500X-0.375000X0.062500X-0.375000X0*%
%TD*%
%TA.AperFunction,HeatsinkPad*%
%ADD40R,3.450000X3.450000*%
%TD*%
%TA.AperFunction,SMDPad,CuDef*%
%ADD41RoundRect,0.225000X-0.250000X0.225000X-0.250000X-0.225000X0.250000X-0.225000X0.250000X0.225000X0*%
%TD*%
%TA.AperFunction,ViaPad*%
%ADD42C,0.500000*%
%TD*%
%TA.AperFunction,Conductor*%
%ADD43C,0.150000*%
%TD*%
%TA.AperFunction,Conductor*%
%ADD44C,0.300000*%
%TD*%
G04 APERTURE END LIST*
D10*
%TO.P,U1,1,GND*%
%TO.N,GND*%
X131395606Y-101520000D03*
%TO.P,U1,2,3V3*%
%TO.N,+3V3*%
X131395606Y-100250000D03*
%TO.P,U1,3,EN*%
%TO.N,Net-(U1-EN)*%
X131395606Y-98980000D03*
%TO.P,U1,4,IO4*%
%TO.N,/IO4*%
X131395606Y-97710000D03*
%TO.P,U1,5,IO5*%
%TO.N,/IO5*%
X131395606Y-96440000D03*
%TO.P,U1,6,IO6*%
%TO.N,/IO6*%
X131395606Y-95170000D03*
%TO.P,U1,7,IO7*%
%TO.N,/IO7*%
X131395606Y-93900000D03*
%TO.P,U1,8,IO15*%
%TO.N,/IO15*%
X131395606Y-92630000D03*
%TO.P,U1,9,IO16*%
%TO.N,/IO16*%
X131395606Y-91360000D03*
%TO.P,U1,10,IO17*%
%TO.N,/IO17*%
X131395606Y-90090000D03*
%TO.P,U1,11,IO18*%
%TO.N,/IO18*%
X131395606Y-88820000D03*
%TO.P,U1,12,IO8*%
%TO.N,/IO8*%
X131395606Y-87550000D03*
%TO.P,U1,13,IO19*%
%TO.N,/USB_D-*%
X131395606Y-86280000D03*
%TO.P,U1,14,IO20*%
%TO.N,/USB_D+*%
X131395606Y-85010000D03*
D11*
%TO.P,U1,15,IO3*%
%TO.N,unconnected-(U1-IO3-Pad15)*%
X129630606Y-83760000D03*
%TO.P,U1,16,IO46*%
%TO.N,unconnected-(U1-IO46-Pad16)*%
X128360606Y-83760000D03*
%TO.P,U1,17,IO9*%
%TO.N,/IO9*%
X127090606Y-83760000D03*
%TO.P,U1,18,IO10*%
%TO.N,/IO10*%
X125820606Y-83760000D03*
%TO.P,U1,19,IO11*%
%TO.N,/SPI_MOSI*%
X124550606Y-83760000D03*
%TO.P,U1,20,IO12*%
%TO.N,/SPI_CLK*%
X123280606Y-83760000D03*
%TO.P,U1,21,IO13*%
%TO.N,/SPI_MISO*%
X122010606Y-83760000D03*
%TO.P,U1,22,IO14*%
%TO.N,/IO14*%
X120740606Y-83760000D03*
%TO.P,U1,23,IO21*%
%TO.N,/CODEC_EN*%
X119470606Y-83760000D03*
%TO.P,U1,24,IO47*%
%TO.N,/I2C_SDA*%
X118200606Y-83760000D03*
%TO.P,U1,25,IO48*%
%TO.N,/I2C_SCL*%
X116930606Y-83760000D03*
%TO.P,U1,26,IO45*%
%TO.N,unconnected-(U1-IO45-Pad26)*%
X115660606Y-83760000D03*
D10*
%TO.P,U1,27,IO0*%
%TO.N,/BOOT*%
X113895606Y-85010000D03*
%TO.P,U1,28,IO35*%
%TO.N,unconnected-(U1-IO35-Pad28)*%
X113895606Y-86280000D03*
%TO.P,U1,29,IO36*%
%TO.N,unconnected-(U1-IO36-Pad29)*%
X113895606Y-87550000D03*
%TO.P,U1,30,IO37*%
%TO.N,unconnected-(U1-IO37-Pad30)*%
X113895606Y-88820000D03*
%TO.P,U1,31,IO38*%
%TO.N,/I2S_DI*%
X113895606Y-90090000D03*
%TO.P,U1,32,IO39*%
%TO.N,/I2S_DO*%
X113895606Y-91360000D03*
%TO.P,U1,33,IO40*%
%TO.N,/I2S_LRCLK*%
X113895606Y-92630000D03*
%TO.P,U1,34,IO41*%
%TO.N,/I2S_BCLK*%
X113895606Y-93900000D03*
%TO.P,U1,35,IO42*%
%TO.N,/I2S_MCLK*%
X113895606Y-95170000D03*
%TO.P,U1,36,RXD0*%
%TO.N,/RX*%
X113895606Y-96440000D03*
%TO.P,U1,37,TXD0*%
%TO.N,/TX*%
X113895606Y-97710000D03*
%TO.P,U1,38,IO2*%
%TO.N,/IO2*%
X113895606Y-98980000D03*
%TO.P,U1,39,IO1*%
%TO.N,/IO1*%
X113895606Y-100250000D03*
%TO.P,U1,40,GND*%
%TO.N,GND*%
X113895606Y-101520000D03*
D12*
%TO.P,U1,41,GND*%
X125545606Y-94500000D03*
X125545606Y-93100000D03*
X124845606Y-95200000D03*
X124845606Y-93800000D03*
X124845606Y-92400000D03*
X124145606Y-94500000D03*
D13*
X124145606Y-93800000D03*
D12*
X124145606Y-93100000D03*
X123445606Y-95200000D03*
X123445606Y-93800000D03*
X123445606Y-92400000D03*
X122745606Y-94500000D03*
X122745606Y-93100000D03*
%TD*%
D14*
%TO.P,C8,1*%
%TO.N,+3V3*%
X137927907Y-99397344D03*
%TO.P,C8,2*%
%TO.N,GND*%
X143002907Y-99397344D03*
%TD*%
D15*
%TO.P,CF4,1*%
%TO.N,Net-(U5-MIC1R+)*%
X101750000Y-84975001D03*
%TO.P,CF4,2*%
%TO.N,/MIC1R+*%
X101750000Y-82024999D03*
%TD*%
D16*
%TO.P,C7,1*%
%TO.N,GND*%
X107980000Y-93012500D03*
%TO.P,C7,2*%
%TO.N,+1V8*%
X107020000Y-93012500D03*
%TD*%
D17*
%TO.P,D3,1,K*%
%TO.N,VCC*%
X136750000Y-87000000D03*
%TO.P,D3,2,A*%
%TO.N,/VBUS_OUT*%
X134250000Y-87000000D03*
%TD*%
D18*
%TO.P,R4,1*%
%TO.N,Net-(J1-CC2)*%
X147500000Y-93550001D03*
%TO.P,R4,2*%
%TO.N,GND*%
X147500000Y-94569999D03*
%TD*%
D19*
%TO.P,C10,1*%
%TO.N,A3V0*%
X99750000Y-94712499D03*
%TO.P,C10,2*%
%TO.N,GND*%
X99750000Y-92812501D03*
%TD*%
D20*
%TO.P,R6,1*%
%TO.N,/I2C_SDA*%
X119490000Y-81750000D03*
%TO.P,R6,2*%
%TO.N,+3V3*%
X120510000Y-81750000D03*
%TD*%
D21*
%TO.P,C14,1*%
%TO.N,GND*%
X99270000Y-91262500D03*
%TO.P,C14,2*%
%TO.N,A3V0*%
X100230000Y-91262500D03*
%TD*%
D22*
%TO.P,U4,1,IN*%
%TO.N,+3V3*%
X104137500Y-96712499D03*
%TO.P,U4,2,GND*%
%TO.N,GND*%
X104137500Y-95762500D03*
%TO.P,U4,3,EN*%
%TO.N,+3V3*%
X104137500Y-94812501D03*
%TO.P,U4,4,NC*%
%TO.N,unconnected-(U4-NC-Pad4)*%
X101862500Y-94812501D03*
%TO.P,U4,5,OUT*%
%TO.N,A3V0*%
X101862500Y-96712499D03*
%TD*%
D23*
%TO.P,U2,1,EN*%
%TO.N,/VBUS*%
X140199999Y-82362500D03*
%TO.P,U2,2,GND*%
%TO.N,GND*%
X139250000Y-82362500D03*
%TO.P,U2,3,IN*%
%TO.N,/VBUS*%
X138300001Y-82362500D03*
%TO.P,U2,4,OUT*%
%TO.N,/VBUS_OUT*%
X138300001Y-84637500D03*
%TO.P,U2,5,D1*%
%TO.N,/USB_D-*%
X139250000Y-84637500D03*
%TO.P,U2,6,D2*%
%TO.N,/USB_D+*%
X140199999Y-84637500D03*
%TD*%
D24*
%TO.P,U3,1,GND*%
%TO.N,GND*%
X140650000Y-94300000D03*
%TO.P,U3,2,VO*%
%TO.N,+3V3*%
X140649999Y-92000000D03*
D25*
X134350001Y-92000000D03*
D24*
%TO.P,U3,3,VI*%
%TO.N,VCC*%
X140650000Y-89700000D03*
%TD*%
D26*
%TO.P,C9,1*%
%TO.N,GND*%
X108000000Y-87270000D03*
%TO.P,C9,2*%
%TO.N,+3V3*%
X108000000Y-88230000D03*
%TD*%
D27*
%TO.P,J1,A1,GND*%
%TO.N,GND*%
X143455000Y-90310000D03*
%TO.P,J1,A4,VBUS*%
%TO.N,/VBUS*%
X143455000Y-89510001D03*
D28*
%TO.P,J1,A5,CC1*%
%TO.N,Net-(J1-CC1)*%
X143455001Y-88310000D03*
%TO.P,J1,A6,D+*%
%TO.N,/USB_D+*%
X143455000Y-87310000D03*
%TO.P,J1,A7,D-*%
%TO.N,/USB_D-*%
X143455000Y-86810000D03*
%TO.P,J1,A8,SBU1*%
%TO.N,unconnected-(J1-SBU1-PadA8)*%
X143455001Y-85810000D03*
D27*
%TO.P,J1,A9,VBUS*%
%TO.N,/VBUS*%
X143455000Y-84609999D03*
%TO.P,J1,A12,GND*%
%TO.N,GND*%
X143455000Y-83810000D03*
%TO.P,J1,B1,GND*%
X143455000Y-83810000D03*
%TO.P,J1,B4,VBUS*%
%TO.N,/VBUS*%
X143455000Y-84609999D03*
D28*
%TO.P,J1,B5,CC2*%
%TO.N,Net-(J1-CC2)*%
X143455000Y-85310000D03*
%TO.P,J1,B6,D+*%
%TO.N,/USB_D+*%
X143455000Y-86310000D03*
%TO.P,J1,B7,D-*%
%TO.N,/USB_D-*%
X143455000Y-87810000D03*
%TO.P,J1,B8,SBU2*%
%TO.N,unconnected-(J1-SBU2-PadB8)*%
X143455000Y-88810000D03*
D27*
%TO.P,J1,B9,VBUS*%
%TO.N,/VBUS*%
X143455000Y-89510001D03*
%TO.P,J1,B12,GND*%
%TO.N,GND*%
X143455000Y-90310000D03*
D29*
%TO.P,J1,S1,SHIELD*%
%TO.N,Net-(J1-SHIELD)*%
X144370000Y-91380000D03*
D30*
X148550000Y-91380000D03*
D29*
X144370000Y-82740000D03*
D30*
X148550000Y-82740000D03*
%TD*%
D31*
%TO.P,C15,1*%
%TO.N,GND*%
X111775000Y-90250000D03*
%TO.P,C15,2*%
%TO.N,+1V8*%
X110225000Y-90250000D03*
%TD*%
D22*
%TO.P,U6,1,VIN*%
%TO.N,+3V3*%
X111887500Y-88699999D03*
%TO.P,U6,2,GND*%
%TO.N,GND*%
X111887500Y-87750000D03*
%TO.P,U6,3,EN*%
%TO.N,+3V3*%
X111887500Y-86800001D03*
%TO.P,U6,4,NC*%
%TO.N,unconnected-(U6-NC-Pad4)*%
X109612500Y-86800001D03*
%TO.P,U6,5,VOUT*%
%TO.N,+1V8*%
X109612500Y-88699999D03*
%TD*%
D20*
%TO.P,R5,1*%
%TO.N,/I2C_SCL*%
X116490000Y-81750000D03*
%TO.P,R5,2*%
%TO.N,+3V3*%
X117510000Y-81750000D03*
%TD*%
D16*
%TO.P,C2,1*%
%TO.N,GND*%
X134980000Y-101810000D03*
%TO.P,C2,2*%
%TO.N,+3V3*%
X134020000Y-101810000D03*
%TD*%
D32*
%TO.P,D2,1,K*%
%TO.N,VCC*%
X134250000Y-84749999D03*
%TO.P,D2,2,A*%
%TO.N,VIN*%
X134250000Y-82250001D03*
%TD*%
D18*
%TO.P,R1,1*%
%TO.N,Net-(J1-SHIELD)*%
X149000000Y-93550001D03*
%TO.P,R1,2*%
%TO.N,GND*%
X149000000Y-94569999D03*
%TD*%
D33*
%TO.P,D4,1,K*%
%TO.N,Net-(D4-K)*%
X146000000Y-100560000D03*
%TO.P,D4,2,A*%
%TO.N,GND*%
X146000000Y-102135002D03*
%TD*%
D34*
%TO.P,J2,1,VIN*%
%TO.N,VIN*%
X91275000Y-101250000D03*
%TO.P,J2,3,VIN*%
X91275000Y-100750000D03*
%TO.P,J2,5,VIN*%
X91275000Y-100250000D03*
%TO.P,J2,7,3V3*%
%TO.N,+3V3*%
X91275000Y-99750000D03*
%TO.P,J2,9,3V3*%
X91275000Y-99250000D03*
%TO.P,J2,11,3V3*%
X91275000Y-98750000D03*
%TO.P,J2,21,GPIOA0*%
%TO.N,/IO4*%
X91275000Y-96250000D03*
%TO.P,J2,23,GPIOA1*%
%TO.N,/IO5*%
X91275000Y-95750000D03*
%TO.P,J2,25,GPIOA2*%
%TO.N,/IO6*%
X91275000Y-95250000D03*
%TO.P,J2,27,GPIOA3*%
%TO.N,/IO7*%
X91275000Y-94750000D03*
%TO.P,J2,29,GPIOA4*%
%TO.N,/IO8*%
X91275000Y-94250000D03*
%TO.P,J2,31,GPIOA5*%
%TO.N,/IO9*%
X91275000Y-93750000D03*
%TO.P,J2,33,GPIOA6*%
%TO.N,/IO10*%
X91275000Y-93250000D03*
%TO.P,J2,35,GPIOA7*%
%TO.N,/IO1*%
X91275000Y-92750000D03*
%TO.P,J2,37,GPIOA8*%
%TO.N,/IO2*%
X91275000Y-92250000D03*
%TO.P,J2,39,GND*%
%TO.N,GND*%
X91275000Y-91750000D03*
%TO.P,J2,41,TX*%
%TO.N,/TX*%
X91275000Y-91250000D03*
%TO.P,J2,43,RX*%
%TO.N,/RX*%
X91275000Y-90750000D03*
%TO.P,J2,45,NC*%
%TO.N,unconnected-(J2-NC-Pad45)*%
X91275000Y-90250000D03*
%TO.P,J2,47,GND*%
%TO.N,GND*%
X91275000Y-89750000D03*
%TO.P,J2,49,HP_OUT_R+*%
%TO.N,/HPROUT*%
X91275000Y-89250000D03*
%TO.P,J2,51,HP_OUT_R-*%
%TO.N,/HPRCOM*%
X91275000Y-88750000D03*
%TO.P,J2,53,GND*%
%TO.N,GND*%
X91275000Y-88250000D03*
%TO.P,J2,55,HP_OUT_L-*%
%TO.N,/HPLCOM*%
X91275000Y-87750000D03*
%TO.P,J2,57,HP_OUT_L+*%
%TO.N,/HPLOUT*%
X91275000Y-87250000D03*
%TO.P,J2,67,A_IN1_L+*%
%TO.N,/MIC1L+*%
X91275000Y-84750000D03*
%TO.P,J2,69,A_IN1_L-*%
%TO.N,/MIC1L-*%
X91275000Y-84250000D03*
%TO.P,J2,71,GND*%
%TO.N,GND*%
X91275000Y-83750000D03*
%TO.P,J2,73,A_IN1_R+*%
%TO.N,/MIC1R+*%
X91275000Y-83250000D03*
%TO.P,J2,75,A_IN1_R-*%
%TO.N,/MIC1R-*%
X91275000Y-82750000D03*
%TD*%
D35*
%TO.P,C6,2*%
%TO.N,GND*%
X143561331Y-95056019D03*
%TO.P,C6,1*%
%TO.N,+3V3*%
X143561331Y-93156021D03*
%TD*%
D15*
%TO.P,CF1,1*%
%TO.N,Net-(U5-MIC1L-)*%
X105750000Y-84975001D03*
%TO.P,CF1,2*%
%TO.N,/MIC1L-*%
X105750000Y-82024999D03*
%TD*%
D36*
%TO.P,C4,1*%
%TO.N,VCC*%
X140949999Y-87000000D03*
%TO.P,C4,2*%
%TO.N,GND*%
X139050001Y-87000000D03*
%TD*%
D37*
%TO.P,R7,1*%
%TO.N,Net-(D4-K)*%
X146000000Y-97069999D03*
%TO.P,R7,2*%
%TO.N,+3V3*%
X146000000Y-96050001D03*
%TD*%
D15*
%TO.P,CF3,1*%
%TO.N,Net-(U5-MIC1L+)*%
X109250000Y-84975001D03*
%TO.P,CF3,2*%
%TO.N,/MIC1L+*%
X109250000Y-82024999D03*
%TD*%
D20*
%TO.P,R2,1*%
%TO.N,+3V3*%
X133990001Y-100060000D03*
%TO.P,R2,2*%
%TO.N,Net-(U1-EN)*%
X135009999Y-100060000D03*
%TD*%
D38*
%TO.P,U5,1,MCLK*%
%TO.N,/I2S_MCLK*%
X106637500Y-90962500D03*
%TO.P,U5,2,BCLK*%
%TO.N,/I2S_BCLK*%
X106637500Y-90462500D03*
%TO.P,U5,3,WCLK*%
%TO.N,/I2S_LRCLK*%
X106637500Y-89962500D03*
%TO.P,U5,4,DIN*%
%TO.N,/I2S_DO*%
X106637500Y-89462500D03*
%TO.P,U5,5,DOUT*%
%TO.N,/I2S_DI*%
X106637500Y-88962500D03*
%TO.P,U5,6,DVSS*%
%TO.N,GND*%
X106637500Y-88462500D03*
%TO.P,U5,7,IOVDD*%
%TO.N,+3V3*%
X106637500Y-87962500D03*
%TO.P,U5,8,SCL*%
%TO.N,/I2C_SCL*%
X106637500Y-87462500D03*
D39*
%TO.P,U5,9,SDA*%
%TO.N,/I2C_SDA*%
X105950000Y-86775000D03*
%TO.P,U5,10,MIC1L+*%
%TO.N,Net-(U5-MIC1L+)*%
X105450000Y-86775000D03*
%TO.P,U5,11,MIC1L-*%
%TO.N,Net-(U5-MIC1L-)*%
X104950000Y-86775000D03*
%TO.P,U5,12,MIC1R+*%
%TO.N,Net-(U5-MIC1R+)*%
X104450000Y-86775000D03*
%TO.P,U5,13,MIC1R-*%
%TO.N,Net-(U5-MIC1R-)*%
X103950000Y-86775000D03*
%TO.P,U5,14,MIC2L*%
%TO.N,/MIC2L*%
X103450000Y-86775000D03*
%TO.P,U5,15,MICBIAS*%
%TO.N,/MICBIAS*%
X102950000Y-86775000D03*
%TO.P,U5,16,MIC2R*%
%TO.N,/MIC2R*%
X102450000Y-86775000D03*
D38*
%TO.P,U5,17,AVSS1*%
%TO.N,GND*%
X101762500Y-87462500D03*
%TO.P,U5,18,DRVDD*%
%TO.N,A3V0*%
X101762500Y-87962500D03*
%TO.P,U5,19,HPLOUT*%
%TO.N,/HPLOUT*%
X101762500Y-88462500D03*
%TO.P,U5,20,HPLCOM*%
%TO.N,/HPLCOM*%
X101762500Y-88962500D03*
%TO.P,U5,21,DRVSS*%
%TO.N,GND*%
X101762500Y-89462500D03*
%TO.P,U5,22,HPRCOM*%
%TO.N,/HPRCOM*%
X101762500Y-89962500D03*
%TO.P,U5,23,HPROUT*%
%TO.N,/HPROUT*%
X101762500Y-90462500D03*
%TO.P,U5,24,DRVDD*%
%TO.N,A3V0*%
X101762500Y-90962500D03*
D39*
%TO.P,U5,25,AVDD*%
X102450000Y-91650000D03*
%TO.P,U5,26,AVSS2*%
%TO.N,GND*%
X102950000Y-91650000D03*
%TO.P,U5,27,LEFT_LO+*%
%TO.N,/LEFT_LO+*%
X103450000Y-91650000D03*
%TO.P,U5,28,LEFT_LO-*%
%TO.N,/LEFT_LO-*%
X103950000Y-91650000D03*
%TO.P,U5,29,RIGHT_LO+*%
%TO.N,/RIGHT_LO+*%
X104450000Y-91650000D03*
%TO.P,U5,30,RIGHT_LO-*%
%TO.N,/RIGHT_LO-*%
X104950000Y-91650000D03*
%TO.P,U5,31,NRESET*%
%TO.N,/CODEC_EN*%
X105450000Y-91650000D03*
%TO.P,U5,32,DVDD*%
%TO.N,+1V8*%
X105950000Y-91650000D03*
D40*
%TO.P,U5,33,EP*%
%TO.N,GND*%
X104200000Y-89212500D03*
%TD*%
D26*
%TO.P,C13,1*%
%TO.N,GND*%
X100250000Y-86832500D03*
%TO.P,C13,2*%
%TO.N,A3V0*%
X100250000Y-87792500D03*
%TD*%
D18*
%TO.P,R3,1*%
%TO.N,Net-(J1-CC1)*%
X146000000Y-93550001D03*
%TO.P,R3,2*%
%TO.N,GND*%
X146000000Y-94569999D03*
%TD*%
D16*
%TO.P,C1,1*%
%TO.N,GND*%
X134980000Y-98310000D03*
%TO.P,C1,2*%
%TO.N,Net-(U1-EN)*%
X134020000Y-98310000D03*
%TD*%
D15*
%TO.P,CF2,1*%
%TO.N,Net-(U5-MIC1R-)*%
X98250000Y-84975001D03*
%TO.P,CF2,2*%
%TO.N,/MIC1R-*%
X98250000Y-82024999D03*
%TD*%
D26*
%TO.P,C3,2*%
%TO.N,GND*%
X136500000Y-82980000D03*
%TO.P,C3,1*%
%TO.N,/VBUS*%
X136500000Y-82020000D03*
%TD*%
D16*
%TO.P,C12,1*%
%TO.N,GND*%
X102480000Y-93212500D03*
%TO.P,C12,2*%
%TO.N,A3V0*%
X101520000Y-93212500D03*
%TD*%
D19*
%TO.P,C5,1*%
%TO.N,+3V3*%
X106500000Y-96462499D03*
%TO.P,C5,2*%
%TO.N,GND*%
X106500000Y-94562501D03*
%TD*%
D41*
%TO.P,C11,1*%
%TO.N,GND*%
X112000000Y-82975000D03*
%TO.P,C11,2*%
%TO.N,+3V3*%
X112000000Y-84525000D03*
%TD*%
D42*
%TO.N,/VBUS*%
X137298800Y-82720664D03*
X140918749Y-83081251D03*
%TO.N,GND*%
X110500000Y-86000000D03*
X94434431Y-100001735D03*
X145900000Y-90600000D03*
X142250000Y-83500000D03*
X105500000Y-93012500D03*
X141000000Y-102000000D03*
X102362500Y-92564479D03*
X94500000Y-89750000D03*
X143000000Y-100500000D03*
X96000000Y-83299999D03*
X112745604Y-87604681D03*
X142250000Y-93750000D03*
X130250000Y-92000000D03*
X94250000Y-85250000D03*
X135875000Y-102125000D03*
X93000000Y-89750000D03*
X96750000Y-89000000D03*
X110000000Y-83250000D03*
X129500000Y-94000000D03*
X142000000Y-98000000D03*
X147500000Y-95500000D03*
X129750000Y-85500000D03*
X143750000Y-96500000D03*
X103000000Y-96725000D03*
X99500000Y-93500000D03*
X111000000Y-81750000D03*
X108493750Y-86006250D03*
X130250000Y-89500000D03*
X128500000Y-88000000D03*
X133000000Y-101500000D03*
X98340765Y-86108937D03*
X122750000Y-85500000D03*
X107664124Y-92348376D03*
X100662902Y-89459458D03*
X112000000Y-82000000D03*
X133250000Y-88500000D03*
X135750000Y-83000000D03*
X118975013Y-100800036D03*
X94000000Y-83750000D03*
X109604394Y-100700000D03*
X138000000Y-86500000D03*
X111000000Y-82750000D03*
X97000000Y-86750000D03*
X95250000Y-88250000D03*
X100500000Y-96725000D03*
X115243185Y-86329635D03*
X93250000Y-91750000D03*
X138000000Y-87500000D03*
X98250000Y-87750000D03*
X103000000Y-88012500D03*
X122750000Y-81750000D03*
X98000000Y-92250000D03*
X111000000Y-85250000D03*
X98500000Y-94512500D03*
X125250000Y-87750000D03*
X105500000Y-90512500D03*
X93434431Y-101001735D03*
X116000000Y-99000000D03*
X147500000Y-98250000D03*
X93434431Y-99001735D03*
X114000000Y-81750000D03*
X148500000Y-102250000D03*
X142750000Y-81750000D03*
X100500000Y-83225000D03*
X145750000Y-83500000D03*
X111000000Y-84000000D03*
X120250000Y-90750000D03*
X117303165Y-99895966D03*
X130000000Y-101500000D03*
X97500000Y-86000000D03*
X107500000Y-84250000D03*
X112289124Y-89539124D03*
X136615979Y-84456840D03*
X149250000Y-87000000D03*
X92763689Y-94024218D03*
X135000000Y-97250000D03*
X94250000Y-86500000D03*
X142250000Y-96500000D03*
X97250000Y-91500000D03*
X98500000Y-89460508D03*
X103000000Y-90512500D03*
X104200000Y-89212500D03*
X119000000Y-85500000D03*
X96125000Y-90625000D03*
X142250000Y-95000000D03*
X93500000Y-88250000D03*
X105500000Y-88012500D03*
X117750000Y-85500000D03*
X101339637Y-95563196D03*
X137250000Y-81750000D03*
X113000000Y-83000000D03*
X142500000Y-91000000D03*
X131500000Y-83750000D03*
X124000000Y-85500000D03*
X105500000Y-94262500D03*
X142000000Y-100500000D03*
X147000000Y-81750000D03*
X103000000Y-95750000D03*
X108250000Y-83250000D03*
X133500000Y-96750000D03*
X112500000Y-100250000D03*
X126500000Y-81750000D03*
X101000000Y-92000000D03*
X116500000Y-85500000D03*
X144000000Y-100500000D03*
X96250000Y-85500000D03*
X116750000Y-95500000D03*
X135750000Y-88750000D03*
X107843264Y-101761357D03*
X130250000Y-90750000D03*
X109500000Y-86000000D03*
X103750000Y-82000000D03*
X133250000Y-89500000D03*
X135250000Y-86000000D03*
X103000000Y-83225000D03*
X120579177Y-101914588D03*
X130500000Y-81750000D03*
X105500000Y-83112499D03*
X145000000Y-102135002D03*
%TO.N,Net-(J1-CC1)*%
X142250000Y-88310000D03*
X145250000Y-92810000D03*
%TO.N,Net-(J1-CC2)*%
X142250000Y-85310000D03*
X147000000Y-92810000D03*
%TO.N,+3V3*%
X132750000Y-91750000D03*
X121250000Y-81750000D03*
X94434431Y-99001735D03*
X107738459Y-93814740D03*
X113875000Y-83625000D03*
X109000000Y-87750000D03*
X118250000Y-81750000D03*
%TO.N,+1V8*%
X106869059Y-91893441D03*
X108500000Y-89012500D03*
%TO.N,/RIGHT_LO+*%
X103205952Y-93422899D03*
%TO.N,/LEFT_LO+*%
X103163550Y-92535487D03*
%TO.N,/LEFT_LO-*%
X103975000Y-92612500D03*
%TO.N,/MICBIAS*%
X101837500Y-86350000D03*
%TO.N,/RIGHT_LO-*%
X104111536Y-93565248D03*
%TO.N,/I2C_SDA*%
X118250000Y-86500000D03*
X107779529Y-86397781D03*
%TO.N,/I2C_SCL*%
X107250000Y-87000000D03*
X116750000Y-86500000D03*
%TO.N,/CODEC_EN*%
X106300000Y-92712500D03*
X115250000Y-87250000D03*
%TO.N,A3V0*%
X100497518Y-93752482D03*
X99389585Y-87286264D03*
%TO.N,VIN*%
X132500000Y-82000000D03*
X94434431Y-101001735D03*
%TO.N,/SPI_MOSI*%
X124500000Y-86250000D03*
%TO.N,/SPI_CLK*%
X123250000Y-86250000D03*
%TO.N,/SPI_MISO*%
X122000000Y-86250000D03*
%TO.N,/IO5*%
X109250000Y-101750000D03*
X119750000Y-101925000D03*
%TO.N,/VBUS_OUT*%
X137500000Y-84500000D03*
X135500000Y-87000000D03*
%TO.N,/IO6*%
X110250000Y-101175000D03*
X119000000Y-101625000D03*
%TO.N,/IO7*%
X118000000Y-101250000D03*
X111000000Y-100750000D03*
%TO.N,/IO9*%
X116250000Y-100250000D03*
X111546752Y-99953248D03*
%TO.N,/IO8*%
X117250000Y-100750000D03*
X111842738Y-100747728D03*
%TO.N,/IO10*%
X115500000Y-99675000D03*
X112035249Y-99250000D03*
%TO.N,/IO18*%
X129750000Y-88750000D03*
%TO.N,/IO17*%
X129375000Y-90125000D03*
%TO.N,/IO16*%
X129500000Y-91250000D03*
%TO.N,/IO14*%
X119250000Y-90750000D03*
%TO.N,/IO15*%
X129500000Y-92500000D03*
%TO.N,/IO4*%
X108500000Y-102250000D03*
X121500000Y-102249994D03*
%TO.N,/MIC2L*%
X103475000Y-86177943D03*
%TO.N,/MIC2R*%
X99200000Y-86087500D03*
%TD*%
D43*
%TO.N,/IO9*%
X92275000Y-93500000D02*
X92025000Y-93750000D01*
X99625000Y-99625000D02*
X93500000Y-93500000D01*
X111218504Y-99625000D02*
X99625000Y-99625000D01*
X111546752Y-99953248D02*
X111218504Y-99625000D01*
X92025000Y-93750000D02*
X91275000Y-93750000D01*
X93500000Y-93500000D02*
X92275000Y-93500000D01*
%TO.N,/IO8*%
X92262500Y-94250000D02*
X91275000Y-94250000D01*
X92511718Y-94499218D02*
X92262500Y-94250000D01*
X93999218Y-94499218D02*
X92511718Y-94499218D01*
X109075000Y-99925000D02*
X109000000Y-100000000D01*
X99500000Y-100000000D02*
X93999218Y-94499218D01*
X110846752Y-99925000D02*
X109075000Y-99925000D01*
X109000000Y-100000000D02*
X99500000Y-100000000D01*
X111669480Y-100747728D02*
X110846752Y-99925000D01*
X111842738Y-100747728D02*
X111669480Y-100747728D01*
%TO.N,/I2C_SDA*%
X106725000Y-86775000D02*
X105950000Y-86775000D01*
X107102219Y-86397781D02*
X106725000Y-86775000D01*
X107779529Y-86397781D02*
X107102219Y-86397781D01*
%TO.N,/IO5*%
X99000000Y-101500000D02*
X93250000Y-95750000D01*
X93250000Y-95750000D02*
X91275000Y-95750000D01*
X107250000Y-101500000D02*
X99000000Y-101500000D01*
X107475000Y-101275000D02*
X107250000Y-101500000D01*
X108525000Y-101275000D02*
X107475000Y-101275000D01*
X109000000Y-101750000D02*
X108525000Y-101275000D01*
X109250000Y-101750000D02*
X109000000Y-101750000D01*
%TO.N,/USB_D-*%
X136140979Y-84653592D02*
X137237387Y-85750000D01*
X135427712Y-83927712D02*
X136140979Y-84640979D01*
X133822288Y-83927712D02*
X135427712Y-83927712D01*
X132720000Y-86280000D02*
X133000000Y-86000000D01*
X136140979Y-84640979D02*
X136140979Y-84653592D01*
X131395606Y-86280000D02*
X132720000Y-86280000D01*
X133000000Y-86000000D02*
X133000000Y-84750000D01*
X133000000Y-84750000D02*
X133822288Y-83927712D01*
X137237387Y-85750000D02*
X139250000Y-85750000D01*
%TO.N,/IO9*%
X127750000Y-86250000D02*
X127250000Y-85750000D01*
X127250000Y-85750000D02*
X127250000Y-84365000D01*
X127750000Y-98000000D02*
X127750000Y-86250000D01*
X126371943Y-99378057D02*
X127750000Y-98000000D01*
X116250000Y-100250000D02*
X117121943Y-99378057D01*
X117121943Y-99378057D02*
X126371943Y-99378057D01*
X127250000Y-84365000D02*
X127195000Y-84310000D01*
%TO.N,/LEFT_LO+*%
X103450000Y-92249037D02*
X103450000Y-91650000D01*
X103163550Y-92535487D02*
X103450000Y-92249037D01*
D44*
%TO.N,A3V0*%
X101925000Y-91650000D02*
X102450000Y-91650000D01*
X101762500Y-91812500D02*
X101925000Y-91650000D01*
X101762500Y-92970000D02*
X101762500Y-91812500D01*
D43*
%TO.N,/RIGHT_LO-*%
X104950000Y-92786764D02*
X104950000Y-91650000D01*
X104349264Y-93387500D02*
X104950000Y-92786764D01*
X104289284Y-93387500D02*
X104349264Y-93387500D01*
X104111536Y-93565248D02*
X104289284Y-93387500D01*
%TO.N,/RIGHT_LO+*%
X104450000Y-92862500D02*
X104450000Y-91650000D01*
X104225000Y-93087500D02*
X104450000Y-92862500D01*
X103541351Y-93087500D02*
X104225000Y-93087500D01*
X103205952Y-93422899D02*
X103541351Y-93087500D01*
D44*
%TO.N,/VBUS*%
X137298800Y-82411300D02*
X137250000Y-82362500D01*
X136867500Y-82362500D02*
X137250000Y-82362500D01*
X137250000Y-82362500D02*
X138300001Y-82362500D01*
X137298800Y-82720664D02*
X137298800Y-82411300D01*
X140199999Y-82362500D02*
X140918749Y-83081251D01*
X142447498Y-84609999D02*
X140918749Y-83081251D01*
D43*
%TO.N,GND*%
X139250000Y-83024999D02*
X138974999Y-83300000D01*
X136820000Y-83300000D02*
X136500000Y-82980000D01*
X139250000Y-82362500D02*
X139250000Y-83024999D01*
X138974999Y-83300000D02*
X136820000Y-83300000D01*
D44*
%TO.N,/VBUS*%
X140199999Y-82362500D02*
X140199999Y-82786263D01*
D43*
%TO.N,/USB_D+*%
X135624264Y-83700000D02*
X135551976Y-83627712D01*
X135551976Y-83627712D02*
X132777894Y-83627712D01*
X138630197Y-83700000D02*
X135624264Y-83700000D01*
X138680197Y-83750000D02*
X138630197Y-83700000D01*
X140000000Y-83750000D02*
X138680197Y-83750000D01*
X132777894Y-83627712D02*
X131395606Y-85010000D01*
X140199999Y-84637500D02*
X140199999Y-83949999D01*
X140199999Y-83949999D02*
X140000000Y-83750000D01*
D44*
%TO.N,/VBUS*%
X138300001Y-82362500D02*
X138300001Y-82786263D01*
%TO.N,+3V3*%
X136515251Y-100810000D02*
X137927907Y-99397344D01*
X134020000Y-100830000D02*
X134000000Y-100810000D01*
X134000000Y-100810000D02*
X136515251Y-100810000D01*
X146000000Y-96050001D02*
X146000000Y-95710000D01*
X142500000Y-92000000D02*
X140649999Y-92000000D01*
X143561331Y-93061331D02*
X142500000Y-92000000D01*
X143561331Y-93156021D02*
X143561331Y-93061331D01*
X143561331Y-93271331D02*
X143561331Y-93156021D01*
X146000000Y-95710000D02*
X143561331Y-93271331D01*
%TO.N,/VBUS*%
X138300001Y-81953716D02*
X138300001Y-82362500D01*
X140199999Y-82362500D02*
X140199999Y-81898805D01*
D43*
%TO.N,GND*%
X145000000Y-102135002D02*
X146000000Y-102135002D01*
%TO.N,Net-(D4-K)*%
X146000000Y-100560000D02*
X146000000Y-97069999D01*
%TO.N,GND*%
X135000000Y-98290000D02*
X134980000Y-98310000D01*
X135000000Y-97250000D02*
X135000000Y-98290000D01*
D44*
%TO.N,+3V3*%
X132750000Y-91750000D02*
X133000000Y-92000000D01*
X133000000Y-92000000D02*
X134350001Y-92000000D01*
%TO.N,VCC*%
X136749999Y-88809999D02*
X137640000Y-89700000D01*
X136749999Y-86499999D02*
X136749999Y-88809999D01*
X134250000Y-84749999D02*
X134999999Y-84749999D01*
X137640000Y-89700000D02*
X140650000Y-89700000D01*
X134999999Y-84749999D02*
X136749999Y-86499999D01*
%TO.N,/VBUS_OUT*%
X135500000Y-87000000D02*
X134250000Y-87000000D01*
D43*
%TO.N,/USB_D-*%
X139250000Y-85750000D02*
X139250000Y-84637500D01*
X142060000Y-86560000D02*
X141250000Y-85750000D01*
X142605736Y-87810000D02*
X142060000Y-87264264D01*
X142060000Y-87264264D02*
X142060000Y-86560000D01*
X141250000Y-85750000D02*
X139250000Y-85750000D01*
X143455000Y-87810000D02*
X142605736Y-87810000D01*
D44*
%TO.N,/VBUS_OUT*%
X137637500Y-84637500D02*
X138300001Y-84637500D01*
X137500000Y-84500000D02*
X137637500Y-84637500D01*
D43*
%TO.N,/USB_D+*%
X142360000Y-87140000D02*
X142530000Y-87310000D01*
X142360000Y-86265000D02*
X142360000Y-87140000D01*
X140732500Y-84637500D02*
X142360000Y-86265000D01*
X142530000Y-87310000D02*
X143455000Y-87310000D01*
X140199999Y-84637500D02*
X140732500Y-84637500D01*
X142500000Y-86310000D02*
X143455000Y-86310000D01*
X142360000Y-87140000D02*
X142360000Y-86450000D01*
X142360000Y-86450000D02*
X142500000Y-86310000D01*
D44*
%TO.N,/VBUS*%
X136525000Y-82020000D02*
X136867500Y-82362500D01*
X136500000Y-82020000D02*
X136525000Y-82020000D01*
D43*
%TO.N,GND*%
X136480000Y-83000000D02*
X136500000Y-82980000D01*
X135750000Y-83000000D02*
X136480000Y-83000000D01*
D44*
%TO.N,/VBUS*%
X143455000Y-84609999D02*
X142447498Y-84609999D01*
%TO.N,VIN*%
X132750001Y-82250001D02*
X134250000Y-82250001D01*
X132500000Y-82000000D02*
X132750001Y-82250001D01*
D43*
%TO.N,/USB_D-*%
X143455000Y-86810000D02*
X144500000Y-86810000D01*
X144500000Y-87810000D02*
X143455000Y-87810000D01*
X144750000Y-87560000D02*
X144500000Y-87810000D01*
X144750000Y-87060000D02*
X144750000Y-87560000D01*
X144500000Y-86810000D02*
X144750000Y-87060000D01*
%TO.N,GND*%
X112032819Y-87604681D02*
X111887500Y-87750000D01*
X108000000Y-87000000D02*
X108000000Y-87270000D01*
X145900000Y-90600000D02*
X144615381Y-90600000D01*
X111775000Y-90053248D02*
X111775000Y-90250000D01*
X135560000Y-101810000D02*
X134980000Y-101810000D01*
X130010000Y-101510000D02*
X132990000Y-101510000D01*
X112289124Y-89539124D02*
X111775000Y-90053248D01*
X101050000Y-87462500D02*
X100420000Y-86832500D01*
X108500000Y-86012500D02*
X108500000Y-86500000D01*
X144325381Y-90310000D02*
X143455000Y-90310000D01*
X135875000Y-102125000D02*
X135560000Y-101810000D01*
X104950000Y-88462500D02*
X104200000Y-89212500D01*
X107980000Y-93012500D02*
X107980000Y-92664252D01*
X143455000Y-83810000D02*
X142560000Y-83810000D01*
X145730000Y-83520000D02*
X144500000Y-83520000D01*
X112000000Y-82975000D02*
X112975000Y-82975000D01*
X112975000Y-82975000D02*
X113000000Y-83000000D01*
X112566784Y-100316784D02*
X112566784Y-100936784D01*
X112745604Y-87604681D02*
X112032819Y-87604681D01*
X144500000Y-83520000D02*
X144210000Y-83810000D01*
X132990000Y-101510000D02*
X133000000Y-101500000D01*
X91275000Y-83750000D02*
X94000000Y-83750000D01*
X108500000Y-86500000D02*
X108000000Y-87000000D01*
X112566784Y-100936784D02*
X113140000Y-101510000D01*
X147500000Y-95500000D02*
X147500000Y-94569999D01*
X143455000Y-90310000D02*
X143190000Y-90310000D01*
X107980000Y-92664252D02*
X107664124Y-92348376D01*
X146000000Y-94569999D02*
X149000000Y-94569999D01*
X100420000Y-86832500D02*
X100250000Y-86832500D01*
X91275000Y-91750000D02*
X92862035Y-91750000D01*
X106199999Y-94262500D02*
X106500000Y-94562501D01*
X144210000Y-83810000D02*
X143455000Y-83810000D01*
X105500000Y-94262500D02*
X106199999Y-94262500D01*
X113140000Y-101510000D02*
X114000000Y-101510000D01*
X106637500Y-88462500D02*
X104950000Y-88462500D01*
X91275000Y-88250000D02*
X92500000Y-88250000D01*
X142560000Y-83810000D02*
X142250000Y-83500000D01*
X144615381Y-90600000D02*
X144325381Y-90310000D01*
X112000000Y-82975000D02*
X112000000Y-82000000D01*
X112500000Y-100250000D02*
X112566784Y-100316784D01*
X145750000Y-83500000D02*
X145730000Y-83520000D01*
X92862035Y-91750000D02*
X93250000Y-91750000D01*
X108493750Y-86006250D02*
X108500000Y-86012500D01*
X91275000Y-89750000D02*
X92500000Y-89750000D01*
X101762500Y-87462500D02*
X101050000Y-87462500D01*
X143190000Y-90310000D02*
X142500000Y-91000000D01*
X130000000Y-101500000D02*
X130010000Y-101510000D01*
%TO.N,Net-(J1-SHIELD)*%
X149000000Y-93550001D02*
X149000000Y-91830000D01*
X149000000Y-91830000D02*
X148550000Y-91380000D01*
%TO.N,Net-(J1-CC1)*%
X143455001Y-88310000D02*
X142250000Y-88310000D01*
X145250000Y-92810000D02*
X145259999Y-92810000D01*
X145259999Y-92810000D02*
X146000000Y-93550001D01*
%TO.N,Net-(J1-CC2)*%
X147000000Y-93050001D02*
X147500000Y-93550001D01*
X143455000Y-85310000D02*
X142250000Y-85310000D01*
X147000000Y-92810000D02*
X147000000Y-93050001D01*
D44*
%TO.N,+3V3*%
X104137500Y-94812501D02*
X104850002Y-94812501D01*
X108520000Y-88230000D02*
X108000000Y-88230000D01*
X106500000Y-96462499D02*
X105550001Y-96462499D01*
X91209431Y-98751735D02*
X92434431Y-98751735D01*
X92709431Y-99726735D02*
X91209432Y-99726735D01*
X94434431Y-99001735D02*
X94184431Y-99251735D01*
X131510000Y-100250000D02*
X131500000Y-100240000D01*
X92434431Y-98751735D02*
X92835902Y-99153206D01*
X111449999Y-86800001D02*
X111887500Y-86800001D01*
X107738459Y-93814740D02*
X107738459Y-94250959D01*
X109000000Y-87750000D02*
X108520000Y-88230000D01*
X121250000Y-81750000D02*
X120510000Y-81750000D01*
X108100000Y-87962500D02*
X106637500Y-87962500D01*
X94032960Y-99251735D02*
X93682960Y-99601735D01*
X107738459Y-94250959D02*
X107750000Y-94262500D01*
X132500000Y-100250000D02*
X131510000Y-100250000D01*
X106800001Y-96462499D02*
X106500000Y-96462499D01*
X104850002Y-94812501D02*
X106500000Y-96462499D01*
X134020000Y-101810000D02*
X134020000Y-100830000D01*
X133990000Y-100800000D02*
X134020000Y-100830000D01*
X110523763Y-87726237D02*
X111449999Y-86800001D01*
X111449999Y-88699999D02*
X110625000Y-87875000D01*
X93185902Y-99601735D02*
X92835902Y-99251735D01*
X105199999Y-96712499D02*
X104137500Y-96712499D01*
X110500000Y-87726237D02*
X110523763Y-87726237D01*
X107750000Y-95512500D02*
X106800001Y-96462499D01*
X92835902Y-99153206D02*
X92835902Y-99251735D01*
X107750000Y-94262500D02*
X107750000Y-95512500D01*
X109000000Y-87750000D02*
X110476237Y-87750000D01*
X92834431Y-99601735D02*
X92709431Y-99726735D01*
X105250000Y-96762500D02*
X105199999Y-96712499D01*
X133990001Y-100060000D02*
X133990000Y-100800000D01*
X92835902Y-99251735D02*
X91209431Y-99251735D01*
X112000000Y-84525000D02*
X112000000Y-85537500D01*
X93682960Y-99601735D02*
X93185902Y-99601735D01*
X112900000Y-83625000D02*
X112000000Y-84525000D01*
X110625000Y-87851237D02*
X110500000Y-87726237D01*
X118250000Y-81750000D02*
X117510000Y-81750000D01*
X111887500Y-88699999D02*
X111449999Y-88699999D01*
X94184431Y-99251735D02*
X94032960Y-99251735D01*
X111887500Y-85650000D02*
X111887500Y-86800001D01*
X110625000Y-87875000D02*
X110625000Y-87851237D01*
X113875000Y-83625000D02*
X112900000Y-83625000D01*
X133050000Y-100800000D02*
X133990000Y-100800000D01*
X110476237Y-87750000D02*
X110500000Y-87726237D01*
X132500000Y-100250000D02*
X133050000Y-100800000D01*
X105550001Y-96462499D02*
X105250000Y-96762500D01*
X93185902Y-99601735D02*
X92834431Y-99601735D01*
X112000000Y-85537500D02*
X111887500Y-85650000D01*
%TO.N,+1V8*%
X106869059Y-91893441D02*
X107020000Y-92044382D01*
X106625618Y-91650000D02*
X105950000Y-91650000D01*
X109612500Y-89262500D02*
X109612500Y-89637500D01*
X107020000Y-92044382D02*
X107020000Y-93012500D01*
X108500000Y-89012500D02*
X109612500Y-89012500D01*
X106869059Y-91893441D02*
X106625618Y-91650000D01*
X109612500Y-88699999D02*
X109612500Y-89262500D01*
X109612500Y-89637500D02*
X110225000Y-90250000D01*
X109612500Y-89012500D02*
X109612500Y-89262500D01*
D43*
%TO.N,/HPRCOM*%
X95750000Y-88750000D02*
X91275000Y-88750000D01*
X96962500Y-89962500D02*
X95750000Y-88750000D01*
X101762500Y-89962500D02*
X96962500Y-89962500D01*
%TO.N,/MIC1R-*%
X97774999Y-82500000D02*
X98250000Y-82024999D01*
X94500000Y-82750000D02*
X94750000Y-82500000D01*
X91275000Y-82750000D02*
X94500000Y-82750000D01*
X94750000Y-82500000D02*
X97774999Y-82500000D01*
%TO.N,/LEFT_LO-*%
X103950000Y-92587500D02*
X103975000Y-92612500D01*
X103950000Y-91650000D02*
X103950000Y-92587500D01*
%TO.N,/MICBIAS*%
X102700000Y-86112500D02*
X102950000Y-86362500D01*
X101837500Y-86350000D02*
X102075000Y-86112500D01*
X102075000Y-86112500D02*
X102700000Y-86112500D01*
X102950000Y-86362500D02*
X102950000Y-86775000D01*
%TO.N,/HPLCOM*%
X96250000Y-87750000D02*
X91275000Y-87750000D01*
X101762500Y-88962500D02*
X97462500Y-88962500D01*
X97462500Y-88962500D02*
X96250000Y-87750000D01*
%TO.N,/HPROUT*%
X95500000Y-89250000D02*
X91275000Y-89250000D01*
X96712500Y-90462500D02*
X95500000Y-89250000D01*
X101762500Y-90462500D02*
X96712500Y-90462500D01*
%TO.N,/MIC1R+*%
X99943751Y-82824999D02*
X100500000Y-82268750D01*
X94750000Y-83250000D02*
X95175001Y-82824999D01*
X91275000Y-83250000D02*
X94750000Y-83250000D01*
X95175001Y-82824999D02*
X99943751Y-82824999D01*
X100500000Y-82268750D02*
X100500000Y-81787499D01*
%TO.N,/HPLOUT*%
X97787500Y-88462500D02*
X101762500Y-88462500D01*
X96575000Y-87250000D02*
X91275000Y-87250000D01*
X97787500Y-88462500D02*
X96575000Y-87250000D01*
%TO.N,/MIC1L+*%
X97000000Y-84000000D02*
X96250000Y-84750000D01*
X96250000Y-84750000D02*
X91275000Y-84750000D01*
X106000000Y-84000000D02*
X97000000Y-84000000D01*
X108000000Y-82000000D02*
X106000000Y-84000000D01*
X108000000Y-81787499D02*
X108000000Y-82000000D01*
%TO.N,/MIC1L-*%
X104074999Y-83700000D02*
X96800000Y-83700000D01*
X96800000Y-83700000D02*
X96250000Y-84250000D01*
X96250000Y-84250000D02*
X91275000Y-84250000D01*
X105750000Y-82024999D02*
X104074999Y-83700000D01*
%TO.N,/I2C_SDA*%
X118305000Y-83195000D02*
X119490000Y-82010000D01*
X119490000Y-82010000D02*
X119490000Y-81750000D01*
X118305000Y-86445000D02*
X118305000Y-84310000D01*
X118305000Y-84310000D02*
X118305000Y-83195000D01*
X118250000Y-86500000D02*
X118305000Y-86445000D01*
%TO.N,/I2C_SCL*%
X107250000Y-87000000D02*
X107100000Y-87000000D01*
X116750000Y-86500000D02*
X117035000Y-86215000D01*
X117035000Y-83285000D02*
X116490000Y-82740000D01*
X117035000Y-84310000D02*
X117035000Y-83285000D01*
X117035000Y-86215000D02*
X117035000Y-84310000D01*
X107100000Y-87000000D02*
X106637500Y-87462500D01*
X116490000Y-82740000D02*
X116490000Y-81750000D01*
%TO.N,/CODEC_EN*%
X106300000Y-92712500D02*
X106095970Y-92712500D01*
X105450000Y-92066530D02*
X105450000Y-91650000D01*
X115250000Y-87250000D02*
X118500000Y-87250000D01*
X106095970Y-92712500D02*
X105450000Y-92066530D01*
X118500000Y-87250000D02*
X119575000Y-86175000D01*
X119575000Y-86175000D02*
X119575000Y-84310000D01*
%TO.N,/RX*%
X94500000Y-92000000D02*
X94500000Y-91500000D01*
X110750000Y-97750000D02*
X100250000Y-97750000D01*
X112000000Y-96500000D02*
X110750000Y-97750000D01*
X114000000Y-96430000D02*
X113930000Y-96500000D01*
X113930000Y-96500000D02*
X112000000Y-96500000D01*
X100250000Y-97750000D02*
X94500000Y-92000000D01*
X93750000Y-90750000D02*
X91275000Y-90750000D01*
X94500000Y-91500000D02*
X93750000Y-90750000D01*
%TO.N,/TX*%
X93500000Y-91250000D02*
X91275000Y-91250000D01*
X114000000Y-97700000D02*
X111800000Y-97700000D01*
X93950000Y-91700000D02*
X93500000Y-91250000D01*
X100200000Y-98200000D02*
X93950000Y-91950000D01*
X93950000Y-91950000D02*
X93950000Y-91700000D01*
X111300000Y-98200000D02*
X100200000Y-98200000D01*
X111800000Y-97700000D02*
X111300000Y-98200000D01*
%TO.N,/I2S_DO*%
X113850000Y-91500000D02*
X114000000Y-91350000D01*
X107450000Y-89462500D02*
X109487500Y-91500000D01*
X106637500Y-89462500D02*
X107450000Y-89462500D01*
X109487500Y-91500000D02*
X113850000Y-91500000D01*
%TO.N,/I2S_DI*%
X109612500Y-91000000D02*
X112500000Y-91000000D01*
X113420000Y-90080000D02*
X114000000Y-90080000D01*
X107575000Y-88962500D02*
X109612500Y-91000000D01*
X106637500Y-88962500D02*
X107575000Y-88962500D01*
X112500000Y-91000000D02*
X113420000Y-90080000D01*
%TO.N,/I2S_BCLK*%
X106637500Y-90462500D02*
X107200000Y-90462500D01*
X107200000Y-90462500D02*
X110627500Y-93890000D01*
X110627500Y-93890000D02*
X114000000Y-93890000D01*
%TO.N,/I2S_MCLK*%
X106637500Y-90962500D02*
X106950000Y-90962500D01*
X111147500Y-95160000D02*
X114000000Y-95160000D01*
X106950000Y-90962500D02*
X111147500Y-95160000D01*
%TO.N,/I2S_LRCLK*%
X107325000Y-89962500D02*
X109862500Y-92500000D01*
X109862500Y-92500000D02*
X113880000Y-92500000D01*
X106637500Y-89962500D02*
X107325000Y-89962500D01*
X113880000Y-92500000D02*
X114000000Y-92620000D01*
D44*
%TO.N,A3V0*%
X101762500Y-90962500D02*
X101762500Y-92970000D01*
X100497518Y-93752482D02*
X100980018Y-93752482D01*
X100250000Y-91132500D02*
X101082500Y-91132500D01*
X100980018Y-93752482D02*
X101520000Y-93212500D01*
X99750000Y-94868191D02*
X99750000Y-94712499D01*
X99389585Y-87286264D02*
X99895821Y-87792500D01*
X100420000Y-87962500D02*
X101762500Y-87962500D01*
X101862500Y-96712499D02*
X101728404Y-96846595D01*
X100250000Y-87792500D02*
X100420000Y-87962500D01*
X99895821Y-87792500D02*
X100250000Y-87792500D01*
X100497518Y-93964981D02*
X99750000Y-94712499D01*
X101728404Y-96846595D02*
X99750000Y-94868191D01*
X101082500Y-91132500D02*
X101762500Y-91812500D01*
X101762500Y-92970000D02*
X101520000Y-93212500D01*
X100497518Y-93752482D02*
X100497518Y-93964981D01*
%TO.N,VIN*%
X92835902Y-100750264D02*
X93184431Y-100401735D01*
X92835902Y-100751735D02*
X92835902Y-100750264D01*
X92835902Y-100850264D02*
X92835902Y-100751735D01*
X92657696Y-100275000D02*
X91211166Y-100275000D01*
X92784431Y-100401735D02*
X92657696Y-100275000D01*
X92835902Y-100751735D02*
X91209431Y-100751735D01*
X91211166Y-100275000D02*
X91209431Y-100276735D01*
X94434431Y-101001735D02*
X93834431Y-100401735D01*
X93184431Y-100401735D02*
X92784431Y-100401735D01*
X93834431Y-100401735D02*
X93184431Y-100401735D01*
X91209431Y-101251735D02*
X92434431Y-101251735D01*
X92434431Y-101251735D02*
X92835902Y-100850264D01*
D43*
%TO.N,Net-(U1-EN)*%
X131500000Y-98970000D02*
X133840000Y-98970000D01*
X134020000Y-98830000D02*
X135009999Y-99819999D01*
X134020000Y-98310000D02*
X134020000Y-98830000D01*
X135009999Y-99819999D02*
X135009999Y-100060000D01*
X133840000Y-98970000D02*
X134020000Y-98790000D01*
X134020000Y-98790000D02*
X134020000Y-98310000D01*
%TO.N,Net-(U5-MIC1L-)*%
X104950000Y-85775001D02*
X105750000Y-84975001D01*
X104950000Y-86775000D02*
X104950000Y-85775001D01*
%TO.N,Net-(U5-MIC1R-)*%
X98975001Y-84975001D02*
X98250000Y-84975001D01*
X103077787Y-85812500D02*
X99812500Y-85812500D01*
X103950000Y-85981191D02*
X103671752Y-85702943D01*
X103950000Y-86775000D02*
X103950000Y-85981191D01*
X103123239Y-85857952D02*
X103077787Y-85812500D01*
X99812500Y-85812500D02*
X98975001Y-84975001D01*
X103671752Y-85702943D02*
X103278248Y-85702943D01*
X103278248Y-85702943D02*
X103123239Y-85857952D01*
%TO.N,Net-(U5-MIC1L+)*%
X108690502Y-85531250D02*
X108692127Y-85532874D01*
X105450000Y-86775000D02*
X105450000Y-86300000D01*
X107250000Y-86000000D02*
X107718750Y-85531250D01*
X108692127Y-85532874D02*
X109250000Y-84975001D01*
X105750000Y-86000000D02*
X107250000Y-86000000D01*
X107718750Y-85531250D02*
X108690502Y-85531250D01*
X105450000Y-86300000D02*
X105750000Y-86000000D01*
%TO.N,Net-(U5-MIC1R+)*%
X104175000Y-85503679D02*
X104175000Y-85425000D01*
X104175000Y-85425000D02*
X103725001Y-84975001D01*
X103725001Y-84975001D02*
X101750000Y-84975001D01*
X104450000Y-85775001D02*
X104446322Y-85775001D01*
X104450000Y-86775000D02*
X104450000Y-85775001D01*
X104446322Y-85775001D02*
X104175000Y-85503679D01*
%TO.N,/SPI_MOSI*%
X124655000Y-86095000D02*
X124655000Y-84310000D01*
X124500000Y-86250000D02*
X124655000Y-86095000D01*
%TO.N,/SPI_CLK*%
X123385000Y-86115000D02*
X123385000Y-84310000D01*
X123250000Y-86250000D02*
X123385000Y-86115000D01*
%TO.N,/SPI_MISO*%
X122000000Y-86250000D02*
X122115000Y-86135000D01*
X122115000Y-86135000D02*
X122115000Y-84310000D01*
%TO.N,/IO5*%
X120335412Y-101339588D02*
X119750000Y-101925000D01*
X131500000Y-96430000D02*
X131070000Y-96430000D01*
X131070000Y-96430000D02*
X129750000Y-97750000D01*
X129750000Y-97750000D02*
X129750000Y-99000000D01*
X127410412Y-101339588D02*
X120335412Y-101339588D01*
X129750000Y-99000000D02*
X127410412Y-101339588D01*
D44*
%TO.N,/VBUS*%
X145175000Y-85602652D02*
X144182347Y-84609999D01*
X144182347Y-84609999D02*
X143455000Y-84609999D01*
X143455000Y-89510001D02*
X144174999Y-89510001D01*
X145175000Y-88510000D02*
X145175000Y-85602652D01*
X144174999Y-89510001D02*
X145175000Y-88510000D01*
D43*
%TO.N,/IO6*%
X119625000Y-101000000D02*
X119000000Y-101625000D01*
X93500000Y-95250000D02*
X91275000Y-95250000D01*
X127000000Y-101000000D02*
X119625000Y-101000000D01*
X131090000Y-95160000D02*
X129250000Y-97000000D01*
X99225000Y-100975000D02*
X93500000Y-95250000D01*
X109175000Y-101175000D02*
X108975000Y-100975000D01*
X110250000Y-101175000D02*
X109175000Y-101175000D01*
X129250000Y-97000000D02*
X129250000Y-98750000D01*
X108975000Y-100975000D02*
X99225000Y-100975000D01*
X129250000Y-98750000D02*
X127000000Y-101000000D01*
X131500000Y-95160000D02*
X131090000Y-95160000D01*
%TO.N,/IO1*%
X114000000Y-100240000D02*
X113140000Y-100240000D01*
X112911984Y-99411984D02*
X112275000Y-98775000D01*
X113140000Y-100240000D02*
X112911984Y-100011984D01*
X93750000Y-92750000D02*
X91275000Y-92750000D01*
X111838497Y-98775000D02*
X111663497Y-98950000D01*
X112911984Y-100011984D02*
X112911984Y-99411984D01*
X111663497Y-98950000D02*
X99950000Y-98950000D01*
X112275000Y-98775000D02*
X111838497Y-98775000D01*
X99950000Y-98950000D02*
X93750000Y-92750000D01*
%TO.N,/IO2*%
X112649264Y-98475000D02*
X111714233Y-98475000D01*
X114000000Y-98970000D02*
X113140000Y-98970000D01*
X112960249Y-98785985D02*
X112649264Y-98475000D01*
X93750000Y-92250000D02*
X91275000Y-92250000D01*
X111714233Y-98475000D02*
X111689233Y-98500000D01*
X112960249Y-98790249D02*
X112960249Y-98785985D01*
X113140000Y-98970000D02*
X112960249Y-98790249D01*
X100000000Y-98500000D02*
X93750000Y-92250000D01*
X111689233Y-98500000D02*
X100000000Y-98500000D01*
%TO.N,/IO7*%
X118761827Y-100299997D02*
X126950003Y-100299997D01*
X126950003Y-100299997D02*
X128750000Y-98500000D01*
X128750000Y-95750000D02*
X130610000Y-93890000D01*
X130610000Y-93890000D02*
X131500000Y-93890000D01*
X110500000Y-100750000D02*
X109975000Y-100225000D01*
X118000000Y-101061824D02*
X118761827Y-100299997D01*
X99500000Y-100500000D02*
X93911764Y-94911764D01*
X109132642Y-100500000D02*
X99500000Y-100500000D01*
X92250000Y-94911764D02*
X92088236Y-94750000D01*
X92088236Y-94750000D02*
X91275000Y-94750000D01*
X128750000Y-98500000D02*
X128750000Y-95750000D01*
X109407642Y-100225000D02*
X109132642Y-100500000D01*
X118000000Y-101250000D02*
X118000000Y-101061824D01*
X93911764Y-94911764D02*
X92250000Y-94911764D01*
X111000000Y-100750000D02*
X110500000Y-100750000D01*
X109975000Y-100225000D02*
X109407642Y-100225000D01*
%TO.N,/IO8*%
X118000000Y-100000000D02*
X126500000Y-100000000D01*
X126500000Y-100000000D02*
X128250000Y-98250000D01*
X128250000Y-89500000D02*
X130200000Y-87550000D01*
X128250000Y-98250000D02*
X128250000Y-89500000D01*
X130200000Y-87550000D02*
X131395606Y-87550000D01*
X117250000Y-100750000D02*
X118000000Y-100000000D01*
%TO.N,/IO10*%
X116200000Y-99675000D02*
X115500000Y-99675000D01*
X92225000Y-93050000D02*
X92025000Y-93250000D01*
X99750000Y-99250000D02*
X93550000Y-93050000D01*
X93550000Y-93050000D02*
X92225000Y-93050000D01*
X125925000Y-84310000D02*
X125925000Y-85675000D01*
X127250000Y-97750000D02*
X126000000Y-99000000D01*
X127250000Y-87000000D02*
X127250000Y-97750000D01*
X116875000Y-99000000D02*
X116200000Y-99675000D01*
X112035249Y-99250000D02*
X99750000Y-99250000D01*
X92025000Y-93250000D02*
X91275000Y-93250000D01*
X126000000Y-99000000D02*
X116875000Y-99000000D01*
X125925000Y-85675000D02*
X127250000Y-87000000D01*
%TO.N,/IO18*%
X129810000Y-88810000D02*
X131500000Y-88810000D01*
X129750000Y-88750000D02*
X129810000Y-88810000D01*
%TO.N,/IO17*%
X129375000Y-90125000D02*
X131455000Y-90125000D01*
X131455000Y-90125000D02*
X131500000Y-90080000D01*
%TO.N,/IO16*%
X129500000Y-91250000D02*
X129600000Y-91350000D01*
X129600000Y-91350000D02*
X131500000Y-91350000D01*
%TO.N,/IO14*%
X120845000Y-89155000D02*
X120845000Y-84310000D01*
X119250000Y-90750000D02*
X120845000Y-89155000D01*
%TO.N,/IO15*%
X129620000Y-92620000D02*
X131500000Y-92620000D01*
X129500000Y-92500000D02*
X129620000Y-92620000D01*
%TO.N,/IO4*%
X99000000Y-102250000D02*
X93000000Y-96250000D01*
X93000000Y-96250000D02*
X91275000Y-96250000D01*
X127210006Y-102249994D02*
X121500000Y-102249994D01*
X130250000Y-98000000D02*
X130550000Y-97700000D01*
X130250000Y-99210000D02*
X127210006Y-102249994D01*
X130250000Y-98000000D02*
X130250000Y-99210000D01*
X130550000Y-97700000D02*
X131500000Y-97700000D01*
X108500000Y-102250000D02*
X99000000Y-102250000D01*
%TO.N,/MIC2L*%
X103450000Y-86202943D02*
X103450000Y-86775000D01*
X103475000Y-86177943D02*
X103450000Y-86202943D01*
%TO.N,/MIC2R*%
X101300000Y-87012500D02*
X102212500Y-87012500D01*
X102212500Y-87012500D02*
X102450000Y-86775000D01*
X99200000Y-86087500D02*
X99362500Y-86250000D01*
X100537500Y-86250000D02*
X101300000Y-87012500D01*
X99362500Y-86250000D02*
X100537500Y-86250000D01*
%TD*%
%TA.AperFunction,Conductor*%
%TO.N,GND*%
G36*
X139443039Y-86269685D02*
G01*
X139488794Y-86322489D01*
X139500000Y-86374000D01*
X139500000Y-87626000D01*
X139480315Y-87693039D01*
X139427511Y-87738794D01*
X139376000Y-87750000D01*
X137874000Y-87750000D01*
X137806961Y-87730315D01*
X137761206Y-87677511D01*
X137750000Y-87626000D01*
X137750000Y-86374000D01*
X137769685Y-86306961D01*
X137822489Y-86261206D01*
X137874000Y-86250000D01*
X139376000Y-86250000D01*
X139443039Y-86269685D01*
G37*
%TD.AperFunction*%
%TD*%
%TA.AperFunction,Conductor*%
%TO.N,+3V3*%
G36*
X137487388Y-90016612D02*
G01*
X137504712Y-90026614D01*
X137593856Y-90050500D01*
X138749138Y-90050500D01*
X138816177Y-90070185D01*
X138836819Y-90086819D01*
X139750000Y-91000000D01*
X141626000Y-91000000D01*
X141693039Y-91019685D01*
X141738794Y-91072489D01*
X141750000Y-91124000D01*
X141750000Y-92876000D01*
X141730315Y-92943039D01*
X141677511Y-92988794D01*
X141626000Y-93000000D01*
X140249999Y-93000000D01*
X139910849Y-93339149D01*
X139870621Y-93366029D01*
X139734770Y-93422300D01*
X139734767Y-93422301D01*
X139734767Y-93422302D01*
X139666095Y-93474996D01*
X139614549Y-93514549D01*
X139522300Y-93634770D01*
X139464313Y-93774763D01*
X139464313Y-93774764D01*
X139449500Y-93887272D01*
X139449500Y-94712727D01*
X139464313Y-94825235D01*
X139464313Y-94825236D01*
X139490561Y-94888603D01*
X139500000Y-94936056D01*
X139500000Y-99876000D01*
X139480315Y-99943039D01*
X139427511Y-99988794D01*
X139376000Y-100000000D01*
X136500000Y-100000000D01*
X136374000Y-100000000D01*
X136306961Y-99980315D01*
X136261206Y-99927511D01*
X136250000Y-99876000D01*
X136250000Y-96250000D01*
X133536319Y-93536319D01*
X133502834Y-93474996D01*
X133500000Y-93448638D01*
X133500000Y-90551362D01*
X133519685Y-90484323D01*
X133536319Y-90463681D01*
X133963681Y-90036319D01*
X134025004Y-90002834D01*
X134051362Y-90000000D01*
X137425390Y-90000000D01*
X137487388Y-90016612D01*
G37*
%TD.AperFunction*%
%TD*%
%TA.AperFunction,Conductor*%
%TO.N,GND*%
G36*
X95422272Y-89495185D02*
G01*
X95442914Y-89511819D01*
X96514259Y-90583164D01*
X96514262Y-90583168D01*
X96521330Y-90590236D01*
X96584764Y-90653670D01*
X96609037Y-90663724D01*
X96609038Y-90663725D01*
X96609039Y-90663725D01*
X96667645Y-90688001D01*
X96667646Y-90688001D01*
X96771789Y-90688001D01*
X96771797Y-90688000D01*
X99713598Y-90688000D01*
X99780637Y-90707685D01*
X99826392Y-90760489D01*
X99836336Y-90829647D01*
X99811424Y-90884196D01*
X99812998Y-90885298D01*
X99806777Y-90894182D01*
X99756027Y-91003014D01*
X99749500Y-91052598D01*
X99749500Y-91472394D01*
X99749501Y-91472400D01*
X99756028Y-91521987D01*
X99756029Y-91521989D01*
X99756029Y-91521990D01*
X99789331Y-91593405D01*
X99806776Y-91630816D01*
X99891684Y-91715724D01*
X100000513Y-91766472D01*
X100050099Y-91773000D01*
X100409900Y-91772999D01*
X100459487Y-91766472D01*
X100568316Y-91715724D01*
X100653224Y-91630816D01*
X100688766Y-91554595D01*
X100734938Y-91502156D01*
X100801148Y-91483000D01*
X100885956Y-91483000D01*
X100952995Y-91502685D01*
X100973637Y-91519319D01*
X101375681Y-91921363D01*
X101409166Y-91982686D01*
X101412000Y-92009044D01*
X101412000Y-92583789D01*
X101392315Y-92650828D01*
X101339511Y-92696583D01*
X101304185Y-92706728D01*
X101290516Y-92708527D01*
X101290509Y-92708529D01*
X101181683Y-92759276D01*
X101096776Y-92844183D01*
X101046027Y-92953014D01*
X101039500Y-93002598D01*
X101039500Y-93145955D01*
X101019815Y-93212994D01*
X101003181Y-93233636D01*
X100886153Y-93350664D01*
X100824830Y-93384149D01*
X100755138Y-93379165D01*
X100731433Y-93367298D01*
X100686589Y-93338478D01*
X100686584Y-93338476D01*
X100562292Y-93301982D01*
X100562290Y-93301982D01*
X100432746Y-93301982D01*
X100432744Y-93301982D01*
X100308453Y-93338476D01*
X100308450Y-93338477D01*
X100308449Y-93338478D01*
X100263604Y-93367298D01*
X100199468Y-93408515D01*
X100114636Y-93506419D01*
X100114635Y-93506420D01*
X100060820Y-93624256D01*
X100042385Y-93752482D01*
X100055166Y-93841378D01*
X100045222Y-93910537D01*
X100020111Y-93946705D01*
X99991138Y-93975679D01*
X99929815Y-94009165D01*
X99903455Y-94011999D01*
X99220730Y-94011999D01*
X99190300Y-94014852D01*
X99190298Y-94014852D01*
X99062119Y-94059705D01*
X99062117Y-94059706D01*
X98952850Y-94140349D01*
X98872207Y-94249616D01*
X98872206Y-94249618D01*
X98827353Y-94377797D01*
X98827353Y-94377799D01*
X98824500Y-94408229D01*
X98824500Y-95016768D01*
X98827353Y-95047198D01*
X98827353Y-95047200D01*
X98869969Y-95168986D01*
X98872207Y-95175381D01*
X98952850Y-95284649D01*
X99062118Y-95365292D01*
X99104845Y-95380243D01*
X99190299Y-95410145D01*
X99220730Y-95412999D01*
X99220734Y-95412999D01*
X99747764Y-95412999D01*
X99814803Y-95432684D01*
X99835445Y-95449318D01*
X100963181Y-96577054D01*
X100996666Y-96638377D01*
X100999500Y-96664735D01*
X100999500Y-96895759D01*
X101009426Y-96963890D01*
X101060803Y-97068984D01*
X101143514Y-97151695D01*
X101143515Y-97151695D01*
X101143517Y-97151697D01*
X101248607Y-97203072D01*
X101282673Y-97208035D01*
X101316739Y-97212999D01*
X101316740Y-97212999D01*
X102408261Y-97212999D01*
X102430971Y-97209690D01*
X102476393Y-97203072D01*
X102581483Y-97151697D01*
X102664198Y-97068982D01*
X102715573Y-96963892D01*
X102725500Y-96895759D01*
X102725500Y-96529239D01*
X102715573Y-96461106D01*
X102664198Y-96356016D01*
X102664196Y-96356014D01*
X102664196Y-96356013D01*
X102581485Y-96273302D01*
X102476391Y-96221925D01*
X102408261Y-96211999D01*
X102408260Y-96211999D01*
X101640852Y-96211999D01*
X101573813Y-96192314D01*
X101553171Y-96175680D01*
X100663466Y-95285975D01*
X100629981Y-95224652D01*
X100634106Y-95157339D01*
X100672646Y-95047200D01*
X100672646Y-95047198D01*
X100675500Y-95016768D01*
X100675500Y-95007357D01*
X101049500Y-95007357D01*
X101049502Y-95007383D01*
X101052413Y-95032488D01*
X101052415Y-95032492D01*
X101097793Y-95135265D01*
X101097794Y-95135266D01*
X101177235Y-95214707D01*
X101280009Y-95260086D01*
X101305135Y-95263001D01*
X102419864Y-95263000D01*
X102419879Y-95262998D01*
X102419882Y-95262998D01*
X102444987Y-95260087D01*
X102444988Y-95260086D01*
X102444991Y-95260086D01*
X102547765Y-95214707D01*
X102627206Y-95135266D01*
X102672585Y-95032492D01*
X102675500Y-95007366D01*
X102675499Y-94617637D01*
X102675497Y-94617618D01*
X102672586Y-94592513D01*
X102672585Y-94592511D01*
X102672585Y-94592510D01*
X102627206Y-94489736D01*
X102547765Y-94410295D01*
X102543086Y-94408229D01*
X102444992Y-94364916D01*
X102419865Y-94362001D01*
X101305143Y-94362001D01*
X101305117Y-94362003D01*
X101280012Y-94364914D01*
X101280008Y-94364916D01*
X101177235Y-94410294D01*
X101097794Y-94489735D01*
X101052415Y-94592507D01*
X101052415Y-94592509D01*
X101049500Y-94617632D01*
X101049500Y-95007357D01*
X100675500Y-95007357D01*
X100675500Y-94408229D01*
X100672647Y-94377805D01*
X100671036Y-94370431D01*
X100673793Y-94369828D01*
X100670896Y-94313234D01*
X100703824Y-94254356D01*
X100777986Y-94180195D01*
X100777986Y-94180194D01*
X100777988Y-94180193D01*
X100786770Y-94164981D01*
X100837337Y-94116766D01*
X100894157Y-94102982D01*
X101026160Y-94102982D01*
X101026162Y-94102982D01*
X101115306Y-94079096D01*
X101121534Y-94075500D01*
X101195230Y-94032952D01*
X101468863Y-93759317D01*
X101530186Y-93725833D01*
X101556544Y-93722999D01*
X101699895Y-93722999D01*
X101699900Y-93722999D01*
X101749487Y-93716472D01*
X101858316Y-93665724D01*
X101943224Y-93580816D01*
X101993972Y-93471987D01*
X102000500Y-93422401D01*
X102000499Y-93279044D01*
X102020183Y-93212005D01*
X102036813Y-93191368D01*
X102042970Y-93185212D01*
X102089114Y-93105288D01*
X102113000Y-93016144D01*
X102113000Y-92923856D01*
X102113000Y-92387122D01*
X102132685Y-92320083D01*
X102185489Y-92274328D01*
X102254647Y-92264384D01*
X102284464Y-92272565D01*
X102284874Y-92272734D01*
X102284883Y-92272740D01*
X102361599Y-92288000D01*
X102538400Y-92287999D01*
X102615117Y-92272740D01*
X102615118Y-92272739D01*
X102627095Y-92270357D01*
X102627729Y-92273546D01*
X102677530Y-92268190D01*
X102740011Y-92299462D01*
X102775666Y-92359550D01*
X102777993Y-92409618D01*
X102773210Y-92439820D01*
X102759799Y-92524499D01*
X102758058Y-92535489D01*
X102758058Y-92535490D01*
X102777902Y-92660787D01*
X102777902Y-92660788D01*
X102777904Y-92660791D01*
X102835500Y-92773829D01*
X102835502Y-92773831D01*
X102835504Y-92773834D01*
X102925202Y-92863532D01*
X102925204Y-92863533D01*
X102925208Y-92863537D01*
X102956973Y-92879722D01*
X103007768Y-92927696D01*
X103024563Y-92995517D01*
X103002025Y-93061652D01*
X102973562Y-93090525D01*
X102967605Y-93094852D01*
X102877906Y-93184551D01*
X102877903Y-93184556D01*
X102877902Y-93184557D01*
X102863664Y-93212500D01*
X102820304Y-93297597D01*
X102820304Y-93297598D01*
X102800460Y-93422895D01*
X102800460Y-93422902D01*
X102820304Y-93548199D01*
X102820304Y-93548200D01*
X102828991Y-93565248D01*
X102877902Y-93661241D01*
X102877904Y-93661243D01*
X102877906Y-93661246D01*
X102967604Y-93750944D01*
X102967606Y-93750945D01*
X102967610Y-93750949D01*
X103080648Y-93808545D01*
X103080649Y-93808545D01*
X103080651Y-93808546D01*
X103205949Y-93828391D01*
X103205952Y-93828391D01*
X103205955Y-93828391D01*
X103331252Y-93808546D01*
X103331253Y-93808546D01*
X103331254Y-93808545D01*
X103331256Y-93808545D01*
X103444294Y-93750949D01*
X103530545Y-93664697D01*
X103591866Y-93631214D01*
X103661558Y-93636198D01*
X103717492Y-93678069D01*
X103728705Y-93696078D01*
X103783486Y-93803590D01*
X103783488Y-93803592D01*
X103783490Y-93803595D01*
X103873188Y-93893293D01*
X103873190Y-93893294D01*
X103873194Y-93893298D01*
X103986232Y-93950894D01*
X103986233Y-93950894D01*
X103986235Y-93950895D01*
X104111533Y-93970740D01*
X104111536Y-93970740D01*
X104111539Y-93970740D01*
X104236836Y-93950895D01*
X104236837Y-93950895D01*
X104236838Y-93950894D01*
X104236840Y-93950894D01*
X104349878Y-93893298D01*
X104439586Y-93803590D01*
X104497182Y-93690552D01*
X104515732Y-93573426D01*
X104528513Y-93546464D01*
X104527918Y-93546266D01*
X104527920Y-93546260D01*
X104530885Y-93541462D01*
X104545660Y-93510295D01*
X104550530Y-93505140D01*
X104557869Y-93497801D01*
X104557873Y-93497794D01*
X105060294Y-92995374D01*
X105060297Y-92995372D01*
X105077735Y-92977934D01*
X105077736Y-92977934D01*
X105141170Y-92914500D01*
X105156398Y-92877736D01*
X105175501Y-92831619D01*
X105175501Y-92741909D01*
X105175501Y-92731920D01*
X105175500Y-92731906D01*
X105175500Y-92410297D01*
X105195185Y-92343258D01*
X105247989Y-92297503D01*
X105317147Y-92287559D01*
X105380703Y-92316584D01*
X105387181Y-92322616D01*
X105713681Y-92649116D01*
X105747166Y-92710439D01*
X105750000Y-92736797D01*
X105750000Y-94611137D01*
X105730315Y-94678176D01*
X105713681Y-94698818D01*
X105560522Y-94851977D01*
X105499199Y-94885462D01*
X105429507Y-94880478D01*
X105385160Y-94851977D01*
X105065215Y-94532032D01*
X105065210Y-94532028D01*
X104985288Y-94485886D01*
X104980385Y-94483855D01*
X104940156Y-94456975D01*
X104856485Y-94373304D01*
X104751391Y-94321927D01*
X104683261Y-94312001D01*
X104683260Y-94312001D01*
X103591740Y-94312001D01*
X103591739Y-94312001D01*
X103523608Y-94321927D01*
X103418514Y-94373304D01*
X103335803Y-94456015D01*
X103284426Y-94561109D01*
X103274500Y-94629240D01*
X103274500Y-94995761D01*
X103284426Y-95063892D01*
X103335803Y-95168986D01*
X103418514Y-95251697D01*
X103418515Y-95251697D01*
X103418517Y-95251699D01*
X103523607Y-95303074D01*
X103557673Y-95308037D01*
X103591739Y-95313001D01*
X103591740Y-95313001D01*
X104683255Y-95313001D01*
X104683260Y-95313001D01*
X104751393Y-95303074D01*
X104751394Y-95303073D01*
X104760924Y-95301685D01*
X104761106Y-95302937D01*
X104821251Y-95302086D01*
X104875684Y-95333865D01*
X104889478Y-95347659D01*
X104922963Y-95408982D01*
X104917979Y-95478674D01*
X104889478Y-95523021D01*
X104236820Y-96175680D01*
X104175497Y-96209165D01*
X104149139Y-96211999D01*
X103591739Y-96211999D01*
X103523608Y-96221925D01*
X103418514Y-96273302D01*
X103335803Y-96356013D01*
X103284426Y-96461107D01*
X103274500Y-96529238D01*
X103274500Y-96895759D01*
X103284426Y-96963890D01*
X103299452Y-96994626D01*
X103311211Y-97063499D01*
X103283867Y-97127796D01*
X103275732Y-97136767D01*
X102924319Y-97488181D01*
X102862996Y-97521666D01*
X102836638Y-97524500D01*
X100713362Y-97524500D01*
X100646323Y-97504815D01*
X100625681Y-97488181D01*
X98286319Y-95148819D01*
X98252834Y-95087496D01*
X98250000Y-95061138D01*
X98250000Y-93212500D01*
X95050000Y-90012500D01*
X92374000Y-90012500D01*
X92306961Y-89992815D01*
X92261206Y-89940011D01*
X92250000Y-89888500D01*
X92250000Y-89599500D01*
X92269685Y-89532461D01*
X92322489Y-89486706D01*
X92374000Y-89475500D01*
X95355233Y-89475500D01*
X95422272Y-89495185D01*
G37*
%TD.AperFunction*%
%TA.AperFunction,Conductor*%
G36*
X96668834Y-84752583D02*
G01*
X96724767Y-84794455D01*
X96749184Y-84859919D01*
X96749500Y-84868765D01*
X96749500Y-85331518D01*
X96755492Y-85369350D01*
X96764354Y-85425305D01*
X96821950Y-85538343D01*
X96821952Y-85538345D01*
X96821954Y-85538348D01*
X96911652Y-85628046D01*
X96911654Y-85628047D01*
X96911658Y-85628051D01*
X97024694Y-85685646D01*
X97024698Y-85685648D01*
X97108739Y-85698958D01*
X97118405Y-85700489D01*
X97118475Y-85700500D01*
X97118481Y-85700501D01*
X98745345Y-85700500D01*
X98812384Y-85720185D01*
X98858139Y-85772988D01*
X98868083Y-85842147D01*
X98855830Y-85880795D01*
X98814352Y-85962198D01*
X98814352Y-85962199D01*
X98794508Y-86087496D01*
X98794508Y-86087503D01*
X98814352Y-86212800D01*
X98814352Y-86212801D01*
X98814354Y-86212804D01*
X98871950Y-86325842D01*
X98871952Y-86325844D01*
X98871954Y-86325847D01*
X98961652Y-86415545D01*
X98961654Y-86415546D01*
X98961658Y-86415550D01*
X99074696Y-86473146D01*
X99074697Y-86473146D01*
X99074699Y-86473147D01*
X99199997Y-86492992D01*
X99200000Y-86492992D01*
X99200002Y-86492992D01*
X99300789Y-86477028D01*
X99320188Y-86475501D01*
X99421789Y-86475501D01*
X99421797Y-86475500D01*
X100392733Y-86475500D01*
X100459772Y-86495185D01*
X100480414Y-86511819D01*
X101101759Y-87133164D01*
X101101762Y-87133168D01*
X101108830Y-87140236D01*
X101172264Y-87203670D01*
X101206592Y-87217888D01*
X101206594Y-87217890D01*
X101206595Y-87217890D01*
X101255146Y-87238001D01*
X101255147Y-87238001D01*
X101359289Y-87238001D01*
X101359297Y-87238000D01*
X102123847Y-87238000D01*
X102190886Y-87257685D01*
X102226947Y-87293107D01*
X102233935Y-87303565D01*
X102268891Y-87326922D01*
X102304390Y-87350642D01*
X102366515Y-87362999D01*
X102366519Y-87363000D01*
X102366520Y-87363000D01*
X102533481Y-87363000D01*
X102533482Y-87362999D01*
X102595609Y-87350642D01*
X102631110Y-87326921D01*
X102697784Y-87306043D01*
X102765165Y-87324526D01*
X102768850Y-87326894D01*
X102804391Y-87350642D01*
X102833309Y-87356394D01*
X102866515Y-87362999D01*
X102866519Y-87363000D01*
X102866520Y-87363000D01*
X103033481Y-87363000D01*
X103033482Y-87362999D01*
X103095609Y-87350642D01*
X103131110Y-87326921D01*
X103197784Y-87306043D01*
X103265165Y-87324526D01*
X103268850Y-87326894D01*
X103304391Y-87350642D01*
X103333309Y-87356394D01*
X103366515Y-87362999D01*
X103366519Y-87363000D01*
X103366520Y-87363000D01*
X103533481Y-87363000D01*
X103533482Y-87362999D01*
X103595609Y-87350642D01*
X103631110Y-87326921D01*
X103697784Y-87306043D01*
X103765165Y-87324526D01*
X103768850Y-87326894D01*
X103804391Y-87350642D01*
X103833309Y-87356394D01*
X103866515Y-87362999D01*
X103866519Y-87363000D01*
X103866520Y-87363000D01*
X104033481Y-87363000D01*
X104033482Y-87362999D01*
X104095609Y-87350642D01*
X104131110Y-87326921D01*
X104197784Y-87306043D01*
X104265165Y-87324526D01*
X104268850Y-87326894D01*
X104304391Y-87350642D01*
X104333309Y-87356394D01*
X104366515Y-87362999D01*
X104366519Y-87363000D01*
X104366520Y-87363000D01*
X104533481Y-87363000D01*
X104533482Y-87362999D01*
X104595609Y-87350642D01*
X104631110Y-87326921D01*
X104697784Y-87306043D01*
X104765165Y-87324526D01*
X104768850Y-87326894D01*
X104804391Y-87350642D01*
X104833309Y-87356394D01*
X104866515Y-87362999D01*
X104866519Y-87363000D01*
X104866520Y-87363000D01*
X105033481Y-87363000D01*
X105033482Y-87362999D01*
X105095609Y-87350642D01*
X105131110Y-87326921D01*
X105197784Y-87306043D01*
X105265165Y-87324526D01*
X105268850Y-87326894D01*
X105304391Y-87350642D01*
X105333309Y-87356394D01*
X105366515Y-87362999D01*
X105366519Y-87363000D01*
X105366520Y-87363000D01*
X105533481Y-87363000D01*
X105533482Y-87362999D01*
X105595609Y-87350642D01*
X105631110Y-87326921D01*
X105697784Y-87306043D01*
X105765165Y-87324526D01*
X105768850Y-87326894D01*
X105804391Y-87350642D01*
X105833315Y-87356395D01*
X105895225Y-87388777D01*
X105929801Y-87449492D01*
X105926063Y-87519262D01*
X105896807Y-87565693D01*
X105750000Y-87712500D01*
X105750000Y-90953973D01*
X105730315Y-91021012D01*
X105677511Y-91066767D01*
X105608353Y-91076711D01*
X105601810Y-91075591D01*
X105554988Y-91066278D01*
X105533480Y-91062000D01*
X105366520Y-91062000D01*
X105366515Y-91062000D01*
X105304390Y-91074357D01*
X105268891Y-91098078D01*
X105202214Y-91118956D01*
X105134834Y-91100472D01*
X105131109Y-91098078D01*
X105095609Y-91074357D01*
X105033484Y-91062000D01*
X105033480Y-91062000D01*
X104866520Y-91062000D01*
X104866515Y-91062000D01*
X104804390Y-91074357D01*
X104768891Y-91098078D01*
X104702214Y-91118956D01*
X104634834Y-91100472D01*
X104631109Y-91098078D01*
X104595609Y-91074357D01*
X104533484Y-91062000D01*
X104533480Y-91062000D01*
X104366520Y-91062000D01*
X104366515Y-91062000D01*
X104304390Y-91074357D01*
X104268891Y-91098078D01*
X104202214Y-91118956D01*
X104134834Y-91100472D01*
X104131109Y-91098078D01*
X104095609Y-91074357D01*
X104033484Y-91062000D01*
X104033480Y-91062000D01*
X103866520Y-91062000D01*
X103866515Y-91062000D01*
X103804390Y-91074357D01*
X103768891Y-91098078D01*
X103702214Y-91118956D01*
X103634834Y-91100472D01*
X103631109Y-91098078D01*
X103595609Y-91074357D01*
X103533484Y-91062000D01*
X103533480Y-91062000D01*
X103366520Y-91062000D01*
X103366515Y-91062000D01*
X103304390Y-91074357D01*
X103233935Y-91121435D01*
X103186857Y-91191890D01*
X103174500Y-91254015D01*
X103174500Y-92022354D01*
X103154815Y-92089393D01*
X103102011Y-92135148D01*
X103069898Y-92144827D01*
X103038249Y-92149839D01*
X103038248Y-92149839D01*
X102951754Y-92193911D01*
X102883084Y-92206807D01*
X102818344Y-92180530D01*
X102778087Y-92123424D01*
X102773843Y-92059230D01*
X102775500Y-92050901D01*
X102775499Y-91805772D01*
X102779724Y-91773680D01*
X102800500Y-91696144D01*
X102800500Y-91603856D01*
X102779724Y-91526318D01*
X102775499Y-91494225D01*
X102775499Y-91249102D01*
X102770805Y-91225500D01*
X102760240Y-91172383D01*
X102760239Y-91172381D01*
X102760238Y-91172379D01*
X102726752Y-91122265D01*
X102702112Y-91085388D01*
X102615117Y-91027260D01*
X102615115Y-91027259D01*
X102615112Y-91027258D01*
X102538404Y-91012000D01*
X102538401Y-91012000D01*
X102524499Y-91012000D01*
X102457460Y-90992315D01*
X102411705Y-90939511D01*
X102400499Y-90888000D01*
X102400499Y-90874102D01*
X102400499Y-90874100D01*
X102385240Y-90797383D01*
X102385239Y-90797381D01*
X102385238Y-90797379D01*
X102344488Y-90736393D01*
X102323610Y-90669716D01*
X102337011Y-90620862D01*
X102333468Y-90619395D01*
X102338142Y-90608109D01*
X102350499Y-90545984D01*
X102350500Y-90545981D01*
X102350500Y-90379019D01*
X102350499Y-90379015D01*
X102338142Y-90316892D01*
X102338142Y-90316891D01*
X102314421Y-90281389D01*
X102293543Y-90214716D01*
X102312026Y-90147335D01*
X102314394Y-90143649D01*
X102338142Y-90108109D01*
X102350500Y-90045980D01*
X102350500Y-89879020D01*
X102338142Y-89816891D01*
X102338142Y-89816890D01*
X102301646Y-89762271D01*
X102291065Y-89746435D01*
X102245670Y-89716103D01*
X102220609Y-89699357D01*
X102158484Y-89687000D01*
X102158480Y-89687000D01*
X101366520Y-89687000D01*
X101366515Y-89687000D01*
X101304393Y-89699356D01*
X101304393Y-89699357D01*
X101304391Y-89699357D01*
X101304391Y-89699358D01*
X101279329Y-89716103D01*
X101212654Y-89736980D01*
X101210441Y-89737000D01*
X97107267Y-89737000D01*
X97040228Y-89717315D01*
X97019586Y-89700681D01*
X95958611Y-88639706D01*
X95958609Y-88639703D01*
X95877735Y-88558829D01*
X95846715Y-88545981D01*
X95846714Y-88545980D01*
X95794855Y-88524499D01*
X95705145Y-88524499D01*
X95690711Y-88524499D01*
X95690703Y-88524500D01*
X92374000Y-88524500D01*
X92306961Y-88504815D01*
X92261206Y-88452011D01*
X92250000Y-88400500D01*
X92250000Y-88099500D01*
X92269685Y-88032461D01*
X92322489Y-87986706D01*
X92374000Y-87975500D01*
X96105233Y-87975500D01*
X96172272Y-87995185D01*
X96192914Y-88011819D01*
X97264259Y-89083164D01*
X97264262Y-89083168D01*
X97271330Y-89090236D01*
X97334764Y-89153670D01*
X97359037Y-89163724D01*
X97359038Y-89163725D01*
X97359039Y-89163725D01*
X97417645Y-89188001D01*
X97417646Y-89188001D01*
X97521789Y-89188001D01*
X97521797Y-89188000D01*
X101210441Y-89188000D01*
X101277480Y-89207685D01*
X101279303Y-89208878D01*
X101304391Y-89225642D01*
X101304393Y-89225642D01*
X101304393Y-89225643D01*
X101366515Y-89237999D01*
X101366519Y-89238000D01*
X101366520Y-89238000D01*
X102158481Y-89238000D01*
X102158482Y-89237999D01*
X102220609Y-89225642D01*
X102291065Y-89178565D01*
X102338142Y-89108109D01*
X102350500Y-89045980D01*
X102350500Y-88879020D01*
X102338142Y-88816891D01*
X102314421Y-88781389D01*
X102293543Y-88714716D01*
X102312026Y-88647335D01*
X102314394Y-88643649D01*
X102338142Y-88608109D01*
X102346380Y-88566689D01*
X102350500Y-88545981D01*
X102350500Y-88379019D01*
X102350499Y-88379015D01*
X102338142Y-88316890D01*
X102333468Y-88305605D01*
X102337466Y-88303949D01*
X102323611Y-88259754D01*
X102342071Y-88192368D01*
X102344473Y-88188629D01*
X102385240Y-88127617D01*
X102400500Y-88050901D01*
X102400499Y-87874100D01*
X102385240Y-87797383D01*
X102385239Y-87797381D01*
X102385238Y-87797379D01*
X102353580Y-87750000D01*
X102327112Y-87710388D01*
X102240117Y-87652260D01*
X102240115Y-87652259D01*
X102240112Y-87652258D01*
X102163404Y-87637000D01*
X102163401Y-87637000D01*
X101918270Y-87637000D01*
X101886178Y-87632775D01*
X101808644Y-87612000D01*
X101808643Y-87612000D01*
X100855812Y-87612000D01*
X100788773Y-87592315D01*
X100743430Y-87540405D01*
X100713164Y-87475500D01*
X100703224Y-87454184D01*
X100618316Y-87369276D01*
X100509487Y-87318528D01*
X100509485Y-87318527D01*
X100509486Y-87318527D01*
X100459901Y-87312000D01*
X100040106Y-87312000D01*
X100030799Y-87313225D01*
X99990513Y-87318528D01*
X99990510Y-87318529D01*
X99986646Y-87319038D01*
X99917611Y-87308270D01*
X99882782Y-87283779D01*
X99867092Y-87268089D01*
X99833607Y-87206766D01*
X99832035Y-87198053D01*
X99829925Y-87183382D01*
X99826282Y-87158038D01*
X99825572Y-87156484D01*
X99781591Y-87060180D01*
X99772467Y-87040201D01*
X99687634Y-86942297D01*
X99578654Y-86872260D01*
X99578650Y-86872258D01*
X99578649Y-86872258D01*
X99454359Y-86835764D01*
X99454357Y-86835764D01*
X99324813Y-86835764D01*
X99324811Y-86835764D01*
X99200520Y-86872258D01*
X99200517Y-86872259D01*
X99200516Y-86872260D01*
X99158130Y-86899500D01*
X99091535Y-86942297D01*
X99006703Y-87040201D01*
X99006702Y-87040202D01*
X98952887Y-87158038D01*
X98934452Y-87286264D01*
X98952887Y-87414489D01*
X99000736Y-87519262D01*
X99006703Y-87532327D01*
X99075739Y-87612000D01*
X99084633Y-87622265D01*
X99091536Y-87630231D01*
X99200516Y-87700268D01*
X99208598Y-87702641D01*
X99322179Y-87735991D01*
X99374926Y-87767287D01*
X99632958Y-88025319D01*
X99666443Y-88086642D01*
X99661459Y-88156334D01*
X99619587Y-88212267D01*
X99554123Y-88236684D01*
X99545277Y-88237000D01*
X97932267Y-88237000D01*
X97865228Y-88217315D01*
X97844586Y-88200681D01*
X96783610Y-87139705D01*
X96766170Y-87122264D01*
X96702736Y-87058830D01*
X96702735Y-87058829D01*
X96678457Y-87048772D01*
X96678457Y-87048771D01*
X96619858Y-87024500D01*
X96619856Y-87024499D01*
X96619855Y-87024499D01*
X96530145Y-87024499D01*
X96515711Y-87024499D01*
X96515703Y-87024500D01*
X92374000Y-87024500D01*
X92306961Y-87004815D01*
X92261206Y-86952011D01*
X92250000Y-86900500D01*
X92250000Y-86899500D01*
X92269685Y-86832461D01*
X92322489Y-86786706D01*
X92374000Y-86775500D01*
X92988693Y-86775500D01*
X92988694Y-86775499D01*
X93058279Y-86761658D01*
X93162658Y-86740896D01*
X93162661Y-86740894D01*
X93162666Y-86740894D01*
X93302535Y-86682958D01*
X93326540Y-86673016D01*
X93326540Y-86673015D01*
X93326547Y-86673013D01*
X93474035Y-86574464D01*
X93599464Y-86449035D01*
X93698013Y-86301547D01*
X93698861Y-86299501D01*
X93742154Y-86194979D01*
X93765894Y-86137666D01*
X93767870Y-86127736D01*
X93792548Y-86003670D01*
X93800500Y-85963691D01*
X93800500Y-85786309D01*
X93800500Y-85786306D01*
X93800499Y-85786304D01*
X93765896Y-85612341D01*
X93765893Y-85612332D01*
X93698016Y-85448459D01*
X93698009Y-85448446D01*
X93599464Y-85300965D01*
X93599461Y-85300961D01*
X93485681Y-85187181D01*
X93452196Y-85125858D01*
X93457180Y-85056166D01*
X93499052Y-85000233D01*
X93564516Y-84975816D01*
X93573362Y-84975500D01*
X96190703Y-84975500D01*
X96190711Y-84975501D01*
X96205145Y-84975501D01*
X96294853Y-84975501D01*
X96294855Y-84975501D01*
X96353460Y-84951225D01*
X96377736Y-84941170D01*
X96441170Y-84877736D01*
X96441170Y-84877735D01*
X96458608Y-84860297D01*
X96458610Y-84860294D01*
X96537821Y-84781082D01*
X96599142Y-84747599D01*
X96668834Y-84752583D01*
G37*
%TD.AperFunction*%
%TA.AperFunction,Conductor*%
G36*
X111193039Y-81320185D02*
G01*
X111238794Y-81372989D01*
X111250000Y-81424500D01*
X111250000Y-85511138D01*
X111230315Y-85578177D01*
X111213681Y-85598819D01*
X110586319Y-86226181D01*
X110524996Y-86259666D01*
X110498638Y-86262500D01*
X108236078Y-86262500D01*
X108169039Y-86242815D01*
X108125594Y-86194797D01*
X108107579Y-86159439D01*
X108107577Y-86159437D01*
X108107574Y-86159433D01*
X108017876Y-86069735D01*
X108017873Y-86069733D01*
X108017871Y-86069731D01*
X107929101Y-86024500D01*
X107904830Y-86012133D01*
X107848568Y-86003223D01*
X107785434Y-85973294D01*
X107748502Y-85913983D01*
X107749500Y-85844120D01*
X107788109Y-85785887D01*
X107852073Y-85757773D01*
X107867966Y-85756750D01*
X108626852Y-85756750D01*
X108643326Y-85758389D01*
X108647341Y-85758387D01*
X108647342Y-85758388D01*
X108690535Y-85758375D01*
X108736982Y-85758375D01*
X108736983Y-85758374D01*
X108737046Y-85758361D01*
X108737051Y-85758361D01*
X108777102Y-85741755D01*
X108777142Y-85741751D01*
X108777138Y-85741741D01*
X108784875Y-85738535D01*
X108819789Y-85724074D01*
X108819895Y-85724031D01*
X108820847Y-85723395D01*
X108824810Y-85720797D01*
X108891668Y-85700505D01*
X108892794Y-85700500D01*
X110381517Y-85700500D01*
X110381518Y-85700500D01*
X110475304Y-85685647D01*
X110588342Y-85628051D01*
X110678050Y-85538343D01*
X110735646Y-85425305D01*
X110735646Y-85425303D01*
X110735647Y-85425302D01*
X110750499Y-85331525D01*
X110750500Y-85331520D01*
X110750499Y-84618483D01*
X110735646Y-84524697D01*
X110678050Y-84411659D01*
X110678046Y-84411655D01*
X110678045Y-84411653D01*
X110588347Y-84321955D01*
X110588344Y-84321953D01*
X110588342Y-84321951D01*
X110491066Y-84272386D01*
X110475301Y-84264353D01*
X110381524Y-84249501D01*
X108118482Y-84249501D01*
X108037519Y-84262324D01*
X108024696Y-84264355D01*
X107911658Y-84321951D01*
X107911657Y-84321952D01*
X107911652Y-84321955D01*
X107821954Y-84411653D01*
X107821951Y-84411658D01*
X107764352Y-84524699D01*
X107749500Y-84618476D01*
X107749500Y-85191577D01*
X107729815Y-85258616D01*
X107677011Y-85304371D01*
X107672957Y-85306136D01*
X107633972Y-85322286D01*
X107633968Y-85322288D01*
X107591013Y-85340080D01*
X107591012Y-85340081D01*
X107540105Y-85390989D01*
X107527580Y-85403514D01*
X107527579Y-85403515D01*
X107482648Y-85448446D01*
X107454662Y-85476432D01*
X107393338Y-85509916D01*
X107323647Y-85504931D01*
X107267713Y-85463060D01*
X107243297Y-85397595D01*
X107244508Y-85369350D01*
X107246701Y-85355506D01*
X107250500Y-85331520D01*
X107250499Y-84618483D01*
X107235646Y-84524697D01*
X107178050Y-84411659D01*
X107178046Y-84411655D01*
X107178045Y-84411653D01*
X107088347Y-84321955D01*
X107088344Y-84321953D01*
X107088342Y-84321951D01*
X106991066Y-84272386D01*
X106975301Y-84264353D01*
X106881524Y-84249501D01*
X106368764Y-84249501D01*
X106301725Y-84229816D01*
X106255970Y-84177012D01*
X106246026Y-84107854D01*
X106275051Y-84044298D01*
X106281069Y-84037834D01*
X107688575Y-82630329D01*
X107749898Y-82596844D01*
X107819590Y-82601828D01*
X107863937Y-82630329D01*
X107911652Y-82678044D01*
X107911654Y-82678045D01*
X107911658Y-82678049D01*
X108024694Y-82735644D01*
X108024698Y-82735646D01*
X108118475Y-82750498D01*
X108118481Y-82750499D01*
X110381518Y-82750498D01*
X110475304Y-82735645D01*
X110588342Y-82678049D01*
X110678050Y-82588341D01*
X110735646Y-82475303D01*
X110735646Y-82475301D01*
X110735647Y-82475300D01*
X110746282Y-82408146D01*
X110750500Y-82381518D01*
X110750499Y-81668481D01*
X110735646Y-81574695D01*
X110687800Y-81480793D01*
X110674905Y-81412125D01*
X110701182Y-81347385D01*
X110758288Y-81307128D01*
X110798286Y-81300500D01*
X111126000Y-81300500D01*
X111193039Y-81320185D01*
G37*
%TD.AperFunction*%
%TA.AperFunction,Conductor*%
G36*
X104268753Y-81320185D02*
G01*
X104314508Y-81372989D01*
X104324452Y-81442147D01*
X104312199Y-81480795D01*
X104264352Y-81574697D01*
X104249500Y-81668474D01*
X104249500Y-82381516D01*
X104256308Y-82424500D01*
X104264354Y-82475303D01*
X104321950Y-82588341D01*
X104321952Y-82588343D01*
X104321954Y-82588346D01*
X104411652Y-82678044D01*
X104411656Y-82678047D01*
X104411658Y-82678049D01*
X104502307Y-82724237D01*
X104553101Y-82772209D01*
X104569896Y-82840030D01*
X104547359Y-82906165D01*
X104533691Y-82922401D01*
X104017913Y-83438181D01*
X103956590Y-83471666D01*
X103930232Y-83474500D01*
X96844854Y-83474500D01*
X96755145Y-83474500D01*
X96755143Y-83474500D01*
X96755141Y-83474501D01*
X96672266Y-83508827D01*
X96672264Y-83508829D01*
X96192914Y-83988181D01*
X96131591Y-84021666D01*
X96105233Y-84024500D01*
X92374000Y-84024500D01*
X92306961Y-84004815D01*
X92261206Y-83952011D01*
X92250000Y-83900500D01*
X92250000Y-83599500D01*
X92269685Y-83532461D01*
X92322489Y-83486706D01*
X92374000Y-83475500D01*
X94690703Y-83475500D01*
X94690711Y-83475501D01*
X94705145Y-83475501D01*
X94794853Y-83475501D01*
X94794855Y-83475501D01*
X94853460Y-83451225D01*
X94877736Y-83441170D01*
X94941170Y-83377736D01*
X94941170Y-83377735D01*
X94958606Y-83360299D01*
X94958607Y-83360296D01*
X95232088Y-83086815D01*
X95293410Y-83053333D01*
X95319768Y-83050499D01*
X99884454Y-83050499D01*
X99884462Y-83050500D01*
X99898896Y-83050500D01*
X99988605Y-83050500D01*
X99988606Y-83050500D01*
X100051374Y-83024500D01*
X100071487Y-83016169D01*
X100134921Y-82952735D01*
X100134921Y-82952734D01*
X100152359Y-82935296D01*
X100152360Y-82935293D01*
X100346595Y-82741059D01*
X100407917Y-82707575D01*
X100477609Y-82712559D01*
X100490565Y-82718254D01*
X100524694Y-82735644D01*
X100524696Y-82735645D01*
X100524698Y-82735646D01*
X100618475Y-82750498D01*
X100618481Y-82750499D01*
X102881518Y-82750498D01*
X102975304Y-82735645D01*
X103088342Y-82678049D01*
X103178050Y-82588341D01*
X103235646Y-82475303D01*
X103235646Y-82475301D01*
X103235647Y-82475300D01*
X103246282Y-82408146D01*
X103250500Y-82381518D01*
X103250499Y-81668481D01*
X103235646Y-81574695D01*
X103187800Y-81480793D01*
X103174905Y-81412125D01*
X103201182Y-81347385D01*
X103258288Y-81307128D01*
X103298286Y-81300500D01*
X104201714Y-81300500D01*
X104268753Y-81320185D01*
G37*
%TD.AperFunction*%
%TA.AperFunction,Conductor*%
G36*
X106698273Y-82770183D02*
G01*
X106744028Y-82822987D01*
X106753972Y-82892145D01*
X106724947Y-82955701D01*
X106718915Y-82962179D01*
X105942914Y-83738181D01*
X105881591Y-83771666D01*
X105855233Y-83774500D01*
X104618766Y-83774500D01*
X104551727Y-83754815D01*
X104505972Y-83702011D01*
X104496028Y-83632853D01*
X104525053Y-83569297D01*
X104531085Y-83562819D01*
X105307086Y-82786817D01*
X105368409Y-82753332D01*
X105394767Y-82750498D01*
X106631234Y-82750498D01*
X106698273Y-82770183D01*
G37*
%TD.AperFunction*%
%TD*%
%TA.AperFunction,Conductor*%
%TO.N,VCC*%
G36*
X141265677Y-86519685D02*
G01*
X141286319Y-86536319D01*
X141713681Y-86963681D01*
X141747166Y-87025004D01*
X141750000Y-87051362D01*
X141750000Y-89948638D01*
X141730315Y-90015677D01*
X141713681Y-90036319D01*
X141536319Y-90213681D01*
X141474996Y-90247166D01*
X141448638Y-90250000D01*
X140551362Y-90250000D01*
X140484323Y-90230315D01*
X140463681Y-90213681D01*
X140036319Y-89786319D01*
X140002834Y-89724996D01*
X140000000Y-89698638D01*
X140000000Y-87051362D01*
X140019685Y-86984323D01*
X140036319Y-86963681D01*
X140463681Y-86536319D01*
X140525004Y-86502834D01*
X140551362Y-86500000D01*
X141198638Y-86500000D01*
X141265677Y-86519685D01*
G37*
%TD.AperFunction*%
%TD*%
%TA.AperFunction,Conductor*%
%TO.N,GND*%
G36*
X142578870Y-93269685D02*
G01*
X142624625Y-93322489D01*
X142635831Y-93374000D01*
X142635831Y-93460290D01*
X142638684Y-93490720D01*
X142638684Y-93490722D01*
X142675123Y-93594855D01*
X142683538Y-93618903D01*
X142764181Y-93728171D01*
X142873449Y-93808814D01*
X142916176Y-93823765D01*
X143001630Y-93853667D01*
X143032061Y-93856521D01*
X143032065Y-93856521D01*
X143599477Y-93856521D01*
X143666516Y-93876206D01*
X143687158Y-93892840D01*
X144713681Y-94919363D01*
X144747166Y-94980686D01*
X144750000Y-95007044D01*
X144750000Y-100198638D01*
X144730315Y-100265677D01*
X144713681Y-100286319D01*
X144036319Y-100963681D01*
X143974996Y-100997166D01*
X143948638Y-101000000D01*
X142051362Y-101000000D01*
X141984323Y-100980315D01*
X141963681Y-100963681D01*
X141286319Y-100286319D01*
X141252834Y-100224996D01*
X141250000Y-100198638D01*
X141250000Y-97250000D01*
X139741819Y-95741819D01*
X139708334Y-95680496D01*
X139705500Y-95654138D01*
X139705500Y-94936060D01*
X139705500Y-94936056D01*
X139701551Y-94895965D01*
X139692112Y-94848512D01*
X139680418Y-94809960D01*
X139670768Y-94786664D01*
X139662391Y-94755400D01*
X139659267Y-94731665D01*
X139656061Y-94707309D01*
X139655000Y-94691126D01*
X139655000Y-93908868D01*
X139656059Y-93892699D01*
X139657957Y-93878276D01*
X139686222Y-93814384D01*
X139693191Y-93806808D01*
X139925199Y-93574800D01*
X139954420Y-93553129D01*
X139984792Y-93536895D01*
X139984798Y-93536890D01*
X139984803Y-93536888D01*
X140004774Y-93523543D01*
X140025020Y-93510015D01*
X140056159Y-93484460D01*
X140118354Y-93422265D01*
X140254301Y-93286319D01*
X140315624Y-93252834D01*
X140341982Y-93250000D01*
X142511831Y-93250000D01*
X142578870Y-93269685D01*
G37*
%TD.AperFunction*%
%TD*%
M02*
