%TF.GenerationSoftware,KiCad,Pcbnew,8.0.1*%
%TF.CreationDate,2024-04-21T19:45:24+02:00*%
%TF.ProjectId,Hypersonic_pcb,48797065-7273-46f6-9e69-635f7063622e,rev?*%
%TF.SameCoordinates,Original*%
%TF.FileFunction,Copper,L4,Bot*%
%TF.FilePolarity,Positive*%
%FSLAX46Y46*%
G04 Gerber Fmt 4.6, Leading zero omitted, Abs format (unit mm)*
G04 Created by KiCad (PCBNEW 8.0.1) date 2024-04-21 19:45:24*
%MOMM*%
%LPD*%
G01*
G04 APERTURE LIST*
%TA.AperFunction,HeatsinkPad*%
%ADD10C,0.600000*%
%TD*%
%TA.AperFunction,ComponentPad*%
%ADD11O,2.100000X1.000000*%
%TD*%
%TA.AperFunction,ComponentPad*%
%ADD12O,1.600000X1.000000*%
%TD*%
%TA.AperFunction,SMDPad,CuDef*%
%ADD13R,1.950000X0.350000*%
%TD*%
%TA.AperFunction,ViaPad*%
%ADD14C,0.500000*%
%TD*%
%TA.AperFunction,Conductor*%
%ADD15C,0.150000*%
%TD*%
%TA.AperFunction,Conductor*%
%ADD16C,0.300000*%
%TD*%
G04 APERTURE END LIST*
D10*
%TO.P,U1,41,GND*%
%TO.N,GND*%
X125545606Y-94500000D03*
X125545606Y-93100000D03*
X124845606Y-95200000D03*
X124845606Y-93800000D03*
X124845606Y-92400000D03*
X124145606Y-94500000D03*
X124145606Y-93100000D03*
X123445606Y-95200000D03*
X123445606Y-93800000D03*
X123445606Y-92400000D03*
X122745606Y-94500000D03*
X122745606Y-93100000D03*
%TD*%
D11*
%TO.P,J1,S1,SHIELD*%
%TO.N,Net-(J1-SHIELD)*%
X144370000Y-91380000D03*
D12*
X148550000Y-91380000D03*
D11*
X144370000Y-82740000D03*
D12*
X148550000Y-82740000D03*
%TD*%
D13*
%TO.P,J2,2,GND*%
%TO.N,GND*%
X91525000Y-101000000D03*
%TO.P,J2,4,GND*%
X91525000Y-100500000D03*
%TO.P,J2,6,GND*%
X91525000Y-100000000D03*
%TO.P,J2,8,GND*%
X91525000Y-99500000D03*
%TO.P,J2,10,GND*%
X91525000Y-99000000D03*
%TO.P,J2,20,GPIOD0*%
%TO.N,/IO14*%
X91525000Y-96500000D03*
%TO.P,J2,22,GPIOD1*%
%TO.N,/IO15*%
X91525000Y-96000000D03*
%TO.P,J2,24,GPIOD2*%
%TO.N,/IO16*%
X91525000Y-95500000D03*
%TO.P,J2,26,GPIOD3*%
%TO.N,/IO17*%
X91525000Y-95000000D03*
%TO.P,J2,28,GPIOD4*%
%TO.N,/IO18*%
X91525000Y-94500000D03*
%TO.P,J2,30,GND*%
%TO.N,GND*%
X91525000Y-94000000D03*
%TO.P,J2,32,SPI_MOSI*%
%TO.N,/SPI_MOSI*%
X91525000Y-93500000D03*
%TO.P,J2,34,SPI_CLK*%
%TO.N,/SPI_CLK*%
X91525000Y-93000000D03*
%TO.P,J2,36,SPI_MISO*%
%TO.N,/SPI_MISO*%
X91525000Y-92500000D03*
%TO.P,J2,38,GND*%
%TO.N,GND*%
X91525000Y-92000000D03*
%TO.P,J2,40,I2C_SDA*%
%TO.N,/I2C_SDA*%
X91525000Y-91500000D03*
%TO.P,J2,42,I2C_SCL*%
%TO.N,/I2C_SCL*%
X91525000Y-91000000D03*
%TO.P,J2,44,NC*%
%TO.N,unconnected-(J2-NC-Pad44)*%
X91525000Y-90500000D03*
%TO.P,J2,46,GND*%
%TO.N,GND*%
X91525000Y-90000000D03*
%TO.P,J2,48,GND*%
X91525000Y-89500000D03*
%TO.P,J2,50,A_OUT_R-*%
%TO.N,/RIGHT_LO-*%
X91525000Y-89000000D03*
%TO.P,J2,52,A_OUT_R+*%
%TO.N,/RIGHT_LO+*%
X91525000Y-88500000D03*
%TO.P,J2,54,GND*%
%TO.N,GND*%
X91525000Y-88000000D03*
%TO.P,J2,56,A_OUT_L+*%
%TO.N,/LEFT_LO+*%
X91525000Y-87500000D03*
%TO.P,J2,58,A_OUT_L-*%
%TO.N,/LEFT_LO-*%
X91525000Y-87000000D03*
%TO.P,J2,68,A_IN2_R*%
%TO.N,/MIC2R*%
X91525000Y-84500000D03*
%TO.P,J2,70,GND*%
%TO.N,GND*%
X91525000Y-84000000D03*
%TO.P,J2,72,MICBIAS*%
%TO.N,/MICBIAS*%
X91525000Y-83500000D03*
%TO.P,J2,74,A_IN2_L*%
%TO.N,/MIC2L*%
X91525000Y-83000000D03*
%TD*%
D14*
%TO.N,/VBUS*%
X137298800Y-82720664D03*
X140918749Y-83081251D03*
%TO.N,GND*%
X110500000Y-86000000D03*
X94434431Y-100001735D03*
X145900000Y-90600000D03*
X142250000Y-83500000D03*
X105500000Y-93012500D03*
X141000000Y-102000000D03*
X102362500Y-92564479D03*
X94500000Y-89750000D03*
X143000000Y-100500000D03*
X96000000Y-83299999D03*
X112745604Y-87604681D03*
X142250000Y-93750000D03*
X130250000Y-92000000D03*
X94250000Y-85250000D03*
X135875000Y-102125000D03*
X93000000Y-89750000D03*
X96750000Y-89000000D03*
X110000000Y-83250000D03*
X129500000Y-94000000D03*
X142000000Y-98000000D03*
X147500000Y-95500000D03*
X129750000Y-85500000D03*
X143750000Y-96500000D03*
X103000000Y-96725000D03*
X99500000Y-93500000D03*
X111000000Y-81750000D03*
X108493750Y-86006250D03*
X130250000Y-89500000D03*
X128500000Y-88000000D03*
X133000000Y-101500000D03*
X98340765Y-86108937D03*
X122750000Y-85500000D03*
X107664124Y-92348376D03*
X100662902Y-89459458D03*
X112000000Y-82000000D03*
X133250000Y-88500000D03*
X135750000Y-83000000D03*
X118975013Y-100800036D03*
X94000000Y-83750000D03*
X109604394Y-100700000D03*
X138000000Y-86500000D03*
X111000000Y-82750000D03*
X97000000Y-86750000D03*
X95250000Y-88250000D03*
X100500000Y-96725000D03*
X115243185Y-86329635D03*
X93250000Y-91750000D03*
X138000000Y-87500000D03*
X98250000Y-87750000D03*
X103000000Y-88012500D03*
X122750000Y-81750000D03*
X98000000Y-92250000D03*
X111000000Y-85250000D03*
X98500000Y-94512500D03*
X125250000Y-87750000D03*
X105500000Y-90512500D03*
X93434431Y-101001735D03*
X116000000Y-99000000D03*
X147500000Y-98250000D03*
X93434431Y-99001735D03*
X114000000Y-81750000D03*
X148500000Y-102250000D03*
X142750000Y-81750000D03*
X100500000Y-83225000D03*
X145750000Y-83500000D03*
X111000000Y-84000000D03*
X120250000Y-90750000D03*
X117303165Y-99895966D03*
X130000000Y-101500000D03*
X97500000Y-86000000D03*
X107500000Y-84250000D03*
X112289124Y-89539124D03*
X136615979Y-84456840D03*
X149250000Y-87000000D03*
X92763689Y-94024218D03*
X135000000Y-97250000D03*
X94250000Y-86500000D03*
X142250000Y-96500000D03*
X97250000Y-91500000D03*
X98500000Y-89460508D03*
X103000000Y-90512500D03*
X104200000Y-89212500D03*
X119000000Y-85500000D03*
X96125000Y-90625000D03*
X142250000Y-95000000D03*
X93500000Y-88250000D03*
X105500000Y-88012500D03*
X117750000Y-85500000D03*
X101339637Y-95563196D03*
X137250000Y-81750000D03*
X113000000Y-83000000D03*
X142500000Y-91000000D03*
X131500000Y-83750000D03*
X124000000Y-85500000D03*
X105500000Y-94262500D03*
X142000000Y-100500000D03*
X147000000Y-81750000D03*
X103000000Y-95750000D03*
X108250000Y-83250000D03*
X133500000Y-96750000D03*
X112500000Y-100250000D03*
X126500000Y-81750000D03*
X101000000Y-92000000D03*
X116500000Y-85500000D03*
X144000000Y-100500000D03*
X96250000Y-85500000D03*
X116750000Y-95500000D03*
X135750000Y-88750000D03*
X107843264Y-101761357D03*
X130250000Y-90750000D03*
X109500000Y-86000000D03*
X103750000Y-82000000D03*
X133250000Y-89500000D03*
X135250000Y-86000000D03*
X103000000Y-83225000D03*
X120579177Y-101914588D03*
X130500000Y-81750000D03*
X105500000Y-83112499D03*
X145000000Y-102135002D03*
%TO.N,Net-(J1-CC1)*%
X142250000Y-88310000D03*
X145250000Y-92810000D03*
%TO.N,Net-(J1-CC2)*%
X142250000Y-85310000D03*
X147000000Y-92810000D03*
%TO.N,+3V3*%
X132750000Y-91750000D03*
X121250000Y-81750000D03*
X94434431Y-99001735D03*
X107738459Y-93814740D03*
X113875000Y-83625000D03*
X109000000Y-87750000D03*
X118250000Y-81750000D03*
%TO.N,+1V8*%
X106869059Y-91893441D03*
X108500000Y-89012500D03*
%TO.N,/RIGHT_LO+*%
X103205952Y-93422899D03*
%TO.N,/LEFT_LO+*%
X103163550Y-92535487D03*
%TO.N,/LEFT_LO-*%
X103975000Y-92612500D03*
%TO.N,/MICBIAS*%
X101837500Y-86350000D03*
%TO.N,/RIGHT_LO-*%
X104111536Y-93565248D03*
%TO.N,/I2C_SDA*%
X118250000Y-86500000D03*
X107779529Y-86397781D03*
%TO.N,/I2C_SCL*%
X107250000Y-87000000D03*
X116750000Y-86500000D03*
%TO.N,/CODEC_EN*%
X106300000Y-92712500D03*
X115250000Y-87250000D03*
%TO.N,A3V0*%
X100497518Y-93752482D03*
X99389585Y-87286264D03*
%TO.N,VIN*%
X132500000Y-82000000D03*
X94434431Y-101001735D03*
%TO.N,/SPI_MOSI*%
X124500000Y-86250000D03*
%TO.N,/SPI_CLK*%
X123250000Y-86250000D03*
%TO.N,/SPI_MISO*%
X122000000Y-86250000D03*
%TO.N,/IO5*%
X109250000Y-101750000D03*
X119750000Y-101925000D03*
%TO.N,/VBUS_OUT*%
X137500000Y-84500000D03*
X135500000Y-87000000D03*
%TO.N,/IO6*%
X110250000Y-101175000D03*
X119000000Y-101625000D03*
%TO.N,/IO7*%
X118000000Y-101250000D03*
X111000000Y-100750000D03*
%TO.N,/IO9*%
X116250000Y-100250000D03*
X111546752Y-99953248D03*
%TO.N,/IO8*%
X117250000Y-100750000D03*
X111842738Y-100747728D03*
%TO.N,/IO10*%
X115500000Y-99675000D03*
X112035249Y-99250000D03*
%TO.N,/IO18*%
X129750000Y-88750000D03*
%TO.N,/IO17*%
X129375000Y-90125000D03*
%TO.N,/IO16*%
X129500000Y-91250000D03*
%TO.N,/IO14*%
X119250000Y-90750000D03*
%TO.N,/IO15*%
X129500000Y-92500000D03*
%TO.N,/IO4*%
X108500000Y-102250000D03*
X121500000Y-102249994D03*
%TO.N,/MIC2L*%
X103475000Y-86177943D03*
%TO.N,/MIC2R*%
X99200000Y-86087500D03*
%TD*%
D15*
%TO.N,/IO9*%
X113680200Y-100250000D02*
X116250000Y-100250000D01*
X113205200Y-99775000D02*
X113680200Y-100250000D01*
X111725000Y-99775000D02*
X113205200Y-99775000D01*
X111546752Y-99953248D02*
X111725000Y-99775000D01*
%TO.N,/IO8*%
X111845010Y-100750000D02*
X117250000Y-100750000D01*
X111842738Y-100747728D02*
X111845010Y-100750000D01*
%TO.N,GND*%
X106838327Y-85911673D02*
X105500000Y-87250000D01*
X105500000Y-87250000D02*
X105500000Y-88012500D01*
X108399173Y-85911673D02*
X106838327Y-85911673D01*
X108493750Y-86006250D02*
X108399173Y-85911673D01*
%TO.N,/I2C_SDA*%
X116172281Y-85975000D02*
X116975000Y-85975000D01*
X116975000Y-85975000D02*
X117500000Y-86500000D01*
X112500000Y-85500000D02*
X115697281Y-85500000D01*
X107779529Y-86397781D02*
X107881748Y-86500000D01*
X111500000Y-86500000D02*
X112500000Y-85500000D01*
X115697281Y-85500000D02*
X116172281Y-85975000D01*
X107881748Y-86500000D02*
X111500000Y-86500000D01*
%TO.N,/I2C_SCL*%
X115425000Y-85800000D02*
X116437500Y-86812500D01*
X111750000Y-87000000D02*
X112950000Y-85800000D01*
X107250000Y-87000000D02*
X111750000Y-87000000D01*
X112950000Y-85800000D02*
X115425000Y-85800000D01*
%TO.N,GND*%
X98231828Y-86000000D02*
X97500000Y-86000000D01*
X98340765Y-86108937D02*
X98231828Y-86000000D01*
%TO.N,/LEFT_LO+*%
X98735508Y-88985508D02*
X97735508Y-88985508D01*
X101859375Y-91250000D02*
X101000000Y-91250000D01*
X101000000Y-91250000D02*
X98735508Y-88985508D01*
X103144862Y-92535487D02*
X101859375Y-91250000D01*
X96250000Y-87500000D02*
X91525000Y-87500000D01*
X103163550Y-92535487D02*
X103144862Y-92535487D01*
X97735508Y-88985508D02*
X96250000Y-87500000D01*
%TO.N,GND*%
X101564479Y-92564479D02*
X101000000Y-92000000D01*
X102362500Y-92564479D02*
X101564479Y-92564479D01*
X101000000Y-92000000D02*
X101000000Y-91812500D01*
X98648008Y-89460508D02*
X98500000Y-89460508D01*
X101000000Y-91812500D02*
X98648008Y-89460508D01*
%TO.N,/RIGHT_LO-*%
X92750000Y-89000000D02*
X91525000Y-89000000D01*
X95500000Y-89250000D02*
X93000000Y-89250000D01*
X93000000Y-89250000D02*
X92750000Y-89000000D01*
X98000000Y-90512500D02*
X98000000Y-90500000D01*
X104111536Y-93565248D02*
X103676784Y-94000000D01*
X96750000Y-90500000D02*
X95500000Y-89250000D01*
X103676784Y-94000000D02*
X101487500Y-94000000D01*
X101487500Y-94000000D02*
X98000000Y-90512500D01*
X98000000Y-90500000D02*
X96750000Y-90500000D01*
D16*
%TO.N,A3V0*%
X100773764Y-87286264D02*
X99389585Y-87286264D01*
X104750000Y-91262500D02*
X100773764Y-87286264D01*
X104250000Y-94500000D02*
X104750000Y-94000000D01*
X104750000Y-94000000D02*
X104750000Y-91262500D01*
X101245036Y-94500000D02*
X104250000Y-94500000D01*
X100497518Y-93752482D02*
X101245036Y-94500000D01*
D15*
%TO.N,/RIGHT_LO+*%
X93000000Y-88500000D02*
X91525000Y-88500000D01*
X95750000Y-88750000D02*
X93250000Y-88750000D01*
X93250000Y-88750000D02*
X93000000Y-88500000D01*
X97000000Y-90000000D02*
X95750000Y-88750000D01*
X101672899Y-93422899D02*
X98250000Y-90000000D01*
X98250000Y-90000000D02*
X97000000Y-90000000D01*
X103205952Y-93422899D02*
X101672899Y-93422899D01*
D16*
%TO.N,/VBUS*%
X140558162Y-82720664D02*
X137298800Y-82720664D01*
X140918749Y-83081251D02*
X140558162Y-82720664D01*
%TO.N,+3V3*%
X125000000Y-82750000D02*
X121250000Y-82750000D01*
X132650000Y-91650000D02*
X132650000Y-90400000D01*
X132650000Y-90400000D02*
X125000000Y-82750000D01*
X132750000Y-91750000D02*
X132650000Y-91650000D01*
X97182696Y-101750000D02*
X94434431Y-99001735D01*
X109250520Y-98425000D02*
X105925520Y-101750000D01*
X110608845Y-98425000D02*
X109250520Y-98425000D01*
X111558904Y-97474941D02*
X110608845Y-98425000D01*
X127525059Y-97474941D02*
X111558904Y-97474941D01*
X105925520Y-101750000D02*
X97182696Y-101750000D01*
X132750000Y-91750000D02*
X132750000Y-92250000D01*
X132750000Y-92250000D02*
X127525059Y-97474941D01*
%TO.N,/VBUS_OUT*%
X137500000Y-85000000D02*
X137500000Y-84500000D01*
X135500000Y-87000000D02*
X137500000Y-85000000D01*
%TO.N,VIN*%
X94501735Y-101001735D02*
X94434431Y-101001735D01*
X95750000Y-102250000D02*
X94501735Y-101001735D01*
X106250000Y-102250000D02*
X95750000Y-102250000D01*
X109500000Y-99000000D02*
X106250000Y-102250000D01*
X110740951Y-99000000D02*
X109500000Y-99000000D01*
X134250000Y-83750000D02*
X134250000Y-94250000D01*
X130525059Y-97974941D02*
X111766010Y-97974941D01*
X132500000Y-82000000D02*
X134250000Y-83750000D01*
X111766010Y-97974941D02*
X110740951Y-99000000D01*
X134250000Y-94250000D02*
X130525059Y-97974941D01*
D15*
%TO.N,GND*%
X92750000Y-89500000D02*
X91525000Y-89500000D01*
X101975000Y-89487500D02*
X100690944Y-89487500D01*
X93500000Y-99000000D02*
X93000000Y-99500000D01*
X91525000Y-84000000D02*
X93750000Y-84000000D01*
X95250000Y-88250000D02*
X93500000Y-88250000D01*
X93500000Y-99000000D02*
X91525000Y-99000000D01*
X111000000Y-82750000D02*
X111000000Y-81750000D01*
X92763689Y-94024218D02*
X92739471Y-94000000D01*
X96750000Y-89000000D02*
X96000000Y-88250000D01*
X105500000Y-90512500D02*
X105500000Y-88012500D01*
X100500000Y-96725000D02*
X100500000Y-96512500D01*
X92750000Y-90000000D02*
X91525000Y-90000000D01*
X96250000Y-85500000D02*
X96000000Y-85250000D01*
X111000000Y-85250000D02*
X111000000Y-84000000D01*
X110500000Y-85750000D02*
X111000000Y-85250000D01*
X93250000Y-88000000D02*
X91525000Y-88000000D01*
X96000000Y-88250000D02*
X95250000Y-88250000D01*
X98000000Y-92250000D02*
X97250000Y-91500000D01*
X97250000Y-86000000D02*
X96750000Y-85500000D01*
X100662902Y-89459458D02*
X100540542Y-89459458D01*
X93250000Y-91750000D02*
X93000000Y-92000000D01*
X100540542Y-89459458D02*
X98831084Y-87750000D01*
X93000000Y-99500000D02*
X91525000Y-99500000D01*
X103000000Y-96725000D02*
X103037500Y-96725000D01*
X105500000Y-94262500D02*
X105500000Y-93012500D01*
X92739471Y-94000000D02*
X91525000Y-94000000D01*
X93000000Y-89750000D02*
X95250000Y-89750000D01*
X93000000Y-89750000D02*
X92750000Y-89500000D01*
X96750000Y-86500000D02*
X94250000Y-86500000D01*
X98000000Y-87750000D02*
X97000000Y-86750000D01*
X98250000Y-87750000D02*
X98000000Y-87750000D01*
X101975000Y-89487500D02*
X103000000Y-90512500D01*
X100500000Y-96725000D02*
X103000000Y-96725000D01*
X100500000Y-96512500D02*
X98500000Y-94512500D01*
X111000000Y-84000000D02*
X111000000Y-82750000D01*
X110500000Y-86000000D02*
X109500000Y-86000000D01*
X94250000Y-85250000D02*
X94250000Y-86500000D01*
X93750000Y-84000000D02*
X94000000Y-83750000D01*
X93000000Y-100500000D02*
X91525000Y-100500000D01*
X93000000Y-92000000D02*
X91525000Y-92000000D01*
X95250000Y-89750000D02*
X97000000Y-91500000D01*
X98000000Y-92250000D02*
X98500000Y-92750000D01*
X103037500Y-96725000D02*
X105500000Y-94262500D01*
X96000000Y-85250000D02*
X94250000Y-85250000D01*
X93500000Y-88250000D02*
X93250000Y-88000000D01*
X93000000Y-89750000D02*
X92750000Y-90000000D01*
X97210508Y-89460508D02*
X96750000Y-89000000D01*
X98500000Y-89460508D02*
X97210508Y-89460508D01*
X97000000Y-91500000D02*
X97250000Y-91500000D01*
X100690944Y-89487500D02*
X100662902Y-89459458D01*
X105500000Y-93012500D02*
X105500000Y-90512500D01*
X91525000Y-100000000D02*
X94500000Y-100000000D01*
X96750000Y-85500000D02*
X96250000Y-85500000D01*
X93500000Y-101000000D02*
X91525000Y-101000000D01*
X98500000Y-92750000D02*
X98500000Y-94512500D01*
X97000000Y-86750000D02*
X96750000Y-86500000D01*
X93500000Y-101000000D02*
X93000000Y-100500000D01*
X108493750Y-86006250D02*
X108500000Y-86000000D01*
X108500000Y-86000000D02*
X109500000Y-86000000D01*
X97500000Y-86000000D02*
X97250000Y-86000000D01*
X110500000Y-86000000D02*
X110500000Y-85750000D01*
X98831084Y-87750000D02*
X98250000Y-87750000D01*
%TO.N,Net-(J1-SHIELD)*%
X148550000Y-82740000D02*
X148550000Y-91380000D01*
X144370000Y-82740000D02*
X148550000Y-82740000D01*
X144370000Y-91380000D02*
X148550000Y-91380000D01*
%TO.N,Net-(J1-CC1)*%
X141500000Y-89060000D02*
X142250000Y-88310000D01*
X141500000Y-91500000D02*
X141500000Y-89060000D01*
X142810000Y-92810000D02*
X141500000Y-91500000D01*
X145250000Y-92810000D02*
X142810000Y-92810000D01*
%TO.N,Net-(J1-CC2)*%
X142000000Y-91250000D02*
X142000000Y-89490876D01*
X142000000Y-89490876D02*
X143000000Y-88490876D01*
X143000000Y-88490876D02*
X143000000Y-86060000D01*
X143060000Y-92310000D02*
X142000000Y-91250000D01*
X143000000Y-86060000D02*
X142250000Y-85310000D01*
X146500000Y-92310000D02*
X143060000Y-92310000D01*
X147000000Y-92810000D02*
X146500000Y-92310000D01*
D16*
%TO.N,+3V3*%
X109000000Y-87750000D02*
X109000000Y-88593261D01*
X113875000Y-83625000D02*
X114750000Y-82750000D01*
X109150000Y-91862500D02*
X107738459Y-93274041D01*
X109150000Y-88743261D02*
X109150000Y-91862500D01*
X118250000Y-81750000D02*
X118250000Y-82750000D01*
X121250000Y-81750000D02*
X121250000Y-82750000D01*
X121250000Y-82750000D02*
X120750000Y-82750000D01*
X120750000Y-82750000D02*
X120500000Y-82750000D01*
X120000000Y-82750000D02*
X118250000Y-82750000D01*
X120500000Y-82750000D02*
X120000000Y-82750000D01*
X114750000Y-82750000D02*
X118250000Y-82750000D01*
X109000000Y-88593261D02*
X109150000Y-88743261D01*
X107738459Y-93274041D02*
X107738459Y-93814740D01*
%TO.N,+1V8*%
X108500000Y-89012500D02*
X108500000Y-89762500D01*
X108500000Y-89762500D02*
X106869059Y-91393441D01*
X106869059Y-91393441D02*
X106869059Y-91893441D01*
D15*
%TO.N,/LEFT_LO-*%
X102112500Y-90750000D02*
X103975000Y-92612500D01*
X99000000Y-88500000D02*
X101250000Y-90750000D01*
X91525000Y-87000000D02*
X96500000Y-87000000D01*
X96500000Y-87000000D02*
X98000000Y-88500000D01*
X98000000Y-88500000D02*
X99000000Y-88500000D01*
X101250000Y-90750000D02*
X102112500Y-90750000D01*
%TO.N,/MICBIAS*%
X101100000Y-85612500D02*
X100112500Y-85612500D01*
X95250000Y-83000000D02*
X93750000Y-83000000D01*
X98500000Y-84750000D02*
X96500000Y-82750000D01*
X95500000Y-82750000D02*
X95250000Y-83000000D01*
X93750000Y-83000000D02*
X93250000Y-83500000D01*
X99250000Y-84750000D02*
X98500000Y-84750000D01*
X101837500Y-86350000D02*
X101100000Y-85612500D01*
X93250000Y-83500000D02*
X91525000Y-83500000D01*
X96500000Y-82750000D02*
X95500000Y-82750000D01*
X100112500Y-85612500D02*
X99250000Y-84750000D01*
%TO.N,/I2C_SDA*%
X92875000Y-91275000D02*
X92650000Y-91500000D01*
X92650000Y-91500000D02*
X91525000Y-91500000D01*
X93525000Y-91275000D02*
X92875000Y-91275000D01*
X117500000Y-86500000D02*
X108800013Y-95199987D01*
X104250000Y-97500000D02*
X99750000Y-97500000D01*
X118250000Y-86500000D02*
X117500000Y-86500000D01*
X99750000Y-97500000D02*
X93525000Y-91275000D01*
X108800013Y-95199987D02*
X106550013Y-95199987D01*
X106550013Y-95199987D02*
X104250000Y-97500000D01*
%TO.N,/I2C_SCL*%
X93500000Y-90750000D02*
X92875000Y-90750000D01*
X92625000Y-91000000D02*
X91525000Y-91000000D01*
X99950000Y-97200000D02*
X93500000Y-90750000D01*
X116750000Y-86500000D02*
X108350013Y-94899987D01*
X104050000Y-97200000D02*
X99950000Y-97200000D01*
X108350013Y-94899987D02*
X106350013Y-94899987D01*
X92875000Y-90750000D02*
X92625000Y-91000000D01*
X106350013Y-94899987D02*
X104050000Y-97200000D01*
%TO.N,/CODEC_EN*%
X106950000Y-94450000D02*
X106300000Y-93800000D01*
X106300000Y-93800000D02*
X106300000Y-92712500D01*
X115250000Y-87250000D02*
X108050000Y-94450000D01*
X108050000Y-94450000D02*
X106950000Y-94450000D01*
%TO.N,/SPI_MOSI*%
X124500000Y-86250000D02*
X122500000Y-88250000D01*
X109707929Y-96250001D02*
X107249999Y-96250001D01*
X110657990Y-95299941D02*
X109707929Y-96250001D01*
X104500000Y-99000000D02*
X99250000Y-99000000D01*
X110881464Y-95299941D02*
X110657990Y-95299941D01*
X93750000Y-93500000D02*
X91525000Y-93500000D01*
X107249999Y-96250001D02*
X104500000Y-99000000D01*
X122500000Y-88250000D02*
X117931405Y-88250000D01*
X99250000Y-99000000D02*
X93750000Y-93500000D01*
X117931405Y-88250000D02*
X110881464Y-95299941D01*
%TO.N,/SPI_CLK*%
X123250000Y-86250000D02*
X121750000Y-87750000D01*
X121750000Y-87750000D02*
X117750000Y-87750000D01*
X108915092Y-95899995D02*
X108915088Y-95899991D01*
X106850009Y-95899991D02*
X104250000Y-98500000D01*
X94000000Y-93000000D02*
X91525000Y-93000000D01*
X108915088Y-95899991D02*
X106850009Y-95899991D01*
X117750000Y-87750000D02*
X109599998Y-95900002D01*
X99500000Y-98500000D02*
X94000000Y-93000000D01*
X109599998Y-95900002D02*
X108915092Y-95899995D01*
X104250000Y-98500000D02*
X99500000Y-98500000D01*
%TO.N,/SPI_MISO*%
X109250000Y-95500000D02*
X106750000Y-95500000D01*
X106750000Y-95500000D02*
X104250000Y-98000000D01*
X121000000Y-87250000D02*
X117500000Y-87250000D01*
X99750000Y-98000000D02*
X94250000Y-92500000D01*
X104250000Y-98000000D02*
X99750000Y-98000000D01*
X122000000Y-86250000D02*
X121000000Y-87250000D01*
X117500000Y-87250000D02*
X109250000Y-95500000D01*
X94250000Y-92500000D02*
X91525000Y-92500000D01*
%TO.N,/IO5*%
X119475000Y-102200000D02*
X119750000Y-101925000D01*
X109700000Y-102200000D02*
X119475000Y-102200000D01*
X109250000Y-101750000D02*
X109700000Y-102200000D01*
%TO.N,/IO6*%
X110250000Y-101175000D02*
X110825000Y-101750000D01*
X110825000Y-101750000D02*
X118875000Y-101750000D01*
X118875000Y-101750000D02*
X119000000Y-101625000D01*
%TO.N,/IO7*%
X111000000Y-100750000D02*
X111500000Y-101250000D01*
X111500000Y-101250000D02*
X118000000Y-101250000D01*
%TO.N,/IO10*%
X115075000Y-99250000D02*
X115500000Y-99675000D01*
X112035249Y-99250000D02*
X115075000Y-99250000D01*
%TO.N,/IO18*%
X107650000Y-96600000D02*
X104750000Y-99500000D01*
X99000000Y-99500000D02*
X94000000Y-94500000D01*
X94000000Y-94500000D02*
X91525000Y-94500000D01*
X111026444Y-95649941D02*
X110802965Y-95649941D01*
X104750000Y-99500000D02*
X99000000Y-99500000D01*
X129750000Y-88750000D02*
X117926385Y-88750000D01*
X117926385Y-88750000D02*
X111026444Y-95649941D01*
X109852905Y-96600000D02*
X107650000Y-96600000D01*
X110802965Y-95649941D02*
X109852905Y-96600000D01*
%TO.N,/IO17*%
X105000000Y-100000000D02*
X98750000Y-100000000D01*
X98750000Y-100000000D02*
X93750000Y-95000000D01*
X129375000Y-90125000D02*
X128500000Y-89250000D01*
X117921361Y-89250000D02*
X111171420Y-95999941D01*
X93750000Y-95000000D02*
X91525000Y-95000000D01*
X108077444Y-96922556D02*
X105000000Y-100000000D01*
X128500000Y-89250000D02*
X117921361Y-89250000D01*
X110025324Y-96922556D02*
X108077444Y-96922556D01*
X111171420Y-95999941D02*
X110947940Y-95999941D01*
X110947940Y-95999941D02*
X110025324Y-96922556D01*
%TO.N,/IO16*%
X108354957Y-97272556D02*
X105127513Y-100500000D01*
X127340000Y-89750000D02*
X117916339Y-89750000D01*
X111092915Y-96349941D02*
X110170299Y-97272556D01*
X110170299Y-97272556D02*
X108354957Y-97272556D01*
X93500000Y-95500000D02*
X91525000Y-95500000D01*
X105127513Y-100500000D02*
X98500000Y-100500000D01*
X111316398Y-96349941D02*
X111092915Y-96349941D01*
X128840000Y-91250000D02*
X127340000Y-89750000D01*
X129500000Y-91250000D02*
X128840000Y-91250000D01*
X117916339Y-89750000D02*
X111316398Y-96349941D01*
X98500000Y-100500000D02*
X93500000Y-95500000D01*
%TO.N,/IO14*%
X93250000Y-96500000D02*
X98075000Y-101325000D01*
X112950059Y-97049941D02*
X119250000Y-90750000D01*
X105675000Y-101325000D02*
X109027444Y-97972556D01*
X91525000Y-96500000D02*
X93250000Y-96500000D01*
X111382864Y-97049941D02*
X112950059Y-97049941D01*
X110460249Y-97972556D02*
X111382864Y-97049941D01*
X109027444Y-97972556D02*
X110460249Y-97972556D01*
X98075000Y-101325000D02*
X105675000Y-101325000D01*
%TO.N,/IO15*%
X126750000Y-90250000D02*
X117911317Y-90250000D01*
X93250000Y-96000000D02*
X91525000Y-96000000D01*
X117911317Y-90250000D02*
X111461376Y-96699941D01*
X111237890Y-96699941D02*
X110315274Y-97622556D01*
X110315274Y-97622556D02*
X108882470Y-97622556D01*
X129500000Y-92500000D02*
X129000000Y-92500000D01*
X129000000Y-92500000D02*
X126750000Y-90250000D01*
X111461376Y-96699941D02*
X111237890Y-96699941D01*
X98050000Y-100800000D02*
X93250000Y-96000000D01*
X108882470Y-97622556D02*
X105705026Y-100800000D01*
X105705026Y-100800000D02*
X98050000Y-100800000D01*
%TO.N,/IO4*%
X108500000Y-102250000D02*
X108750000Y-102500000D01*
X121249994Y-102500000D02*
X121500000Y-102249994D01*
X108750000Y-102500000D02*
X121249994Y-102500000D01*
%TO.N,/MIC2L*%
X98762500Y-84262500D02*
X101559557Y-84262500D01*
X95250000Y-82250000D02*
X96750000Y-82250000D01*
X93500000Y-82500000D02*
X95000000Y-82500000D01*
X101559557Y-84262500D02*
X103475000Y-86177943D01*
X96750000Y-82250000D02*
X98762500Y-84262500D01*
X95000000Y-82500000D02*
X95250000Y-82250000D01*
X93000000Y-83000000D02*
X93500000Y-82500000D01*
X91525000Y-83000000D02*
X93000000Y-83000000D01*
%TO.N,/MIC2R*%
X98000000Y-85250000D02*
X97250000Y-84500000D01*
X98750000Y-85250000D02*
X98000000Y-85250000D01*
X99200000Y-85700000D02*
X98750000Y-85250000D01*
X99200000Y-86087500D02*
X99200000Y-85700000D01*
X97250000Y-84500000D02*
X91525000Y-84500000D01*
%TD*%
M02*
