M48
; DRILL file {KiCad 8.0.1} date 2024-04-21T19:45:23+0200
; FORMAT={-:-/ absolute / inch / decimal}
; #@! TF.CreationDate,2024-04-21T19:45:23+02:00
; #@! TF.GenerationSoftware,Kicad,Pcbnew,8.0.1
; #@! TF.FileFunction,Plated,1,4,PTH
FMAT,2
INCH
; #@! TA.AperFunction,Plated,PTH,ViaDrill
T1C0.0118
; #@! TA.AperFunction,Plated,PTH,ComponentDrill
T2C0.0118
; #@! TA.AperFunction,Plated,PTH,ComponentDrill
T3C0.0236
%
G90
G05
T1
X3.6521Y-3.7017
X3.6614Y-3.5335
X3.6713Y-3.6122
X3.6785Y-3.8977
X3.6785Y-3.9764
X3.6811Y-3.4744
X3.7008Y-3.2972
X3.7106Y-3.3563
X3.7106Y-3.4055
X3.7179Y-3.8977
X3.7179Y-3.9371
X3.7179Y-3.9764
X3.7205Y-3.5335
X3.75Y-3.4744
X3.7795Y-3.2795
X3.7844Y-3.5679
X3.7894Y-3.3661
X3.8091Y-3.5039
X3.8189Y-3.4154
X3.8287Y-3.6024
X3.8386Y-3.3858
X3.8583Y-3.6319
X3.8681Y-3.4547
X3.8717Y-3.3901
X3.878Y-3.5221
X3.878Y-3.721
X3.9055Y-3.3893
X3.913Y-3.4365
X3.9173Y-3.6811
X3.9566Y-3.691
X3.9567Y-3.2766
X3.9567Y-3.8081
X3.9631Y-3.522
X3.9764Y-3.622
X3.9897Y-3.7623
X4.0094Y-3.3996
X4.03Y-3.6443
X4.0551Y-3.2766
X4.0551Y-3.4651
X4.0551Y-3.5635
X4.0551Y-3.7697
X4.0551Y-3.8081
X4.0616Y-3.6431
X4.0632Y-3.6781
X4.0738Y-3.3928
X4.0846Y-3.2283
X4.0935Y-3.6462
X4.0989Y-3.6837
X4.1024Y-3.5123
X4.1535Y-3.2721
X4.1535Y-3.4651
X4.1535Y-3.5635
X4.1535Y-3.6619
X4.1535Y-3.7111
X4.185Y-3.6501
X4.2074Y-3.6179
X4.2224Y-3.4252
X4.2323Y-3.3169
X4.2387Y-3.6358
X4.2417Y-3.6935
X4.2433Y-3.4015
X4.2458Y-4.0064
X4.2618Y-3.2776
X4.2714Y-3.3861
X4.2717Y-3.5044
X4.2717Y-4.0256
X4.2913Y-3.4547
X4.3012Y-4.0059
X4.311Y-3.3858
X4.3151Y-3.9646
X4.3307Y-3.2776
X4.3406Y-3.9833
X4.3504Y-3.3858
X4.3701Y-3.2185
X4.3701Y-3.2579
X4.3701Y-3.3071
X4.3701Y-3.3563
X4.3701Y-3.9665
X4.3916Y-3.9352
X4.4033Y-3.9664
X4.4094Y-3.2283
X4.4108Y-3.9075
X4.4208Y-3.5252
X4.4291Y-3.9469
X4.4388Y-3.449
X4.4488Y-3.2677
X4.4833Y-3.2923
X4.4882Y-3.2185
X4.5371Y-3.3988
X4.5374Y-3.435
X4.5472Y-3.9242
X4.5669Y-3.8976
X4.5768Y-3.9469
X4.5866Y-3.3661
X4.5965Y-3.4055
X4.5965Y-3.7598
X4.6161Y-3.9665
X4.6182Y-3.9329
X4.6358Y-3.3661
X4.6457Y-3.9862
X4.6555Y-3.2185
X4.6555Y-3.4055
X4.6841Y-3.9685
X4.685Y-3.3661
X4.685Y-4.001
X4.6949Y-3.5728
X4.7146Y-4.0128
X4.7343Y-3.5728
X4.7472Y-4.0124
X4.7736Y-3.2185
X4.7835Y-4.0256
X4.8031Y-3.3957
X4.8327Y-3.2185
X4.8327Y-3.3661
X4.8524Y-3.3957
X4.8819Y-3.3661
X4.9016Y-3.3957
X4.9311Y-3.4547
X4.9803Y-3.2185
X5.0591Y-3.4646
X5.0935Y-3.5482
X5.0984Y-3.5925
X5.0984Y-3.6417
X5.0984Y-3.7008
X5.1083Y-3.3661
X5.1083Y-3.4941
X5.1181Y-3.9961
X5.128Y-3.5236
X5.128Y-3.5728
X5.128Y-3.622
X5.1378Y-3.2185
X5.1772Y-3.2972
X5.2165Y-3.2283
X5.2264Y-3.6122
X5.2362Y-3.9961
X5.2461Y-3.4843
X5.2461Y-3.5236
X5.2559Y-3.8091
X5.315Y-3.8287
X5.3248Y-3.3858
X5.3346Y-3.4252
X5.3445Y-3.2677
X5.3445Y-3.4941
X5.3494Y-4.0207
X5.3786Y-3.3251
X5.4035Y-3.2185
X5.4055Y-3.2567
X5.4134Y-3.3268
X5.4331Y-3.4055
X5.4331Y-3.4449
X5.548Y-3.2709
X5.5512Y-4.0157
X5.5906Y-3.8583
X5.5906Y-3.9567
X5.6004Y-3.2874
X5.6004Y-3.3587
X5.6004Y-3.4768
X5.6004Y-3.6909
X5.6004Y-3.7402
X5.6004Y-3.7992
X5.6102Y-3.5827
X5.6201Y-3.2185
X5.6299Y-3.9567
X5.6594Y-3.7992
X5.6693Y-3.9567
X5.7087Y-4.0211
X5.7185Y-3.6539
X5.7382Y-3.2874
X5.7441Y-3.5669
X5.7874Y-3.2185
X5.7874Y-3.6539
X5.8071Y-3.7598
X5.8071Y-3.8681
X5.8465Y-4.0256
X5.876Y-3.4252
T2
X4.8325Y-3.6654
X4.8325Y-3.7205
X4.8601Y-3.6378
X4.8601Y-3.6929
X4.8601Y-3.748
X4.8876Y-3.6654
X4.8876Y-3.7205
X4.9152Y-3.6378
X4.9152Y-3.6929
X4.9152Y-3.748
X4.9427Y-3.6654
X4.9427Y-3.7205
T3
G00X5.6622Y-3.2575
M15
G01X5.7055Y-3.2575
M16
G05
G00X5.6622Y-3.5976
M15
G01X5.7055Y-3.5976
M16
G05
G00X5.8366Y-3.2575
M15
G01X5.8602Y-3.2575
M16
G05
G00X5.8366Y-3.5976
M15
G01X5.8602Y-3.5976
M16
G05
M30
