%TF.GenerationSoftware,KiCad,Pcbnew,8.0.1*%
%TF.CreationDate,2024-04-21T19:45:24+02:00*%
%TF.ProjectId,Hypersonic_pcb,48797065-7273-46f6-9e69-635f7063622e,rev?*%
%TF.SameCoordinates,Original*%
%TF.FileFunction,Legend,Top*%
%TF.FilePolarity,Positive*%
%FSLAX46Y46*%
G04 Gerber Fmt 4.6, Leading zero omitted, Abs format (unit mm)*
G04 Created by KiCad (PCBNEW 8.0.1) date 2024-04-21 19:45:24*
%MOMM*%
%LPD*%
G01*
G04 APERTURE LIST*
%ADD10C,0.100000*%
%ADD11C,0.120000*%
G04 APERTURE END LIST*
D10*
X120372419Y-98660401D02*
X121086704Y-98660401D01*
X121086704Y-98660401D02*
X121229561Y-98708020D01*
X121229561Y-98708020D02*
X121324800Y-98803258D01*
X121324800Y-98803258D02*
X121372419Y-98946115D01*
X121372419Y-98946115D02*
X121372419Y-99041353D01*
X121372419Y-97708020D02*
X121372419Y-98184210D01*
X121372419Y-98184210D02*
X120372419Y-98184210D01*
X121277180Y-96803258D02*
X121324800Y-96850877D01*
X121324800Y-96850877D02*
X121372419Y-96993734D01*
X121372419Y-96993734D02*
X121372419Y-97088972D01*
X121372419Y-97088972D02*
X121324800Y-97231829D01*
X121324800Y-97231829D02*
X121229561Y-97327067D01*
X121229561Y-97327067D02*
X121134323Y-97374686D01*
X121134323Y-97374686D02*
X120943847Y-97422305D01*
X120943847Y-97422305D02*
X120800990Y-97422305D01*
X120800990Y-97422305D02*
X120610514Y-97374686D01*
X120610514Y-97374686D02*
X120515276Y-97327067D01*
X120515276Y-97327067D02*
X120420038Y-97231829D01*
X120420038Y-97231829D02*
X120372419Y-97088972D01*
X120372419Y-97088972D02*
X120372419Y-96993734D01*
X120372419Y-96993734D02*
X120420038Y-96850877D01*
X120420038Y-96850877D02*
X120467657Y-96803258D01*
X120372419Y-96088972D02*
X121086704Y-96088972D01*
X121086704Y-96088972D02*
X121229561Y-96136591D01*
X121229561Y-96136591D02*
X121324800Y-96231829D01*
X121324800Y-96231829D02*
X121372419Y-96374686D01*
X121372419Y-96374686D02*
X121372419Y-96469924D01*
X121372419Y-95136591D02*
X121372419Y-95612781D01*
X121372419Y-95612781D02*
X120372419Y-95612781D01*
X121277180Y-94231829D02*
X121324800Y-94279448D01*
X121324800Y-94279448D02*
X121372419Y-94422305D01*
X121372419Y-94422305D02*
X121372419Y-94517543D01*
X121372419Y-94517543D02*
X121324800Y-94660400D01*
X121324800Y-94660400D02*
X121229561Y-94755638D01*
X121229561Y-94755638D02*
X121134323Y-94803257D01*
X121134323Y-94803257D02*
X120943847Y-94850876D01*
X120943847Y-94850876D02*
X120800990Y-94850876D01*
X120800990Y-94850876D02*
X120610514Y-94803257D01*
X120610514Y-94803257D02*
X120515276Y-94755638D01*
X120515276Y-94755638D02*
X120420038Y-94660400D01*
X120420038Y-94660400D02*
X120372419Y-94517543D01*
X120372419Y-94517543D02*
X120372419Y-94422305D01*
X120372419Y-94422305D02*
X120420038Y-94279448D01*
X120420038Y-94279448D02*
X120467657Y-94231829D01*
X120372419Y-93517543D02*
X121086704Y-93517543D01*
X121086704Y-93517543D02*
X121229561Y-93565162D01*
X121229561Y-93565162D02*
X121324800Y-93660400D01*
X121324800Y-93660400D02*
X121372419Y-93803257D01*
X121372419Y-93803257D02*
X121372419Y-93898495D01*
X121372419Y-92565162D02*
X121372419Y-93041352D01*
X121372419Y-93041352D02*
X120372419Y-93041352D01*
X121277180Y-91660400D02*
X121324800Y-91708019D01*
X121324800Y-91708019D02*
X121372419Y-91850876D01*
X121372419Y-91850876D02*
X121372419Y-91946114D01*
X121372419Y-91946114D02*
X121324800Y-92088971D01*
X121324800Y-92088971D02*
X121229561Y-92184209D01*
X121229561Y-92184209D02*
X121134323Y-92231828D01*
X121134323Y-92231828D02*
X120943847Y-92279447D01*
X120943847Y-92279447D02*
X120800990Y-92279447D01*
X120800990Y-92279447D02*
X120610514Y-92231828D01*
X120610514Y-92231828D02*
X120515276Y-92184209D01*
X120515276Y-92184209D02*
X120420038Y-92088971D01*
X120420038Y-92088971D02*
X120372419Y-91946114D01*
X120372419Y-91946114D02*
X120372419Y-91850876D01*
X120372419Y-91850876D02*
X120420038Y-91708019D01*
X120420038Y-91708019D02*
X120467657Y-91660400D01*
X120372419Y-90946114D02*
X121086704Y-90946114D01*
X121086704Y-90946114D02*
X121229561Y-90993733D01*
X121229561Y-90993733D02*
X121324800Y-91088971D01*
X121324800Y-91088971D02*
X121372419Y-91231828D01*
X121372419Y-91231828D02*
X121372419Y-91327066D01*
X121372419Y-89993733D02*
X121372419Y-90469923D01*
X121372419Y-90469923D02*
X120372419Y-90469923D01*
X121277180Y-89088971D02*
X121324800Y-89136590D01*
X121324800Y-89136590D02*
X121372419Y-89279447D01*
X121372419Y-89279447D02*
X121372419Y-89374685D01*
X121372419Y-89374685D02*
X121324800Y-89517542D01*
X121324800Y-89517542D02*
X121229561Y-89612780D01*
X121229561Y-89612780D02*
X121134323Y-89660399D01*
X121134323Y-89660399D02*
X120943847Y-89708018D01*
X120943847Y-89708018D02*
X120800990Y-89708018D01*
X120800990Y-89708018D02*
X120610514Y-89660399D01*
X120610514Y-89660399D02*
X120515276Y-89612780D01*
X120515276Y-89612780D02*
X120420038Y-89517542D01*
X120420038Y-89517542D02*
X120372419Y-89374685D01*
X120372419Y-89374685D02*
X120372419Y-89279447D01*
X120372419Y-89279447D02*
X120420038Y-89136590D01*
X120420038Y-89136590D02*
X120467657Y-89088971D01*
D11*
%TO.C,U1*%
X113445606Y-83310000D02*
X113445606Y-84310000D01*
X113445606Y-83310000D02*
X114945606Y-83310000D01*
X113445606Y-102910000D02*
X113445606Y-102210000D01*
X131845606Y-83310000D02*
X130345606Y-83310000D01*
X131845606Y-84310000D02*
X131845606Y-83310000D01*
X131845606Y-102910000D02*
X113445606Y-102910000D01*
X131845606Y-102660000D02*
X131845606Y-102160000D01*
X132345606Y-102160000D01*
X131845606Y-102660000D01*
G36*
X131845606Y-102660000D02*
G01*
X131845606Y-102160000D01*
X132345606Y-102160000D01*
X131845606Y-102660000D01*
G37*
%TO.C,C8*%
X137055407Y-97051781D02*
X137055407Y-98337344D01*
X137055407Y-97051781D02*
X138119844Y-95987344D01*
X137055407Y-101742907D02*
X137055407Y-100457344D01*
X137055407Y-101742907D02*
X138119844Y-102807344D01*
X138119844Y-95987344D02*
X143875407Y-95987344D01*
X138119844Y-102807344D02*
X143875407Y-102807344D01*
X143875407Y-95987344D02*
X143875407Y-98337344D01*
X143875407Y-102807344D02*
X143875407Y-100457344D01*
%TO.C,CF4*%
X100390000Y-84211252D02*
X100390000Y-82788748D01*
X103110000Y-84211252D02*
X103110000Y-82788748D01*
%TO.C,C7*%
X107607836Y-92652500D02*
X107392164Y-92652500D01*
X107607836Y-93372500D02*
X107392164Y-93372500D01*
%TO.C,D3*%
X137510000Y-86150000D02*
X134250000Y-86150000D01*
X137510000Y-87850000D02*
X134250000Y-87850000D01*
X137510000Y-87850000D02*
X137510000Y-86150000D01*
%TO.C,R4*%
X147120000Y-93906359D02*
X147120000Y-94213641D01*
X147880000Y-93906359D02*
X147880000Y-94213641D01*
%TO.C,C10*%
X99015000Y-94023753D02*
X99015000Y-93501247D01*
X100485000Y-94023753D02*
X100485000Y-93501247D01*
%TO.C,R6*%
X119846359Y-81370000D02*
X120153641Y-81370000D01*
X119846359Y-82130000D02*
X120153641Y-82130000D01*
%TO.C,C14*%
X99642164Y-90902500D02*
X99857836Y-90902500D01*
X99642164Y-91622500D02*
X99857836Y-91622500D01*
%TO.C,U4*%
X103000000Y-94202499D02*
X102200000Y-94202500D01*
X103000000Y-94202499D02*
X103800000Y-94202500D01*
X103000000Y-97322501D02*
X102200000Y-97322500D01*
X103000000Y-97322501D02*
X103800000Y-97322500D01*
X104540000Y-97602500D02*
X104060000Y-97602500D01*
X104300000Y-97272500D01*
X104540000Y-97602500D01*
G36*
X104540000Y-97602500D02*
G01*
X104060000Y-97602500D01*
X104300000Y-97272500D01*
X104540000Y-97602500D01*
G37*
%TO.C,U2*%
X137689999Y-83500000D02*
X137690000Y-82700000D01*
X137689999Y-83500000D02*
X137690000Y-84300000D01*
X140810001Y-83500000D02*
X140810000Y-82700000D01*
X140810001Y-83500000D02*
X140810000Y-84300000D01*
X141090000Y-82440000D02*
X140760000Y-82200000D01*
X141090000Y-81960000D01*
X141090000Y-82440000D01*
G36*
X141090000Y-82440000D02*
G01*
X140760000Y-82200000D01*
X141090000Y-81960000D01*
X141090000Y-82440000D01*
G37*
%TO.C,U3*%
X135590000Y-88590000D02*
X135590000Y-89849999D01*
X135590000Y-95410000D02*
X135590000Y-94150001D01*
X139350000Y-88589999D02*
X135590000Y-88590000D01*
X139350000Y-95410001D02*
X135590000Y-95410000D01*
X140870000Y-95640000D02*
X140390000Y-95640000D01*
X140630000Y-95310000D01*
X140870000Y-95640000D01*
G36*
X140870000Y-95640000D02*
G01*
X140390000Y-95640000D01*
X140630000Y-95310000D01*
X140870000Y-95640000D01*
G37*
%TO.C,C9*%
X107640000Y-87642164D02*
X107640000Y-87857836D01*
X108360000Y-87642164D02*
X108360000Y-87857836D01*
%TO.C,J1*%
X145600000Y-82360000D02*
X147600000Y-82360000D01*
X145600000Y-91760000D02*
X147600000Y-91760000D01*
X149500000Y-82360001D02*
X151400000Y-82360001D01*
X149500000Y-91759999D02*
X151400000Y-91759999D01*
X151400000Y-91759999D02*
X151400000Y-82360001D01*
%TO.C,C15*%
X111140581Y-89740000D02*
X110859419Y-89740000D01*
X111140581Y-90760000D02*
X110859419Y-90760000D01*
%TO.C,U6*%
X110750000Y-86189999D02*
X109950000Y-86190000D01*
X110750000Y-86189999D02*
X111550000Y-86190000D01*
X110750000Y-89310001D02*
X109950000Y-89310000D01*
X110750000Y-89310001D02*
X111550000Y-89310000D01*
X112290000Y-89590000D02*
X111810000Y-89590000D01*
X112050000Y-89260000D01*
X112290000Y-89590000D01*
G36*
X112290000Y-89590000D02*
G01*
X111810000Y-89590000D01*
X112050000Y-89260000D01*
X112290000Y-89590000D01*
G37*
%TO.C,R5*%
X116846359Y-81370000D02*
X117153641Y-81370000D01*
X116846359Y-82130000D02*
X117153641Y-82130000D01*
%TO.C,C2*%
X134607836Y-101450000D02*
X134392164Y-101450000D01*
X134607836Y-102170000D02*
X134392164Y-102170000D01*
%TO.C,D2*%
X133400000Y-85510000D02*
X133400000Y-82250000D01*
X133400000Y-85510000D02*
X135100000Y-85510000D01*
X135100000Y-85510000D02*
X135100000Y-82250000D01*
%TO.C,R1*%
X148620000Y-93906359D02*
X148620000Y-94213641D01*
X149380000Y-93906359D02*
X149380000Y-94213641D01*
%TO.C,D4*%
X145265000Y-99862501D02*
X145265000Y-102147501D01*
X146735000Y-99862501D02*
X145265000Y-99862501D01*
X146735000Y-102147501D02*
X146735000Y-99862501D01*
%TO.C,C6*%
X144296331Y-93844767D02*
X144296331Y-94367273D01*
X142826331Y-93844767D02*
X142826331Y-94367273D01*
%TO.C,CF1*%
X104390000Y-84211252D02*
X104390000Y-82788748D01*
X107110000Y-84211252D02*
X107110000Y-82788748D01*
%TO.C,C4*%
X140261253Y-86265000D02*
X139738747Y-86265000D01*
X140261253Y-87735000D02*
X139738747Y-87735000D01*
%TO.C,R7*%
X145620000Y-96713641D02*
X145620000Y-96406359D01*
X146380000Y-96713641D02*
X146380000Y-96406359D01*
%TO.C,CF3*%
X107890000Y-84211252D02*
X107890000Y-82788748D01*
X110610000Y-84211252D02*
X110610000Y-82788748D01*
%TO.C,R2*%
X134346359Y-99680000D02*
X134653641Y-99680000D01*
X134346359Y-100440000D02*
X134653641Y-100440000D01*
%TO.C,U5*%
X101590000Y-86602500D02*
X101590000Y-87077500D01*
X101590000Y-91822500D02*
X101590000Y-91347500D01*
X102065000Y-86602500D02*
X101590000Y-86602500D01*
X102065000Y-91822500D02*
X101590000Y-91822500D01*
X106335000Y-86602500D02*
X106810000Y-86602500D01*
X106335000Y-91822500D02*
X106510000Y-91822500D01*
X106810000Y-86602500D02*
X106810000Y-87077500D01*
X106810000Y-91347500D02*
X106810000Y-91582500D01*
X107050000Y-92152500D02*
X106570000Y-92152500D01*
X106810000Y-91822500D01*
X107050000Y-92152500D01*
G36*
X107050000Y-92152500D02*
G01*
X106570000Y-92152500D01*
X106810000Y-91822500D01*
X107050000Y-92152500D01*
G37*
%TO.C,C13*%
X99890000Y-87204664D02*
X99890000Y-87420336D01*
X100610000Y-87204664D02*
X100610000Y-87420336D01*
%TO.C,R3*%
X145620000Y-93906359D02*
X145620000Y-94213641D01*
X146380000Y-93906359D02*
X146380000Y-94213641D01*
%TO.C,C1*%
X134607836Y-97950000D02*
X134392164Y-97950000D01*
X134607836Y-98670000D02*
X134392164Y-98670000D01*
%TO.C,CF2*%
X96890000Y-84211252D02*
X96890000Y-82788748D01*
X99610000Y-84211252D02*
X99610000Y-82788748D01*
%TO.C,C3*%
X136860000Y-82392164D02*
X136860000Y-82607836D01*
X136140000Y-82392164D02*
X136140000Y-82607836D01*
%TO.C,C12*%
X102107836Y-92852500D02*
X101892164Y-92852500D01*
X102107836Y-93572500D02*
X101892164Y-93572500D01*
%TO.C,C5*%
X105765000Y-95773753D02*
X105765000Y-95251247D01*
X107235000Y-95773753D02*
X107235000Y-95251247D01*
%TO.C,C11*%
X111490000Y-83609419D02*
X111490000Y-83890581D01*
X112510000Y-83609419D02*
X112510000Y-83890581D01*
%TD*%
M02*
