%TF.GenerationSoftware,KiCad,Pcbnew,8.0.1*%
%TF.CreationDate,2024-04-21T19:45:24+02:00*%
%TF.ProjectId,Hypersonic_pcb,48797065-7273-46f6-9e69-635f7063622e,rev?*%
%TF.SameCoordinates,Original*%
%TF.FileFunction,Legend,Bot*%
%TF.FilePolarity,Positive*%
%FSLAX46Y46*%
G04 Gerber Fmt 4.6, Leading zero omitted, Abs format (unit mm)*
G04 Created by KiCad (PCBNEW 8.0.1) date 2024-04-21 19:45:24*
%MOMM*%
%LPD*%
G01*
G04 APERTURE LIST*
%ADD10C,0.300000*%
G04 APERTURE END LIST*
D10*
X148338346Y-97287425D02*
X148338346Y-94287425D01*
X148338346Y-95715996D02*
X146624060Y-95715996D01*
X146624060Y-97287425D02*
X146624060Y-94287425D01*
X145481203Y-95287425D02*
X144766917Y-97287425D01*
X144052632Y-95287425D02*
X144766917Y-97287425D01*
X144766917Y-97287425D02*
X145052632Y-98001710D01*
X145052632Y-98001710D02*
X145195489Y-98144568D01*
X145195489Y-98144568D02*
X145481203Y-98287425D01*
X142909775Y-95287425D02*
X142909775Y-98287425D01*
X142909775Y-95430282D02*
X142624061Y-95287425D01*
X142624061Y-95287425D02*
X142052632Y-95287425D01*
X142052632Y-95287425D02*
X141766918Y-95430282D01*
X141766918Y-95430282D02*
X141624061Y-95573139D01*
X141624061Y-95573139D02*
X141481203Y-95858853D01*
X141481203Y-95858853D02*
X141481203Y-96715996D01*
X141481203Y-96715996D02*
X141624061Y-97001710D01*
X141624061Y-97001710D02*
X141766918Y-97144568D01*
X141766918Y-97144568D02*
X142052632Y-97287425D01*
X142052632Y-97287425D02*
X142624061Y-97287425D01*
X142624061Y-97287425D02*
X142909775Y-97144568D01*
X139052632Y-97144568D02*
X139338346Y-97287425D01*
X139338346Y-97287425D02*
X139909775Y-97287425D01*
X139909775Y-97287425D02*
X140195489Y-97144568D01*
X140195489Y-97144568D02*
X140338346Y-96858853D01*
X140338346Y-96858853D02*
X140338346Y-95715996D01*
X140338346Y-95715996D02*
X140195489Y-95430282D01*
X140195489Y-95430282D02*
X139909775Y-95287425D01*
X139909775Y-95287425D02*
X139338346Y-95287425D01*
X139338346Y-95287425D02*
X139052632Y-95430282D01*
X139052632Y-95430282D02*
X138909775Y-95715996D01*
X138909775Y-95715996D02*
X138909775Y-96001710D01*
X138909775Y-96001710D02*
X140338346Y-96287425D01*
X137624060Y-97287425D02*
X137624060Y-95287425D01*
X137624060Y-95858853D02*
X137481203Y-95573139D01*
X137481203Y-95573139D02*
X137338346Y-95430282D01*
X137338346Y-95430282D02*
X137052631Y-95287425D01*
X137052631Y-95287425D02*
X136766917Y-95287425D01*
X135909774Y-97144568D02*
X135624060Y-97287425D01*
X135624060Y-97287425D02*
X135052631Y-97287425D01*
X135052631Y-97287425D02*
X134766917Y-97144568D01*
X134766917Y-97144568D02*
X134624060Y-96858853D01*
X134624060Y-96858853D02*
X134624060Y-96715996D01*
X134624060Y-96715996D02*
X134766917Y-96430282D01*
X134766917Y-96430282D02*
X135052631Y-96287425D01*
X135052631Y-96287425D02*
X135481203Y-96287425D01*
X135481203Y-96287425D02*
X135766917Y-96144568D01*
X135766917Y-96144568D02*
X135909774Y-95858853D01*
X135909774Y-95858853D02*
X135909774Y-95715996D01*
X135909774Y-95715996D02*
X135766917Y-95430282D01*
X135766917Y-95430282D02*
X135481203Y-95287425D01*
X135481203Y-95287425D02*
X135052631Y-95287425D01*
X135052631Y-95287425D02*
X134766917Y-95430282D01*
X132909774Y-97287425D02*
X133195489Y-97144568D01*
X133195489Y-97144568D02*
X133338346Y-97001710D01*
X133338346Y-97001710D02*
X133481203Y-96715996D01*
X133481203Y-96715996D02*
X133481203Y-95858853D01*
X133481203Y-95858853D02*
X133338346Y-95573139D01*
X133338346Y-95573139D02*
X133195489Y-95430282D01*
X133195489Y-95430282D02*
X132909774Y-95287425D01*
X132909774Y-95287425D02*
X132481203Y-95287425D01*
X132481203Y-95287425D02*
X132195489Y-95430282D01*
X132195489Y-95430282D02*
X132052632Y-95573139D01*
X132052632Y-95573139D02*
X131909774Y-95858853D01*
X131909774Y-95858853D02*
X131909774Y-96715996D01*
X131909774Y-96715996D02*
X132052632Y-97001710D01*
X132052632Y-97001710D02*
X132195489Y-97144568D01*
X132195489Y-97144568D02*
X132481203Y-97287425D01*
X132481203Y-97287425D02*
X132909774Y-97287425D01*
X130624060Y-95287425D02*
X130624060Y-97287425D01*
X130624060Y-95573139D02*
X130481203Y-95430282D01*
X130481203Y-95430282D02*
X130195488Y-95287425D01*
X130195488Y-95287425D02*
X129766917Y-95287425D01*
X129766917Y-95287425D02*
X129481203Y-95430282D01*
X129481203Y-95430282D02*
X129338346Y-95715996D01*
X129338346Y-95715996D02*
X129338346Y-97287425D01*
X127909774Y-97287425D02*
X127909774Y-95287425D01*
X127909774Y-94287425D02*
X128052631Y-94430282D01*
X128052631Y-94430282D02*
X127909774Y-94573139D01*
X127909774Y-94573139D02*
X127766917Y-94430282D01*
X127766917Y-94430282D02*
X127909774Y-94287425D01*
X127909774Y-94287425D02*
X127909774Y-94573139D01*
X125195489Y-97144568D02*
X125481203Y-97287425D01*
X125481203Y-97287425D02*
X126052631Y-97287425D01*
X126052631Y-97287425D02*
X126338346Y-97144568D01*
X126338346Y-97144568D02*
X126481203Y-97001710D01*
X126481203Y-97001710D02*
X126624060Y-96715996D01*
X126624060Y-96715996D02*
X126624060Y-95858853D01*
X126624060Y-95858853D02*
X126481203Y-95573139D01*
X126481203Y-95573139D02*
X126338346Y-95430282D01*
X126338346Y-95430282D02*
X126052631Y-95287425D01*
X126052631Y-95287425D02*
X125481203Y-95287425D01*
X125481203Y-95287425D02*
X125195489Y-95430282D01*
X121909774Y-95287425D02*
X121195488Y-97287425D01*
X121195488Y-97287425D02*
X120481203Y-95287425D01*
X118766917Y-94287425D02*
X118481203Y-94287425D01*
X118481203Y-94287425D02*
X118195489Y-94430282D01*
X118195489Y-94430282D02*
X118052632Y-94573139D01*
X118052632Y-94573139D02*
X117909774Y-94858853D01*
X117909774Y-94858853D02*
X117766917Y-95430282D01*
X117766917Y-95430282D02*
X117766917Y-96144568D01*
X117766917Y-96144568D02*
X117909774Y-96715996D01*
X117909774Y-96715996D02*
X118052632Y-97001710D01*
X118052632Y-97001710D02*
X118195489Y-97144568D01*
X118195489Y-97144568D02*
X118481203Y-97287425D01*
X118481203Y-97287425D02*
X118766917Y-97287425D01*
X118766917Y-97287425D02*
X119052632Y-97144568D01*
X119052632Y-97144568D02*
X119195489Y-97001710D01*
X119195489Y-97001710D02*
X119338346Y-96715996D01*
X119338346Y-96715996D02*
X119481203Y-96144568D01*
X119481203Y-96144568D02*
X119481203Y-95430282D01*
X119481203Y-95430282D02*
X119338346Y-94858853D01*
X119338346Y-94858853D02*
X119195489Y-94573139D01*
X119195489Y-94573139D02*
X119052632Y-94430282D01*
X119052632Y-94430282D02*
X118766917Y-94287425D01*
X116481203Y-97001710D02*
X116338346Y-97144568D01*
X116338346Y-97144568D02*
X116481203Y-97287425D01*
X116481203Y-97287425D02*
X116624060Y-97144568D01*
X116624060Y-97144568D02*
X116481203Y-97001710D01*
X116481203Y-97001710D02*
X116481203Y-97287425D01*
X113481203Y-97287425D02*
X115195489Y-97287425D01*
X114338346Y-97287425D02*
X114338346Y-94287425D01*
X114338346Y-94287425D02*
X114624060Y-94715996D01*
X114624060Y-94715996D02*
X114909775Y-95001710D01*
X114909775Y-95001710D02*
X115195489Y-95144568D01*
X148481203Y-101260114D02*
X147052632Y-101260114D01*
X148766917Y-102117257D02*
X147766917Y-99117257D01*
X147766917Y-99117257D02*
X146766917Y-102117257D01*
X144481203Y-102117257D02*
X144481203Y-99117257D01*
X144481203Y-101974400D02*
X144766917Y-102117257D01*
X144766917Y-102117257D02*
X145338345Y-102117257D01*
X145338345Y-102117257D02*
X145624060Y-101974400D01*
X145624060Y-101974400D02*
X145766917Y-101831542D01*
X145766917Y-101831542D02*
X145909774Y-101545828D01*
X145909774Y-101545828D02*
X145909774Y-100688685D01*
X145909774Y-100688685D02*
X145766917Y-100402971D01*
X145766917Y-100402971D02*
X145624060Y-100260114D01*
X145624060Y-100260114D02*
X145338345Y-100117257D01*
X145338345Y-100117257D02*
X144766917Y-100117257D01*
X144766917Y-100117257D02*
X144481203Y-100260114D01*
X141766917Y-102117257D02*
X141766917Y-100545828D01*
X141766917Y-100545828D02*
X141909774Y-100260114D01*
X141909774Y-100260114D02*
X142195488Y-100117257D01*
X142195488Y-100117257D02*
X142766917Y-100117257D01*
X142766917Y-100117257D02*
X143052631Y-100260114D01*
X141766917Y-101974400D02*
X142052631Y-102117257D01*
X142052631Y-102117257D02*
X142766917Y-102117257D01*
X142766917Y-102117257D02*
X143052631Y-101974400D01*
X143052631Y-101974400D02*
X143195488Y-101688685D01*
X143195488Y-101688685D02*
X143195488Y-101402971D01*
X143195488Y-101402971D02*
X143052631Y-101117257D01*
X143052631Y-101117257D02*
X142766917Y-100974400D01*
X142766917Y-100974400D02*
X142052631Y-100974400D01*
X142052631Y-100974400D02*
X141766917Y-100831542D01*
X140338345Y-102117257D02*
X140338345Y-100117257D01*
X140338345Y-100402971D02*
X140195488Y-100260114D01*
X140195488Y-100260114D02*
X139909773Y-100117257D01*
X139909773Y-100117257D02*
X139481202Y-100117257D01*
X139481202Y-100117257D02*
X139195488Y-100260114D01*
X139195488Y-100260114D02*
X139052631Y-100545828D01*
X139052631Y-100545828D02*
X139052631Y-102117257D01*
X139052631Y-100545828D02*
X138909773Y-100260114D01*
X138909773Y-100260114D02*
X138624059Y-100117257D01*
X138624059Y-100117257D02*
X138195488Y-100117257D01*
X138195488Y-100117257D02*
X137909773Y-100260114D01*
X137909773Y-100260114D02*
X137766916Y-100545828D01*
X137766916Y-100545828D02*
X137766916Y-102117257D01*
X134195488Y-101260114D02*
X132766917Y-101260114D01*
X134481202Y-102117257D02*
X133481202Y-99117257D01*
X133481202Y-99117257D02*
X132481202Y-102117257D01*
X131481202Y-100117257D02*
X131481202Y-102117257D01*
X131481202Y-100402971D02*
X131338345Y-100260114D01*
X131338345Y-100260114D02*
X131052630Y-100117257D01*
X131052630Y-100117257D02*
X130624059Y-100117257D01*
X130624059Y-100117257D02*
X130338345Y-100260114D01*
X130338345Y-100260114D02*
X130195488Y-100545828D01*
X130195488Y-100545828D02*
X130195488Y-102117257D01*
X127481202Y-102117257D02*
X127481202Y-99117257D01*
X127481202Y-101974400D02*
X127766916Y-102117257D01*
X127766916Y-102117257D02*
X128338344Y-102117257D01*
X128338344Y-102117257D02*
X128624059Y-101974400D01*
X128624059Y-101974400D02*
X128766916Y-101831542D01*
X128766916Y-101831542D02*
X128909773Y-101545828D01*
X128909773Y-101545828D02*
X128909773Y-100688685D01*
X128909773Y-100688685D02*
X128766916Y-100402971D01*
X128766916Y-100402971D02*
X128624059Y-100260114D01*
X128624059Y-100260114D02*
X128338344Y-100117257D01*
X128338344Y-100117257D02*
X127766916Y-100117257D01*
X127766916Y-100117257D02*
X127481202Y-100260114D01*
X124909773Y-101974400D02*
X125195487Y-102117257D01*
X125195487Y-102117257D02*
X125766916Y-102117257D01*
X125766916Y-102117257D02*
X126052630Y-101974400D01*
X126052630Y-101974400D02*
X126195487Y-101688685D01*
X126195487Y-101688685D02*
X126195487Y-100545828D01*
X126195487Y-100545828D02*
X126052630Y-100260114D01*
X126052630Y-100260114D02*
X125766916Y-100117257D01*
X125766916Y-100117257D02*
X125195487Y-100117257D01*
X125195487Y-100117257D02*
X124909773Y-100260114D01*
X124909773Y-100260114D02*
X124766916Y-100545828D01*
X124766916Y-100545828D02*
X124766916Y-100831542D01*
X124766916Y-100831542D02*
X126195487Y-101117257D01*
X123481201Y-102117257D02*
X123481201Y-100117257D01*
X123481201Y-100688685D02*
X123338344Y-100402971D01*
X123338344Y-100402971D02*
X123195487Y-100260114D01*
X123195487Y-100260114D02*
X122909772Y-100117257D01*
X122909772Y-100117257D02*
X122624058Y-100117257D01*
X121766915Y-101974400D02*
X121481201Y-102117257D01*
X121481201Y-102117257D02*
X120909772Y-102117257D01*
X120909772Y-102117257D02*
X120624058Y-101974400D01*
X120624058Y-101974400D02*
X120481201Y-101688685D01*
X120481201Y-101688685D02*
X120481201Y-101545828D01*
X120481201Y-101545828D02*
X120624058Y-101260114D01*
X120624058Y-101260114D02*
X120909772Y-101117257D01*
X120909772Y-101117257D02*
X121338344Y-101117257D01*
X121338344Y-101117257D02*
X121624058Y-100974400D01*
X121624058Y-100974400D02*
X121766915Y-100688685D01*
X121766915Y-100688685D02*
X121766915Y-100545828D01*
X121766915Y-100545828D02*
X121624058Y-100260114D01*
X121624058Y-100260114D02*
X121338344Y-100117257D01*
X121338344Y-100117257D02*
X120909772Y-100117257D01*
X120909772Y-100117257D02*
X120624058Y-100260114D01*
X118766915Y-102117257D02*
X119052630Y-101974400D01*
X119052630Y-101974400D02*
X119195487Y-101831542D01*
X119195487Y-101831542D02*
X119338344Y-101545828D01*
X119338344Y-101545828D02*
X119338344Y-100688685D01*
X119338344Y-100688685D02*
X119195487Y-100402971D01*
X119195487Y-100402971D02*
X119052630Y-100260114D01*
X119052630Y-100260114D02*
X118766915Y-100117257D01*
X118766915Y-100117257D02*
X118338344Y-100117257D01*
X118338344Y-100117257D02*
X118052630Y-100260114D01*
X118052630Y-100260114D02*
X117909773Y-100402971D01*
X117909773Y-100402971D02*
X117766915Y-100688685D01*
X117766915Y-100688685D02*
X117766915Y-101545828D01*
X117766915Y-101545828D02*
X117909773Y-101831542D01*
X117909773Y-101831542D02*
X118052630Y-101974400D01*
X118052630Y-101974400D02*
X118338344Y-102117257D01*
X118338344Y-102117257D02*
X118766915Y-102117257D01*
X116481201Y-100117257D02*
X116481201Y-102117257D01*
X116481201Y-100402971D02*
X116338344Y-100260114D01*
X116338344Y-100260114D02*
X116052629Y-100117257D01*
X116052629Y-100117257D02*
X115624058Y-100117257D01*
X115624058Y-100117257D02*
X115338344Y-100260114D01*
X115338344Y-100260114D02*
X115195487Y-100545828D01*
X115195487Y-100545828D02*
X115195487Y-102117257D01*
X111624058Y-99402971D02*
X111481201Y-99260114D01*
X111481201Y-99260114D02*
X111195487Y-99117257D01*
X111195487Y-99117257D02*
X110481201Y-99117257D01*
X110481201Y-99117257D02*
X110195487Y-99260114D01*
X110195487Y-99260114D02*
X110052629Y-99402971D01*
X110052629Y-99402971D02*
X109909772Y-99688685D01*
X109909772Y-99688685D02*
X109909772Y-99974400D01*
X109909772Y-99974400D02*
X110052629Y-100402971D01*
X110052629Y-100402971D02*
X111766915Y-102117257D01*
X111766915Y-102117257D02*
X109909772Y-102117257D01*
X108052629Y-99117257D02*
X107766915Y-99117257D01*
X107766915Y-99117257D02*
X107481201Y-99260114D01*
X107481201Y-99260114D02*
X107338344Y-99402971D01*
X107338344Y-99402971D02*
X107195486Y-99688685D01*
X107195486Y-99688685D02*
X107052629Y-100260114D01*
X107052629Y-100260114D02*
X107052629Y-100974400D01*
X107052629Y-100974400D02*
X107195486Y-101545828D01*
X107195486Y-101545828D02*
X107338344Y-101831542D01*
X107338344Y-101831542D02*
X107481201Y-101974400D01*
X107481201Y-101974400D02*
X107766915Y-102117257D01*
X107766915Y-102117257D02*
X108052629Y-102117257D01*
X108052629Y-102117257D02*
X108338344Y-101974400D01*
X108338344Y-101974400D02*
X108481201Y-101831542D01*
X108481201Y-101831542D02*
X108624058Y-101545828D01*
X108624058Y-101545828D02*
X108766915Y-100974400D01*
X108766915Y-100974400D02*
X108766915Y-100260114D01*
X108766915Y-100260114D02*
X108624058Y-99688685D01*
X108624058Y-99688685D02*
X108481201Y-99402971D01*
X108481201Y-99402971D02*
X108338344Y-99260114D01*
X108338344Y-99260114D02*
X108052629Y-99117257D01*
X105909772Y-99402971D02*
X105766915Y-99260114D01*
X105766915Y-99260114D02*
X105481201Y-99117257D01*
X105481201Y-99117257D02*
X104766915Y-99117257D01*
X104766915Y-99117257D02*
X104481201Y-99260114D01*
X104481201Y-99260114D02*
X104338343Y-99402971D01*
X104338343Y-99402971D02*
X104195486Y-99688685D01*
X104195486Y-99688685D02*
X104195486Y-99974400D01*
X104195486Y-99974400D02*
X104338343Y-100402971D01*
X104338343Y-100402971D02*
X106052629Y-102117257D01*
X106052629Y-102117257D02*
X104195486Y-102117257D01*
X101624058Y-100117257D02*
X101624058Y-102117257D01*
X102338343Y-98974400D02*
X103052629Y-101117257D01*
X103052629Y-101117257D02*
X101195486Y-101117257D01*
M02*
