%TF.GenerationSoftware,KiCad,Pcbnew,8.0.1*%
%TF.CreationDate,2024-04-21T18:31:03+02:00*%
%TF.ProjectId,Hypersonic_pedal_pcb,48797065-7273-46f6-9e69-635f70656461,rev?*%
%TF.SameCoordinates,Original*%
%TF.FileFunction,Copper,L2,Bot*%
%TF.FilePolarity,Positive*%
%FSLAX46Y46*%
G04 Gerber Fmt 4.6, Leading zero omitted, Abs format (unit mm)*
G04 Created by KiCad (PCBNEW 8.0.1) date 2024-04-21 18:31:03*
%MOMM*%
%LPD*%
G01*
G04 APERTURE LIST*
G04 Aperture macros list*
%AMRoundRect*
0 Rectangle with rounded corners*
0 $1 Rounding radius*
0 $2 $3 $4 $5 $6 $7 $8 $9 X,Y pos of 4 corners*
0 Add a 4 corners polygon primitive as box body*
4,1,4,$2,$3,$4,$5,$6,$7,$8,$9,$2,$3,0*
0 Add four circle primitives for the rounded corners*
1,1,$1+$1,$2,$3*
1,1,$1+$1,$4,$5*
1,1,$1+$1,$6,$7*
1,1,$1+$1,$8,$9*
0 Add four rect primitives between the rounded corners*
20,1,$1+$1,$2,$3,$4,$5,0*
20,1,$1+$1,$4,$5,$6,$7,0*
20,1,$1+$1,$6,$7,$8,$9,0*
20,1,$1+$1,$8,$9,$2,$3,0*%
%AMFreePoly0*
4,1,6,1.000000,0.000000,0.500000,-0.750000,-0.500000,-0.750000,-0.500000,0.750000,0.500000,0.750000,1.000000,0.000000,1.000000,0.000000,$1*%
%AMFreePoly1*
4,1,6,0.500000,-0.750000,-0.650000,-0.750000,-0.150000,0.000000,-0.650000,0.750000,0.500000,0.750000,0.500000,-0.750000,0.500000,-0.750000,$1*%
%AMFreePoly2*
4,1,19,0.550000,-0.750000,0.000000,-0.750000,0.000000,-0.744911,-0.071157,-0.744911,-0.207708,-0.704816,-0.327430,-0.627875,-0.420627,-0.520320,-0.479746,-0.390866,-0.500000,-0.250000,-0.500000,0.250000,-0.479746,0.390866,-0.420627,0.520320,-0.327430,0.627875,-0.207708,0.704816,-0.071157,0.744911,0.000000,0.744911,0.000000,0.750000,0.550000,0.750000,0.550000,-0.750000,0.550000,-0.750000,
$1*%
%AMFreePoly3*
4,1,19,0.000000,0.744911,0.071157,0.744911,0.207708,0.704816,0.327430,0.627875,0.420627,0.520320,0.479746,0.390866,0.500000,0.250000,0.500000,-0.250000,0.479746,-0.390866,0.420627,-0.520320,0.327430,-0.627875,0.207708,-0.704816,0.071157,-0.744911,0.000000,-0.744911,0.000000,-0.750000,-0.550000,-0.750000,-0.550000,0.750000,0.000000,0.750000,0.000000,0.744911,0.000000,0.744911,
$1*%
G04 Aperture macros list end*
%TA.AperFunction,EtchedComponent*%
%ADD10C,0.000000*%
%TD*%
%TA.AperFunction,ComponentPad*%
%ADD11C,3.000000*%
%TD*%
%TA.AperFunction,SMDPad,CuDef*%
%ADD12R,1.550000X0.300000*%
%TD*%
%TA.AperFunction,SMDPad,CuDef*%
%ADD13R,2.750000X1.200000*%
%TD*%
%TA.AperFunction,ComponentPad*%
%ADD14C,4.000000*%
%TD*%
%TA.AperFunction,ComponentPad*%
%ADD15RoundRect,0.250000X0.550000X-0.550000X0.550000X0.550000X-0.550000X0.550000X-0.550000X-0.550000X0*%
%TD*%
%TA.AperFunction,ComponentPad*%
%ADD16C,1.600000*%
%TD*%
%TA.AperFunction,ComponentPad*%
%ADD17O,3.000000X4.100000*%
%TD*%
%TA.AperFunction,ComponentPad*%
%ADD18C,1.524000*%
%TD*%
%TA.AperFunction,SMDPad,CuDef*%
%ADD19FreePoly0,90.000000*%
%TD*%
%TA.AperFunction,SMDPad,CuDef*%
%ADD20FreePoly1,90.000000*%
%TD*%
%TA.AperFunction,ComponentPad*%
%ADD21C,0.700000*%
%TD*%
%TA.AperFunction,ComponentPad*%
%ADD22C,4.400000*%
%TD*%
%TA.AperFunction,WasherPad*%
%ADD23C,4.000000*%
%TD*%
%TA.AperFunction,ComponentPad*%
%ADD24C,1.800000*%
%TD*%
%TA.AperFunction,SMDPad,CuDef*%
%ADD25FreePoly2,180.000000*%
%TD*%
%TA.AperFunction,SMDPad,CuDef*%
%ADD26R,1.000000X1.500000*%
%TD*%
%TA.AperFunction,SMDPad,CuDef*%
%ADD27FreePoly3,180.000000*%
%TD*%
%TA.AperFunction,SMDPad,CuDef*%
%ADD28FreePoly0,180.000000*%
%TD*%
%TA.AperFunction,SMDPad,CuDef*%
%ADD29FreePoly1,180.000000*%
%TD*%
%TA.AperFunction,SMDPad,CuDef*%
%ADD30RoundRect,0.200000X0.200000X0.275000X-0.200000X0.275000X-0.200000X-0.275000X0.200000X-0.275000X0*%
%TD*%
%TA.AperFunction,ComponentPad*%
%ADD31R,3.500000X3.500000*%
%TD*%
%TA.AperFunction,ComponentPad*%
%ADD32RoundRect,0.750000X-1.000000X0.750000X-1.000000X-0.750000X1.000000X-0.750000X1.000000X0.750000X0*%
%TD*%
%TA.AperFunction,ComponentPad*%
%ADD33RoundRect,0.875000X-0.875000X0.875000X-0.875000X-0.875000X0.875000X-0.875000X0.875000X0.875000X0*%
%TD*%
%TA.AperFunction,ComponentPad*%
%ADD34C,2.400000*%
%TD*%
%TA.AperFunction,ViaPad*%
%ADD35C,0.600000*%
%TD*%
%TA.AperFunction,Conductor*%
%ADD36C,0.200000*%
%TD*%
%TA.AperFunction,Conductor*%
%ADD37C,0.800000*%
%TD*%
G04 APERTURE END LIST*
D10*
%TA.AperFunction,EtchedComponent*%
%TO.C,JP3*%
G36*
X121650000Y-126050000D02*
G01*
X121150000Y-126050000D01*
X121150000Y-125450000D01*
X121650000Y-125450000D01*
X121650000Y-126050000D01*
G37*
%TD.AperFunction*%
%TA.AperFunction,EtchedComponent*%
%TO.C,JP4*%
G36*
X112400000Y-126050000D02*
G01*
X111900000Y-126050000D01*
X111900000Y-125450000D01*
X112400000Y-125450000D01*
X112400000Y-126050000D01*
G37*
%TD.AperFunction*%
%TD*%
D11*
%TO.P,J3,R*%
%TO.N,unconnected-(J3-PadR)*%
X133350000Y-142285000D03*
%TO.P,J3,RN*%
%TO.N,N/C*%
X133350000Y-130855000D03*
%TO.P,J3,S*%
%TO.N,/IN-*%
X139700000Y-142285000D03*
%TO.P,J3,SN*%
%TO.N,N/C*%
X139700000Y-130855000D03*
%TO.P,J3,T*%
%TO.N,/IN+*%
X127000000Y-142285000D03*
%TO.P,J3,TN*%
%TO.N,N/C*%
X127000000Y-130855000D03*
%TD*%
%TO.P,J2,R*%
%TO.N,unconnected-(J2-PadR)*%
X99150000Y-130715000D03*
%TO.P,J2,RN*%
%TO.N,N/C*%
X99150000Y-142145000D03*
%TO.P,J2,S*%
%TO.N,Net-(JP2-B)*%
X92800000Y-130715000D03*
%TO.P,J2,SN*%
%TO.N,N/C*%
X92800000Y-142145000D03*
%TO.P,J2,T*%
%TO.N,Net-(C1-Pad1)*%
X105500000Y-130715000D03*
%TO.P,J2,TN*%
%TO.N,N/C*%
X105500000Y-142145000D03*
%TD*%
D12*
%TO.P,J1,1,VIN*%
%TO.N,+9V*%
X84490000Y-99250000D03*
%TO.P,J1,2,GND*%
%TO.N,GND*%
X92040000Y-99500000D03*
%TO.P,J1,3,VIN*%
%TO.N,+9V*%
X84490000Y-99750000D03*
%TO.P,J1,4,GND*%
%TO.N,GND*%
X92040000Y-100000000D03*
%TO.P,J1,5,VIN*%
%TO.N,+9V*%
X84490000Y-100250000D03*
%TO.P,J1,6,GND*%
%TO.N,GND*%
X92040000Y-100500000D03*
%TO.P,J1,7,3V3*%
%TO.N,+3V3*%
X84490000Y-100750000D03*
%TO.P,J1,8,GND*%
%TO.N,GND*%
X92040000Y-101000000D03*
%TO.P,J1,9,3V3*%
%TO.N,+3V3*%
X84490000Y-101250000D03*
%TO.P,J1,10,GND*%
%TO.N,GND*%
X92040000Y-101500000D03*
%TO.P,J1,11,3V3*%
%TO.N,+3V3*%
X84490000Y-101750000D03*
%TO.P,J1,20,GPIOD0*%
%TO.N,/SD_CS*%
X92040000Y-104000000D03*
%TO.P,J1,21,GPIOA0*%
%TO.N,/BLK*%
X84490000Y-104250000D03*
%TO.P,J1,22,GPIOD1*%
%TO.N,/SCREEN_CS*%
X92040000Y-104500000D03*
%TO.P,J1,23,GPIOA1*%
%TO.N,/SCREEN_RES*%
X84490000Y-104750000D03*
%TO.P,J1,24,GPIOD2*%
%TO.N,/D2*%
X92040000Y-105000000D03*
%TO.P,J1,25,GPIOA2*%
%TO.N,/SCREEN_DC*%
X84490000Y-105250000D03*
%TO.P,J1,26,GPIOD3*%
%TO.N,/D3*%
X92040000Y-105500000D03*
%TO.P,J1,27,GPIOA3*%
%TO.N,unconnected-(J1-GPIOA3-Pad27)*%
X84490000Y-105750000D03*
%TO.P,J1,28,GPIOD4*%
%TO.N,/D4*%
X92040000Y-106000000D03*
%TO.P,J1,29,GPIOA4*%
%TO.N,unconnected-(J1-GPIOA4-Pad29)*%
X84490000Y-106250000D03*
%TO.P,J1,30,GND*%
%TO.N,GND*%
X92040000Y-106500000D03*
%TO.P,J1,31,GPIOA5*%
%TO.N,unconnected-(J1-GPIOA5-Pad31)*%
X84490000Y-106750000D03*
%TO.P,J1,32,SPI_MOSI*%
%TO.N,/MOSI*%
X92040000Y-107000000D03*
%TO.P,J1,33,GPIOA6*%
%TO.N,/A6*%
X84490000Y-107250000D03*
%TO.P,J1,34,SPI_CLK*%
%TO.N,/SCLK*%
X92040000Y-107500000D03*
%TO.P,J1,35,GPIOA7*%
%TO.N,/A7*%
X84490000Y-107750000D03*
%TO.P,J1,36,SPI_MISO*%
%TO.N,/MISO*%
X92040000Y-108000000D03*
%TO.P,J1,37,GPIOA8*%
%TO.N,/A8*%
X84490000Y-108250000D03*
%TO.P,J1,38,GND*%
%TO.N,GND*%
X92040000Y-108500000D03*
%TO.P,J1,39,GND*%
X84490000Y-108750000D03*
%TO.P,J1,40,I2C_SDA*%
%TO.N,unconnected-(J1-I2C_SDA-Pad40)*%
X92040000Y-109000000D03*
%TO.P,J1,41,TX*%
%TO.N,unconnected-(J1-TX-Pad41)*%
X84490000Y-109250000D03*
%TO.P,J1,42,I2C_SCL*%
%TO.N,unconnected-(J1-I2C_SCL-Pad42)*%
X92040000Y-109500000D03*
%TO.P,J1,43,RX*%
%TO.N,unconnected-(J1-RX-Pad43)*%
X84490000Y-109750000D03*
%TO.P,J1,44,NC*%
%TO.N,unconnected-(J1-NC-Pad44)*%
X92040000Y-110000000D03*
%TO.P,J1,45,NC*%
%TO.N,unconnected-(J1-NC-Pad45)*%
X84490000Y-110250000D03*
%TO.P,J1,46,GND*%
%TO.N,GND*%
X92040000Y-110500000D03*
%TO.P,J1,47,GND*%
X84490000Y-110750000D03*
%TO.P,J1,48,GND*%
X92040000Y-111000000D03*
%TO.P,J1,49,HP_OUT_R+*%
%TO.N,unconnected-(J1-HP_OUT_R+-Pad49)*%
X84490000Y-111250000D03*
%TO.P,J1,50,A_OUT_R-*%
%TO.N,unconnected-(J1-A_OUT_R--Pad50)*%
X92040000Y-111500000D03*
%TO.P,J1,51,HP_OUT_R-*%
%TO.N,unconnected-(J1-HP_OUT_R--Pad51)*%
X84490000Y-111750000D03*
%TO.P,J1,52,A_OUT_R+*%
%TO.N,unconnected-(J1-A_OUT_R+-Pad52)*%
X92040000Y-112000000D03*
%TO.P,J1,53,GND*%
%TO.N,GND*%
X84490000Y-112250000D03*
%TO.P,J1,54,GND*%
X92040000Y-112500000D03*
%TO.P,J1,55,HP_OUT_L-*%
%TO.N,/HP-*%
X84490000Y-112750000D03*
%TO.P,J1,56,A_OUT_L+*%
%TO.N,/LINE+*%
X92040000Y-113000000D03*
%TO.P,J1,57,HP_OUT_L+*%
%TO.N,/HP+*%
X84490000Y-113250000D03*
%TO.P,J1,58,A_OUT_L-*%
%TO.N,/LINE-*%
X92040000Y-113500000D03*
%TO.P,J1,67,A_IN1_L+*%
%TO.N,/IN+*%
X84490000Y-115750000D03*
%TO.P,J1,68,A_IN2_R*%
%TO.N,unconnected-(J1-A_IN2_R-Pad68)*%
X92040000Y-116000000D03*
%TO.P,J1,69,A_IN1_L-*%
%TO.N,/IN-*%
X84490000Y-116250000D03*
%TO.P,J1,70,GND*%
%TO.N,GND*%
X92040000Y-116500000D03*
%TO.P,J1,71,GND*%
X84490000Y-116750000D03*
%TO.P,J1,72,MICBIAS*%
%TO.N,unconnected-(J1-MICBIAS-Pad72)*%
X92040000Y-117000000D03*
%TO.P,J1,73,A_IN1_R+*%
%TO.N,unconnected-(J1-A_IN1_R+-Pad73)*%
X84490000Y-117250000D03*
%TO.P,J1,74,A_IN2_L*%
%TO.N,unconnected-(J1-A_IN2_L-Pad74)*%
X92040000Y-117500000D03*
%TO.P,J1,75,A_IN1_R-*%
%TO.N,unconnected-(J1-A_IN1_R--Pad75)*%
X84490000Y-117750000D03*
D13*
%TO.P,J1,SH1*%
%TO.N,N/C*%
X85265000Y-98150000D03*
%TO.P,J1,SH2*%
X85265000Y-118850000D03*
D14*
%TO.P,J1,SH3*%
X148015000Y-101500000D03*
%TD*%
D15*
%TO.P,SW1,A,A*%
%TO.N,/D4*%
X113750000Y-160750000D03*
D16*
%TO.P,SW1,B,B*%
%TO.N,/D3*%
X118750000Y-160750000D03*
%TO.P,SW1,C,C*%
%TO.N,GND*%
X116250000Y-160750000D03*
%TO.P,SW1,S1,S1*%
%TO.N,/D2*%
X113750000Y-146250000D03*
%TO.P,SW1,S2,S2*%
%TO.N,GND*%
X118750000Y-146250000D03*
D17*
%TO.P,SW1,SH*%
%TO.N,N/C*%
X110650000Y-153250000D03*
X121850000Y-153250000D03*
%TD*%
D18*
%TO.P,J5,1,Pin_1*%
%TO.N,+3V3*%
X139750000Y-97570000D03*
%TO.P,J5,2,Pin_2*%
%TO.N,GND*%
X139750000Y-100110000D03*
%TO.P,J5,3,Pin_3*%
%TO.N,/SCLK*%
X139750000Y-102650000D03*
%TO.P,J5,4,Pin_4*%
%TO.N,/MOSI*%
X139750000Y-105190000D03*
%TO.P,J5,5,Pin_5*%
%TO.N,/MISO*%
X139750000Y-107730000D03*
%TO.P,J5,6,Pin_6*%
%TO.N,/SCREEN_CS*%
X139750000Y-110270000D03*
%TO.P,J5,7,Pin_7*%
%TO.N,/SCREEN_RES*%
X139750000Y-112810000D03*
%TO.P,J5,8,Pin_8*%
%TO.N,/SCREEN_DC*%
X139750000Y-115350000D03*
%TO.P,J5,9,Pin_9*%
%TO.N,/BLK*%
X139750000Y-117890000D03*
%TO.P,J5,10,Pin_10*%
%TO.N,/SD_CS*%
X139750000Y-120430000D03*
%TD*%
D19*
%TO.P,JP5,1,A*%
%TO.N,GND*%
X84250000Y-84224999D03*
D20*
%TO.P,JP5,2,B*%
%TO.N,Net-(JP5-B)*%
X84250000Y-82775001D03*
%TD*%
D21*
%TO.P,H4,1,1*%
%TO.N,unconnected-(H4-Pad1)*%
X82600000Y-160500000D03*
X83083274Y-159333274D03*
X83083274Y-161666726D03*
X84250000Y-158850000D03*
D22*
X84250000Y-160500000D03*
D21*
X84250000Y-162150000D03*
X85416726Y-159333274D03*
X85416726Y-161666726D03*
X85900000Y-160500000D03*
%TD*%
%TO.P,H3,1,1*%
%TO.N,unconnected-(H3-Pad1)*%
X146600000Y-160500000D03*
X147083274Y-159333274D03*
X147083274Y-161666726D03*
X148250000Y-158850000D03*
D22*
X148250000Y-160500000D03*
D21*
X148250000Y-162150000D03*
X149416726Y-159333274D03*
X149416726Y-161666726D03*
X149900000Y-160500000D03*
%TD*%
%TO.P,H2,1,1*%
%TO.N,Net-(JP5-B)*%
X82600000Y-76500000D03*
X83083274Y-75333274D03*
X83083274Y-77666726D03*
X84250000Y-74850000D03*
D22*
X84250000Y-76500000D03*
D21*
X84250000Y-78150000D03*
X85416726Y-75333274D03*
X85416726Y-77666726D03*
X85900000Y-76500000D03*
%TD*%
%TO.P,H1,1,1*%
%TO.N,unconnected-(H1-Pad1)*%
X146600000Y-76500000D03*
X147083274Y-75333274D03*
X147083274Y-77666726D03*
X148250000Y-74850000D03*
D22*
X148250000Y-76500000D03*
D21*
X148250000Y-78150000D03*
X149416726Y-75333274D03*
X149416726Y-77666726D03*
X149900000Y-76500000D03*
%TD*%
D23*
%TO.P,RV3,*%
%TO.N,*%
X134350000Y-80050000D03*
X143149999Y-80050000D03*
D24*
%TO.P,RV3,1,1*%
%TO.N,Net-(R3-Pad2)*%
X141250000Y-87050000D03*
%TO.P,RV3,2,2*%
%TO.N,/A8*%
X138750000Y-87050000D03*
%TO.P,RV3,3,3*%
%TO.N,GND*%
X136250000Y-87050000D03*
%TD*%
D23*
%TO.P,RV2,*%
%TO.N,*%
X111850000Y-80050000D03*
X120649999Y-80050000D03*
D24*
%TO.P,RV2,1,1*%
%TO.N,Net-(R2-Pad2)*%
X118750000Y-87050000D03*
%TO.P,RV2,2,2*%
%TO.N,/A7*%
X116250000Y-87050000D03*
%TO.P,RV2,3,3*%
%TO.N,GND*%
X113750000Y-87050000D03*
%TD*%
D23*
%TO.P,RV1,*%
%TO.N,*%
X89350000Y-80050000D03*
X98149999Y-80050000D03*
D24*
%TO.P,RV1,1,1*%
%TO.N,Net-(R1-Pad2)*%
X96250000Y-87050000D03*
%TO.P,RV1,2,2*%
%TO.N,/A6*%
X93750000Y-87050000D03*
%TO.P,RV1,3,3*%
%TO.N,GND*%
X91250000Y-87050000D03*
%TD*%
D25*
%TO.P,JP3,1,A*%
%TO.N,/LINE+*%
X122050000Y-125750000D03*
D26*
%TO.P,JP3,2,C*%
%TO.N,Net-(JP3-C)*%
X120750000Y-125750000D03*
D27*
%TO.P,JP3,3,B*%
%TO.N,/HP+*%
X119450000Y-125750000D03*
%TD*%
D28*
%TO.P,JP1,1,A*%
%TO.N,GND*%
X136975000Y-158500000D03*
D29*
%TO.P,JP1,2,B*%
%TO.N,/IN-*%
X135525000Y-158500000D03*
%TD*%
D28*
%TO.P,JP2,1,A*%
%TO.N,GND*%
X96975000Y-158500000D03*
D29*
%TO.P,JP2,2,B*%
%TO.N,Net-(JP2-B)*%
X95525000Y-158500000D03*
%TD*%
D25*
%TO.P,JP4,1,A*%
%TO.N,/LINE-*%
X112800000Y-125750000D03*
D26*
%TO.P,JP4,2,C*%
%TO.N,Net-(JP4-C)*%
X111500000Y-125750000D03*
D27*
%TO.P,JP4,3,B*%
%TO.N,/HP-*%
X110200000Y-125750000D03*
%TD*%
D30*
%TO.P,R1,1*%
%TO.N,+3V3*%
X97825000Y-90250000D03*
%TO.P,R1,2*%
%TO.N,Net-(R1-Pad2)*%
X96175000Y-90250000D03*
%TD*%
%TO.P,R3,2*%
%TO.N,Net-(R3-Pad2)*%
X141175000Y-90250000D03*
%TO.P,R3,1*%
%TO.N,+3V3*%
X142825000Y-90250000D03*
%TD*%
%TO.P,R2,1*%
%TO.N,+3V3*%
X120325000Y-90250000D03*
%TO.P,R2,2*%
%TO.N,Net-(R2-Pad2)*%
X118675000Y-90250000D03*
%TD*%
D31*
%TO.P,J4,1*%
%TO.N,GND*%
X104333260Y-87523514D03*
D32*
%TO.P,J4,2*%
%TO.N,+9V*%
X104333260Y-81523514D03*
D33*
%TO.P,J4,3*%
%TO.N,unconnected-(J4-Pad3)*%
X109033260Y-84523514D03*
%TD*%
D34*
%TO.P,C1,1*%
%TO.N,Net-(C1-Pad1)*%
X128750000Y-151000000D03*
%TO.P,C1,2*%
%TO.N,Net-(JP3-C)*%
X143750000Y-151000000D03*
%TD*%
%TO.P,C2,1*%
%TO.N,Net-(JP2-B)*%
X88750000Y-151000000D03*
%TO.P,C2,2*%
%TO.N,Net-(JP4-C)*%
X103750000Y-151000000D03*
%TD*%
D35*
%TO.N,GND*%
X87250000Y-145000000D03*
X90250000Y-145000000D03*
X122500000Y-112500000D03*
X122500000Y-110000000D03*
X122500000Y-123000000D03*
X115000000Y-148250000D03*
X110000000Y-148750000D03*
X113250000Y-129750000D03*
X109000000Y-136250000D03*
X138500000Y-158500000D03*
X98750000Y-158500000D03*
X84250000Y-85500000D03*
X90500000Y-116500000D03*
X89500000Y-113000000D03*
X93750000Y-99750000D03*
X94500000Y-100500000D03*
X93750000Y-101250000D03*
X82750000Y-108750000D03*
X82750000Y-110750000D03*
X82750000Y-112250000D03*
X82750000Y-116750000D03*
%TO.N,/D4*%
X113250000Y-139000000D03*
X113250000Y-136750000D03*
%TO.N,/D3*%
X114500000Y-139000000D03*
X114500000Y-136750000D03*
%TO.N,/D2*%
X115750000Y-139000000D03*
X115750000Y-136750000D03*
%TO.N,Net-(JP4-C)*%
X107750000Y-137250000D03*
%TO.N,/D4*%
X89000000Y-111000000D03*
%TO.N,/D3*%
X89000000Y-109750000D03*
%TO.N,/D2*%
X89000000Y-108500000D03*
%TO.N,/HP+*%
X114750000Y-126750000D03*
X108750000Y-126750000D03*
%TO.N,/SCREEN_RES*%
X87000000Y-104750000D03*
%TO.N,/SCREEN_DC*%
X86500000Y-105750000D03*
%TO.N,/BLK*%
X85750000Y-104000000D03*
%TO.N,/SD_CS*%
X88250000Y-107500000D03*
%TO.N,/SCREEN_CS*%
X95500000Y-104500000D03*
%TD*%
D36*
%TO.N,/HP+*%
X118450000Y-126750000D02*
X119450000Y-125750000D01*
X114750000Y-126750000D02*
X118450000Y-126750000D01*
%TO.N,Net-(JP3-C)*%
X120750000Y-130750000D02*
X120750000Y-125750000D01*
X123500000Y-133500000D02*
X120750000Y-130750000D01*
X136500000Y-133500000D02*
X123500000Y-133500000D01*
X143750000Y-140750000D02*
X136500000Y-133500000D01*
X143750000Y-151000000D02*
X143750000Y-140750000D01*
%TO.N,/LINE+*%
X99250000Y-113000000D02*
X92039999Y-113000000D01*
X120250000Y-123000000D02*
X109250000Y-123000000D01*
X109250000Y-123000000D02*
X99250000Y-113000000D01*
X122050000Y-124800000D02*
X120250000Y-123000000D01*
X122050000Y-125750000D02*
X122050000Y-124800000D01*
%TO.N,/MOSI*%
X134500000Y-106250000D02*
X93814999Y-106250000D01*
X139250000Y-101500000D02*
X134500000Y-106250000D01*
X140250000Y-101500000D02*
X139250000Y-101500000D01*
X141250000Y-102500000D02*
X140250000Y-101500000D01*
X93814999Y-106250000D02*
X93064999Y-107000000D01*
X141250000Y-103690000D02*
X141250000Y-102500000D01*
X93064999Y-107000000D02*
X92040000Y-107000000D01*
X139750000Y-105190000D02*
X141250000Y-103690000D01*
%TO.N,/MISO*%
X138750000Y-108730000D02*
X93980000Y-108730000D01*
X93250001Y-108000001D02*
X92040000Y-108000001D01*
X139750000Y-107730000D02*
X138750000Y-108730000D01*
X93980000Y-108730000D02*
X93250001Y-108000001D01*
%TO.N,/SCLK*%
X139750000Y-102650000D02*
X139750000Y-102750000D01*
D37*
%TO.N,+3V3*%
X140750000Y-97570000D02*
X139750000Y-97570000D01*
X144750000Y-93570000D02*
X140750000Y-97570000D01*
X144750000Y-90250000D02*
X144750000Y-93570000D01*
D36*
%TO.N,/SCLK*%
X139750000Y-102750000D02*
X135000000Y-107500000D01*
X135000000Y-107500000D02*
X92040000Y-107500000D01*
%TO.N,GND*%
X87250000Y-145000000D02*
X90250000Y-145000000D01*
X113250000Y-129750000D02*
X113250000Y-132000000D01*
X113250000Y-132000000D02*
X109000000Y-136250000D01*
X110000000Y-148750000D02*
X114500000Y-148750000D01*
X114500000Y-148750000D02*
X115000000Y-148250000D01*
%TO.N,/IN-*%
X86000000Y-116250000D02*
X84490000Y-116250000D01*
X87250000Y-117500000D02*
X86000000Y-116250000D01*
X85750000Y-122000000D02*
X87250000Y-120500000D01*
X93000000Y-138500000D02*
X85750000Y-131250000D01*
X106250000Y-138500000D02*
X93000000Y-138500000D01*
X85750000Y-131250000D02*
X85750000Y-122000000D01*
X87250000Y-120500000D02*
X87250000Y-117500000D01*
X112250000Y-144500000D02*
X106250000Y-138500000D01*
X137485000Y-144500000D02*
X112250000Y-144500000D01*
X139700000Y-142285000D02*
X137485000Y-144500000D01*
%TO.N,/IN+*%
X86500000Y-115750000D02*
X84490000Y-115750000D01*
X88000000Y-117250000D02*
X86500000Y-115750000D01*
X88000000Y-121000000D02*
X88000000Y-117250000D01*
X86500000Y-122500000D02*
X88000000Y-121000000D01*
X86500000Y-131000000D02*
X86500000Y-122500000D01*
X93250000Y-137750000D02*
X86500000Y-131000000D01*
X106750000Y-137750000D02*
X93250000Y-137750000D01*
X127000000Y-142285000D02*
X111285000Y-142285000D01*
X111285000Y-142285000D02*
X106750000Y-137750000D01*
%TO.N,/HP-*%
X86000000Y-112750000D02*
X84490000Y-112750000D01*
X104500000Y-125750000D02*
X93500000Y-114750000D01*
X93500000Y-114750000D02*
X88000000Y-114750000D01*
X110200000Y-125750000D02*
X104500000Y-125750000D01*
X88000000Y-114750000D02*
X86000000Y-112750000D01*
%TO.N,/HP+*%
X85750000Y-113250000D02*
X84490000Y-113250000D01*
X87750000Y-115250000D02*
X85750000Y-113250000D01*
X93000000Y-115250000D02*
X87750000Y-115250000D01*
X104500000Y-126750000D02*
X93000000Y-115250000D01*
X108750000Y-126750000D02*
X104500000Y-126750000D01*
%TO.N,GND*%
X122500000Y-112500000D02*
X122500000Y-123000000D01*
X122500000Y-110000000D02*
X122500000Y-112500000D01*
%TO.N,/LINE-*%
X98750000Y-113500000D02*
X92040000Y-113500000D01*
X109000000Y-123750000D02*
X98750000Y-113500000D01*
X112800000Y-124995000D02*
X111555000Y-123750000D01*
X112800000Y-125750000D02*
X112800000Y-124995000D01*
X111555000Y-123750000D02*
X109000000Y-123750000D01*
%TO.N,GND*%
X136975000Y-158500000D02*
X138500000Y-158500000D01*
X96975000Y-158500000D02*
X98750000Y-158500000D01*
X84250000Y-85500000D02*
X84250000Y-84224999D01*
X92040000Y-116500000D02*
X90500000Y-116500000D01*
X92040000Y-108500000D02*
X90750000Y-108500000D01*
X90750000Y-108500000D02*
X90750000Y-106815686D01*
X90750000Y-110500000D02*
X90750000Y-108500000D01*
X92039999Y-110500000D02*
X90750000Y-110500000D01*
X90750000Y-111000000D02*
X90750000Y-110500000D01*
X90750000Y-111750000D02*
X90750000Y-111000000D01*
X92040000Y-111000000D02*
X90750000Y-111000000D01*
X90750000Y-112500000D02*
X90375000Y-112125000D01*
X92040000Y-112500000D02*
X90750000Y-112500000D01*
X89500000Y-113000000D02*
X90375000Y-112125000D01*
X90375000Y-112125000D02*
X90750000Y-111750000D01*
X90750000Y-106815686D02*
X91065686Y-106500000D01*
X91065686Y-106500000D02*
X92039999Y-106500000D01*
X93500000Y-99500000D02*
X93750000Y-99750000D01*
X92040000Y-99500000D02*
X93500000Y-99500000D01*
X93500001Y-99999999D02*
X93750000Y-99750000D01*
X92040000Y-99999999D02*
X93500001Y-99999999D01*
X92040000Y-100500000D02*
X94500000Y-100500000D01*
X93500000Y-101000000D02*
X93750000Y-101250000D01*
X92040000Y-101000000D02*
X93500000Y-101000000D01*
X93500000Y-101500000D02*
X93750000Y-101250000D01*
X92039999Y-101500000D02*
X93500000Y-101500000D01*
X84490000Y-108750000D02*
X82750000Y-108750000D01*
X84490000Y-110750000D02*
X82750000Y-110750000D01*
X84490000Y-112250000D02*
X82750000Y-112250000D01*
X84490000Y-116750000D02*
X82750000Y-116750000D01*
%TO.N,/D4*%
X113250000Y-139000000D02*
X113250000Y-136750000D01*
%TO.N,/D3*%
X114500000Y-136750000D02*
X114500000Y-139000000D01*
%TO.N,/D2*%
X115750000Y-136750000D02*
X115750000Y-139000000D01*
%TO.N,Net-(R1-Pad2)*%
X96250000Y-90175000D02*
X96175000Y-90250000D01*
X96250000Y-87050000D02*
X96250000Y-90175000D01*
%TO.N,Net-(R2-Pad2)*%
X118750000Y-90175000D02*
X118675000Y-90250000D01*
X118750000Y-87050000D02*
X118750000Y-90175000D01*
%TO.N,Net-(R3-Pad2)*%
X141250000Y-90175000D02*
X141175000Y-90250000D01*
X141250000Y-87050000D02*
X141250000Y-90175000D01*
%TO.N,+3V3*%
X142825000Y-90250000D02*
X144750000Y-90250000D01*
D37*
X144750000Y-86750000D02*
X144750000Y-90250000D01*
D36*
X120325000Y-84825000D02*
X120250000Y-84750000D01*
X120325000Y-90250000D02*
X120325000Y-84825000D01*
D37*
X120250000Y-84750000D02*
X142750000Y-84750000D01*
X113750000Y-84750000D02*
X120250000Y-84750000D01*
D36*
X99250000Y-90250000D02*
X100750000Y-88750000D01*
X97825000Y-90250000D02*
X99250000Y-90250000D01*
D37*
X100750000Y-88750000D02*
X102250000Y-90250000D01*
X97250000Y-85250000D02*
X100750000Y-88750000D01*
X142750000Y-84750000D02*
X144750000Y-86750000D01*
X108250000Y-90250000D02*
X113750000Y-84750000D01*
X86000000Y-88750000D02*
X89500000Y-85250000D01*
X89500000Y-85250000D02*
X97250000Y-85250000D01*
X86000000Y-96000000D02*
X86000000Y-88750000D01*
X87500000Y-97500000D02*
X86000000Y-96000000D01*
X85750000Y-101250000D02*
X87500000Y-99500000D01*
X102250000Y-90250000D02*
X108250000Y-90250000D01*
X87500000Y-99500000D02*
X87500000Y-97500000D01*
D36*
X85250000Y-100750000D02*
X84490000Y-100750000D01*
X84490000Y-101250000D02*
X85750000Y-101250000D01*
X85750000Y-101250000D02*
X85250000Y-100750000D01*
X85250000Y-101750000D02*
X84490000Y-101750000D01*
X85750000Y-101250000D02*
X85250000Y-101750000D01*
D37*
%TO.N,+9V*%
X102476486Y-81523514D02*
X104333260Y-81523514D01*
X100750000Y-83250000D02*
X102476486Y-81523514D01*
X88750000Y-83250000D02*
X100750000Y-83250000D01*
X83000000Y-89000000D02*
X88750000Y-83250000D01*
X83000000Y-99500000D02*
X83000000Y-89000000D01*
X83250000Y-99750000D02*
X83000000Y-99500000D01*
D36*
X83750000Y-99250000D02*
X84490000Y-99250000D01*
X83250000Y-99750000D02*
X84490000Y-99750000D01*
X83750000Y-100250000D02*
X84490000Y-100250000D01*
X83250000Y-99750000D02*
X83750000Y-100250000D01*
X83250000Y-99750000D02*
X83750000Y-99250000D01*
%TO.N,Net-(JP4-C)*%
X111500000Y-131250000D02*
X111500000Y-125750000D01*
X107750000Y-137250000D02*
X107750000Y-135000000D01*
X107750000Y-135000000D02*
X111500000Y-131250000D01*
%TO.N,/IN-*%
X135525000Y-158500000D02*
X135525000Y-146460000D01*
X135525000Y-146460000D02*
X139700000Y-142285000D01*
%TO.N,Net-(JP2-B)*%
X88750000Y-151725000D02*
X88750000Y-151000000D01*
X95525000Y-158500000D02*
X88750000Y-151725000D01*
%TO.N,/D4*%
X91000000Y-106000000D02*
X92040000Y-106000000D01*
X90250000Y-106750000D02*
X91000000Y-106000000D01*
X89000000Y-111000000D02*
X90250000Y-109750000D01*
X90250000Y-109750000D02*
X90250000Y-106750000D01*
%TO.N,/D3*%
X90646372Y-105500000D02*
X92040000Y-105500000D01*
X89750000Y-106396372D02*
X90646372Y-105500000D01*
X89750000Y-109000000D02*
X89750000Y-106396372D01*
X89000000Y-109750000D02*
X89750000Y-109000000D01*
%TO.N,/D2*%
X90580686Y-105000000D02*
X92040000Y-105000000D01*
X89000000Y-108500000D02*
X89000000Y-106580686D01*
X89000000Y-106580686D02*
X90580686Y-105000000D01*
%TO.N,/A8*%
X132300000Y-93500000D02*
X138750000Y-87050000D01*
X118750000Y-93500000D02*
X132300000Y-93500000D01*
X109500000Y-102750000D02*
X118750000Y-93500000D01*
X91699314Y-102750000D02*
X109500000Y-102750000D01*
X86199314Y-108250000D02*
X91699314Y-102750000D01*
X84490000Y-108250000D02*
X86199314Y-108250000D01*
%TO.N,/A7*%
X91565686Y-102250000D02*
X101050000Y-102250000D01*
X86065686Y-107750000D02*
X91565686Y-102250000D01*
X84490000Y-107750000D02*
X86065686Y-107750000D01*
X101050000Y-102250000D02*
X116250000Y-87050000D01*
%TO.N,/A6*%
X90750000Y-90050000D02*
X93750000Y-87050000D01*
X90750000Y-102500000D02*
X90750000Y-90050000D01*
X86000000Y-107250000D02*
X90750000Y-102500000D01*
X84490000Y-107250000D02*
X86000000Y-107250000D01*
%TO.N,/SD_CS*%
X88250000Y-106765000D02*
X91015000Y-104000000D01*
X91015000Y-104000000D02*
X92039999Y-104000000D01*
X88250000Y-107500000D02*
X88250000Y-106765000D01*
%TO.N,Net-(JP5-B)*%
X84250000Y-82775001D02*
X84250000Y-76500000D01*
%TO.N,/SCREEN_DC*%
X86000000Y-105250000D02*
X84490000Y-105250000D01*
X86500000Y-105750000D02*
X86000000Y-105250000D01*
%TO.N,/SCREEN_RES*%
X87000000Y-104750000D02*
X84490000Y-104750000D01*
%TO.N,/BLK*%
X85500000Y-104250000D02*
X84490000Y-104250000D01*
X85750000Y-104000000D02*
X85500000Y-104250000D01*
%TO.N,/SCREEN_CS*%
X95500000Y-104500000D02*
X92040000Y-104500000D01*
%TD*%
M02*
