%TF.GenerationSoftware,KiCad,Pcbnew,8.0.1*%
%TF.CreationDate,2024-04-21T18:31:03+02:00*%
%TF.ProjectId,Hypersonic_pedal_pcb,48797065-7273-46f6-9e69-635f70656461,rev?*%
%TF.SameCoordinates,Original*%
%TF.FileFunction,Paste,Bot*%
%TF.FilePolarity,Positive*%
%FSLAX46Y46*%
G04 Gerber Fmt 4.6, Leading zero omitted, Abs format (unit mm)*
G04 Created by KiCad (PCBNEW 8.0.1) date 2024-04-21 18:31:03*
%MOMM*%
%LPD*%
G01*
G04 APERTURE LIST*
G04 Aperture macros list*
%AMRoundRect*
0 Rectangle with rounded corners*
0 $1 Rounding radius*
0 $2 $3 $4 $5 $6 $7 $8 $9 X,Y pos of 4 corners*
0 Add a 4 corners polygon primitive as box body*
4,1,4,$2,$3,$4,$5,$6,$7,$8,$9,$2,$3,0*
0 Add four circle primitives for the rounded corners*
1,1,$1+$1,$2,$3*
1,1,$1+$1,$4,$5*
1,1,$1+$1,$6,$7*
1,1,$1+$1,$8,$9*
0 Add four rect primitives between the rounded corners*
20,1,$1+$1,$2,$3,$4,$5,0*
20,1,$1+$1,$4,$5,$6,$7,0*
20,1,$1+$1,$6,$7,$8,$9,0*
20,1,$1+$1,$8,$9,$2,$3,0*%
G04 Aperture macros list end*
%ADD10R,1.550000X0.300000*%
%ADD11R,2.750000X1.200000*%
%ADD12RoundRect,0.200000X0.200000X0.275000X-0.200000X0.275000X-0.200000X-0.275000X0.200000X-0.275000X0*%
G04 APERTURE END LIST*
D10*
%TO.C,J1*%
X84490000Y-99250000D03*
X92040000Y-99500000D03*
X84490000Y-99750000D03*
X92040000Y-100000000D03*
X84490000Y-100250000D03*
X92040000Y-100500000D03*
X84490000Y-100750000D03*
X92040000Y-101000000D03*
X84490000Y-101250000D03*
X92040000Y-101500000D03*
X84490000Y-101750000D03*
X92040000Y-104000000D03*
X84490000Y-104250000D03*
X92040000Y-104500000D03*
X84490000Y-104750000D03*
X92040000Y-105000000D03*
X84490000Y-105250000D03*
X92040000Y-105500000D03*
X84490000Y-105750000D03*
X92040000Y-106000000D03*
X84490000Y-106250000D03*
X92040000Y-106500000D03*
X84490000Y-106750000D03*
X92040000Y-107000000D03*
X84490000Y-107250000D03*
X92040000Y-107500000D03*
X84490000Y-107750000D03*
X92040000Y-108000000D03*
X84490000Y-108250000D03*
X92040000Y-108500000D03*
X84490000Y-108750000D03*
X92040000Y-109000000D03*
X84490000Y-109250000D03*
X92040000Y-109500000D03*
X84490000Y-109750000D03*
X92040000Y-110000000D03*
X84490000Y-110250000D03*
X92040000Y-110500000D03*
X84490000Y-110750000D03*
X92040000Y-111000000D03*
X84490000Y-111250000D03*
X92040000Y-111500000D03*
X84490000Y-111750000D03*
X92040000Y-112000000D03*
X84490000Y-112250000D03*
X92040000Y-112500000D03*
X84490000Y-112750000D03*
X92040000Y-113000000D03*
X84490000Y-113250000D03*
X92040000Y-113500000D03*
X84490000Y-115750000D03*
X92040000Y-116000000D03*
X84490000Y-116250000D03*
X92040000Y-116500000D03*
X84490000Y-116750000D03*
X92040000Y-117000000D03*
X84490000Y-117250000D03*
X92040000Y-117500000D03*
X84490000Y-117750000D03*
D11*
X85265000Y-98150000D03*
X85265000Y-118850000D03*
%TD*%
D12*
%TO.C,R1*%
X97825000Y-90250000D03*
X96175000Y-90250000D03*
%TD*%
%TO.C,R3*%
X141175000Y-90250000D03*
X142825000Y-90250000D03*
%TD*%
%TO.C,R2*%
X120325000Y-90250000D03*
X118675000Y-90250000D03*
%TD*%
M02*
