%TF.GenerationSoftware,KiCad,Pcbnew,8.0.1*%
%TF.CreationDate,2024-04-21T18:31:03+02:00*%
%TF.ProjectId,Hypersonic_pedal_pcb,48797065-7273-46f6-9e69-635f70656461,rev?*%
%TF.SameCoordinates,Original*%
%TF.FileFunction,Copper,L1,Top*%
%TF.FilePolarity,Positive*%
%FSLAX46Y46*%
G04 Gerber Fmt 4.6, Leading zero omitted, Abs format (unit mm)*
G04 Created by KiCad (PCBNEW 8.0.1) date 2024-04-21 18:31:03*
%MOMM*%
%LPD*%
G01*
G04 APERTURE LIST*
G04 Aperture macros list*
%AMRoundRect*
0 Rectangle with rounded corners*
0 $1 Rounding radius*
0 $2 $3 $4 $5 $6 $7 $8 $9 X,Y pos of 4 corners*
0 Add a 4 corners polygon primitive as box body*
4,1,4,$2,$3,$4,$5,$6,$7,$8,$9,$2,$3,0*
0 Add four circle primitives for the rounded corners*
1,1,$1+$1,$2,$3*
1,1,$1+$1,$4,$5*
1,1,$1+$1,$6,$7*
1,1,$1+$1,$8,$9*
0 Add four rect primitives between the rounded corners*
20,1,$1+$1,$2,$3,$4,$5,0*
20,1,$1+$1,$4,$5,$6,$7,0*
20,1,$1+$1,$6,$7,$8,$9,0*
20,1,$1+$1,$8,$9,$2,$3,0*%
G04 Aperture macros list end*
%TA.AperFunction,ComponentPad*%
%ADD10C,3.000000*%
%TD*%
%TA.AperFunction,ComponentPad*%
%ADD11C,4.000000*%
%TD*%
%TA.AperFunction,ComponentPad*%
%ADD12RoundRect,0.250000X0.550000X-0.550000X0.550000X0.550000X-0.550000X0.550000X-0.550000X-0.550000X0*%
%TD*%
%TA.AperFunction,ComponentPad*%
%ADD13C,1.600000*%
%TD*%
%TA.AperFunction,ComponentPad*%
%ADD14O,3.000000X4.100000*%
%TD*%
%TA.AperFunction,ComponentPad*%
%ADD15C,1.524000*%
%TD*%
%TA.AperFunction,ComponentPad*%
%ADD16C,0.700000*%
%TD*%
%TA.AperFunction,ComponentPad*%
%ADD17C,4.400000*%
%TD*%
%TA.AperFunction,WasherPad*%
%ADD18C,4.000000*%
%TD*%
%TA.AperFunction,ComponentPad*%
%ADD19C,1.800000*%
%TD*%
%TA.AperFunction,ComponentPad*%
%ADD20R,3.500000X3.500000*%
%TD*%
%TA.AperFunction,ComponentPad*%
%ADD21RoundRect,0.750000X-1.000000X0.750000X-1.000000X-0.750000X1.000000X-0.750000X1.000000X0.750000X0*%
%TD*%
%TA.AperFunction,ComponentPad*%
%ADD22RoundRect,0.875000X-0.875000X0.875000X-0.875000X-0.875000X0.875000X-0.875000X0.875000X0.875000X0*%
%TD*%
%TA.AperFunction,ComponentPad*%
%ADD23C,2.400000*%
%TD*%
%TA.AperFunction,ViaPad*%
%ADD24C,0.600000*%
%TD*%
%TA.AperFunction,Conductor*%
%ADD25C,0.200000*%
%TD*%
G04 APERTURE END LIST*
D10*
%TO.P,J3,R*%
%TO.N,unconnected-(J3-PadR)*%
X133350000Y-142285000D03*
%TO.P,J3,RN*%
%TO.N,N/C*%
X133350000Y-130855000D03*
%TO.P,J3,S*%
%TO.N,/IN-*%
X139700000Y-142285000D03*
%TO.P,J3,SN*%
%TO.N,N/C*%
X139700000Y-130855000D03*
%TO.P,J3,T*%
%TO.N,/IN+*%
X127000000Y-142285000D03*
%TO.P,J3,TN*%
%TO.N,N/C*%
X127000000Y-130855000D03*
%TD*%
%TO.P,J2,R*%
%TO.N,unconnected-(J2-PadR)*%
X99150000Y-130715000D03*
%TO.P,J2,RN*%
%TO.N,N/C*%
X99150000Y-142145000D03*
%TO.P,J2,S*%
%TO.N,Net-(JP2-B)*%
X92800000Y-130715000D03*
%TO.P,J2,SN*%
%TO.N,N/C*%
X92800000Y-142145000D03*
%TO.P,J2,T*%
%TO.N,Net-(C1-Pad1)*%
X105500000Y-130715000D03*
%TO.P,J2,TN*%
%TO.N,N/C*%
X105500000Y-142145000D03*
%TD*%
D11*
%TO.P,J1,SH3*%
%TO.N,N/C*%
X148015000Y-101500000D03*
%TD*%
D12*
%TO.P,SW1,A,A*%
%TO.N,/D4*%
X113750000Y-160750000D03*
D13*
%TO.P,SW1,B,B*%
%TO.N,/D3*%
X118750000Y-160750000D03*
%TO.P,SW1,C,C*%
%TO.N,GND*%
X116250000Y-160750000D03*
%TO.P,SW1,S1,S1*%
%TO.N,/D2*%
X113750000Y-146250000D03*
%TO.P,SW1,S2,S2*%
%TO.N,GND*%
X118750000Y-146250000D03*
D14*
%TO.P,SW1,SH*%
%TO.N,N/C*%
X110650000Y-153250000D03*
X121850000Y-153250000D03*
%TD*%
D15*
%TO.P,J5,1,Pin_1*%
%TO.N,+3V3*%
X139750000Y-97570000D03*
%TO.P,J5,2,Pin_2*%
%TO.N,GND*%
X139750000Y-100110000D03*
%TO.P,J5,3,Pin_3*%
%TO.N,/SCLK*%
X139750000Y-102650000D03*
%TO.P,J5,4,Pin_4*%
%TO.N,/MOSI*%
X139750000Y-105190000D03*
%TO.P,J5,5,Pin_5*%
%TO.N,/MISO*%
X139750000Y-107730000D03*
%TO.P,J5,6,Pin_6*%
%TO.N,/SCREEN_CS*%
X139750000Y-110270000D03*
%TO.P,J5,7,Pin_7*%
%TO.N,/SCREEN_RES*%
X139750000Y-112810000D03*
%TO.P,J5,8,Pin_8*%
%TO.N,/SCREEN_DC*%
X139750000Y-115350000D03*
%TO.P,J5,9,Pin_9*%
%TO.N,/BLK*%
X139750000Y-117890000D03*
%TO.P,J5,10,Pin_10*%
%TO.N,/SD_CS*%
X139750000Y-120430000D03*
%TD*%
D16*
%TO.P,H4,1,1*%
%TO.N,unconnected-(H4-Pad1)*%
X82600000Y-160500000D03*
X83083274Y-159333274D03*
X83083274Y-161666726D03*
X84250000Y-158850000D03*
D17*
X84250000Y-160500000D03*
D16*
X84250000Y-162150000D03*
X85416726Y-159333274D03*
X85416726Y-161666726D03*
X85900000Y-160500000D03*
%TD*%
%TO.P,H3,1,1*%
%TO.N,unconnected-(H3-Pad1)*%
X146600000Y-160500000D03*
X147083274Y-159333274D03*
X147083274Y-161666726D03*
X148250000Y-158850000D03*
D17*
X148250000Y-160500000D03*
D16*
X148250000Y-162150000D03*
X149416726Y-159333274D03*
X149416726Y-161666726D03*
X149900000Y-160500000D03*
%TD*%
%TO.P,H2,1,1*%
%TO.N,Net-(JP5-B)*%
X82600000Y-76500000D03*
X83083274Y-75333274D03*
X83083274Y-77666726D03*
X84250000Y-74850000D03*
D17*
X84250000Y-76500000D03*
D16*
X84250000Y-78150000D03*
X85416726Y-75333274D03*
X85416726Y-77666726D03*
X85900000Y-76500000D03*
%TD*%
%TO.P,H1,1,1*%
%TO.N,unconnected-(H1-Pad1)*%
X146600000Y-76500000D03*
X147083274Y-75333274D03*
X147083274Y-77666726D03*
X148250000Y-74850000D03*
D17*
X148250000Y-76500000D03*
D16*
X148250000Y-78150000D03*
X149416726Y-75333274D03*
X149416726Y-77666726D03*
X149900000Y-76500000D03*
%TD*%
D18*
%TO.P,RV3,*%
%TO.N,*%
X134350000Y-80050000D03*
X143149999Y-80050000D03*
D19*
%TO.P,RV3,1,1*%
%TO.N,Net-(R3-Pad2)*%
X141250000Y-87050000D03*
%TO.P,RV3,2,2*%
%TO.N,/A8*%
X138750000Y-87050000D03*
%TO.P,RV3,3,3*%
%TO.N,GND*%
X136250000Y-87050000D03*
%TD*%
D18*
%TO.P,RV2,*%
%TO.N,*%
X111850000Y-80050000D03*
X120649999Y-80050000D03*
D19*
%TO.P,RV2,1,1*%
%TO.N,Net-(R2-Pad2)*%
X118750000Y-87050000D03*
%TO.P,RV2,2,2*%
%TO.N,/A7*%
X116250000Y-87050000D03*
%TO.P,RV2,3,3*%
%TO.N,GND*%
X113750000Y-87050000D03*
%TD*%
D18*
%TO.P,RV1,*%
%TO.N,*%
X89350000Y-80050000D03*
X98149999Y-80050000D03*
D19*
%TO.P,RV1,1,1*%
%TO.N,Net-(R1-Pad2)*%
X96250000Y-87050000D03*
%TO.P,RV1,2,2*%
%TO.N,/A6*%
X93750000Y-87050000D03*
%TO.P,RV1,3,3*%
%TO.N,GND*%
X91250000Y-87050000D03*
%TD*%
D20*
%TO.P,J4,1*%
%TO.N,GND*%
X104333260Y-87523514D03*
D21*
%TO.P,J4,2*%
%TO.N,+9V*%
X104333260Y-81523514D03*
D22*
%TO.P,J4,3*%
%TO.N,unconnected-(J4-Pad3)*%
X109033260Y-84523514D03*
%TD*%
D23*
%TO.P,C1,1*%
%TO.N,Net-(C1-Pad1)*%
X128750000Y-151000000D03*
%TO.P,C1,2*%
%TO.N,Net-(JP3-C)*%
X143750000Y-151000000D03*
%TD*%
%TO.P,C2,1*%
%TO.N,Net-(JP2-B)*%
X88750000Y-151000000D03*
%TO.P,C2,2*%
%TO.N,Net-(JP4-C)*%
X103750000Y-151000000D03*
%TD*%
D24*
%TO.N,GND*%
X87250000Y-145000000D03*
X90250000Y-145000000D03*
X122500000Y-112500000D03*
X122500000Y-110000000D03*
X122500000Y-123000000D03*
X115000000Y-148250000D03*
X110000000Y-148750000D03*
X113250000Y-129750000D03*
X109000000Y-136250000D03*
X138500000Y-158500000D03*
X98750000Y-158500000D03*
X84250000Y-85500000D03*
X90500000Y-116500000D03*
X89500000Y-113000000D03*
X93750000Y-99750000D03*
X94500000Y-100500000D03*
X93750000Y-101250000D03*
X82750000Y-108750000D03*
X82750000Y-110750000D03*
X82750000Y-112250000D03*
X82750000Y-116750000D03*
%TO.N,/D4*%
X113250000Y-139000000D03*
X113250000Y-136750000D03*
%TO.N,/D3*%
X114500000Y-139000000D03*
X114500000Y-136750000D03*
%TO.N,/D2*%
X115750000Y-139000000D03*
X115750000Y-136750000D03*
%TO.N,Net-(JP4-C)*%
X107750000Y-137250000D03*
%TO.N,/D4*%
X89000000Y-111000000D03*
%TO.N,/D3*%
X89000000Y-109750000D03*
%TO.N,/D2*%
X89000000Y-108500000D03*
%TO.N,/HP+*%
X114750000Y-126750000D03*
X108750000Y-126750000D03*
%TO.N,/SCREEN_RES*%
X87000000Y-104750000D03*
%TO.N,/SCREEN_DC*%
X86500000Y-105750000D03*
%TO.N,/BLK*%
X85750000Y-104000000D03*
%TO.N,/SD_CS*%
X88250000Y-107500000D03*
%TO.N,/SCREEN_CS*%
X95500000Y-104500000D03*
%TD*%
D25*
%TO.N,/HP+*%
X114750000Y-126750000D02*
X108750000Y-126750000D01*
%TO.N,/SD_CS*%
X138750000Y-121430000D02*
X139750000Y-120430000D01*
X89250000Y-107500000D02*
X103180000Y-121430000D01*
%TO.N,/BLK*%
X138750000Y-118890000D02*
X139750000Y-117890000D01*
%TO.N,/SD_CS*%
X88250000Y-107500000D02*
X89250000Y-107500000D01*
%TO.N,/BLK*%
X103140000Y-118890000D02*
X138750000Y-118890000D01*
X90750000Y-106500000D02*
X103140000Y-118890000D01*
X86250000Y-106500000D02*
X90750000Y-106500000D01*
X85750000Y-104000000D02*
X85750000Y-106000000D01*
%TO.N,/SCREEN_DC*%
X138750000Y-116350000D02*
X139750000Y-115350000D01*
X92000000Y-105750000D02*
X102600000Y-116350000D01*
X102600000Y-116350000D02*
X138750000Y-116350000D01*
%TO.N,/SCREEN_RES*%
X138750000Y-113810000D02*
X139750000Y-112810000D01*
%TO.N,/SCREEN_DC*%
X86500000Y-105750000D02*
X92000000Y-105750000D01*
%TO.N,/SCREEN_CS*%
X138750000Y-111270000D02*
X102270000Y-111270000D01*
X139750000Y-110270000D02*
X138750000Y-111270000D01*
%TO.N,/SCREEN_RES*%
X102060000Y-113810000D02*
X138750000Y-113810000D01*
%TO.N,/SD_CS*%
X103180000Y-121430000D02*
X138750000Y-121430000D01*
%TO.N,/SCREEN_CS*%
X102270000Y-111270000D02*
X95500000Y-104500000D01*
%TO.N,/SCREEN_RES*%
X87000000Y-104750000D02*
X93000000Y-104750000D01*
%TO.N,/BLK*%
X85750000Y-106000000D02*
X86250000Y-106500000D01*
%TO.N,/SCREEN_RES*%
X93000000Y-104750000D02*
X102060000Y-113810000D01*
%TO.N,/D4*%
X113750000Y-150750000D02*
X113750000Y-160750000D01*
X111500000Y-148500000D02*
X113750000Y-150750000D01*
X111500000Y-141625000D02*
X111500000Y-148500000D01*
X113250000Y-139875000D02*
X111500000Y-141625000D01*
X113250000Y-139000000D02*
X113250000Y-139875000D01*
%TO.N,/D3*%
X118750000Y-154500000D02*
X118750000Y-160750000D01*
X112500000Y-148250000D02*
X118750000Y-154500000D01*
X112500000Y-142750000D02*
X112500000Y-148250000D01*
X114500000Y-139000000D02*
X114500000Y-140750000D01*
X114500000Y-140750000D02*
X112500000Y-142750000D01*
%TO.N,/D2*%
X113750000Y-143500000D02*
X113750000Y-146250000D01*
X115750000Y-141500000D02*
X113750000Y-143500000D01*
X115750000Y-139000000D02*
X115750000Y-141500000D01*
%TO.N,/D4*%
X113250000Y-136750000D02*
X113250000Y-135250000D01*
X113250000Y-135250000D02*
X89000000Y-111000000D01*
%TO.N,/D3*%
X114500000Y-135250000D02*
X89000000Y-109750000D01*
X114500000Y-136750000D02*
X114500000Y-135250000D01*
%TO.N,/D2*%
X115750000Y-135250000D02*
X89000000Y-108500000D01*
X115750000Y-136750000D02*
X115750000Y-135250000D01*
%TO.N,Net-(C1-Pad1)*%
X105500000Y-130750000D02*
X105500000Y-130715000D01*
X115750000Y-138000000D02*
X112750000Y-138000000D01*
X128750000Y-151000000D02*
X115750000Y-138000000D01*
X112750000Y-138000000D02*
X105500000Y-130750000D01*
%TO.N,Net-(JP4-C)*%
X107750000Y-137250000D02*
X107750000Y-147000000D01*
X107750000Y-147000000D02*
X103750000Y-151000000D01*
%TO.N,Net-(JP2-B)*%
X88750000Y-151000000D02*
X88750000Y-134765000D01*
X88750000Y-134765000D02*
X92800000Y-130715000D01*
%TD*%
%TA.AperFunction,Conductor*%
%TO.N,GND*%
G36*
X114555703Y-151155384D02*
G01*
X114562181Y-151161416D01*
X118113181Y-154712416D01*
X118146666Y-154773739D01*
X118149500Y-154800097D01*
X118149500Y-159518306D01*
X118129815Y-159585345D01*
X118096623Y-159619881D01*
X117910859Y-159749953D01*
X117749954Y-159910858D01*
X117619432Y-160097265D01*
X117619429Y-160097270D01*
X117612104Y-160112979D01*
X117565929Y-160165417D01*
X117498735Y-160184566D01*
X117431855Y-160164347D01*
X117387341Y-160112973D01*
X117380133Y-160097515D01*
X117380132Y-160097513D01*
X117329025Y-160024526D01*
X116732962Y-160620589D01*
X116715925Y-160557007D01*
X116650099Y-160442993D01*
X116557007Y-160349901D01*
X116442993Y-160284075D01*
X116379410Y-160267037D01*
X116975472Y-159670974D01*
X116902478Y-159619863D01*
X116696331Y-159523735D01*
X116696317Y-159523730D01*
X116476610Y-159464860D01*
X116476599Y-159464858D01*
X116250002Y-159445034D01*
X116249998Y-159445034D01*
X116023400Y-159464858D01*
X116023389Y-159464860D01*
X115803682Y-159523730D01*
X115803673Y-159523734D01*
X115597516Y-159619866D01*
X115597512Y-159619868D01*
X115524526Y-159670973D01*
X115524526Y-159670974D01*
X116120590Y-160267037D01*
X116057007Y-160284075D01*
X115942993Y-160349901D01*
X115849901Y-160442993D01*
X115784075Y-160557007D01*
X115767037Y-160620589D01*
X115170974Y-160024526D01*
X115134059Y-160027756D01*
X115065559Y-160013989D01*
X115015376Y-159965374D01*
X115005546Y-159943232D01*
X114984814Y-159880666D01*
X114892712Y-159731344D01*
X114768656Y-159607288D01*
X114660600Y-159540639D01*
X114619336Y-159515187D01*
X114619331Y-159515185D01*
X114452795Y-159460000D01*
X114448533Y-159459088D01*
X114387102Y-159425801D01*
X114353419Y-159364586D01*
X114350500Y-159337837D01*
X114350500Y-151249097D01*
X114370185Y-151182058D01*
X114422989Y-151136303D01*
X114492147Y-151126359D01*
X114555703Y-151155384D01*
G37*
%TD.AperFunction*%
%TA.AperFunction,Conductor*%
G36*
X146786914Y-74020185D02*
G01*
X146832669Y-74072989D01*
X146842613Y-74142147D01*
X146813588Y-74205703D01*
X146784026Y-74230615D01*
X146754913Y-74248215D01*
X146713131Y-74273473D01*
X146455960Y-74474954D01*
X146224954Y-74705960D01*
X146023473Y-74963131D01*
X145854454Y-75242723D01*
X145854453Y-75242725D01*
X145720372Y-75540642D01*
X145720366Y-75540657D01*
X145623178Y-75852547D01*
X145564289Y-76173900D01*
X145544564Y-76500000D01*
X145564289Y-76826099D01*
X145623178Y-77147452D01*
X145720366Y-77459342D01*
X145720370Y-77459354D01*
X145720373Y-77459361D01*
X145854455Y-77757279D01*
X145870008Y-77783006D01*
X146023473Y-78036868D01*
X146224954Y-78294039D01*
X146455960Y-78525045D01*
X146713131Y-78726526D01*
X146713134Y-78726528D01*
X146713137Y-78726530D01*
X146992721Y-78895545D01*
X147290639Y-79029627D01*
X147290652Y-79029631D01*
X147290657Y-79029633D01*
X147602547Y-79126821D01*
X147923896Y-79185710D01*
X148250000Y-79205436D01*
X148576104Y-79185710D01*
X148897453Y-79126821D01*
X149209361Y-79029627D01*
X149507279Y-78895545D01*
X149786863Y-78726530D01*
X150044036Y-78525048D01*
X150275048Y-78294036D01*
X150476530Y-78036863D01*
X150519383Y-77965974D01*
X150570911Y-77918788D01*
X150639770Y-77906949D01*
X150704099Y-77934218D01*
X150743473Y-77991936D01*
X150749500Y-78030125D01*
X150749500Y-101194989D01*
X150729815Y-101262028D01*
X150677011Y-101307783D01*
X150607853Y-101317727D01*
X150544297Y-101288702D01*
X150506523Y-101229924D01*
X150501745Y-101202775D01*
X150500689Y-101185995D01*
X150500688Y-101185988D01*
X150500688Y-101185985D01*
X150441731Y-100876921D01*
X150344503Y-100577685D01*
X150210537Y-100292993D01*
X150132004Y-100169244D01*
X150041948Y-100027338D01*
X150041945Y-100027334D01*
X149841393Y-99784909D01*
X149841391Y-99784907D01*
X149726194Y-99676729D01*
X149612030Y-99569522D01*
X149612027Y-99569520D01*
X149612021Y-99569515D01*
X149357495Y-99384591D01*
X149357488Y-99384586D01*
X149357484Y-99384584D01*
X149081766Y-99233006D01*
X149081763Y-99233004D01*
X149081758Y-99233002D01*
X149081757Y-99233001D01*
X148789228Y-99117181D01*
X148789225Y-99117180D01*
X148484476Y-99038934D01*
X148484463Y-99038932D01*
X148172329Y-98999500D01*
X148172318Y-98999500D01*
X147857682Y-98999500D01*
X147857670Y-98999500D01*
X147545536Y-99038932D01*
X147545523Y-99038934D01*
X147240774Y-99117180D01*
X147240771Y-99117181D01*
X146948242Y-99233001D01*
X146948241Y-99233002D01*
X146672516Y-99384584D01*
X146672504Y-99384591D01*
X146417978Y-99569515D01*
X146417968Y-99569523D01*
X146188608Y-99784907D01*
X146188606Y-99784909D01*
X145988054Y-100027334D01*
X145988051Y-100027338D01*
X145819464Y-100292990D01*
X145819461Y-100292996D01*
X145685499Y-100577678D01*
X145685497Y-100577683D01*
X145588270Y-100876916D01*
X145529311Y-101185988D01*
X145529310Y-101185995D01*
X145509556Y-101499994D01*
X145509556Y-101500005D01*
X145529310Y-101814004D01*
X145529311Y-101814011D01*
X145533388Y-101835381D01*
X145567907Y-102016340D01*
X145588270Y-102123083D01*
X145685497Y-102422316D01*
X145685499Y-102422321D01*
X145819461Y-102707003D01*
X145819464Y-102707009D01*
X145988051Y-102972661D01*
X145988054Y-102972665D01*
X146188606Y-103215090D01*
X146188608Y-103215092D01*
X146417968Y-103430476D01*
X146417978Y-103430484D01*
X146672504Y-103615408D01*
X146672509Y-103615410D01*
X146672516Y-103615416D01*
X146948234Y-103766994D01*
X146948239Y-103766996D01*
X146948241Y-103766997D01*
X146948242Y-103766998D01*
X147240771Y-103882818D01*
X147240774Y-103882819D01*
X147545523Y-103961065D01*
X147545527Y-103961066D01*
X147611010Y-103969338D01*
X147857670Y-104000499D01*
X147857679Y-104000499D01*
X147857682Y-104000500D01*
X147857684Y-104000500D01*
X148172316Y-104000500D01*
X148172318Y-104000500D01*
X148172321Y-104000499D01*
X148172329Y-104000499D01*
X148392213Y-103972721D01*
X148484473Y-103961066D01*
X148789225Y-103882819D01*
X148789228Y-103882818D01*
X149081757Y-103766998D01*
X149081758Y-103766997D01*
X149081756Y-103766997D01*
X149081766Y-103766994D01*
X149357484Y-103615416D01*
X149612030Y-103430478D01*
X149841390Y-103215094D01*
X150041947Y-102972663D01*
X150210537Y-102707007D01*
X150344503Y-102422315D01*
X150441731Y-102123079D01*
X150500688Y-101814015D01*
X150501255Y-101805010D01*
X150501745Y-101797224D01*
X150525600Y-101731553D01*
X150581172Y-101689204D01*
X150650819Y-101683622D01*
X150712426Y-101716580D01*
X150746436Y-101777614D01*
X150749500Y-101805010D01*
X150749500Y-158969874D01*
X150729815Y-159036913D01*
X150677011Y-159082668D01*
X150607853Y-159092612D01*
X150544297Y-159063587D01*
X150519384Y-159034025D01*
X150476528Y-158963134D01*
X150275045Y-158705960D01*
X150044039Y-158474954D01*
X149786868Y-158273473D01*
X149779306Y-158268901D01*
X149507279Y-158104455D01*
X149209361Y-157970373D01*
X149209354Y-157970370D01*
X149209342Y-157970366D01*
X148897452Y-157873178D01*
X148576099Y-157814289D01*
X148250000Y-157794564D01*
X147923900Y-157814289D01*
X147602547Y-157873178D01*
X147290657Y-157970366D01*
X147290641Y-157970372D01*
X147290639Y-157970373D01*
X147100933Y-158055752D01*
X146992725Y-158104453D01*
X146992723Y-158104454D01*
X146713131Y-158273473D01*
X146455960Y-158474954D01*
X146224954Y-158705960D01*
X146023473Y-158963131D01*
X145896708Y-159172825D01*
X145854455Y-159242721D01*
X145727982Y-159523734D01*
X145720372Y-159540642D01*
X145720366Y-159540657D01*
X145623178Y-159852547D01*
X145564289Y-160173900D01*
X145544564Y-160500000D01*
X145564289Y-160826099D01*
X145623178Y-161147452D01*
X145720366Y-161459342D01*
X145720370Y-161459354D01*
X145720373Y-161459361D01*
X145854455Y-161757279D01*
X145986837Y-161976264D01*
X146023473Y-162036868D01*
X146224954Y-162294039D01*
X146455960Y-162525045D01*
X146713131Y-162726526D01*
X146713134Y-162726528D01*
X146713137Y-162726530D01*
X146784025Y-162769383D01*
X146831212Y-162820911D01*
X146843051Y-162889770D01*
X146815782Y-162954099D01*
X146758064Y-162993473D01*
X146719875Y-162999500D01*
X85780125Y-162999500D01*
X85713086Y-162979815D01*
X85667331Y-162927011D01*
X85657387Y-162857853D01*
X85686412Y-162794297D01*
X85715973Y-162769384D01*
X85786863Y-162726530D01*
X86044036Y-162525048D01*
X86275048Y-162294036D01*
X86476530Y-162036863D01*
X86645545Y-161757279D01*
X86779627Y-161459361D01*
X86876821Y-161147453D01*
X86935710Y-160826104D01*
X86955436Y-160500000D01*
X86935710Y-160173896D01*
X86876821Y-159852547D01*
X86779627Y-159540639D01*
X86645545Y-159242721D01*
X86476530Y-158963137D01*
X86476528Y-158963134D01*
X86476526Y-158963131D01*
X86275045Y-158705960D01*
X86044039Y-158474954D01*
X85786868Y-158273473D01*
X85779306Y-158268901D01*
X85507279Y-158104455D01*
X85209361Y-157970373D01*
X85209354Y-157970370D01*
X85209342Y-157970366D01*
X84897452Y-157873178D01*
X84576099Y-157814289D01*
X84250000Y-157794564D01*
X83923900Y-157814289D01*
X83602547Y-157873178D01*
X83290657Y-157970366D01*
X83290641Y-157970372D01*
X83290639Y-157970373D01*
X83100933Y-158055752D01*
X82992725Y-158104453D01*
X82992723Y-158104454D01*
X82713131Y-158273473D01*
X82455960Y-158474954D01*
X82224954Y-158705960D01*
X82023471Y-158963134D01*
X81980616Y-159034025D01*
X81929088Y-159081212D01*
X81860229Y-159093050D01*
X81795900Y-159065781D01*
X81756527Y-159008062D01*
X81750500Y-158969874D01*
X81750500Y-153931127D01*
X108649500Y-153931127D01*
X108675853Y-154131284D01*
X108683730Y-154191116D01*
X108704389Y-154268216D01*
X108751602Y-154444418D01*
X108751605Y-154444428D01*
X108851953Y-154686690D01*
X108851958Y-154686700D01*
X108983075Y-154913803D01*
X109142718Y-155121851D01*
X109142726Y-155121860D01*
X109328140Y-155307274D01*
X109328148Y-155307281D01*
X109536196Y-155466924D01*
X109763299Y-155598041D01*
X109763309Y-155598046D01*
X110005571Y-155698394D01*
X110005581Y-155698398D01*
X110258884Y-155766270D01*
X110518880Y-155800500D01*
X110518887Y-155800500D01*
X110781113Y-155800500D01*
X110781120Y-155800500D01*
X111041116Y-155766270D01*
X111294419Y-155698398D01*
X111536697Y-155598043D01*
X111763803Y-155466924D01*
X111971851Y-155307282D01*
X111971855Y-155307277D01*
X111971860Y-155307274D01*
X112157274Y-155121860D01*
X112157277Y-155121855D01*
X112157282Y-155121851D01*
X112316924Y-154913803D01*
X112448043Y-154686697D01*
X112548398Y-154444419D01*
X112616270Y-154191116D01*
X112650500Y-153931120D01*
X112650500Y-152568880D01*
X112616270Y-152308884D01*
X112548398Y-152055581D01*
X112548394Y-152055571D01*
X112448046Y-151813309D01*
X112448041Y-151813299D01*
X112316924Y-151586196D01*
X112157281Y-151378148D01*
X112157274Y-151378140D01*
X111971860Y-151192726D01*
X111971851Y-151192718D01*
X111763803Y-151033075D01*
X111536700Y-150901958D01*
X111536690Y-150901953D01*
X111294428Y-150801605D01*
X111294421Y-150801603D01*
X111294419Y-150801602D01*
X111041116Y-150733730D01*
X110983339Y-150726123D01*
X110781127Y-150699500D01*
X110781120Y-150699500D01*
X110518880Y-150699500D01*
X110518872Y-150699500D01*
X110287772Y-150729926D01*
X110258884Y-150733730D01*
X110005581Y-150801602D01*
X110005571Y-150801605D01*
X109763309Y-150901953D01*
X109763299Y-150901958D01*
X109536196Y-151033075D01*
X109328148Y-151192718D01*
X109142718Y-151378148D01*
X108983075Y-151586196D01*
X108851958Y-151813299D01*
X108851953Y-151813309D01*
X108751605Y-152055571D01*
X108751602Y-152055581D01*
X108683730Y-152308885D01*
X108649500Y-152568872D01*
X108649500Y-153931127D01*
X81750500Y-153931127D01*
X81750500Y-123500005D01*
X86744357Y-123500005D01*
X86764890Y-123747812D01*
X86764892Y-123747824D01*
X86825936Y-123988881D01*
X86925826Y-124216606D01*
X87061833Y-124424782D01*
X87061836Y-124424785D01*
X87230256Y-124607738D01*
X87426491Y-124760474D01*
X87645190Y-124878828D01*
X87880386Y-124959571D01*
X88125665Y-125000500D01*
X88374335Y-125000500D01*
X88619614Y-124959571D01*
X88854810Y-124878828D01*
X89073509Y-124760474D01*
X89269744Y-124607738D01*
X89438164Y-124424785D01*
X89574173Y-124216607D01*
X89674063Y-123988881D01*
X89735108Y-123747821D01*
X89735109Y-123747812D01*
X89755643Y-123500005D01*
X89755643Y-123499994D01*
X89735109Y-123252187D01*
X89735107Y-123252175D01*
X89674063Y-123011118D01*
X89574173Y-122783393D01*
X89438166Y-122575217D01*
X89416557Y-122551744D01*
X89269744Y-122392262D01*
X89073509Y-122239526D01*
X89073507Y-122239525D01*
X89073506Y-122239524D01*
X88854811Y-122121172D01*
X88854802Y-122121169D01*
X88619616Y-122040429D01*
X88374335Y-121999500D01*
X88125665Y-121999500D01*
X87880383Y-122040429D01*
X87645197Y-122121169D01*
X87645188Y-122121172D01*
X87426493Y-122239524D01*
X87230257Y-122392261D01*
X87061833Y-122575217D01*
X86925826Y-122783393D01*
X86825936Y-123011118D01*
X86764892Y-123252175D01*
X86764890Y-123252187D01*
X86744357Y-123499994D01*
X86744357Y-123500005D01*
X81750500Y-123500005D01*
X81750500Y-118603469D01*
X88714500Y-118603469D01*
X88754868Y-118806412D01*
X88754870Y-118806420D01*
X88834058Y-118997596D01*
X88949024Y-119169657D01*
X89095342Y-119315975D01*
X89095345Y-119315977D01*
X89267402Y-119430941D01*
X89458580Y-119510130D01*
X89661530Y-119550499D01*
X89661534Y-119550500D01*
X89661535Y-119550500D01*
X89868466Y-119550500D01*
X89868467Y-119550499D01*
X90071420Y-119510130D01*
X90262598Y-119430941D01*
X90434655Y-119315977D01*
X90580977Y-119169655D01*
X90695941Y-118997598D01*
X90775130Y-118806420D01*
X90815500Y-118603465D01*
X90815500Y-118396535D01*
X90775130Y-118193580D01*
X90695941Y-118002402D01*
X90580977Y-117830345D01*
X90580975Y-117830342D01*
X90434657Y-117684024D01*
X90348626Y-117626541D01*
X90262598Y-117569059D01*
X90071420Y-117489870D01*
X90071412Y-117489868D01*
X89868469Y-117449500D01*
X89868465Y-117449500D01*
X89661535Y-117449500D01*
X89661530Y-117449500D01*
X89458587Y-117489868D01*
X89458579Y-117489870D01*
X89267403Y-117569058D01*
X89095342Y-117684024D01*
X88949024Y-117830342D01*
X88834058Y-118002403D01*
X88754870Y-118193579D01*
X88754868Y-118193587D01*
X88714500Y-118396530D01*
X88714500Y-118603469D01*
X81750500Y-118603469D01*
X81750500Y-104000003D01*
X84944435Y-104000003D01*
X84964630Y-104179249D01*
X84964631Y-104179254D01*
X85024211Y-104349523D01*
X85084515Y-104445496D01*
X85118760Y-104499996D01*
X85120185Y-104502263D01*
X85122445Y-104505097D01*
X85123334Y-104507275D01*
X85123889Y-104508158D01*
X85123734Y-104508255D01*
X85148855Y-104569783D01*
X85149500Y-104582412D01*
X85149500Y-105913330D01*
X85149499Y-105913348D01*
X85149499Y-106079054D01*
X85149498Y-106079054D01*
X85149499Y-106079057D01*
X85190423Y-106231785D01*
X85202246Y-106252262D01*
X85269480Y-106368716D01*
X85381284Y-106480520D01*
X85381285Y-106480521D01*
X85881284Y-106980520D01*
X85881286Y-106980521D01*
X85881290Y-106980524D01*
X86018209Y-107059573D01*
X86018216Y-107059577D01*
X86170943Y-107100501D01*
X86170945Y-107100501D01*
X86336654Y-107100501D01*
X86336670Y-107100500D01*
X87366937Y-107100500D01*
X87433976Y-107120185D01*
X87479731Y-107172989D01*
X87489675Y-107242147D01*
X87483978Y-107265455D01*
X87464633Y-107320737D01*
X87464630Y-107320750D01*
X87444435Y-107499996D01*
X87444435Y-107500003D01*
X87464630Y-107679249D01*
X87464631Y-107679254D01*
X87524211Y-107849523D01*
X87620184Y-108002262D01*
X87747738Y-108129816D01*
X87900478Y-108225789D01*
X88070745Y-108285368D01*
X88093543Y-108287936D01*
X88157956Y-108315002D01*
X88197512Y-108372597D01*
X88202880Y-108425040D01*
X88194435Y-108499995D01*
X88194435Y-108500003D01*
X88214630Y-108679249D01*
X88214631Y-108679254D01*
X88274211Y-108849523D01*
X88370184Y-109002262D01*
X88405241Y-109037319D01*
X88438726Y-109098642D01*
X88433742Y-109168334D01*
X88405241Y-109212681D01*
X88370184Y-109247737D01*
X88274211Y-109400476D01*
X88214631Y-109570745D01*
X88214630Y-109570750D01*
X88194435Y-109749996D01*
X88194435Y-109750003D01*
X88214630Y-109929249D01*
X88214631Y-109929254D01*
X88274211Y-110099523D01*
X88370184Y-110252262D01*
X88405241Y-110287319D01*
X88438726Y-110348642D01*
X88433742Y-110418334D01*
X88405241Y-110462681D01*
X88370184Y-110497737D01*
X88274211Y-110650476D01*
X88214631Y-110820745D01*
X88214630Y-110820750D01*
X88194435Y-110999996D01*
X88194435Y-111000003D01*
X88214630Y-111179249D01*
X88214631Y-111179254D01*
X88274211Y-111349523D01*
X88285529Y-111367535D01*
X88370184Y-111502262D01*
X88497738Y-111629816D01*
X88650478Y-111725789D01*
X88820745Y-111785368D01*
X88907669Y-111795161D01*
X88972080Y-111822226D01*
X88981465Y-111830700D01*
X105652815Y-128502050D01*
X105686300Y-128563373D01*
X105681316Y-128633065D01*
X105639444Y-128688998D01*
X105573980Y-128713415D01*
X105556289Y-128713415D01*
X105500003Y-128709390D01*
X105499999Y-128709390D01*
X105214566Y-128729804D01*
X104934962Y-128790628D01*
X104666833Y-128890635D01*
X104415690Y-129027770D01*
X104415682Y-129027775D01*
X104186612Y-129199254D01*
X104186594Y-129199270D01*
X103984270Y-129401594D01*
X103984254Y-129401612D01*
X103812775Y-129630682D01*
X103812770Y-129630690D01*
X103675635Y-129881833D01*
X103575628Y-130149962D01*
X103514804Y-130429566D01*
X103494390Y-130714998D01*
X103494390Y-130715001D01*
X103514804Y-131000433D01*
X103575629Y-131280040D01*
X103575629Y-131280042D01*
X103580949Y-131294305D01*
X103585931Y-131363997D01*
X103552444Y-131425319D01*
X103491120Y-131458802D01*
X103421429Y-131453815D01*
X103389279Y-131436010D01*
X103324617Y-131386392D01*
X103125890Y-131271657D01*
X103125876Y-131271650D01*
X102913887Y-131183842D01*
X102802144Y-131153901D01*
X102692238Y-131124452D01*
X102654215Y-131119446D01*
X102464741Y-131094500D01*
X102464734Y-131094500D01*
X102235266Y-131094500D01*
X102235258Y-131094500D01*
X102018715Y-131123009D01*
X102007762Y-131124452D01*
X101914076Y-131149554D01*
X101786112Y-131183842D01*
X101574123Y-131271650D01*
X101574109Y-131271657D01*
X101375387Y-131386389D01*
X101258825Y-131475831D01*
X101242046Y-131488707D01*
X101240672Y-131489761D01*
X101175502Y-131514955D01*
X101107058Y-131500917D01*
X101057068Y-131452103D01*
X101041404Y-131384011D01*
X101049004Y-131348051D01*
X101053495Y-131336010D01*
X101074369Y-131280046D01*
X101135196Y-131000428D01*
X101155610Y-130715000D01*
X101135196Y-130429572D01*
X101108745Y-130307980D01*
X101074371Y-130149962D01*
X101074370Y-130149960D01*
X101074369Y-130149954D01*
X100974367Y-129881839D01*
X100913670Y-129770682D01*
X100837229Y-129630690D01*
X100837224Y-129630682D01*
X100665745Y-129401612D01*
X100665729Y-129401594D01*
X100463405Y-129199270D01*
X100463387Y-129199254D01*
X100234317Y-129027775D01*
X100234309Y-129027770D01*
X99983166Y-128890635D01*
X99983167Y-128890635D01*
X99872585Y-128849390D01*
X99715046Y-128790631D01*
X99715043Y-128790630D01*
X99715037Y-128790628D01*
X99435433Y-128729804D01*
X99150001Y-128709390D01*
X99149999Y-128709390D01*
X98864566Y-128729804D01*
X98584962Y-128790628D01*
X98316833Y-128890635D01*
X98065690Y-129027770D01*
X98065682Y-129027775D01*
X97836612Y-129199254D01*
X97836594Y-129199270D01*
X97634270Y-129401594D01*
X97634254Y-129401612D01*
X97462775Y-129630682D01*
X97462770Y-129630690D01*
X97325635Y-129881833D01*
X97275671Y-130015793D01*
X97233799Y-130071726D01*
X97168335Y-130096143D01*
X97100062Y-130081291D01*
X97059171Y-130045345D01*
X97022798Y-129995283D01*
X96953828Y-129900354D01*
X96814646Y-129761172D01*
X96655405Y-129645476D01*
X96574985Y-129604500D01*
X96480029Y-129556117D01*
X96292826Y-129495290D01*
X96098422Y-129464500D01*
X96098417Y-129464500D01*
X95901583Y-129464500D01*
X95901578Y-129464500D01*
X95707173Y-129495290D01*
X95519970Y-129556117D01*
X95344594Y-129645476D01*
X95274895Y-129696116D01*
X95185354Y-129761172D01*
X95185352Y-129761174D01*
X95185351Y-129761174D01*
X95046174Y-129900351D01*
X95046174Y-129900352D01*
X95046172Y-129900354D01*
X95005268Y-129956652D01*
X94930475Y-130059595D01*
X94920094Y-130079969D01*
X94872118Y-130130763D01*
X94804296Y-130147556D01*
X94738162Y-130125016D01*
X94694712Y-130070299D01*
X94693447Y-130067051D01*
X94624367Y-129881839D01*
X94563670Y-129770682D01*
X94487229Y-129630690D01*
X94487224Y-129630682D01*
X94315745Y-129401612D01*
X94315729Y-129401594D01*
X94113405Y-129199270D01*
X94113387Y-129199254D01*
X93884317Y-129027775D01*
X93884309Y-129027770D01*
X93633166Y-128890635D01*
X93633167Y-128890635D01*
X93522585Y-128849390D01*
X93365046Y-128790631D01*
X93365043Y-128790630D01*
X93365037Y-128790628D01*
X93085433Y-128729804D01*
X92800001Y-128709390D01*
X92799999Y-128709390D01*
X92514566Y-128729804D01*
X92234962Y-128790628D01*
X91966833Y-128890635D01*
X91715690Y-129027770D01*
X91715682Y-129027775D01*
X91486612Y-129199254D01*
X91486594Y-129199270D01*
X91284270Y-129401594D01*
X91284254Y-129401612D01*
X91112775Y-129630682D01*
X91112770Y-129630690D01*
X90975635Y-129881833D01*
X90875628Y-130149962D01*
X90814804Y-130429566D01*
X90794390Y-130714998D01*
X90794390Y-130715001D01*
X90814804Y-131000433D01*
X90875628Y-131280037D01*
X90875630Y-131280042D01*
X90875631Y-131280046D01*
X90968728Y-131529647D01*
X90975634Y-131548163D01*
X90981288Y-131558517D01*
X90996140Y-131626790D01*
X90971724Y-131692254D01*
X90960137Y-131705626D01*
X88381286Y-134284478D01*
X88269481Y-134396282D01*
X88269479Y-134396285D01*
X88219361Y-134483094D01*
X88219359Y-134483096D01*
X88190425Y-134533209D01*
X88190424Y-134533210D01*
X88190423Y-134533215D01*
X88149499Y-134685943D01*
X88149499Y-134685945D01*
X88149499Y-134854046D01*
X88149500Y-134854059D01*
X88149500Y-149323859D01*
X88129815Y-149390898D01*
X88079302Y-149435579D01*
X87897370Y-149523192D01*
X87686782Y-149666768D01*
X87499952Y-149840121D01*
X87499950Y-149840123D01*
X87341041Y-150039388D01*
X87213608Y-150260109D01*
X87120492Y-150497362D01*
X87120490Y-150497369D01*
X87063777Y-150745845D01*
X87044732Y-150999995D01*
X87044732Y-151000004D01*
X87063777Y-151254154D01*
X87063778Y-151254157D01*
X87120492Y-151502637D01*
X87213607Y-151739888D01*
X87341041Y-151960612D01*
X87499950Y-152159877D01*
X87686783Y-152333232D01*
X87897366Y-152476805D01*
X87897371Y-152476807D01*
X87897372Y-152476808D01*
X87897373Y-152476809D01*
X88019328Y-152535538D01*
X88126992Y-152587387D01*
X88126993Y-152587387D01*
X88126996Y-152587389D01*
X88370542Y-152662513D01*
X88622565Y-152700500D01*
X88877435Y-152700500D01*
X89129458Y-152662513D01*
X89373004Y-152587389D01*
X89602634Y-152476805D01*
X89813217Y-152333232D01*
X90000050Y-152159877D01*
X90158959Y-151960612D01*
X90286393Y-151739888D01*
X90379508Y-151502637D01*
X90436222Y-151254157D01*
X90451514Y-151050097D01*
X90455268Y-151000004D01*
X102044732Y-151000004D01*
X102063777Y-151254154D01*
X102063778Y-151254157D01*
X102120492Y-151502637D01*
X102213607Y-151739888D01*
X102341041Y-151960612D01*
X102499950Y-152159877D01*
X102686783Y-152333232D01*
X102897366Y-152476805D01*
X102897371Y-152476807D01*
X102897372Y-152476808D01*
X102897373Y-152476809D01*
X103019328Y-152535538D01*
X103126992Y-152587387D01*
X103126993Y-152587387D01*
X103126996Y-152587389D01*
X103370542Y-152662513D01*
X103622565Y-152700500D01*
X103877435Y-152700500D01*
X104129458Y-152662513D01*
X104373004Y-152587389D01*
X104602634Y-152476805D01*
X104813217Y-152333232D01*
X105000050Y-152159877D01*
X105158959Y-151960612D01*
X105286393Y-151739888D01*
X105379508Y-151502637D01*
X105436222Y-151254157D01*
X105451514Y-151050097D01*
X105455268Y-151000004D01*
X105455268Y-150999995D01*
X105436222Y-150745845D01*
X105433457Y-150733730D01*
X105379508Y-150497363D01*
X105330916Y-150373553D01*
X105324747Y-150303956D01*
X105357185Y-150242073D01*
X105358603Y-150240630D01*
X108118713Y-147480521D01*
X108118716Y-147480520D01*
X108230520Y-147368716D01*
X108280639Y-147281904D01*
X108309577Y-147231785D01*
X108350500Y-147079058D01*
X108350500Y-146920943D01*
X108350500Y-137832412D01*
X108370185Y-137765373D01*
X108377555Y-137755097D01*
X108379810Y-137752267D01*
X108379816Y-137752262D01*
X108475789Y-137599522D01*
X108535368Y-137429255D01*
X108538721Y-137399500D01*
X108555565Y-137250003D01*
X108555565Y-137249996D01*
X108535369Y-137070750D01*
X108535368Y-137070745D01*
X108475789Y-136900478D01*
X108379816Y-136747738D01*
X108252262Y-136620184D01*
X108187823Y-136579694D01*
X108099523Y-136524211D01*
X107929254Y-136464631D01*
X107929249Y-136464630D01*
X107750004Y-136444435D01*
X107749996Y-136444435D01*
X107570750Y-136464630D01*
X107570745Y-136464631D01*
X107400476Y-136524211D01*
X107247737Y-136620184D01*
X107120184Y-136747737D01*
X107024211Y-136900476D01*
X106964631Y-137070745D01*
X106964630Y-137070750D01*
X106944435Y-137249996D01*
X106944435Y-137250003D01*
X106964630Y-137429249D01*
X106964631Y-137429254D01*
X107024211Y-137599523D01*
X107120185Y-137752263D01*
X107122445Y-137755097D01*
X107123334Y-137757275D01*
X107123889Y-137758158D01*
X107123734Y-137758255D01*
X107148855Y-137819783D01*
X107149500Y-137832412D01*
X107149500Y-140666003D01*
X107129815Y-140733042D01*
X107077011Y-140778797D01*
X107007853Y-140788741D01*
X106944297Y-140759716D01*
X106937819Y-140753684D01*
X106813405Y-140629270D01*
X106813387Y-140629254D01*
X106584317Y-140457775D01*
X106584309Y-140457770D01*
X106333166Y-140320635D01*
X106333167Y-140320635D01*
X106222585Y-140279390D01*
X106065046Y-140220631D01*
X106065043Y-140220630D01*
X106065037Y-140220628D01*
X105785433Y-140159804D01*
X105500001Y-140139390D01*
X105499999Y-140139390D01*
X105214566Y-140159804D01*
X104934962Y-140220628D01*
X104666833Y-140320635D01*
X104415690Y-140457770D01*
X104415682Y-140457775D01*
X104186612Y-140629254D01*
X104186594Y-140629270D01*
X103984270Y-140831594D01*
X103984254Y-140831612D01*
X103812775Y-141060682D01*
X103812770Y-141060690D01*
X103675635Y-141311833D01*
X103575628Y-141579962D01*
X103514804Y-141859566D01*
X103494390Y-142144998D01*
X103494390Y-142145001D01*
X103514804Y-142430433D01*
X103575628Y-142710037D01*
X103575630Y-142710043D01*
X103575631Y-142710046D01*
X103657026Y-142928273D01*
X103675635Y-142978166D01*
X103812770Y-143229309D01*
X103812775Y-143229317D01*
X103984254Y-143458387D01*
X103984270Y-143458405D01*
X104186594Y-143660729D01*
X104186612Y-143660745D01*
X104415682Y-143832224D01*
X104415690Y-143832229D01*
X104666833Y-143969364D01*
X104666832Y-143969364D01*
X104666836Y-143969365D01*
X104666839Y-143969367D01*
X104934954Y-144069369D01*
X104934960Y-144069370D01*
X104934962Y-144069371D01*
X105214566Y-144130195D01*
X105214568Y-144130195D01*
X105214572Y-144130196D01*
X105468220Y-144148337D01*
X105499999Y-144150610D01*
X105500000Y-144150610D01*
X105500001Y-144150610D01*
X105528595Y-144148564D01*
X105785428Y-144130196D01*
X105881192Y-144109364D01*
X106065037Y-144069371D01*
X106065037Y-144069370D01*
X106065046Y-144069369D01*
X106333161Y-143969367D01*
X106584315Y-143832226D01*
X106813395Y-143660739D01*
X106858983Y-143615151D01*
X106937819Y-143536316D01*
X106999142Y-143502831D01*
X107068834Y-143507815D01*
X107124767Y-143549687D01*
X107149184Y-143615151D01*
X107149500Y-143623997D01*
X107149500Y-146699902D01*
X107129815Y-146766941D01*
X107113181Y-146787583D01*
X104512937Y-149387826D01*
X104451614Y-149421311D01*
X104381922Y-149416327D01*
X104375523Y-149413600D01*
X104373008Y-149412612D01*
X104129466Y-149337489D01*
X104129462Y-149337488D01*
X104129458Y-149337487D01*
X104008231Y-149319214D01*
X103877440Y-149299500D01*
X103877435Y-149299500D01*
X103622565Y-149299500D01*
X103622559Y-149299500D01*
X103465609Y-149323157D01*
X103370542Y-149337487D01*
X103370539Y-149337488D01*
X103370533Y-149337489D01*
X103126992Y-149412612D01*
X102897373Y-149523190D01*
X102897372Y-149523191D01*
X102686782Y-149666768D01*
X102499952Y-149840121D01*
X102499950Y-149840123D01*
X102341041Y-150039388D01*
X102213608Y-150260109D01*
X102120492Y-150497362D01*
X102120490Y-150497369D01*
X102063777Y-150745845D01*
X102044732Y-150999995D01*
X102044732Y-151000004D01*
X90455268Y-151000004D01*
X90455268Y-150999995D01*
X90436222Y-150745845D01*
X90425644Y-150699500D01*
X90379508Y-150497363D01*
X90286393Y-150260112D01*
X90158959Y-150039388D01*
X90000050Y-149840123D01*
X89813217Y-149666768D01*
X89602634Y-149523195D01*
X89602631Y-149523194D01*
X89602629Y-149523192D01*
X89420698Y-149435579D01*
X89368839Y-149388757D01*
X89350500Y-149323859D01*
X89350500Y-142145001D01*
X90794390Y-142145001D01*
X90814804Y-142430433D01*
X90875628Y-142710037D01*
X90875630Y-142710043D01*
X90875631Y-142710046D01*
X90957026Y-142928273D01*
X90975635Y-142978166D01*
X91112770Y-143229309D01*
X91112775Y-143229317D01*
X91284254Y-143458387D01*
X91284270Y-143458405D01*
X91486594Y-143660729D01*
X91486612Y-143660745D01*
X91715682Y-143832224D01*
X91715690Y-143832229D01*
X91966833Y-143969364D01*
X91966832Y-143969364D01*
X91966836Y-143969365D01*
X91966839Y-143969367D01*
X92234954Y-144069369D01*
X92234960Y-144069370D01*
X92234962Y-144069371D01*
X92514566Y-144130195D01*
X92514568Y-144130195D01*
X92514572Y-144130196D01*
X92768220Y-144148337D01*
X92799999Y-144150610D01*
X92800000Y-144150610D01*
X92800001Y-144150610D01*
X92828595Y-144148564D01*
X93085428Y-144130196D01*
X93181192Y-144109364D01*
X93365037Y-144069371D01*
X93365037Y-144069370D01*
X93365046Y-144069369D01*
X93633161Y-143969367D01*
X93884315Y-143832226D01*
X94113395Y-143660739D01*
X94315739Y-143458395D01*
X94487226Y-143229315D01*
X94624367Y-142978161D01*
X94693431Y-142792992D01*
X94735300Y-142737062D01*
X94800764Y-142712645D01*
X94869037Y-142727497D01*
X94918443Y-142776902D01*
X94920095Y-142780032D01*
X94926701Y-142792996D01*
X94930476Y-142800405D01*
X95046172Y-142959646D01*
X95185354Y-143098828D01*
X95344595Y-143214524D01*
X95392289Y-143238825D01*
X95519970Y-143303882D01*
X95519972Y-143303882D01*
X95519975Y-143303884D01*
X95620317Y-143336487D01*
X95707173Y-143364709D01*
X95901578Y-143395500D01*
X95901583Y-143395500D01*
X96098422Y-143395500D01*
X96292826Y-143364709D01*
X96324175Y-143354523D01*
X96480025Y-143303884D01*
X96655405Y-143214524D01*
X96814646Y-143098828D01*
X96953828Y-142959646D01*
X97059171Y-142814653D01*
X97114501Y-142771989D01*
X97184115Y-142766010D01*
X97245910Y-142798616D01*
X97275670Y-142844205D01*
X97285007Y-142869239D01*
X97325633Y-142978162D01*
X97325635Y-142978166D01*
X97462770Y-143229309D01*
X97462775Y-143229317D01*
X97634254Y-143458387D01*
X97634270Y-143458405D01*
X97836594Y-143660729D01*
X97836612Y-143660745D01*
X98065682Y-143832224D01*
X98065690Y-143832229D01*
X98316833Y-143969364D01*
X98316832Y-143969364D01*
X98316836Y-143969365D01*
X98316839Y-143969367D01*
X98584954Y-144069369D01*
X98584960Y-144069370D01*
X98584962Y-144069371D01*
X98864566Y-144130195D01*
X98864568Y-144130195D01*
X98864572Y-144130196D01*
X99118220Y-144148337D01*
X99149999Y-144150610D01*
X99150000Y-144150610D01*
X99150001Y-144150610D01*
X99178595Y-144148564D01*
X99435428Y-144130196D01*
X99531192Y-144109364D01*
X99715037Y-144069371D01*
X99715037Y-144069370D01*
X99715046Y-144069369D01*
X99983161Y-143969367D01*
X100234315Y-143832226D01*
X100463395Y-143660739D01*
X100665739Y-143458395D01*
X100837226Y-143229315D01*
X100974367Y-142978161D01*
X101074369Y-142710046D01*
X101135196Y-142430428D01*
X101155610Y-142145000D01*
X101153613Y-142117084D01*
X101150619Y-142075212D01*
X101135196Y-141859572D01*
X101130376Y-141837416D01*
X101074371Y-141579962D01*
X101074370Y-141579960D01*
X101074369Y-141579954D01*
X100974367Y-141311839D01*
X100944030Y-141256282D01*
X100837229Y-141060690D01*
X100837224Y-141060682D01*
X100665745Y-140831612D01*
X100665729Y-140831594D01*
X100463405Y-140629270D01*
X100463387Y-140629254D01*
X100234317Y-140457775D01*
X100234309Y-140457770D01*
X99983166Y-140320635D01*
X99983167Y-140320635D01*
X99872585Y-140279390D01*
X99715046Y-140220631D01*
X99715043Y-140220630D01*
X99715037Y-140220628D01*
X99435433Y-140159804D01*
X99150001Y-140139390D01*
X99149999Y-140139390D01*
X98864566Y-140159804D01*
X98584962Y-140220628D01*
X98316833Y-140320635D01*
X98065690Y-140457770D01*
X98065682Y-140457775D01*
X97836612Y-140629254D01*
X97836594Y-140629270D01*
X97634270Y-140831594D01*
X97634254Y-140831612D01*
X97462775Y-141060682D01*
X97462770Y-141060690D01*
X97325635Y-141311833D01*
X97275671Y-141445793D01*
X97233799Y-141501726D01*
X97168335Y-141526143D01*
X97100062Y-141511291D01*
X97059171Y-141475345D01*
X96999499Y-141393214D01*
X96953828Y-141330354D01*
X96814646Y-141191172D01*
X96655405Y-141075476D01*
X96574985Y-141034500D01*
X96480029Y-140986117D01*
X96292826Y-140925290D01*
X96098422Y-140894500D01*
X96098417Y-140894500D01*
X95901583Y-140894500D01*
X95901578Y-140894500D01*
X95707173Y-140925290D01*
X95519970Y-140986117D01*
X95344594Y-141075476D01*
X95253741Y-141141485D01*
X95185354Y-141191172D01*
X95185352Y-141191174D01*
X95185351Y-141191174D01*
X95046174Y-141330351D01*
X95046174Y-141330352D01*
X95046172Y-141330354D01*
X95005268Y-141386652D01*
X94930475Y-141489595D01*
X94920094Y-141509969D01*
X94872118Y-141560763D01*
X94804296Y-141577556D01*
X94738162Y-141555016D01*
X94694712Y-141500299D01*
X94693447Y-141497051D01*
X94624367Y-141311839D01*
X94594030Y-141256282D01*
X94487229Y-141060690D01*
X94487224Y-141060682D01*
X94315745Y-140831612D01*
X94315729Y-140831594D01*
X94113405Y-140629270D01*
X94113387Y-140629254D01*
X93884317Y-140457775D01*
X93884309Y-140457770D01*
X93633166Y-140320635D01*
X93633167Y-140320635D01*
X93522585Y-140279390D01*
X93365046Y-140220631D01*
X93365043Y-140220630D01*
X93365037Y-140220628D01*
X93085433Y-140159804D01*
X92800001Y-140139390D01*
X92799999Y-140139390D01*
X92514566Y-140159804D01*
X92234962Y-140220628D01*
X91966833Y-140320635D01*
X91715690Y-140457770D01*
X91715682Y-140457775D01*
X91486612Y-140629254D01*
X91486594Y-140629270D01*
X91284270Y-140831594D01*
X91284254Y-140831612D01*
X91112775Y-141060682D01*
X91112770Y-141060690D01*
X90975635Y-141311833D01*
X90875628Y-141579962D01*
X90814804Y-141859566D01*
X90794390Y-142144998D01*
X90794390Y-142145001D01*
X89350500Y-142145001D01*
X89350500Y-135065096D01*
X89370185Y-134998057D01*
X89386814Y-134977420D01*
X91809374Y-132554859D01*
X91870695Y-132521376D01*
X91940387Y-132526360D01*
X91956474Y-132533707D01*
X91966839Y-132539367D01*
X92234954Y-132639369D01*
X92234960Y-132639370D01*
X92234962Y-132639371D01*
X92514566Y-132700195D01*
X92514568Y-132700195D01*
X92514572Y-132700196D01*
X92768220Y-132718337D01*
X92799999Y-132720610D01*
X92800000Y-132720610D01*
X92800001Y-132720610D01*
X92828595Y-132718564D01*
X93085428Y-132700196D01*
X93181192Y-132679364D01*
X93365037Y-132639371D01*
X93365037Y-132639370D01*
X93365046Y-132639369D01*
X93633161Y-132539367D01*
X93884315Y-132402226D01*
X94113395Y-132230739D01*
X94315739Y-132028395D01*
X94487226Y-131799315D01*
X94624367Y-131548161D01*
X94693431Y-131362992D01*
X94735300Y-131307062D01*
X94800764Y-131282645D01*
X94869037Y-131297497D01*
X94918443Y-131346902D01*
X94920095Y-131350032D01*
X94926701Y-131362996D01*
X94930476Y-131370405D01*
X95046172Y-131529646D01*
X95185354Y-131668828D01*
X95344595Y-131784524D01*
X95392289Y-131808825D01*
X95519970Y-131873882D01*
X95519972Y-131873882D01*
X95519975Y-131873884D01*
X95620317Y-131906487D01*
X95707173Y-131934709D01*
X95901578Y-131965500D01*
X95901583Y-131965500D01*
X96098422Y-131965500D01*
X96292826Y-131934709D01*
X96324175Y-131924523D01*
X96480025Y-131873884D01*
X96655405Y-131784524D01*
X96814646Y-131668828D01*
X96953828Y-131529646D01*
X97059171Y-131384653D01*
X97114501Y-131341989D01*
X97184115Y-131336010D01*
X97245910Y-131368616D01*
X97275670Y-131414205D01*
X97283803Y-131436010D01*
X97325633Y-131548162D01*
X97325635Y-131548166D01*
X97462770Y-131799309D01*
X97462775Y-131799317D01*
X97634254Y-132028387D01*
X97634270Y-132028405D01*
X97836594Y-132230729D01*
X97836612Y-132230745D01*
X98065682Y-132402224D01*
X98065690Y-132402229D01*
X98316833Y-132539364D01*
X98316832Y-132539364D01*
X98316836Y-132539365D01*
X98316839Y-132539367D01*
X98584954Y-132639369D01*
X98584960Y-132639370D01*
X98584962Y-132639371D01*
X98864566Y-132700195D01*
X98864568Y-132700195D01*
X98864572Y-132700196D01*
X99118220Y-132718337D01*
X99149999Y-132720610D01*
X99150000Y-132720610D01*
X99150001Y-132720610D01*
X99178595Y-132718564D01*
X99435428Y-132700196D01*
X99531192Y-132679364D01*
X99715037Y-132639371D01*
X99715037Y-132639370D01*
X99715046Y-132639369D01*
X99983161Y-132539367D01*
X100234315Y-132402226D01*
X100463395Y-132230739D01*
X100463405Y-132230729D01*
X100466745Y-132227836D01*
X100467601Y-132228824D01*
X100523866Y-132198086D01*
X100593558Y-132203055D01*
X100649501Y-132244914D01*
X100673932Y-132310373D01*
X100670025Y-132351339D01*
X100633080Y-132489224D01*
X100629453Y-132502759D01*
X100629451Y-132502770D01*
X100599500Y-132730258D01*
X100599500Y-132959741D01*
X100624446Y-133149215D01*
X100629452Y-133187238D01*
X100629453Y-133187240D01*
X100688842Y-133408887D01*
X100776650Y-133620876D01*
X100776657Y-133620890D01*
X100891392Y-133819617D01*
X101031081Y-134001661D01*
X101031089Y-134001670D01*
X101193330Y-134163911D01*
X101193338Y-134163918D01*
X101375382Y-134303607D01*
X101375385Y-134303608D01*
X101375388Y-134303611D01*
X101574112Y-134418344D01*
X101574117Y-134418346D01*
X101574123Y-134418349D01*
X101665480Y-134456190D01*
X101786113Y-134506158D01*
X102007762Y-134565548D01*
X102235266Y-134595500D01*
X102235273Y-134595500D01*
X102464727Y-134595500D01*
X102464734Y-134595500D01*
X102692238Y-134565548D01*
X102913887Y-134506158D01*
X103125888Y-134418344D01*
X103324612Y-134303611D01*
X103506661Y-134163919D01*
X103506665Y-134163914D01*
X103506670Y-134163911D01*
X103668911Y-134001670D01*
X103668914Y-134001665D01*
X103668919Y-134001661D01*
X103808611Y-133819612D01*
X103923344Y-133620888D01*
X104011158Y-133408887D01*
X104070548Y-133187238D01*
X104100500Y-132959734D01*
X104100500Y-132730266D01*
X104070548Y-132502762D01*
X104042978Y-132399868D01*
X104044641Y-132330023D01*
X104083803Y-132272160D01*
X104148032Y-132244656D01*
X104216934Y-132256242D01*
X104237063Y-132268512D01*
X104415682Y-132402224D01*
X104415690Y-132402229D01*
X104666833Y-132539364D01*
X104666832Y-132539364D01*
X104666836Y-132539365D01*
X104666839Y-132539367D01*
X104934954Y-132639369D01*
X104934960Y-132639370D01*
X104934962Y-132639371D01*
X105214566Y-132700195D01*
X105214568Y-132700195D01*
X105214572Y-132700196D01*
X105468220Y-132718337D01*
X105499999Y-132720610D01*
X105500000Y-132720610D01*
X105500001Y-132720610D01*
X105528595Y-132718564D01*
X105785428Y-132700196D01*
X105881192Y-132679364D01*
X106065037Y-132639371D01*
X106065037Y-132639370D01*
X106065046Y-132639369D01*
X106333161Y-132539367D01*
X106333170Y-132539361D01*
X106336406Y-132538155D01*
X106406098Y-132533171D01*
X106467418Y-132566653D01*
X106467421Y-132566656D01*
X112265139Y-138364374D01*
X112265149Y-138364385D01*
X112381285Y-138480521D01*
X112412460Y-138498519D01*
X112460691Y-138526365D01*
X112508906Y-138576931D01*
X112522130Y-138645538D01*
X112515733Y-138674707D01*
X112464631Y-138820745D01*
X112464630Y-138820750D01*
X112444435Y-138999996D01*
X112444435Y-139000003D01*
X112464630Y-139179249D01*
X112464631Y-139179254D01*
X112524211Y-139349523D01*
X112623889Y-139508158D01*
X112622443Y-139509066D01*
X112645524Y-139565623D01*
X112632759Y-139634317D01*
X112609848Y-139665915D01*
X111131286Y-141144478D01*
X111019481Y-141256282D01*
X111019479Y-141256285D01*
X110987407Y-141311837D01*
X110987406Y-141311839D01*
X110940423Y-141393214D01*
X110940423Y-141393215D01*
X110899499Y-141545943D01*
X110899499Y-141545945D01*
X110899499Y-141714046D01*
X110899500Y-141714059D01*
X110899500Y-148413330D01*
X110899499Y-148413348D01*
X110899499Y-148579054D01*
X110899498Y-148579054D01*
X110940423Y-148731785D01*
X110969358Y-148781900D01*
X110969359Y-148781904D01*
X110969360Y-148781904D01*
X111019479Y-148868714D01*
X111019481Y-148868717D01*
X111138349Y-148987585D01*
X111138355Y-148987590D01*
X113113181Y-150962416D01*
X113146666Y-151023739D01*
X113149500Y-151050097D01*
X113149500Y-159337837D01*
X113129815Y-159404876D01*
X113077011Y-159450631D01*
X113051459Y-159459089D01*
X113047207Y-159459999D01*
X112880668Y-159515185D01*
X112880663Y-159515187D01*
X112731342Y-159607289D01*
X112607289Y-159731342D01*
X112515187Y-159880663D01*
X112515186Y-159880666D01*
X112460001Y-160047203D01*
X112460001Y-160047204D01*
X112460000Y-160047204D01*
X112449500Y-160149983D01*
X112449500Y-161350001D01*
X112449501Y-161350018D01*
X112460000Y-161452796D01*
X112460001Y-161452799D01*
X112494453Y-161556767D01*
X112515186Y-161619334D01*
X112607288Y-161768656D01*
X112731344Y-161892712D01*
X112880666Y-161984814D01*
X113047203Y-162039999D01*
X113149991Y-162050500D01*
X114350008Y-162050499D01*
X114452797Y-162039999D01*
X114619334Y-161984814D01*
X114768656Y-161892712D01*
X114892712Y-161768656D01*
X114984814Y-161619334D01*
X115005547Y-161556765D01*
X115045318Y-161499322D01*
X115109834Y-161472498D01*
X115134060Y-161472242D01*
X115170975Y-161475471D01*
X115767037Y-160879409D01*
X115784075Y-160942993D01*
X115849901Y-161057007D01*
X115942993Y-161150099D01*
X116057007Y-161215925D01*
X116120590Y-161232962D01*
X115524526Y-161829025D01*
X115597513Y-161880132D01*
X115597521Y-161880136D01*
X115803668Y-161976264D01*
X115803682Y-161976269D01*
X116023389Y-162035139D01*
X116023400Y-162035141D01*
X116249998Y-162054966D01*
X116250002Y-162054966D01*
X116476599Y-162035141D01*
X116476610Y-162035139D01*
X116696317Y-161976269D01*
X116696331Y-161976264D01*
X116902478Y-161880136D01*
X116975471Y-161829024D01*
X116379409Y-161232962D01*
X116442993Y-161215925D01*
X116557007Y-161150099D01*
X116650099Y-161057007D01*
X116715925Y-160942993D01*
X116732962Y-160879409D01*
X117329024Y-161475471D01*
X117380134Y-161402481D01*
X117387340Y-161387028D01*
X117433511Y-161334587D01*
X117500704Y-161315433D01*
X117567585Y-161335646D01*
X117612105Y-161387022D01*
X117619430Y-161402730D01*
X117619432Y-161402734D01*
X117749954Y-161589141D01*
X117910858Y-161750045D01*
X117910861Y-161750047D01*
X118097266Y-161880568D01*
X118303504Y-161976739D01*
X118523308Y-162035635D01*
X118685230Y-162049801D01*
X118749998Y-162055468D01*
X118750000Y-162055468D01*
X118750002Y-162055468D01*
X118806807Y-162050498D01*
X118976692Y-162035635D01*
X119196496Y-161976739D01*
X119402734Y-161880568D01*
X119589139Y-161750047D01*
X119750047Y-161589139D01*
X119880568Y-161402734D01*
X119976739Y-161196496D01*
X120035635Y-160976692D01*
X120055468Y-160750000D01*
X120035635Y-160523308D01*
X119976739Y-160303504D01*
X119880568Y-160097266D01*
X119750047Y-159910861D01*
X119750045Y-159910858D01*
X119589140Y-159749953D01*
X119403377Y-159619881D01*
X119359752Y-159565304D01*
X119350500Y-159518306D01*
X119350500Y-154589060D01*
X119350501Y-154589047D01*
X119350501Y-154420944D01*
X119309576Y-154268214D01*
X119309573Y-154268209D01*
X119230524Y-154131290D01*
X119230518Y-154131282D01*
X119030363Y-153931127D01*
X119849500Y-153931127D01*
X119875853Y-154131284D01*
X119883730Y-154191116D01*
X119904389Y-154268216D01*
X119951602Y-154444418D01*
X119951605Y-154444428D01*
X120051953Y-154686690D01*
X120051958Y-154686700D01*
X120183075Y-154913803D01*
X120342718Y-155121851D01*
X120342726Y-155121860D01*
X120528140Y-155307274D01*
X120528148Y-155307281D01*
X120736196Y-155466924D01*
X120963299Y-155598041D01*
X120963309Y-155598046D01*
X121205571Y-155698394D01*
X121205581Y-155698398D01*
X121458884Y-155766270D01*
X121718880Y-155800500D01*
X121718887Y-155800500D01*
X121981113Y-155800500D01*
X121981120Y-155800500D01*
X122241116Y-155766270D01*
X122494419Y-155698398D01*
X122736697Y-155598043D01*
X122963803Y-155466924D01*
X123171851Y-155307282D01*
X123171855Y-155307277D01*
X123171860Y-155307274D01*
X123357274Y-155121860D01*
X123357277Y-155121855D01*
X123357282Y-155121851D01*
X123516924Y-154913803D01*
X123648043Y-154686697D01*
X123748398Y-154444419D01*
X123816270Y-154191116D01*
X123850500Y-153931120D01*
X123850500Y-152568880D01*
X123816270Y-152308884D01*
X123748398Y-152055581D01*
X123748394Y-152055571D01*
X123648046Y-151813309D01*
X123648041Y-151813299D01*
X123516924Y-151586196D01*
X123357281Y-151378148D01*
X123357274Y-151378140D01*
X123171860Y-151192726D01*
X123171851Y-151192718D01*
X122963803Y-151033075D01*
X122736700Y-150901958D01*
X122736690Y-150901953D01*
X122494428Y-150801605D01*
X122494421Y-150801603D01*
X122494419Y-150801602D01*
X122241116Y-150733730D01*
X122183339Y-150726123D01*
X121981127Y-150699500D01*
X121981120Y-150699500D01*
X121718880Y-150699500D01*
X121718872Y-150699500D01*
X121487772Y-150729926D01*
X121458884Y-150733730D01*
X121205581Y-150801602D01*
X121205571Y-150801605D01*
X120963309Y-150901953D01*
X120963299Y-150901958D01*
X120736196Y-151033075D01*
X120528148Y-151192718D01*
X120342718Y-151378148D01*
X120183075Y-151586196D01*
X120051958Y-151813299D01*
X120051953Y-151813309D01*
X119951605Y-152055571D01*
X119951602Y-152055581D01*
X119883730Y-152308885D01*
X119849500Y-152568872D01*
X119849500Y-153931127D01*
X119030363Y-153931127D01*
X113136819Y-148037583D01*
X113103334Y-147976260D01*
X113100500Y-147949902D01*
X113100500Y-147576717D01*
X113120185Y-147509678D01*
X113172989Y-147463923D01*
X113242147Y-147453979D01*
X113276906Y-147464336D01*
X113303497Y-147476736D01*
X113303499Y-147476736D01*
X113303504Y-147476739D01*
X113303509Y-147476740D01*
X113303511Y-147476741D01*
X113355704Y-147490726D01*
X113523308Y-147535635D01*
X113685230Y-147549801D01*
X113749998Y-147555468D01*
X113750000Y-147555468D01*
X113750002Y-147555468D01*
X113806673Y-147550509D01*
X113976692Y-147535635D01*
X114196496Y-147476739D01*
X114402734Y-147380568D01*
X114589139Y-147250047D01*
X114750047Y-147089139D01*
X114880568Y-146902734D01*
X114976739Y-146696496D01*
X115035635Y-146476692D01*
X115055468Y-146250002D01*
X117445034Y-146250002D01*
X117464858Y-146476599D01*
X117464860Y-146476610D01*
X117523730Y-146696317D01*
X117523735Y-146696331D01*
X117619863Y-146902478D01*
X117670974Y-146975472D01*
X118267037Y-146379409D01*
X118284075Y-146442993D01*
X118349901Y-146557007D01*
X118442993Y-146650099D01*
X118557007Y-146715925D01*
X118620590Y-146732962D01*
X118024526Y-147329025D01*
X118097513Y-147380132D01*
X118097521Y-147380136D01*
X118303668Y-147476264D01*
X118303682Y-147476269D01*
X118523389Y-147535139D01*
X118523400Y-147535141D01*
X118749998Y-147554966D01*
X118750002Y-147554966D01*
X118976599Y-147535141D01*
X118976610Y-147535139D01*
X119196317Y-147476269D01*
X119196331Y-147476264D01*
X119402478Y-147380136D01*
X119475471Y-147329024D01*
X118879409Y-146732962D01*
X118942993Y-146715925D01*
X119057007Y-146650099D01*
X119150099Y-146557007D01*
X119215925Y-146442993D01*
X119232962Y-146379409D01*
X119829024Y-146975471D01*
X119880136Y-146902478D01*
X119976264Y-146696331D01*
X119976269Y-146696317D01*
X120035139Y-146476610D01*
X120035141Y-146476599D01*
X120054966Y-146250002D01*
X120054966Y-146249997D01*
X120035141Y-146023400D01*
X120035139Y-146023389D01*
X119976269Y-145803682D01*
X119976264Y-145803668D01*
X119880136Y-145597521D01*
X119880132Y-145597513D01*
X119829025Y-145524526D01*
X119232962Y-146120589D01*
X119215925Y-146057007D01*
X119150099Y-145942993D01*
X119057007Y-145849901D01*
X118942993Y-145784075D01*
X118879410Y-145767037D01*
X119475472Y-145170974D01*
X119402478Y-145119863D01*
X119196331Y-145023735D01*
X119196317Y-145023730D01*
X118976610Y-144964860D01*
X118976599Y-144964858D01*
X118750002Y-144945034D01*
X118749998Y-144945034D01*
X118523400Y-144964858D01*
X118523389Y-144964860D01*
X118303682Y-145023730D01*
X118303673Y-145023734D01*
X118097516Y-145119866D01*
X118097512Y-145119868D01*
X118024526Y-145170973D01*
X118024526Y-145170974D01*
X118620590Y-145767037D01*
X118557007Y-145784075D01*
X118442993Y-145849901D01*
X118349901Y-145942993D01*
X118284075Y-146057007D01*
X118267037Y-146120589D01*
X117670974Y-145524526D01*
X117670973Y-145524526D01*
X117619868Y-145597512D01*
X117619866Y-145597516D01*
X117523734Y-145803673D01*
X117523730Y-145803682D01*
X117464860Y-146023389D01*
X117464858Y-146023400D01*
X117445034Y-146249997D01*
X117445034Y-146250002D01*
X115055468Y-146250002D01*
X115055468Y-146250000D01*
X115035635Y-146023308D01*
X114976739Y-145803504D01*
X114880568Y-145597266D01*
X114750047Y-145410861D01*
X114750045Y-145410858D01*
X114589140Y-145249953D01*
X114403377Y-145119881D01*
X114359752Y-145065304D01*
X114350500Y-145018306D01*
X114350500Y-143800096D01*
X114370185Y-143733057D01*
X114386814Y-143712420D01*
X116118713Y-141980521D01*
X116118716Y-141980520D01*
X116230520Y-141868716D01*
X116280639Y-141781904D01*
X116309577Y-141731785D01*
X116350500Y-141579057D01*
X116350500Y-141420943D01*
X116350500Y-139749097D01*
X116370185Y-139682058D01*
X116422989Y-139636303D01*
X116492147Y-139626359D01*
X116555703Y-139655384D01*
X116562181Y-139661416D01*
X127141336Y-150240571D01*
X127174821Y-150301894D01*
X127169837Y-150371586D01*
X127169116Y-150373469D01*
X127120492Y-150497363D01*
X127120490Y-150497369D01*
X127120489Y-150497374D01*
X127063777Y-150745845D01*
X127044732Y-150999995D01*
X127044732Y-151000004D01*
X127063777Y-151254154D01*
X127063778Y-151254157D01*
X127120492Y-151502637D01*
X127213607Y-151739888D01*
X127341041Y-151960612D01*
X127499950Y-152159877D01*
X127686783Y-152333232D01*
X127897366Y-152476805D01*
X127897371Y-152476807D01*
X127897372Y-152476808D01*
X127897373Y-152476809D01*
X128019328Y-152535538D01*
X128126992Y-152587387D01*
X128126993Y-152587387D01*
X128126996Y-152587389D01*
X128370542Y-152662513D01*
X128622565Y-152700500D01*
X128877435Y-152700500D01*
X129129458Y-152662513D01*
X129373004Y-152587389D01*
X129602634Y-152476805D01*
X129813217Y-152333232D01*
X130000050Y-152159877D01*
X130158959Y-151960612D01*
X130286393Y-151739888D01*
X130379508Y-151502637D01*
X130436222Y-151254157D01*
X130451514Y-151050097D01*
X130455268Y-151000004D01*
X142044732Y-151000004D01*
X142063777Y-151254154D01*
X142063778Y-151254157D01*
X142120492Y-151502637D01*
X142213607Y-151739888D01*
X142341041Y-151960612D01*
X142499950Y-152159877D01*
X142686783Y-152333232D01*
X142897366Y-152476805D01*
X142897371Y-152476807D01*
X142897372Y-152476808D01*
X142897373Y-152476809D01*
X143019328Y-152535538D01*
X143126992Y-152587387D01*
X143126993Y-152587387D01*
X143126996Y-152587389D01*
X143370542Y-152662513D01*
X143622565Y-152700500D01*
X143877435Y-152700500D01*
X144129458Y-152662513D01*
X144373004Y-152587389D01*
X144602634Y-152476805D01*
X144813217Y-152333232D01*
X145000050Y-152159877D01*
X145158959Y-151960612D01*
X145286393Y-151739888D01*
X145379508Y-151502637D01*
X145436222Y-151254157D01*
X145451514Y-151050097D01*
X145455268Y-151000004D01*
X145455268Y-150999995D01*
X145436222Y-150745845D01*
X145425644Y-150699500D01*
X145379508Y-150497363D01*
X145286393Y-150260112D01*
X145158959Y-150039388D01*
X145000050Y-149840123D01*
X144813217Y-149666768D01*
X144602634Y-149523195D01*
X144602628Y-149523192D01*
X144602627Y-149523191D01*
X144602626Y-149523190D01*
X144373006Y-149412612D01*
X144373008Y-149412612D01*
X144129466Y-149337489D01*
X144129462Y-149337488D01*
X144129458Y-149337487D01*
X144008231Y-149319214D01*
X143877440Y-149299500D01*
X143877435Y-149299500D01*
X143622565Y-149299500D01*
X143622559Y-149299500D01*
X143465609Y-149323157D01*
X143370542Y-149337487D01*
X143370539Y-149337488D01*
X143370533Y-149337489D01*
X143126992Y-149412612D01*
X142897373Y-149523190D01*
X142897372Y-149523191D01*
X142686782Y-149666768D01*
X142499952Y-149840121D01*
X142499950Y-149840123D01*
X142341041Y-150039388D01*
X142213608Y-150260109D01*
X142120492Y-150497362D01*
X142120490Y-150497369D01*
X142063777Y-150745845D01*
X142044732Y-150999995D01*
X142044732Y-151000004D01*
X130455268Y-151000004D01*
X130455268Y-150999995D01*
X130436222Y-150745845D01*
X130425644Y-150699500D01*
X130379508Y-150497363D01*
X130286393Y-150260112D01*
X130158959Y-150039388D01*
X130000050Y-149840123D01*
X129813217Y-149666768D01*
X129602634Y-149523195D01*
X129602628Y-149523192D01*
X129602627Y-149523191D01*
X129602626Y-149523190D01*
X129373006Y-149412612D01*
X129373008Y-149412612D01*
X129129466Y-149337489D01*
X129129462Y-149337488D01*
X129129458Y-149337487D01*
X129008231Y-149319214D01*
X128877440Y-149299500D01*
X128877435Y-149299500D01*
X128622565Y-149299500D01*
X128622559Y-149299500D01*
X128465609Y-149323157D01*
X128370542Y-149337487D01*
X128370539Y-149337488D01*
X128370533Y-149337489D01*
X128126993Y-149412611D01*
X128122681Y-149414304D01*
X128122139Y-149412923D01*
X128059585Y-149423215D01*
X127995454Y-149395483D01*
X127987061Y-149387826D01*
X120884236Y-142285001D01*
X124994390Y-142285001D01*
X125014804Y-142570433D01*
X125075628Y-142850037D01*
X125075630Y-142850043D01*
X125075631Y-142850046D01*
X125138826Y-143019478D01*
X125175635Y-143118166D01*
X125312770Y-143369309D01*
X125312775Y-143369317D01*
X125484254Y-143598387D01*
X125484270Y-143598405D01*
X125686594Y-143800729D01*
X125686612Y-143800745D01*
X125915682Y-143972224D01*
X125915690Y-143972229D01*
X126166833Y-144109364D01*
X126166832Y-144109364D01*
X126166836Y-144109365D01*
X126166839Y-144109367D01*
X126434954Y-144209369D01*
X126434960Y-144209370D01*
X126434962Y-144209371D01*
X126714566Y-144270195D01*
X126714568Y-144270195D01*
X126714572Y-144270196D01*
X126968220Y-144288337D01*
X126999999Y-144290610D01*
X127000000Y-144290610D01*
X127000001Y-144290610D01*
X127028595Y-144288564D01*
X127285428Y-144270196D01*
X127565046Y-144209369D01*
X127833161Y-144109367D01*
X128084315Y-143972226D01*
X128313395Y-143800739D01*
X128515739Y-143598395D01*
X128687226Y-143369315D01*
X128824367Y-143118161D01*
X128924369Y-142850046D01*
X128939600Y-142780032D01*
X128985195Y-142570433D01*
X128985195Y-142570432D01*
X128985196Y-142570428D01*
X129005610Y-142285000D01*
X128985196Y-141999572D01*
X128924369Y-141719954D01*
X128919050Y-141705695D01*
X128914067Y-141636005D01*
X128947552Y-141574682D01*
X129008875Y-141541198D01*
X129078567Y-141546182D01*
X129110720Y-141563989D01*
X129175382Y-141613607D01*
X129175385Y-141613608D01*
X129175388Y-141613611D01*
X129374112Y-141728344D01*
X129374117Y-141728346D01*
X129374123Y-141728349D01*
X129465480Y-141766190D01*
X129586113Y-141816158D01*
X129807762Y-141875548D01*
X130035266Y-141905500D01*
X130035273Y-141905500D01*
X130264727Y-141905500D01*
X130264734Y-141905500D01*
X130492238Y-141875548D01*
X130713887Y-141816158D01*
X130925888Y-141728344D01*
X131124612Y-141613611D01*
X131259329Y-141510238D01*
X131324496Y-141485044D01*
X131392941Y-141499082D01*
X131442931Y-141547895D01*
X131458595Y-141615987D01*
X131450996Y-141651946D01*
X131425630Y-141719955D01*
X131425629Y-141719959D01*
X131364804Y-141999566D01*
X131344390Y-142284998D01*
X131344390Y-142285001D01*
X131364804Y-142570433D01*
X131425628Y-142850037D01*
X131425630Y-142850043D01*
X131425631Y-142850046D01*
X131488826Y-143019478D01*
X131525635Y-143118166D01*
X131662770Y-143369309D01*
X131662775Y-143369317D01*
X131834254Y-143598387D01*
X131834270Y-143598405D01*
X132036594Y-143800729D01*
X132036612Y-143800745D01*
X132265682Y-143972224D01*
X132265690Y-143972229D01*
X132516833Y-144109364D01*
X132516832Y-144109364D01*
X132516836Y-144109365D01*
X132516839Y-144109367D01*
X132784954Y-144209369D01*
X132784960Y-144209370D01*
X132784962Y-144209371D01*
X133064566Y-144270195D01*
X133064568Y-144270195D01*
X133064572Y-144270196D01*
X133318220Y-144288337D01*
X133349999Y-144290610D01*
X133350000Y-144290610D01*
X133350001Y-144290610D01*
X133378595Y-144288564D01*
X133635428Y-144270196D01*
X133915046Y-144209369D01*
X134183161Y-144109367D01*
X134434315Y-143972226D01*
X134663395Y-143800739D01*
X134865739Y-143598395D01*
X135037226Y-143369315D01*
X135174367Y-143118161D01*
X135224330Y-142984203D01*
X135266199Y-142928273D01*
X135331663Y-142903856D01*
X135399936Y-142918707D01*
X135440828Y-142954654D01*
X135511686Y-143052181D01*
X135546172Y-143099646D01*
X135685354Y-143238828D01*
X135844595Y-143354524D01*
X135925015Y-143395500D01*
X136019970Y-143443882D01*
X136019972Y-143443882D01*
X136019975Y-143443884D01*
X136064666Y-143458405D01*
X136207173Y-143504709D01*
X136401578Y-143535500D01*
X136401583Y-143535500D01*
X136598422Y-143535500D01*
X136792826Y-143504709D01*
X136798606Y-143502831D01*
X136980025Y-143443884D01*
X137155405Y-143354524D01*
X137314646Y-143238828D01*
X137453828Y-143099646D01*
X137569524Y-142940405D01*
X137579902Y-142920034D01*
X137627876Y-142869239D01*
X137695697Y-142852443D01*
X137761832Y-142874979D01*
X137805284Y-142929694D01*
X137806557Y-142932962D01*
X137838826Y-143019478D01*
X137875635Y-143118166D01*
X138012770Y-143369309D01*
X138012775Y-143369317D01*
X138184254Y-143598387D01*
X138184270Y-143598405D01*
X138386594Y-143800729D01*
X138386612Y-143800745D01*
X138615682Y-143972224D01*
X138615690Y-143972229D01*
X138866833Y-144109364D01*
X138866832Y-144109364D01*
X138866836Y-144109365D01*
X138866839Y-144109367D01*
X139134954Y-144209369D01*
X139134960Y-144209370D01*
X139134962Y-144209371D01*
X139414566Y-144270195D01*
X139414568Y-144270195D01*
X139414572Y-144270196D01*
X139668220Y-144288337D01*
X139699999Y-144290610D01*
X139700000Y-144290610D01*
X139700001Y-144290610D01*
X139728595Y-144288564D01*
X139985428Y-144270196D01*
X140265046Y-144209369D01*
X140533161Y-144109367D01*
X140784315Y-143972226D01*
X141013395Y-143800739D01*
X141215739Y-143598395D01*
X141387226Y-143369315D01*
X141524367Y-143118161D01*
X141624369Y-142850046D01*
X141639600Y-142780032D01*
X141685195Y-142570433D01*
X141685195Y-142570432D01*
X141685196Y-142570428D01*
X141705610Y-142285000D01*
X141685196Y-141999572D01*
X141658216Y-141875548D01*
X141624371Y-141719962D01*
X141624370Y-141719959D01*
X141624369Y-141719954D01*
X141524367Y-141451839D01*
X141507496Y-141420943D01*
X141387229Y-141200690D01*
X141387224Y-141200682D01*
X141215745Y-140971612D01*
X141215729Y-140971594D01*
X141013405Y-140769270D01*
X141013387Y-140769254D01*
X140784317Y-140597775D01*
X140784309Y-140597770D01*
X140533166Y-140460635D01*
X140533167Y-140460635D01*
X140425915Y-140420632D01*
X140265046Y-140360631D01*
X140265043Y-140360630D01*
X140265037Y-140360628D01*
X139985433Y-140299804D01*
X139700001Y-140279390D01*
X139699999Y-140279390D01*
X139414566Y-140299804D01*
X139134962Y-140360628D01*
X138866833Y-140460635D01*
X138615690Y-140597770D01*
X138615682Y-140597775D01*
X138386612Y-140769254D01*
X138386594Y-140769270D01*
X138184270Y-140971594D01*
X138184254Y-140971612D01*
X138012775Y-141200682D01*
X138012770Y-141200690D01*
X137875635Y-141451833D01*
X137853851Y-141510239D01*
X137806943Y-141636005D01*
X137806570Y-141637004D01*
X137764698Y-141692937D01*
X137699234Y-141717354D01*
X137630961Y-141702502D01*
X137581556Y-141653097D01*
X137579903Y-141649965D01*
X137572790Y-141636005D01*
X137569524Y-141629595D01*
X137453828Y-141470354D01*
X137314646Y-141331172D01*
X137155405Y-141215476D01*
X137126370Y-141200682D01*
X136980029Y-141126117D01*
X136792826Y-141065290D01*
X136598422Y-141034500D01*
X136598417Y-141034500D01*
X136401583Y-141034500D01*
X136401578Y-141034500D01*
X136207173Y-141065290D01*
X136019970Y-141126117D01*
X135844594Y-141215476D01*
X135753741Y-141281485D01*
X135685354Y-141331172D01*
X135685352Y-141331174D01*
X135685351Y-141331174D01*
X135546171Y-141470354D01*
X135440827Y-141615346D01*
X135385497Y-141658011D01*
X135315883Y-141663989D01*
X135254089Y-141631382D01*
X135224330Y-141585795D01*
X135174367Y-141451839D01*
X135157496Y-141420943D01*
X135037229Y-141200690D01*
X135037224Y-141200682D01*
X134865745Y-140971612D01*
X134865729Y-140971594D01*
X134663405Y-140769270D01*
X134663387Y-140769254D01*
X134434317Y-140597775D01*
X134434309Y-140597770D01*
X134183166Y-140460635D01*
X134183167Y-140460635D01*
X134075915Y-140420632D01*
X133915046Y-140360631D01*
X133915043Y-140360630D01*
X133915037Y-140360628D01*
X133635433Y-140299804D01*
X133350001Y-140279390D01*
X133349999Y-140279390D01*
X133064566Y-140299804D01*
X132784962Y-140360628D01*
X132516833Y-140460635D01*
X132265690Y-140597770D01*
X132265682Y-140597775D01*
X132036612Y-140769254D01*
X132033255Y-140772164D01*
X132032406Y-140771184D01*
X131976081Y-140801925D01*
X131906390Y-140796925D01*
X131850466Y-140755042D01*
X131826063Y-140689572D01*
X131829973Y-140648666D01*
X131870548Y-140497238D01*
X131900500Y-140269734D01*
X131900500Y-140040266D01*
X131870548Y-139812762D01*
X131811158Y-139591113D01*
X131723344Y-139379112D01*
X131608611Y-139180388D01*
X131608608Y-139180385D01*
X131608607Y-139180382D01*
X131470196Y-139000003D01*
X131468919Y-138998339D01*
X131468918Y-138998338D01*
X131468911Y-138998330D01*
X131306670Y-138836089D01*
X131306661Y-138836081D01*
X131124617Y-138696392D01*
X131087057Y-138674707D01*
X130925888Y-138581656D01*
X130925876Y-138581650D01*
X130713887Y-138493842D01*
X130492238Y-138434452D01*
X130454215Y-138429446D01*
X130264741Y-138404500D01*
X130264734Y-138404500D01*
X130035266Y-138404500D01*
X130035258Y-138404500D01*
X129818715Y-138433009D01*
X129807762Y-138434452D01*
X129714076Y-138459554D01*
X129586112Y-138493842D01*
X129374123Y-138581650D01*
X129374109Y-138581657D01*
X129175382Y-138696392D01*
X128993338Y-138836081D01*
X128831081Y-138998338D01*
X128691392Y-139180382D01*
X128576657Y-139379109D01*
X128576650Y-139379123D01*
X128488842Y-139591112D01*
X128429453Y-139812759D01*
X128429451Y-139812770D01*
X128399500Y-140040258D01*
X128399500Y-140269741D01*
X128424446Y-140459215D01*
X128429452Y-140497238D01*
X128456391Y-140597775D01*
X128457021Y-140600127D01*
X128455358Y-140669977D01*
X128416195Y-140727839D01*
X128351966Y-140755343D01*
X128283064Y-140743756D01*
X128262936Y-140731487D01*
X128084317Y-140597775D01*
X128084309Y-140597770D01*
X127833166Y-140460635D01*
X127833167Y-140460635D01*
X127725915Y-140420632D01*
X127565046Y-140360631D01*
X127565043Y-140360630D01*
X127565037Y-140360628D01*
X127285433Y-140299804D01*
X127000001Y-140279390D01*
X126999999Y-140279390D01*
X126714566Y-140299804D01*
X126434962Y-140360628D01*
X126166833Y-140460635D01*
X125915690Y-140597770D01*
X125915682Y-140597775D01*
X125686612Y-140769254D01*
X125686594Y-140769270D01*
X125484270Y-140971594D01*
X125484254Y-140971612D01*
X125312775Y-141200682D01*
X125312770Y-141200690D01*
X125175635Y-141451833D01*
X125075628Y-141719962D01*
X125014804Y-141999566D01*
X124994390Y-142284998D01*
X124994390Y-142285001D01*
X120884236Y-142285001D01*
X116237590Y-137638355D01*
X116237588Y-137638352D01*
X116194426Y-137595190D01*
X116160941Y-137533867D01*
X116165925Y-137464175D01*
X116207797Y-137408242D01*
X116216110Y-137402531D01*
X116252262Y-137379816D01*
X116379816Y-137252262D01*
X116475789Y-137099522D01*
X116535368Y-136929255D01*
X116535369Y-136929249D01*
X116555565Y-136750003D01*
X116555565Y-136749996D01*
X116535369Y-136570750D01*
X116535368Y-136570745D01*
X116475788Y-136400476D01*
X116379813Y-136247734D01*
X116377550Y-136244896D01*
X116376659Y-136242715D01*
X116376111Y-136241842D01*
X116376264Y-136241745D01*
X116351144Y-136180209D01*
X116350500Y-136167587D01*
X116350500Y-135339060D01*
X116350501Y-135339047D01*
X116350501Y-135170945D01*
X116350501Y-135170943D01*
X116309577Y-135018215D01*
X116230520Y-134881284D01*
X112204237Y-130855001D01*
X124994390Y-130855001D01*
X125014804Y-131140433D01*
X125075628Y-131420037D01*
X125075630Y-131420043D01*
X125075631Y-131420046D01*
X125141725Y-131597250D01*
X125175635Y-131688166D01*
X125312770Y-131939309D01*
X125312775Y-131939317D01*
X125484254Y-132168387D01*
X125484270Y-132168405D01*
X125686594Y-132370729D01*
X125686612Y-132370745D01*
X125915682Y-132542224D01*
X125915690Y-132542229D01*
X126166833Y-132679364D01*
X126166832Y-132679364D01*
X126166836Y-132679365D01*
X126166839Y-132679367D01*
X126434954Y-132779369D01*
X126434960Y-132779370D01*
X126434962Y-132779371D01*
X126714566Y-132840195D01*
X126714568Y-132840195D01*
X126714572Y-132840196D01*
X126968220Y-132858337D01*
X126999999Y-132860610D01*
X127000000Y-132860610D01*
X127000001Y-132860610D01*
X127028595Y-132858564D01*
X127285428Y-132840196D01*
X127565046Y-132779369D01*
X127833161Y-132679367D01*
X128084315Y-132542226D01*
X128313395Y-132370739D01*
X128515739Y-132168395D01*
X128687226Y-131939315D01*
X128824367Y-131688161D01*
X128924369Y-131420046D01*
X128940031Y-131348051D01*
X128985195Y-131140433D01*
X128985195Y-131140432D01*
X128985196Y-131140428D01*
X129005610Y-130855001D01*
X131344390Y-130855001D01*
X131364804Y-131140433D01*
X131425628Y-131420037D01*
X131425630Y-131420043D01*
X131425631Y-131420046D01*
X131491725Y-131597250D01*
X131525635Y-131688166D01*
X131662770Y-131939309D01*
X131662775Y-131939317D01*
X131834254Y-132168387D01*
X131834270Y-132168405D01*
X132036594Y-132370729D01*
X132036612Y-132370745D01*
X132265682Y-132542224D01*
X132265690Y-132542229D01*
X132516833Y-132679364D01*
X132516832Y-132679364D01*
X132516836Y-132679365D01*
X132516839Y-132679367D01*
X132784954Y-132779369D01*
X132784960Y-132779370D01*
X132784962Y-132779371D01*
X133064566Y-132840195D01*
X133064568Y-132840195D01*
X133064572Y-132840196D01*
X133318220Y-132858337D01*
X133349999Y-132860610D01*
X133350000Y-132860610D01*
X133350001Y-132860610D01*
X133378595Y-132858564D01*
X133635428Y-132840196D01*
X133915046Y-132779369D01*
X134183161Y-132679367D01*
X134434315Y-132542226D01*
X134663395Y-132370739D01*
X134865739Y-132168395D01*
X135037226Y-131939315D01*
X135174367Y-131688161D01*
X135224330Y-131554203D01*
X135266199Y-131498273D01*
X135331663Y-131473856D01*
X135399936Y-131488707D01*
X135440828Y-131524654D01*
X135481878Y-131581154D01*
X135546172Y-131669646D01*
X135685354Y-131808828D01*
X135844595Y-131924524D01*
X135925015Y-131965500D01*
X136019970Y-132013882D01*
X136019972Y-132013882D01*
X136019975Y-132013884D01*
X136064666Y-132028405D01*
X136207173Y-132074709D01*
X136401578Y-132105500D01*
X136401583Y-132105500D01*
X136598422Y-132105500D01*
X136792826Y-132074709D01*
X136980025Y-132013884D01*
X137155405Y-131924524D01*
X137314646Y-131808828D01*
X137453828Y-131669646D01*
X137569524Y-131510405D01*
X137579902Y-131490034D01*
X137627876Y-131439239D01*
X137695697Y-131422443D01*
X137761832Y-131444979D01*
X137805284Y-131499694D01*
X137806557Y-131502962D01*
X137841725Y-131597250D01*
X137875635Y-131688166D01*
X138012770Y-131939309D01*
X138012775Y-131939317D01*
X138184254Y-132168387D01*
X138184270Y-132168405D01*
X138386594Y-132370729D01*
X138386612Y-132370745D01*
X138615682Y-132542224D01*
X138615690Y-132542229D01*
X138866833Y-132679364D01*
X138866832Y-132679364D01*
X138866836Y-132679365D01*
X138866839Y-132679367D01*
X139134954Y-132779369D01*
X139134960Y-132779370D01*
X139134962Y-132779371D01*
X139414566Y-132840195D01*
X139414568Y-132840195D01*
X139414572Y-132840196D01*
X139668220Y-132858337D01*
X139699999Y-132860610D01*
X139700000Y-132860610D01*
X139700001Y-132860610D01*
X139728595Y-132858564D01*
X139985428Y-132840196D01*
X140265046Y-132779369D01*
X140533161Y-132679367D01*
X140784315Y-132542226D01*
X141013395Y-132370739D01*
X141215739Y-132168395D01*
X141387226Y-131939315D01*
X141524367Y-131688161D01*
X141624369Y-131420046D01*
X141640031Y-131348051D01*
X141685195Y-131140433D01*
X141685195Y-131140432D01*
X141685196Y-131140428D01*
X141705610Y-130855000D01*
X141685196Y-130569572D01*
X141681068Y-130550598D01*
X141624371Y-130289962D01*
X141624370Y-130289960D01*
X141624369Y-130289954D01*
X141524367Y-130021839D01*
X141458029Y-129900351D01*
X141387229Y-129770690D01*
X141387224Y-129770682D01*
X141215745Y-129541612D01*
X141215729Y-129541594D01*
X141013405Y-129339270D01*
X141013387Y-129339254D01*
X140784317Y-129167775D01*
X140784309Y-129167770D01*
X140533166Y-129030635D01*
X140533167Y-129030635D01*
X140425915Y-128990632D01*
X140265046Y-128930631D01*
X140265043Y-128930630D01*
X140265037Y-128930628D01*
X139985433Y-128869804D01*
X139700001Y-128849390D01*
X139699999Y-128849390D01*
X139414566Y-128869804D01*
X139134962Y-128930628D01*
X138866833Y-129030635D01*
X138615690Y-129167770D01*
X138615682Y-129167775D01*
X138386612Y-129339254D01*
X138386594Y-129339270D01*
X138184270Y-129541594D01*
X138184254Y-129541612D01*
X138012775Y-129770682D01*
X138012770Y-129770690D01*
X137875635Y-130021833D01*
X137853458Y-130081291D01*
X137827846Y-130149962D01*
X137806570Y-130207004D01*
X137764698Y-130262937D01*
X137699234Y-130287354D01*
X137630961Y-130272502D01*
X137581556Y-130223097D01*
X137579903Y-130219965D01*
X137573299Y-130207004D01*
X137569524Y-130199595D01*
X137453828Y-130040354D01*
X137314646Y-129901172D01*
X137155405Y-129785476D01*
X137126370Y-129770682D01*
X136980029Y-129696117D01*
X136792826Y-129635290D01*
X136598422Y-129604500D01*
X136598417Y-129604500D01*
X136401583Y-129604500D01*
X136401578Y-129604500D01*
X136207173Y-129635290D01*
X136019970Y-129696117D01*
X135844594Y-129785476D01*
X135753741Y-129851485D01*
X135685354Y-129901172D01*
X135685352Y-129901174D01*
X135685351Y-129901174D01*
X135546171Y-130040354D01*
X135440827Y-130185346D01*
X135385497Y-130228011D01*
X135315883Y-130233989D01*
X135254089Y-130201382D01*
X135224330Y-130155795D01*
X135174367Y-130021839D01*
X135108029Y-129900351D01*
X135037229Y-129770690D01*
X135037224Y-129770682D01*
X134865745Y-129541612D01*
X134865729Y-129541594D01*
X134663405Y-129339270D01*
X134663387Y-129339254D01*
X134434317Y-129167775D01*
X134434309Y-129167770D01*
X134183166Y-129030635D01*
X134183167Y-129030635D01*
X134075915Y-128990632D01*
X133915046Y-128930631D01*
X133915043Y-128930630D01*
X133915037Y-128930628D01*
X133635433Y-128869804D01*
X133350001Y-128849390D01*
X133349999Y-128849390D01*
X133064566Y-128869804D01*
X132784962Y-128930628D01*
X132516833Y-129030635D01*
X132265690Y-129167770D01*
X132265682Y-129167775D01*
X132036612Y-129339254D01*
X132036594Y-129339270D01*
X131834270Y-129541594D01*
X131834254Y-129541612D01*
X131662775Y-129770682D01*
X131662770Y-129770690D01*
X131525635Y-130021833D01*
X131425628Y-130289962D01*
X131364804Y-130569566D01*
X131344390Y-130854998D01*
X131344390Y-130855001D01*
X129005610Y-130855001D01*
X129005610Y-130855000D01*
X128985196Y-130569572D01*
X128981068Y-130550598D01*
X128924371Y-130289962D01*
X128924370Y-130289960D01*
X128924369Y-130289954D01*
X128824367Y-130021839D01*
X128758029Y-129900351D01*
X128687229Y-129770690D01*
X128687224Y-129770682D01*
X128515745Y-129541612D01*
X128515729Y-129541594D01*
X128313405Y-129339270D01*
X128313387Y-129339254D01*
X128084317Y-129167775D01*
X128084309Y-129167770D01*
X127833166Y-129030635D01*
X127833167Y-129030635D01*
X127725915Y-128990632D01*
X127565046Y-128930631D01*
X127565043Y-128930630D01*
X127565037Y-128930628D01*
X127285433Y-128869804D01*
X127000001Y-128849390D01*
X126999999Y-128849390D01*
X126714566Y-128869804D01*
X126434962Y-128930628D01*
X126166833Y-129030635D01*
X125915690Y-129167770D01*
X125915682Y-129167775D01*
X125686612Y-129339254D01*
X125686594Y-129339270D01*
X125484270Y-129541594D01*
X125484254Y-129541612D01*
X125312775Y-129770682D01*
X125312770Y-129770690D01*
X125175635Y-130021833D01*
X125075628Y-130289962D01*
X125014804Y-130569566D01*
X124994390Y-130854998D01*
X124994390Y-130855001D01*
X112204237Y-130855001D01*
X109035722Y-127686486D01*
X109002237Y-127625163D01*
X109007221Y-127555471D01*
X109049093Y-127499538D01*
X109082450Y-127481763D01*
X109086927Y-127480195D01*
X109099522Y-127475789D01*
X109252262Y-127379816D01*
X109252267Y-127379810D01*
X109255097Y-127377555D01*
X109257275Y-127376665D01*
X109258158Y-127376111D01*
X109258255Y-127376265D01*
X109319783Y-127351145D01*
X109332412Y-127350500D01*
X114167588Y-127350500D01*
X114234627Y-127370185D01*
X114244903Y-127377555D01*
X114247736Y-127379814D01*
X114247738Y-127379816D01*
X114400478Y-127475789D01*
X114417551Y-127481763D01*
X114570745Y-127535368D01*
X114570750Y-127535369D01*
X114749996Y-127555565D01*
X114750000Y-127555565D01*
X114750004Y-127555565D01*
X114929249Y-127535369D01*
X114929252Y-127535368D01*
X114929255Y-127535368D01*
X115099522Y-127475789D01*
X115252262Y-127379816D01*
X115379816Y-127252262D01*
X115475789Y-127099522D01*
X115535368Y-126929255D01*
X115555565Y-126750000D01*
X115539889Y-126610874D01*
X115535369Y-126570750D01*
X115535368Y-126570745D01*
X115505930Y-126486616D01*
X115475789Y-126400478D01*
X115379816Y-126247738D01*
X115252262Y-126120184D01*
X115099523Y-126024211D01*
X114929254Y-125964631D01*
X114929249Y-125964630D01*
X114750004Y-125944435D01*
X114749996Y-125944435D01*
X114570750Y-125964630D01*
X114570745Y-125964631D01*
X114400476Y-126024211D01*
X114247736Y-126120185D01*
X114244903Y-126122445D01*
X114242724Y-126123334D01*
X114241842Y-126123889D01*
X114241744Y-126123734D01*
X114180217Y-126148855D01*
X114167588Y-126149500D01*
X109332412Y-126149500D01*
X109265373Y-126129815D01*
X109255097Y-126122445D01*
X109252263Y-126120185D01*
X109252262Y-126120184D01*
X109195496Y-126084515D01*
X109099523Y-126024211D01*
X108929254Y-125964631D01*
X108929249Y-125964630D01*
X108750004Y-125944435D01*
X108749996Y-125944435D01*
X108570750Y-125964630D01*
X108570745Y-125964631D01*
X108400476Y-126024211D01*
X108247737Y-126120184D01*
X108120184Y-126247737D01*
X108024209Y-126400480D01*
X108018234Y-126417555D01*
X107977511Y-126474329D01*
X107912557Y-126500074D01*
X107843996Y-126486616D01*
X107813513Y-126464277D01*
X103591417Y-122242181D01*
X103557932Y-122180858D01*
X103562916Y-122111166D01*
X103604788Y-122055233D01*
X103670252Y-122030816D01*
X103679098Y-122030500D01*
X137333849Y-122030500D01*
X137400888Y-122050185D01*
X137446643Y-122102989D01*
X137456587Y-122172147D01*
X137427562Y-122235703D01*
X137410017Y-122252347D01*
X137260705Y-122368562D01*
X137230257Y-122392261D01*
X137061833Y-122575217D01*
X136925826Y-122783393D01*
X136825936Y-123011118D01*
X136764892Y-123252175D01*
X136764890Y-123252187D01*
X136744357Y-123499994D01*
X136744357Y-123500005D01*
X136764890Y-123747812D01*
X136764892Y-123747824D01*
X136825936Y-123988881D01*
X136925826Y-124216606D01*
X137061833Y-124424782D01*
X137061836Y-124424785D01*
X137230256Y-124607738D01*
X137426491Y-124760474D01*
X137645190Y-124878828D01*
X137880386Y-124959571D01*
X138125665Y-125000500D01*
X138374335Y-125000500D01*
X138619614Y-124959571D01*
X138854810Y-124878828D01*
X139073509Y-124760474D01*
X139269744Y-124607738D01*
X139438164Y-124424785D01*
X139574173Y-124216607D01*
X139674063Y-123988881D01*
X139735108Y-123747821D01*
X139735109Y-123747812D01*
X139755643Y-123500005D01*
X139755643Y-123499994D01*
X139735109Y-123252187D01*
X139735107Y-123252175D01*
X139674063Y-123011118D01*
X139574173Y-122783393D01*
X139438166Y-122575217D01*
X139416557Y-122551744D01*
X139269744Y-122392262D01*
X139073509Y-122239526D01*
X139073508Y-122239525D01*
X139073505Y-122239523D01*
X139073503Y-122239522D01*
X138997746Y-122198525D01*
X138948155Y-122149306D01*
X138933047Y-122081089D01*
X138957217Y-122015533D01*
X138994758Y-121982086D01*
X139031904Y-121960639D01*
X139118716Y-121910520D01*
X139230520Y-121798716D01*
X139230520Y-121798714D01*
X139240728Y-121788507D01*
X139240730Y-121788504D01*
X139338321Y-121690912D01*
X139399642Y-121657429D01*
X139458095Y-121658821D01*
X139529924Y-121678068D01*
X139529925Y-121678068D01*
X139529932Y-121678070D01*
X139717226Y-121694455D01*
X139749998Y-121697323D01*
X139750000Y-121697323D01*
X139750002Y-121697323D01*
X139805017Y-121692509D01*
X139970068Y-121678070D01*
X140183450Y-121620894D01*
X140383662Y-121527534D01*
X140564620Y-121400826D01*
X140720826Y-121244620D01*
X140847534Y-121063662D01*
X140940894Y-120863450D01*
X140998070Y-120650068D01*
X141017323Y-120430000D01*
X140998070Y-120209932D01*
X140940894Y-119996550D01*
X140847534Y-119796339D01*
X140770010Y-119685623D01*
X140720827Y-119615381D01*
X140655945Y-119550499D01*
X140564620Y-119459174D01*
X140564616Y-119459171D01*
X140564615Y-119459170D01*
X140383666Y-119332468D01*
X140383658Y-119332464D01*
X140254811Y-119272382D01*
X140202371Y-119226210D01*
X140183219Y-119159017D01*
X140203435Y-119092135D01*
X140254811Y-119047618D01*
X140260802Y-119044824D01*
X140383662Y-118987534D01*
X140564620Y-118860826D01*
X140720826Y-118704620D01*
X140847534Y-118523662D01*
X140940894Y-118323450D01*
X140998070Y-118110068D01*
X141017323Y-117890000D01*
X140998070Y-117669932D01*
X140940894Y-117456550D01*
X140847534Y-117256339D01*
X140770010Y-117145623D01*
X140720827Y-117075381D01*
X140668435Y-117022989D01*
X140564620Y-116919174D01*
X140564616Y-116919171D01*
X140564615Y-116919170D01*
X140383666Y-116792468D01*
X140383658Y-116792464D01*
X140254811Y-116732382D01*
X140202371Y-116686210D01*
X140183219Y-116619017D01*
X140203435Y-116552135D01*
X140254811Y-116507618D01*
X140260802Y-116504824D01*
X140383662Y-116447534D01*
X140564620Y-116320826D01*
X140720826Y-116164620D01*
X140847534Y-115983662D01*
X140940894Y-115783450D01*
X140998070Y-115570068D01*
X141017323Y-115350000D01*
X140998070Y-115129932D01*
X140940894Y-114916550D01*
X140847534Y-114716339D01*
X140770010Y-114605623D01*
X140720827Y-114535381D01*
X140668435Y-114482989D01*
X140564620Y-114379174D01*
X140564616Y-114379171D01*
X140564615Y-114379170D01*
X140383666Y-114252468D01*
X140383658Y-114252464D01*
X140254811Y-114192382D01*
X140202371Y-114146210D01*
X140183219Y-114079017D01*
X140203435Y-114012135D01*
X140254811Y-113967618D01*
X140260802Y-113964824D01*
X140383662Y-113907534D01*
X140564620Y-113780826D01*
X140720826Y-113624620D01*
X140847534Y-113443662D01*
X140940894Y-113243450D01*
X140998070Y-113030068D01*
X141017323Y-112810000D01*
X140998070Y-112589932D01*
X140940894Y-112376550D01*
X140847534Y-112176339D01*
X140770010Y-112065623D01*
X140720827Y-111995381D01*
X140668435Y-111942989D01*
X140564620Y-111839174D01*
X140564616Y-111839171D01*
X140564615Y-111839170D01*
X140383666Y-111712468D01*
X140383658Y-111712464D01*
X140254811Y-111652382D01*
X140202371Y-111606210D01*
X140183219Y-111539017D01*
X140203435Y-111472135D01*
X140254811Y-111427618D01*
X140260802Y-111424824D01*
X140383662Y-111367534D01*
X140564620Y-111240826D01*
X140720826Y-111084620D01*
X140847534Y-110903662D01*
X140940894Y-110703450D01*
X140998070Y-110490068D01*
X141017323Y-110270000D01*
X140998070Y-110049932D01*
X140940894Y-109836550D01*
X140847534Y-109636339D01*
X140720826Y-109455380D01*
X140564620Y-109299174D01*
X140564616Y-109299171D01*
X140564615Y-109299170D01*
X140383666Y-109172468D01*
X140383658Y-109172464D01*
X140254811Y-109112382D01*
X140202371Y-109066210D01*
X140183219Y-108999017D01*
X140203435Y-108932135D01*
X140254811Y-108887618D01*
X140260802Y-108884824D01*
X140383662Y-108827534D01*
X140564620Y-108700826D01*
X140720826Y-108544620D01*
X140847534Y-108363662D01*
X140940894Y-108163450D01*
X140998070Y-107950068D01*
X141017323Y-107730000D01*
X141012883Y-107679255D01*
X140998070Y-107509937D01*
X140998070Y-107509932D01*
X140940894Y-107296550D01*
X140847534Y-107096339D01*
X140720826Y-106915380D01*
X140564620Y-106759174D01*
X140564616Y-106759171D01*
X140564615Y-106759170D01*
X140383666Y-106632468D01*
X140383658Y-106632464D01*
X140254811Y-106572382D01*
X140202371Y-106526210D01*
X140183219Y-106459017D01*
X140203435Y-106392135D01*
X140254811Y-106347618D01*
X140260802Y-106344824D01*
X140383662Y-106287534D01*
X140564620Y-106160826D01*
X140720826Y-106004620D01*
X140847534Y-105823662D01*
X140940894Y-105623450D01*
X140998070Y-105410068D01*
X141017323Y-105190000D01*
X140998070Y-104969932D01*
X140940894Y-104756550D01*
X140847534Y-104556339D01*
X140773624Y-104450784D01*
X140720827Y-104375381D01*
X140666189Y-104320743D01*
X140564620Y-104219174D01*
X140564616Y-104219171D01*
X140564615Y-104219170D01*
X140383666Y-104092468D01*
X140383658Y-104092464D01*
X140254811Y-104032382D01*
X140202371Y-103986210D01*
X140183219Y-103919017D01*
X140203435Y-103852135D01*
X140254811Y-103807618D01*
X140260802Y-103804824D01*
X140383662Y-103747534D01*
X140564620Y-103620826D01*
X140720826Y-103464620D01*
X140847534Y-103283662D01*
X140940894Y-103083450D01*
X140998070Y-102870068D01*
X141017323Y-102650000D01*
X140998070Y-102429932D01*
X140940894Y-102216550D01*
X140847534Y-102016339D01*
X140720826Y-101835380D01*
X140564620Y-101679174D01*
X140564616Y-101679171D01*
X140564615Y-101679170D01*
X140383666Y-101552468D01*
X140383662Y-101552466D01*
X140254218Y-101492105D01*
X140201779Y-101445932D01*
X140182627Y-101378739D01*
X140202843Y-101311858D01*
X140254219Y-101267340D01*
X140383416Y-101207095D01*
X140383417Y-101207094D01*
X140448188Y-101161741D01*
X139838585Y-100552137D01*
X139923694Y-100529333D01*
X140026306Y-100470090D01*
X140110090Y-100386306D01*
X140169333Y-100283694D01*
X140192138Y-100198585D01*
X140801741Y-100808188D01*
X140847094Y-100743417D01*
X140847100Y-100743407D01*
X140940419Y-100543284D01*
X140940424Y-100543270D01*
X140997573Y-100329986D01*
X140997575Y-100329976D01*
X141016821Y-100110000D01*
X141016821Y-100109999D01*
X140997575Y-99890023D01*
X140997573Y-99890013D01*
X140940424Y-99676729D01*
X140940420Y-99676720D01*
X140847096Y-99476586D01*
X140801741Y-99411811D01*
X140801740Y-99411810D01*
X140192137Y-100021413D01*
X140169333Y-99936306D01*
X140110090Y-99833694D01*
X140026306Y-99749910D01*
X139923694Y-99690667D01*
X139838585Y-99667862D01*
X140448188Y-99058259D01*
X140448187Y-99058258D01*
X140383411Y-99012901D01*
X140383405Y-99012898D01*
X140254219Y-98952658D01*
X140201779Y-98906486D01*
X140182627Y-98839293D01*
X140202843Y-98772411D01*
X140254219Y-98727894D01*
X140383662Y-98667534D01*
X140564620Y-98540826D01*
X140720826Y-98384620D01*
X140847534Y-98203662D01*
X140940894Y-98003450D01*
X140998070Y-97790068D01*
X141017323Y-97570000D01*
X140998070Y-97349932D01*
X140940894Y-97136550D01*
X140847534Y-96936339D01*
X140720826Y-96755380D01*
X140564620Y-96599174D01*
X140564616Y-96599171D01*
X140564615Y-96599170D01*
X140383666Y-96472468D01*
X140383662Y-96472466D01*
X140383660Y-96472465D01*
X140183450Y-96379106D01*
X140183447Y-96379105D01*
X140183445Y-96379104D01*
X139970070Y-96321930D01*
X139970062Y-96321929D01*
X139750002Y-96302677D01*
X139749998Y-96302677D01*
X139529937Y-96321929D01*
X139529929Y-96321930D01*
X139316554Y-96379104D01*
X139316548Y-96379107D01*
X139116340Y-96472465D01*
X139116338Y-96472466D01*
X138935377Y-96599175D01*
X138779175Y-96755377D01*
X138652466Y-96936338D01*
X138652465Y-96936340D01*
X138559107Y-97136548D01*
X138559104Y-97136554D01*
X138501930Y-97349929D01*
X138501929Y-97349937D01*
X138482677Y-97569997D01*
X138482677Y-97570002D01*
X138501929Y-97790062D01*
X138501930Y-97790070D01*
X138559104Y-98003445D01*
X138559105Y-98003447D01*
X138559106Y-98003450D01*
X138613834Y-98120814D01*
X138652466Y-98203662D01*
X138652468Y-98203666D01*
X138779170Y-98384615D01*
X138779175Y-98384621D01*
X138935378Y-98540824D01*
X138935384Y-98540829D01*
X139116333Y-98667531D01*
X139116335Y-98667532D01*
X139116338Y-98667534D01*
X139245781Y-98727894D01*
X139298220Y-98774066D01*
X139317372Y-98841260D01*
X139297156Y-98908141D01*
X139245781Y-98952658D01*
X139116590Y-99012901D01*
X139051811Y-99058258D01*
X139661414Y-99667861D01*
X139576306Y-99690667D01*
X139473694Y-99749910D01*
X139389910Y-99833694D01*
X139330667Y-99936306D01*
X139307861Y-100021414D01*
X138698258Y-99411811D01*
X138652901Y-99476590D01*
X138559579Y-99676720D01*
X138559575Y-99676729D01*
X138502426Y-99890013D01*
X138502424Y-99890023D01*
X138483179Y-100109999D01*
X138483179Y-100110000D01*
X138502424Y-100329976D01*
X138502426Y-100329986D01*
X138559575Y-100543270D01*
X138559580Y-100543284D01*
X138652898Y-100743405D01*
X138652901Y-100743411D01*
X138698258Y-100808187D01*
X138698259Y-100808188D01*
X139307861Y-100198585D01*
X139330667Y-100283694D01*
X139389910Y-100386306D01*
X139473694Y-100470090D01*
X139576306Y-100529333D01*
X139661414Y-100552137D01*
X139051810Y-101161740D01*
X139116589Y-101207098D01*
X139245781Y-101267342D01*
X139298220Y-101313514D01*
X139317372Y-101380708D01*
X139297156Y-101447589D01*
X139245781Y-101492106D01*
X139116340Y-101552465D01*
X139116338Y-101552466D01*
X138935377Y-101679175D01*
X138779175Y-101835377D01*
X138652466Y-102016338D01*
X138652465Y-102016340D01*
X138559107Y-102216548D01*
X138559104Y-102216554D01*
X138501930Y-102429929D01*
X138501929Y-102429937D01*
X138482677Y-102649997D01*
X138482677Y-102650002D01*
X138501929Y-102870062D01*
X138501930Y-102870070D01*
X138559104Y-103083445D01*
X138559105Y-103083447D01*
X138559106Y-103083450D01*
X138648059Y-103274211D01*
X138652466Y-103283662D01*
X138652468Y-103283666D01*
X138779170Y-103464615D01*
X138779175Y-103464621D01*
X138935378Y-103620824D01*
X138935384Y-103620829D01*
X139116333Y-103747531D01*
X139116335Y-103747532D01*
X139116338Y-103747534D01*
X139235748Y-103803215D01*
X139245189Y-103807618D01*
X139297628Y-103853790D01*
X139316780Y-103920984D01*
X139296564Y-103987865D01*
X139245189Y-104032382D01*
X139116340Y-104092465D01*
X139116338Y-104092466D01*
X138935377Y-104219175D01*
X138779175Y-104375377D01*
X138652466Y-104556338D01*
X138652465Y-104556340D01*
X138559107Y-104756548D01*
X138559104Y-104756554D01*
X138501930Y-104969929D01*
X138501929Y-104969937D01*
X138482677Y-105189997D01*
X138482677Y-105190002D01*
X138501929Y-105410062D01*
X138501930Y-105410070D01*
X138559104Y-105623445D01*
X138559105Y-105623447D01*
X138559106Y-105623450D01*
X138652466Y-105823662D01*
X138652468Y-105823666D01*
X138779170Y-106004615D01*
X138779175Y-106004621D01*
X138935378Y-106160824D01*
X138935384Y-106160829D01*
X139116333Y-106287531D01*
X139116335Y-106287532D01*
X139116338Y-106287534D01*
X139235748Y-106343215D01*
X139245189Y-106347618D01*
X139297628Y-106393790D01*
X139316780Y-106460984D01*
X139296564Y-106527865D01*
X139245189Y-106572382D01*
X139116340Y-106632465D01*
X139116338Y-106632466D01*
X138935377Y-106759175D01*
X138779175Y-106915377D01*
X138652466Y-107096338D01*
X138652465Y-107096340D01*
X138559107Y-107296548D01*
X138559104Y-107296554D01*
X138501930Y-107509929D01*
X138501929Y-107509937D01*
X138482677Y-107729997D01*
X138482677Y-107730002D01*
X138501929Y-107950062D01*
X138501930Y-107950070D01*
X138559104Y-108163445D01*
X138559105Y-108163447D01*
X138559106Y-108163450D01*
X138629776Y-108315002D01*
X138652466Y-108363662D01*
X138652468Y-108363666D01*
X138779170Y-108544615D01*
X138779175Y-108544621D01*
X138935378Y-108700824D01*
X138935384Y-108700829D01*
X139116333Y-108827531D01*
X139116335Y-108827532D01*
X139116338Y-108827534D01*
X139163492Y-108849522D01*
X139245189Y-108887618D01*
X139297628Y-108933790D01*
X139316780Y-109000984D01*
X139296564Y-109067865D01*
X139245189Y-109112382D01*
X139116340Y-109172465D01*
X139116338Y-109172466D01*
X138935377Y-109299175D01*
X138779175Y-109455377D01*
X138652466Y-109636338D01*
X138652465Y-109636340D01*
X138559107Y-109836548D01*
X138559104Y-109836554D01*
X138501930Y-110049929D01*
X138501929Y-110049937D01*
X138482677Y-110269997D01*
X138482677Y-110270002D01*
X138501929Y-110490062D01*
X138501930Y-110490069D01*
X138503985Y-110497737D01*
X138508183Y-110513407D01*
X138506521Y-110583255D01*
X138467359Y-110641118D01*
X138403131Y-110668623D01*
X138388409Y-110669500D01*
X102570097Y-110669500D01*
X102503058Y-110649815D01*
X102482416Y-110633181D01*
X96330700Y-104481465D01*
X96297215Y-104420142D01*
X96295163Y-104407686D01*
X96285368Y-104320745D01*
X96225789Y-104150478D01*
X96129816Y-103997738D01*
X96002262Y-103870184D01*
X95973537Y-103852135D01*
X95849523Y-103774211D01*
X95679254Y-103714631D01*
X95679249Y-103714630D01*
X95500004Y-103694435D01*
X95499996Y-103694435D01*
X95320750Y-103714630D01*
X95320745Y-103714631D01*
X95150476Y-103774211D01*
X94997737Y-103870184D01*
X94870184Y-103997737D01*
X94774211Y-104150476D01*
X94714631Y-104320745D01*
X94714630Y-104320750D01*
X94694435Y-104499996D01*
X94694435Y-104500003D01*
X94714630Y-104679249D01*
X94714631Y-104679254D01*
X94774211Y-104849523D01*
X94849868Y-104969929D01*
X94870184Y-105002262D01*
X94997738Y-105129816D01*
X95150478Y-105225789D01*
X95320745Y-105285368D01*
X95407669Y-105295161D01*
X95472080Y-105322226D01*
X95481465Y-105330700D01*
X101785139Y-111634374D01*
X101785149Y-111634385D01*
X101789479Y-111638715D01*
X101789480Y-111638716D01*
X101901284Y-111750520D01*
X101961644Y-111785368D01*
X101988095Y-111800639D01*
X101988097Y-111800641D01*
X102025483Y-111822226D01*
X102038215Y-111829577D01*
X102190943Y-111870501D01*
X102190946Y-111870501D01*
X102356653Y-111870501D01*
X102356669Y-111870500D01*
X138628415Y-111870500D01*
X138695454Y-111890185D01*
X138741209Y-111942989D01*
X138751153Y-112012147D01*
X138729990Y-112065623D01*
X138652466Y-112176338D01*
X138652465Y-112176340D01*
X138559107Y-112376548D01*
X138559104Y-112376554D01*
X138501930Y-112589929D01*
X138501929Y-112589937D01*
X138482677Y-112809997D01*
X138482677Y-112810002D01*
X138501929Y-113030062D01*
X138501930Y-113030069D01*
X138504006Y-113037818D01*
X138508183Y-113053407D01*
X138506521Y-113123255D01*
X138467359Y-113181118D01*
X138403131Y-113208623D01*
X138388409Y-113209500D01*
X102360097Y-113209500D01*
X102293058Y-113189815D01*
X102272416Y-113173181D01*
X93487590Y-104388355D01*
X93487588Y-104388352D01*
X93368717Y-104269481D01*
X93368709Y-104269475D01*
X93266936Y-104210717D01*
X93266934Y-104210716D01*
X93231790Y-104190425D01*
X93231789Y-104190424D01*
X93190102Y-104179254D01*
X93079057Y-104149499D01*
X92920943Y-104149499D01*
X92913347Y-104149499D01*
X92913331Y-104149500D01*
X87582412Y-104149500D01*
X87515373Y-104129815D01*
X87505097Y-104122445D01*
X87502263Y-104120185D01*
X87502262Y-104120184D01*
X87445496Y-104084515D01*
X87349523Y-104024211D01*
X87179254Y-103964631D01*
X87179249Y-103964630D01*
X87000004Y-103944435D01*
X86999996Y-103944435D01*
X86820750Y-103964630D01*
X86820745Y-103964631D01*
X86708555Y-104003889D01*
X86638776Y-104007450D01*
X86578148Y-103972721D01*
X86545921Y-103910728D01*
X86544380Y-103900729D01*
X86535369Y-103820750D01*
X86535368Y-103820745D01*
X86475788Y-103650476D01*
X86379815Y-103497737D01*
X86252262Y-103370184D01*
X86099523Y-103274211D01*
X85929254Y-103214631D01*
X85929249Y-103214630D01*
X85750004Y-103194435D01*
X85749996Y-103194435D01*
X85570750Y-103214630D01*
X85570745Y-103214631D01*
X85400476Y-103274211D01*
X85247737Y-103370184D01*
X85120184Y-103497737D01*
X85024211Y-103650476D01*
X84964631Y-103820745D01*
X84964630Y-103820750D01*
X84944435Y-103999996D01*
X84944435Y-104000003D01*
X81750500Y-104000003D01*
X81750500Y-98578846D01*
X88964500Y-98578846D01*
X88995261Y-98733489D01*
X88995264Y-98733501D01*
X89055602Y-98879172D01*
X89055609Y-98879185D01*
X89143210Y-99010288D01*
X89143213Y-99010292D01*
X89254707Y-99121786D01*
X89254711Y-99121789D01*
X89385814Y-99209390D01*
X89385827Y-99209397D01*
X89531498Y-99269735D01*
X89531503Y-99269737D01*
X89686153Y-99300499D01*
X89686156Y-99300500D01*
X89686158Y-99300500D01*
X89843844Y-99300500D01*
X89843845Y-99300499D01*
X89998497Y-99269737D01*
X90144179Y-99209394D01*
X90275289Y-99121789D01*
X90386789Y-99010289D01*
X90474394Y-98879179D01*
X90534737Y-98733497D01*
X90565500Y-98578842D01*
X90565500Y-98421158D01*
X90565500Y-98421155D01*
X90565499Y-98421153D01*
X90534738Y-98266510D01*
X90534737Y-98266503D01*
X90534735Y-98266498D01*
X90474397Y-98120827D01*
X90474390Y-98120814D01*
X90386789Y-97989711D01*
X90386786Y-97989707D01*
X90275292Y-97878213D01*
X90275288Y-97878210D01*
X90144185Y-97790609D01*
X90144172Y-97790602D01*
X89998501Y-97730264D01*
X89998489Y-97730261D01*
X89843845Y-97699500D01*
X89843842Y-97699500D01*
X89686158Y-97699500D01*
X89686155Y-97699500D01*
X89531510Y-97730261D01*
X89531498Y-97730264D01*
X89385827Y-97790602D01*
X89385814Y-97790609D01*
X89254711Y-97878210D01*
X89254707Y-97878213D01*
X89143213Y-97989707D01*
X89143210Y-97989711D01*
X89055609Y-98120814D01*
X89055602Y-98120827D01*
X88995264Y-98266498D01*
X88995261Y-98266510D01*
X88964500Y-98421153D01*
X88964500Y-98578846D01*
X81750500Y-98578846D01*
X81750500Y-94500005D01*
X86744357Y-94500005D01*
X86764890Y-94747812D01*
X86764892Y-94747824D01*
X86825936Y-94988881D01*
X86925826Y-95216606D01*
X87061833Y-95424782D01*
X87061836Y-95424785D01*
X87230256Y-95607738D01*
X87426491Y-95760474D01*
X87645190Y-95878828D01*
X87880386Y-95959571D01*
X88125665Y-96000500D01*
X88374335Y-96000500D01*
X88619614Y-95959571D01*
X88854810Y-95878828D01*
X89073509Y-95760474D01*
X89269744Y-95607738D01*
X89438164Y-95424785D01*
X89574173Y-95216607D01*
X89674063Y-94988881D01*
X89735108Y-94747821D01*
X89735109Y-94747812D01*
X89755643Y-94500005D01*
X136744357Y-94500005D01*
X136764890Y-94747812D01*
X136764892Y-94747824D01*
X136825936Y-94988881D01*
X136925826Y-95216606D01*
X137061833Y-95424782D01*
X137061836Y-95424785D01*
X137230256Y-95607738D01*
X137426491Y-95760474D01*
X137645190Y-95878828D01*
X137880386Y-95959571D01*
X138125665Y-96000500D01*
X138374335Y-96000500D01*
X138619614Y-95959571D01*
X138854810Y-95878828D01*
X139073509Y-95760474D01*
X139269744Y-95607738D01*
X139438164Y-95424785D01*
X139574173Y-95216607D01*
X139674063Y-94988881D01*
X139735108Y-94747821D01*
X139735109Y-94747812D01*
X139755643Y-94500005D01*
X139755643Y-94499994D01*
X139735109Y-94252187D01*
X139735107Y-94252175D01*
X139674063Y-94011118D01*
X139574173Y-93783393D01*
X139438166Y-93575217D01*
X139416557Y-93551744D01*
X139269744Y-93392262D01*
X139073509Y-93239526D01*
X139073507Y-93239525D01*
X139073506Y-93239524D01*
X138854811Y-93121172D01*
X138854802Y-93121169D01*
X138619616Y-93040429D01*
X138374335Y-92999500D01*
X138125665Y-92999500D01*
X137880383Y-93040429D01*
X137645197Y-93121169D01*
X137645188Y-93121172D01*
X137426493Y-93239524D01*
X137230257Y-93392261D01*
X137061833Y-93575217D01*
X136925826Y-93783393D01*
X136825936Y-94011118D01*
X136764892Y-94252175D01*
X136764890Y-94252187D01*
X136744357Y-94499994D01*
X136744357Y-94500005D01*
X89755643Y-94500005D01*
X89755643Y-94499994D01*
X89735109Y-94252187D01*
X89735107Y-94252175D01*
X89674063Y-94011118D01*
X89574173Y-93783393D01*
X89438166Y-93575217D01*
X89416557Y-93551744D01*
X89269744Y-93392262D01*
X89073509Y-93239526D01*
X89073507Y-93239525D01*
X89073506Y-93239524D01*
X88854811Y-93121172D01*
X88854802Y-93121169D01*
X88619616Y-93040429D01*
X88374335Y-92999500D01*
X88125665Y-92999500D01*
X87880383Y-93040429D01*
X87645197Y-93121169D01*
X87645188Y-93121172D01*
X87426493Y-93239524D01*
X87230257Y-93392261D01*
X87061833Y-93575217D01*
X86925826Y-93783393D01*
X86825936Y-94011118D01*
X86764892Y-94252175D01*
X86764890Y-94252187D01*
X86744357Y-94499994D01*
X86744357Y-94500005D01*
X81750500Y-94500005D01*
X81750500Y-89321358D01*
X102083260Y-89321358D01*
X102089661Y-89380886D01*
X102089663Y-89380893D01*
X102139905Y-89515600D01*
X102139909Y-89515607D01*
X102226069Y-89630701D01*
X102226072Y-89630704D01*
X102341166Y-89716864D01*
X102341173Y-89716868D01*
X102475880Y-89767110D01*
X102475887Y-89767112D01*
X102535415Y-89773513D01*
X102535432Y-89773514D01*
X104083260Y-89773514D01*
X104083260Y-88023514D01*
X104583260Y-88023514D01*
X104583260Y-89773514D01*
X106131088Y-89773514D01*
X106131104Y-89773513D01*
X106190632Y-89767112D01*
X106190639Y-89767110D01*
X106325346Y-89716868D01*
X106325353Y-89716864D01*
X106440447Y-89630704D01*
X106440450Y-89630701D01*
X106526610Y-89515607D01*
X106526614Y-89515600D01*
X106576856Y-89380893D01*
X106576858Y-89380886D01*
X106583259Y-89321358D01*
X106583260Y-89321341D01*
X106583260Y-87773514D01*
X105766272Y-87773514D01*
X105799185Y-87716507D01*
X105833260Y-87589340D01*
X105833260Y-87457688D01*
X105799185Y-87330521D01*
X105766272Y-87273514D01*
X106583260Y-87273514D01*
X106583260Y-87050005D01*
X112345202Y-87050005D01*
X112364361Y-87281218D01*
X112421317Y-87506135D01*
X112514515Y-87718606D01*
X112598812Y-87847633D01*
X113267037Y-87179408D01*
X113284075Y-87242993D01*
X113349901Y-87357007D01*
X113442993Y-87450099D01*
X113557007Y-87515925D01*
X113620590Y-87532962D01*
X112951201Y-88202351D01*
X112981649Y-88226050D01*
X113185697Y-88336476D01*
X113185706Y-88336479D01*
X113405139Y-88411811D01*
X113633993Y-88450000D01*
X113866007Y-88450000D01*
X114094860Y-88411811D01*
X114314293Y-88336479D01*
X114314301Y-88336476D01*
X114518355Y-88226047D01*
X114548797Y-88202351D01*
X114548798Y-88202350D01*
X113879410Y-87532962D01*
X113942993Y-87515925D01*
X114057007Y-87450099D01*
X114150099Y-87357007D01*
X114215925Y-87242993D01*
X114232962Y-87179409D01*
X114901186Y-87847633D01*
X114905967Y-87847137D01*
X114949036Y-87810380D01*
X115018268Y-87800956D01*
X115081604Y-87830457D01*
X115103509Y-87855737D01*
X115141016Y-87913147D01*
X115141019Y-87913151D01*
X115141021Y-87913153D01*
X115298216Y-88083913D01*
X115298219Y-88083915D01*
X115298222Y-88083918D01*
X115481365Y-88226464D01*
X115481371Y-88226468D01*
X115481374Y-88226470D01*
X115648860Y-88317109D01*
X115684652Y-88336479D01*
X115685497Y-88336936D01*
X115799487Y-88376068D01*
X115905015Y-88412297D01*
X115905017Y-88412297D01*
X115905019Y-88412298D01*
X116133951Y-88450500D01*
X116133952Y-88450500D01*
X116366048Y-88450500D01*
X116366049Y-88450500D01*
X116594981Y-88412298D01*
X116814503Y-88336936D01*
X117018626Y-88226470D01*
X117019170Y-88226047D01*
X117080129Y-88178600D01*
X117201784Y-88083913D01*
X117358979Y-87913153D01*
X117396191Y-87856196D01*
X117449337Y-87810839D01*
X117518569Y-87801415D01*
X117581904Y-87830917D01*
X117603809Y-87856196D01*
X117641016Y-87913147D01*
X117641019Y-87913151D01*
X117641021Y-87913153D01*
X117798216Y-88083913D01*
X117798219Y-88083915D01*
X117798222Y-88083918D01*
X117981365Y-88226464D01*
X117981371Y-88226468D01*
X117981374Y-88226470D01*
X118148860Y-88317109D01*
X118184652Y-88336479D01*
X118185497Y-88336936D01*
X118299487Y-88376068D01*
X118405015Y-88412297D01*
X118405017Y-88412297D01*
X118405019Y-88412298D01*
X118633951Y-88450500D01*
X118633952Y-88450500D01*
X118866048Y-88450500D01*
X118866049Y-88450500D01*
X119094981Y-88412298D01*
X119314503Y-88336936D01*
X119518626Y-88226470D01*
X119519170Y-88226047D01*
X119580129Y-88178600D01*
X119701784Y-88083913D01*
X119858979Y-87913153D01*
X119985924Y-87718849D01*
X120079157Y-87506300D01*
X120136134Y-87281305D01*
X120136135Y-87281297D01*
X120155300Y-87050006D01*
X120155300Y-87050005D01*
X134845202Y-87050005D01*
X134864361Y-87281218D01*
X134921317Y-87506135D01*
X135014515Y-87718606D01*
X135098812Y-87847633D01*
X135767037Y-87179408D01*
X135784075Y-87242993D01*
X135849901Y-87357007D01*
X135942993Y-87450099D01*
X136057007Y-87515925D01*
X136120590Y-87532962D01*
X135451201Y-88202351D01*
X135481649Y-88226050D01*
X135685697Y-88336476D01*
X135685706Y-88336479D01*
X135905139Y-88411811D01*
X136133993Y-88450000D01*
X136366007Y-88450000D01*
X136594860Y-88411811D01*
X136814293Y-88336479D01*
X136814301Y-88336476D01*
X137018355Y-88226047D01*
X137048797Y-88202351D01*
X137048798Y-88202350D01*
X136379410Y-87532962D01*
X136442993Y-87515925D01*
X136557007Y-87450099D01*
X136650099Y-87357007D01*
X136715925Y-87242993D01*
X136732962Y-87179409D01*
X137401186Y-87847633D01*
X137405967Y-87847137D01*
X137449036Y-87810380D01*
X137518268Y-87800956D01*
X137581604Y-87830457D01*
X137603509Y-87855737D01*
X137641016Y-87913147D01*
X137641019Y-87913151D01*
X137641021Y-87913153D01*
X137798216Y-88083913D01*
X137798219Y-88083915D01*
X137798222Y-88083918D01*
X137981365Y-88226464D01*
X137981371Y-88226468D01*
X137981374Y-88226470D01*
X138148860Y-88317109D01*
X138184652Y-88336479D01*
X138185497Y-88336936D01*
X138299487Y-88376068D01*
X138405015Y-88412297D01*
X138405017Y-88412297D01*
X138405019Y-88412298D01*
X138633951Y-88450500D01*
X138633952Y-88450500D01*
X138866048Y-88450500D01*
X138866049Y-88450500D01*
X139094981Y-88412298D01*
X139314503Y-88336936D01*
X139518626Y-88226470D01*
X139519170Y-88226047D01*
X139580129Y-88178600D01*
X139701784Y-88083913D01*
X139858979Y-87913153D01*
X139896191Y-87856196D01*
X139949337Y-87810839D01*
X140018569Y-87801415D01*
X140081904Y-87830917D01*
X140103809Y-87856196D01*
X140141016Y-87913147D01*
X140141019Y-87913151D01*
X140141021Y-87913153D01*
X140298216Y-88083913D01*
X140298219Y-88083915D01*
X140298222Y-88083918D01*
X140481365Y-88226464D01*
X140481371Y-88226468D01*
X140481374Y-88226470D01*
X140648860Y-88317109D01*
X140684652Y-88336479D01*
X140685497Y-88336936D01*
X140799487Y-88376068D01*
X140905015Y-88412297D01*
X140905017Y-88412297D01*
X140905019Y-88412298D01*
X141133951Y-88450500D01*
X141133952Y-88450500D01*
X141366048Y-88450500D01*
X141366049Y-88450500D01*
X141594981Y-88412298D01*
X141814503Y-88336936D01*
X142018626Y-88226470D01*
X142019170Y-88226047D01*
X142080129Y-88178600D01*
X142201784Y-88083913D01*
X142358979Y-87913153D01*
X142485924Y-87718849D01*
X142579157Y-87506300D01*
X142636134Y-87281305D01*
X142636135Y-87281297D01*
X142655300Y-87050006D01*
X142655300Y-87049993D01*
X142636135Y-86818702D01*
X142636133Y-86818691D01*
X142579157Y-86593699D01*
X142485924Y-86381151D01*
X142358983Y-86186852D01*
X142358980Y-86186849D01*
X142358979Y-86186847D01*
X142201784Y-86016087D01*
X142201779Y-86016083D01*
X142201777Y-86016081D01*
X142018634Y-85873535D01*
X142018628Y-85873531D01*
X141814504Y-85763064D01*
X141814495Y-85763061D01*
X141594984Y-85687702D01*
X141423282Y-85659050D01*
X141366049Y-85649500D01*
X141133951Y-85649500D01*
X141088164Y-85657140D01*
X140905015Y-85687702D01*
X140685504Y-85763061D01*
X140685495Y-85763064D01*
X140481371Y-85873531D01*
X140481365Y-85873535D01*
X140298222Y-86016081D01*
X140298219Y-86016084D01*
X140141015Y-86186854D01*
X140103808Y-86243804D01*
X140050662Y-86289161D01*
X139981430Y-86298584D01*
X139918095Y-86269082D01*
X139896192Y-86243804D01*
X139858984Y-86186854D01*
X139858982Y-86186852D01*
X139858979Y-86186847D01*
X139701784Y-86016087D01*
X139701779Y-86016083D01*
X139701777Y-86016081D01*
X139518634Y-85873535D01*
X139518628Y-85873531D01*
X139314504Y-85763064D01*
X139314495Y-85763061D01*
X139094984Y-85687702D01*
X138923282Y-85659050D01*
X138866049Y-85649500D01*
X138633951Y-85649500D01*
X138588164Y-85657140D01*
X138405015Y-85687702D01*
X138185504Y-85763061D01*
X138185495Y-85763064D01*
X137981371Y-85873531D01*
X137981365Y-85873535D01*
X137798222Y-86016081D01*
X137798219Y-86016084D01*
X137641018Y-86186850D01*
X137603510Y-86244262D01*
X137550363Y-86289618D01*
X137481132Y-86299042D01*
X137417796Y-86269540D01*
X137403084Y-86252562D01*
X137401186Y-86252365D01*
X136732962Y-86920589D01*
X136715925Y-86857007D01*
X136650099Y-86742993D01*
X136557007Y-86649901D01*
X136442993Y-86584075D01*
X136379409Y-86567037D01*
X137048797Y-85897647D01*
X137048797Y-85897645D01*
X137018360Y-85873955D01*
X137018354Y-85873951D01*
X136814302Y-85763523D01*
X136814293Y-85763520D01*
X136594860Y-85688188D01*
X136366007Y-85650000D01*
X136133993Y-85650000D01*
X135905139Y-85688188D01*
X135685706Y-85763520D01*
X135685697Y-85763523D01*
X135481650Y-85873949D01*
X135451200Y-85897647D01*
X136120591Y-86567037D01*
X136057007Y-86584075D01*
X135942993Y-86649901D01*
X135849901Y-86742993D01*
X135784075Y-86857007D01*
X135767037Y-86920591D01*
X135098811Y-86252365D01*
X135014516Y-86381390D01*
X134921317Y-86593864D01*
X134864361Y-86818781D01*
X134845202Y-87049994D01*
X134845202Y-87050005D01*
X120155300Y-87050005D01*
X120155300Y-87049993D01*
X120136135Y-86818702D01*
X120136133Y-86818691D01*
X120079157Y-86593699D01*
X119985924Y-86381151D01*
X119858983Y-86186852D01*
X119858980Y-86186849D01*
X119858979Y-86186847D01*
X119701784Y-86016087D01*
X119701779Y-86016083D01*
X119701777Y-86016081D01*
X119518634Y-85873535D01*
X119518628Y-85873531D01*
X119314504Y-85763064D01*
X119314495Y-85763061D01*
X119094984Y-85687702D01*
X118923282Y-85659050D01*
X118866049Y-85649500D01*
X118633951Y-85649500D01*
X118588164Y-85657140D01*
X118405015Y-85687702D01*
X118185504Y-85763061D01*
X118185495Y-85763064D01*
X117981371Y-85873531D01*
X117981365Y-85873535D01*
X117798222Y-86016081D01*
X117798219Y-86016084D01*
X117641015Y-86186854D01*
X117603808Y-86243804D01*
X117550662Y-86289161D01*
X117481430Y-86298584D01*
X117418095Y-86269082D01*
X117396192Y-86243804D01*
X117358984Y-86186854D01*
X117358982Y-86186852D01*
X117358979Y-86186847D01*
X117201784Y-86016087D01*
X117201779Y-86016083D01*
X117201777Y-86016081D01*
X117018634Y-85873535D01*
X117018628Y-85873531D01*
X116814504Y-85763064D01*
X116814495Y-85763061D01*
X116594984Y-85687702D01*
X116423282Y-85659050D01*
X116366049Y-85649500D01*
X116133951Y-85649500D01*
X116088164Y-85657140D01*
X115905015Y-85687702D01*
X115685504Y-85763061D01*
X115685495Y-85763064D01*
X115481371Y-85873531D01*
X115481365Y-85873535D01*
X115298222Y-86016081D01*
X115298219Y-86016084D01*
X115141018Y-86186850D01*
X115103510Y-86244262D01*
X115050363Y-86289618D01*
X114981132Y-86299042D01*
X114917796Y-86269540D01*
X114903084Y-86252562D01*
X114901186Y-86252365D01*
X114232962Y-86920589D01*
X114215925Y-86857007D01*
X114150099Y-86742993D01*
X114057007Y-86649901D01*
X113942993Y-86584075D01*
X113879409Y-86567037D01*
X114548797Y-85897647D01*
X114548797Y-85897645D01*
X114518360Y-85873955D01*
X114518354Y-85873951D01*
X114314302Y-85763523D01*
X114314293Y-85763520D01*
X114094860Y-85688188D01*
X113866007Y-85650000D01*
X113633993Y-85650000D01*
X113405139Y-85688188D01*
X113185706Y-85763520D01*
X113185697Y-85763523D01*
X112981650Y-85873949D01*
X112951200Y-85897647D01*
X113620591Y-86567037D01*
X113557007Y-86584075D01*
X113442993Y-86649901D01*
X113349901Y-86742993D01*
X113284075Y-86857007D01*
X113267037Y-86920591D01*
X112598811Y-86252365D01*
X112514516Y-86381390D01*
X112421317Y-86593864D01*
X112364361Y-86818781D01*
X112345202Y-87049994D01*
X112345202Y-87050005D01*
X106583260Y-87050005D01*
X106583260Y-85792958D01*
X106602945Y-85725919D01*
X106655749Y-85680164D01*
X106724907Y-85670220D01*
X106788463Y-85699245D01*
X106826237Y-85758023D01*
X106829004Y-85769415D01*
X106830015Y-85774640D01*
X106867495Y-85873955D01*
X106912685Y-85993703D01*
X107031189Y-86195645D01*
X107031194Y-86195652D01*
X107182116Y-86374655D01*
X107182118Y-86374657D01*
X107361121Y-86525579D01*
X107361128Y-86525584D01*
X107563070Y-86644088D01*
X107782134Y-86726759D01*
X108012019Y-86771219D01*
X108064638Y-86774014D01*
X108064646Y-86774014D01*
X110001874Y-86774014D01*
X110001882Y-86774014D01*
X110054501Y-86771219D01*
X110284386Y-86726759D01*
X110503450Y-86644088D01*
X110705392Y-86525584D01*
X110884402Y-86374656D01*
X111035330Y-86195646D01*
X111153834Y-85993704D01*
X111236505Y-85774640D01*
X111280965Y-85544755D01*
X111283760Y-85492136D01*
X111283760Y-83554892D01*
X111280965Y-83502273D01*
X111236505Y-83272388D01*
X111153834Y-83053324D01*
X111035330Y-82851382D01*
X111035325Y-82851375D01*
X110884405Y-82672374D01*
X110760274Y-82567716D01*
X110721710Y-82509454D01*
X110720766Y-82439590D01*
X110757743Y-82380307D01*
X110820901Y-82350427D01*
X110885851Y-82357622D01*
X111075775Y-82432819D01*
X111075774Y-82432819D01*
X111220297Y-82469926D01*
X111380527Y-82511066D01*
X111446010Y-82519338D01*
X111692670Y-82550499D01*
X111692679Y-82550499D01*
X111692682Y-82550500D01*
X111692684Y-82550500D01*
X112007316Y-82550500D01*
X112007318Y-82550500D01*
X112007321Y-82550499D01*
X112007329Y-82550499D01*
X112237290Y-82521448D01*
X112319473Y-82511066D01*
X112624225Y-82432819D01*
X112699691Y-82402940D01*
X112916757Y-82316998D01*
X112916758Y-82316997D01*
X112916756Y-82316997D01*
X112916766Y-82316994D01*
X113192484Y-82165416D01*
X113447030Y-81980478D01*
X113676390Y-81765094D01*
X113876947Y-81522663D01*
X114045537Y-81257007D01*
X114179503Y-80972315D01*
X114276731Y-80673079D01*
X114335688Y-80364015D01*
X114348908Y-80153888D01*
X114355444Y-80050005D01*
X118144555Y-80050005D01*
X118164309Y-80364004D01*
X118164310Y-80364011D01*
X118164311Y-80364015D01*
X118204959Y-80577102D01*
X118223269Y-80673083D01*
X118320496Y-80972316D01*
X118320498Y-80972321D01*
X118454460Y-81257003D01*
X118454463Y-81257009D01*
X118623050Y-81522661D01*
X118623053Y-81522665D01*
X118823605Y-81765090D01*
X118823607Y-81765092D01*
X119052967Y-81980476D01*
X119052977Y-81980484D01*
X119307503Y-82165408D01*
X119307508Y-82165410D01*
X119307515Y-82165416D01*
X119583233Y-82316994D01*
X119583238Y-82316996D01*
X119583240Y-82316997D01*
X119583241Y-82316998D01*
X119875770Y-82432818D01*
X119875773Y-82432819D01*
X120020296Y-82469926D01*
X120180526Y-82511066D01*
X120246009Y-82519338D01*
X120492669Y-82550499D01*
X120492678Y-82550499D01*
X120492681Y-82550500D01*
X120492683Y-82550500D01*
X120807315Y-82550500D01*
X120807317Y-82550500D01*
X120807320Y-82550499D01*
X120807328Y-82550499D01*
X121037289Y-82521448D01*
X121119472Y-82511066D01*
X121424224Y-82432819D01*
X121499690Y-82402940D01*
X121716756Y-82316998D01*
X121716757Y-82316997D01*
X121716755Y-82316997D01*
X121716765Y-82316994D01*
X121992483Y-82165416D01*
X122247029Y-81980478D01*
X122476389Y-81765094D01*
X122676946Y-81522663D01*
X122845536Y-81257007D01*
X122979502Y-80972315D01*
X123076730Y-80673079D01*
X123135687Y-80364015D01*
X123148907Y-80153888D01*
X123155443Y-80050005D01*
X131844556Y-80050005D01*
X131864310Y-80364004D01*
X131864311Y-80364011D01*
X131864312Y-80364015D01*
X131904960Y-80577102D01*
X131923270Y-80673083D01*
X132020497Y-80972316D01*
X132020499Y-80972321D01*
X132154461Y-81257003D01*
X132154464Y-81257009D01*
X132323051Y-81522661D01*
X132323054Y-81522665D01*
X132523606Y-81765090D01*
X132523608Y-81765092D01*
X132752968Y-81980476D01*
X132752978Y-81980484D01*
X133007504Y-82165408D01*
X133007509Y-82165410D01*
X133007516Y-82165416D01*
X133283234Y-82316994D01*
X133283239Y-82316996D01*
X133283241Y-82316997D01*
X133283242Y-82316998D01*
X133575771Y-82432818D01*
X133575774Y-82432819D01*
X133720297Y-82469926D01*
X133880527Y-82511066D01*
X133946010Y-82519338D01*
X134192670Y-82550499D01*
X134192679Y-82550499D01*
X134192682Y-82550500D01*
X134192684Y-82550500D01*
X134507316Y-82550500D01*
X134507318Y-82550500D01*
X134507321Y-82550499D01*
X134507329Y-82550499D01*
X134737290Y-82521448D01*
X134819473Y-82511066D01*
X135124225Y-82432819D01*
X135199691Y-82402940D01*
X135416757Y-82316998D01*
X135416758Y-82316997D01*
X135416756Y-82316997D01*
X135416766Y-82316994D01*
X135692484Y-82165416D01*
X135947030Y-81980478D01*
X136176390Y-81765094D01*
X136376947Y-81522663D01*
X136545537Y-81257007D01*
X136679503Y-80972315D01*
X136776731Y-80673079D01*
X136835688Y-80364015D01*
X136848908Y-80153888D01*
X136855444Y-80050005D01*
X140644555Y-80050005D01*
X140664309Y-80364004D01*
X140664310Y-80364011D01*
X140664311Y-80364015D01*
X140704959Y-80577102D01*
X140723269Y-80673083D01*
X140820496Y-80972316D01*
X140820498Y-80972321D01*
X140954460Y-81257003D01*
X140954463Y-81257009D01*
X141123050Y-81522661D01*
X141123053Y-81522665D01*
X141323605Y-81765090D01*
X141323607Y-81765092D01*
X141552967Y-81980476D01*
X141552977Y-81980484D01*
X141807503Y-82165408D01*
X141807508Y-82165410D01*
X141807515Y-82165416D01*
X142083233Y-82316994D01*
X142083238Y-82316996D01*
X142083240Y-82316997D01*
X142083241Y-82316998D01*
X142375770Y-82432818D01*
X142375773Y-82432819D01*
X142520296Y-82469926D01*
X142680526Y-82511066D01*
X142746009Y-82519338D01*
X142992669Y-82550499D01*
X142992678Y-82550499D01*
X142992681Y-82550500D01*
X142992683Y-82550500D01*
X143307315Y-82550500D01*
X143307317Y-82550500D01*
X143307320Y-82550499D01*
X143307328Y-82550499D01*
X143537289Y-82521448D01*
X143619472Y-82511066D01*
X143924224Y-82432819D01*
X143999690Y-82402940D01*
X144216756Y-82316998D01*
X144216757Y-82316997D01*
X144216755Y-82316997D01*
X144216765Y-82316994D01*
X144492483Y-82165416D01*
X144747029Y-81980478D01*
X144976389Y-81765094D01*
X145176946Y-81522663D01*
X145345536Y-81257007D01*
X145479502Y-80972315D01*
X145576730Y-80673079D01*
X145635687Y-80364015D01*
X145648907Y-80153888D01*
X145655443Y-80050005D01*
X145655443Y-80049994D01*
X145635688Y-79735995D01*
X145635687Y-79735988D01*
X145635687Y-79735985D01*
X145576730Y-79426921D01*
X145479502Y-79127685D01*
X145479095Y-79126821D01*
X145423694Y-79009087D01*
X145345536Y-78842993D01*
X145176946Y-78577337D01*
X145133689Y-78525048D01*
X144976392Y-78334909D01*
X144976390Y-78334907D01*
X144747030Y-78119523D01*
X144747020Y-78119515D01*
X144492494Y-77934591D01*
X144492487Y-77934586D01*
X144492483Y-77934584D01*
X144216765Y-77783006D01*
X144216762Y-77783004D01*
X144216757Y-77783002D01*
X144216756Y-77783001D01*
X143924227Y-77667181D01*
X143924224Y-77667180D01*
X143619475Y-77588934D01*
X143619462Y-77588932D01*
X143307328Y-77549500D01*
X143307317Y-77549500D01*
X142992681Y-77549500D01*
X142992669Y-77549500D01*
X142680535Y-77588932D01*
X142680522Y-77588934D01*
X142375773Y-77667180D01*
X142375770Y-77667181D01*
X142083241Y-77783001D01*
X142083240Y-77783002D01*
X141807515Y-77934584D01*
X141807503Y-77934591D01*
X141552977Y-78119515D01*
X141552967Y-78119523D01*
X141323607Y-78334907D01*
X141323605Y-78334909D01*
X141123053Y-78577334D01*
X141123050Y-78577338D01*
X140954463Y-78842990D01*
X140954460Y-78842996D01*
X140820498Y-79127678D01*
X140820496Y-79127683D01*
X140723269Y-79426916D01*
X140664310Y-79735988D01*
X140664309Y-79735995D01*
X140644555Y-80049994D01*
X140644555Y-80050005D01*
X136855444Y-80050005D01*
X136855444Y-80049994D01*
X136835689Y-79735995D01*
X136835688Y-79735988D01*
X136835688Y-79735985D01*
X136776731Y-79426921D01*
X136679503Y-79127685D01*
X136679096Y-79126821D01*
X136623695Y-79009087D01*
X136545537Y-78842993D01*
X136376947Y-78577337D01*
X136333690Y-78525048D01*
X136176393Y-78334909D01*
X136176391Y-78334907D01*
X135947031Y-78119523D01*
X135947021Y-78119515D01*
X135692495Y-77934591D01*
X135692488Y-77934586D01*
X135692484Y-77934584D01*
X135416766Y-77783006D01*
X135416763Y-77783004D01*
X135416758Y-77783002D01*
X135416757Y-77783001D01*
X135124228Y-77667181D01*
X135124225Y-77667180D01*
X134819476Y-77588934D01*
X134819463Y-77588932D01*
X134507329Y-77549500D01*
X134507318Y-77549500D01*
X134192682Y-77549500D01*
X134192670Y-77549500D01*
X133880536Y-77588932D01*
X133880523Y-77588934D01*
X133575774Y-77667180D01*
X133575771Y-77667181D01*
X133283242Y-77783001D01*
X133283241Y-77783002D01*
X133007516Y-77934584D01*
X133007504Y-77934591D01*
X132752978Y-78119515D01*
X132752968Y-78119523D01*
X132523608Y-78334907D01*
X132523606Y-78334909D01*
X132323054Y-78577334D01*
X132323051Y-78577338D01*
X132154464Y-78842990D01*
X132154461Y-78842996D01*
X132020499Y-79127678D01*
X132020497Y-79127683D01*
X131923270Y-79426916D01*
X131864311Y-79735988D01*
X131864310Y-79735995D01*
X131844556Y-80049994D01*
X131844556Y-80050005D01*
X123155443Y-80050005D01*
X123155443Y-80049994D01*
X123135688Y-79735995D01*
X123135687Y-79735988D01*
X123135687Y-79735985D01*
X123076730Y-79426921D01*
X122979502Y-79127685D01*
X122979095Y-79126821D01*
X122923694Y-79009087D01*
X122845536Y-78842993D01*
X122676946Y-78577337D01*
X122633689Y-78525048D01*
X122476392Y-78334909D01*
X122476390Y-78334907D01*
X122247030Y-78119523D01*
X122247020Y-78119515D01*
X121992494Y-77934591D01*
X121992487Y-77934586D01*
X121992483Y-77934584D01*
X121716765Y-77783006D01*
X121716762Y-77783004D01*
X121716757Y-77783002D01*
X121716756Y-77783001D01*
X121424227Y-77667181D01*
X121424224Y-77667180D01*
X121119475Y-77588934D01*
X121119462Y-77588932D01*
X120807328Y-77549500D01*
X120807317Y-77549500D01*
X120492681Y-77549500D01*
X120492669Y-77549500D01*
X120180535Y-77588932D01*
X120180522Y-77588934D01*
X119875773Y-77667180D01*
X119875770Y-77667181D01*
X119583241Y-77783001D01*
X119583240Y-77783002D01*
X119307515Y-77934584D01*
X119307503Y-77934591D01*
X119052977Y-78119515D01*
X119052967Y-78119523D01*
X118823607Y-78334907D01*
X118823605Y-78334909D01*
X118623053Y-78577334D01*
X118623050Y-78577338D01*
X118454463Y-78842990D01*
X118454460Y-78842996D01*
X118320498Y-79127678D01*
X118320496Y-79127683D01*
X118223269Y-79426916D01*
X118164310Y-79735988D01*
X118164309Y-79735995D01*
X118144555Y-80049994D01*
X118144555Y-80050005D01*
X114355444Y-80050005D01*
X114355444Y-80049994D01*
X114335689Y-79735995D01*
X114335688Y-79735988D01*
X114335688Y-79735985D01*
X114276731Y-79426921D01*
X114179503Y-79127685D01*
X114179096Y-79126821D01*
X114123695Y-79009087D01*
X114045537Y-78842993D01*
X113876947Y-78577337D01*
X113833690Y-78525048D01*
X113676393Y-78334909D01*
X113676391Y-78334907D01*
X113447031Y-78119523D01*
X113447021Y-78119515D01*
X113192495Y-77934591D01*
X113192488Y-77934586D01*
X113192484Y-77934584D01*
X112916766Y-77783006D01*
X112916763Y-77783004D01*
X112916758Y-77783002D01*
X112916757Y-77783001D01*
X112624228Y-77667181D01*
X112624225Y-77667180D01*
X112319476Y-77588934D01*
X112319463Y-77588932D01*
X112007329Y-77549500D01*
X112007318Y-77549500D01*
X111692682Y-77549500D01*
X111692670Y-77549500D01*
X111380536Y-77588932D01*
X111380523Y-77588934D01*
X111075774Y-77667180D01*
X111075771Y-77667181D01*
X110783242Y-77783001D01*
X110783241Y-77783002D01*
X110507516Y-77934584D01*
X110507504Y-77934591D01*
X110252978Y-78119515D01*
X110252968Y-78119523D01*
X110023608Y-78334907D01*
X110023606Y-78334909D01*
X109823054Y-78577334D01*
X109823051Y-78577338D01*
X109654464Y-78842990D01*
X109654461Y-78842996D01*
X109520499Y-79127678D01*
X109520497Y-79127683D01*
X109423270Y-79426916D01*
X109364311Y-79735988D01*
X109364310Y-79735995D01*
X109344556Y-80049994D01*
X109344556Y-80050005D01*
X109364310Y-80364004D01*
X109364311Y-80364011D01*
X109364312Y-80364015D01*
X109404960Y-80577102D01*
X109423270Y-80673083D01*
X109520497Y-80972316D01*
X109520499Y-80972321D01*
X109654461Y-81257003D01*
X109654464Y-81257009D01*
X109823051Y-81522661D01*
X109823054Y-81522665D01*
X110023606Y-81765090D01*
X110023608Y-81765092D01*
X110252968Y-81980476D01*
X110252978Y-81980484D01*
X110446507Y-82121091D01*
X110489173Y-82176421D01*
X110495152Y-82246034D01*
X110462547Y-82307829D01*
X110401708Y-82342186D01*
X110331952Y-82338198D01*
X110329842Y-82337423D01*
X110284383Y-82320268D01*
X110054503Y-82275809D01*
X110001912Y-82273015D01*
X110001889Y-82273014D01*
X110001882Y-82273014D01*
X108064638Y-82273014D01*
X108064630Y-82273014D01*
X108064607Y-82273015D01*
X108012016Y-82275809D01*
X108012015Y-82275809D01*
X107782138Y-82320268D01*
X107782136Y-82320268D01*
X107782134Y-82320269D01*
X107724058Y-82342186D01*
X107563070Y-82402939D01*
X107361128Y-82521443D01*
X107361121Y-82521448D01*
X107182118Y-82672370D01*
X107182116Y-82672372D01*
X107031194Y-82851375D01*
X107031189Y-82851382D01*
X106912685Y-83053324D01*
X106857919Y-83198447D01*
X106830015Y-83272388D01*
X106830014Y-83272390D01*
X106830014Y-83272392D01*
X106785555Y-83502269D01*
X106785555Y-83502270D01*
X106782761Y-83554861D01*
X106782760Y-83554900D01*
X106782760Y-85492127D01*
X106782761Y-85492166D01*
X106784782Y-85530206D01*
X106768682Y-85598196D01*
X106718380Y-85646688D01*
X106649847Y-85660286D01*
X106584840Y-85634674D01*
X106544775Y-85580119D01*
X106526613Y-85531425D01*
X106526610Y-85531420D01*
X106440450Y-85416326D01*
X106440447Y-85416323D01*
X106325353Y-85330163D01*
X106325346Y-85330159D01*
X106190639Y-85279917D01*
X106190632Y-85279915D01*
X106131104Y-85273514D01*
X104583260Y-85273514D01*
X104583260Y-87023514D01*
X104083260Y-87023514D01*
X104083260Y-85273514D01*
X102535415Y-85273514D01*
X102475887Y-85279915D01*
X102475880Y-85279917D01*
X102341173Y-85330159D01*
X102341166Y-85330163D01*
X102226072Y-85416323D01*
X102226069Y-85416326D01*
X102139909Y-85531420D01*
X102139905Y-85531427D01*
X102089663Y-85666134D01*
X102089661Y-85666141D01*
X102083260Y-85725669D01*
X102083260Y-87273514D01*
X102900248Y-87273514D01*
X102867335Y-87330521D01*
X102833260Y-87457688D01*
X102833260Y-87589340D01*
X102867335Y-87716507D01*
X102900248Y-87773514D01*
X102083260Y-87773514D01*
X102083260Y-89321358D01*
X81750500Y-89321358D01*
X81750500Y-87050005D01*
X89845202Y-87050005D01*
X89864361Y-87281218D01*
X89921317Y-87506135D01*
X90014515Y-87718606D01*
X90098812Y-87847633D01*
X90767037Y-87179408D01*
X90784075Y-87242993D01*
X90849901Y-87357007D01*
X90942993Y-87450099D01*
X91057007Y-87515925D01*
X91120590Y-87532962D01*
X90451201Y-88202351D01*
X90481649Y-88226050D01*
X90685697Y-88336476D01*
X90685706Y-88336479D01*
X90905139Y-88411811D01*
X91133993Y-88450000D01*
X91366007Y-88450000D01*
X91594860Y-88411811D01*
X91814293Y-88336479D01*
X91814301Y-88336476D01*
X92018355Y-88226047D01*
X92048797Y-88202351D01*
X92048798Y-88202350D01*
X91379410Y-87532962D01*
X91442993Y-87515925D01*
X91557007Y-87450099D01*
X91650099Y-87357007D01*
X91715925Y-87242993D01*
X91732962Y-87179409D01*
X92401186Y-87847633D01*
X92405967Y-87847137D01*
X92449036Y-87810380D01*
X92518268Y-87800956D01*
X92581604Y-87830457D01*
X92603509Y-87855737D01*
X92641016Y-87913147D01*
X92641019Y-87913151D01*
X92641021Y-87913153D01*
X92798216Y-88083913D01*
X92798219Y-88083915D01*
X92798222Y-88083918D01*
X92981365Y-88226464D01*
X92981371Y-88226468D01*
X92981374Y-88226470D01*
X93148860Y-88317109D01*
X93184652Y-88336479D01*
X93185497Y-88336936D01*
X93299487Y-88376068D01*
X93405015Y-88412297D01*
X93405017Y-88412297D01*
X93405019Y-88412298D01*
X93633951Y-88450500D01*
X93633952Y-88450500D01*
X93866048Y-88450500D01*
X93866049Y-88450500D01*
X94094981Y-88412298D01*
X94314503Y-88336936D01*
X94518626Y-88226470D01*
X94519170Y-88226047D01*
X94580129Y-88178600D01*
X94701784Y-88083913D01*
X94858979Y-87913153D01*
X94896191Y-87856196D01*
X94949337Y-87810839D01*
X95018569Y-87801415D01*
X95081904Y-87830917D01*
X95103809Y-87856196D01*
X95141016Y-87913147D01*
X95141019Y-87913151D01*
X95141021Y-87913153D01*
X95298216Y-88083913D01*
X95298219Y-88083915D01*
X95298222Y-88083918D01*
X95481365Y-88226464D01*
X95481371Y-88226468D01*
X95481374Y-88226470D01*
X95648860Y-88317109D01*
X95684652Y-88336479D01*
X95685497Y-88336936D01*
X95799487Y-88376068D01*
X95905015Y-88412297D01*
X95905017Y-88412297D01*
X95905019Y-88412298D01*
X96133951Y-88450500D01*
X96133952Y-88450500D01*
X96366048Y-88450500D01*
X96366049Y-88450500D01*
X96594981Y-88412298D01*
X96814503Y-88336936D01*
X97018626Y-88226470D01*
X97019170Y-88226047D01*
X97080129Y-88178600D01*
X97201784Y-88083913D01*
X97358979Y-87913153D01*
X97485924Y-87718849D01*
X97579157Y-87506300D01*
X97636134Y-87281305D01*
X97636135Y-87281297D01*
X97655300Y-87050006D01*
X97655300Y-87049993D01*
X97636135Y-86818702D01*
X97636133Y-86818691D01*
X97579157Y-86593699D01*
X97485924Y-86381151D01*
X97358983Y-86186852D01*
X97358980Y-86186849D01*
X97358979Y-86186847D01*
X97201784Y-86016087D01*
X97201779Y-86016083D01*
X97201777Y-86016081D01*
X97018634Y-85873535D01*
X97018628Y-85873531D01*
X96814504Y-85763064D01*
X96814495Y-85763061D01*
X96594984Y-85687702D01*
X96423282Y-85659050D01*
X96366049Y-85649500D01*
X96133951Y-85649500D01*
X96088164Y-85657140D01*
X95905015Y-85687702D01*
X95685504Y-85763061D01*
X95685495Y-85763064D01*
X95481371Y-85873531D01*
X95481365Y-85873535D01*
X95298222Y-86016081D01*
X95298219Y-86016084D01*
X95141015Y-86186854D01*
X95103808Y-86243804D01*
X95050662Y-86289161D01*
X94981430Y-86298584D01*
X94918095Y-86269082D01*
X94896192Y-86243804D01*
X94858984Y-86186854D01*
X94858982Y-86186852D01*
X94858979Y-86186847D01*
X94701784Y-86016087D01*
X94701779Y-86016083D01*
X94701777Y-86016081D01*
X94518634Y-85873535D01*
X94518628Y-85873531D01*
X94314504Y-85763064D01*
X94314495Y-85763061D01*
X94094984Y-85687702D01*
X93923282Y-85659050D01*
X93866049Y-85649500D01*
X93633951Y-85649500D01*
X93588164Y-85657140D01*
X93405015Y-85687702D01*
X93185504Y-85763061D01*
X93185495Y-85763064D01*
X92981371Y-85873531D01*
X92981365Y-85873535D01*
X92798222Y-86016081D01*
X92798219Y-86016084D01*
X92641018Y-86186850D01*
X92603510Y-86244262D01*
X92550363Y-86289618D01*
X92481132Y-86299042D01*
X92417796Y-86269540D01*
X92403084Y-86252562D01*
X92401186Y-86252365D01*
X91732962Y-86920589D01*
X91715925Y-86857007D01*
X91650099Y-86742993D01*
X91557007Y-86649901D01*
X91442993Y-86584075D01*
X91379409Y-86567037D01*
X92048797Y-85897647D01*
X92048797Y-85897645D01*
X92018360Y-85873955D01*
X92018354Y-85873951D01*
X91814302Y-85763523D01*
X91814293Y-85763520D01*
X91594860Y-85688188D01*
X91366007Y-85650000D01*
X91133993Y-85650000D01*
X90905139Y-85688188D01*
X90685706Y-85763520D01*
X90685697Y-85763523D01*
X90481650Y-85873949D01*
X90451200Y-85897647D01*
X91120591Y-86567037D01*
X91057007Y-86584075D01*
X90942993Y-86649901D01*
X90849901Y-86742993D01*
X90784075Y-86857007D01*
X90767037Y-86920591D01*
X90098811Y-86252365D01*
X90014516Y-86381390D01*
X89921317Y-86593864D01*
X89864361Y-86818781D01*
X89845202Y-87049994D01*
X89845202Y-87050005D01*
X81750500Y-87050005D01*
X81750500Y-80050005D01*
X86844556Y-80050005D01*
X86864310Y-80364004D01*
X86864311Y-80364011D01*
X86864312Y-80364015D01*
X86904960Y-80577102D01*
X86923270Y-80673083D01*
X87020497Y-80972316D01*
X87020499Y-80972321D01*
X87154461Y-81257003D01*
X87154464Y-81257009D01*
X87323051Y-81522661D01*
X87323054Y-81522665D01*
X87523606Y-81765090D01*
X87523608Y-81765092D01*
X87752968Y-81980476D01*
X87752978Y-81980484D01*
X88007504Y-82165408D01*
X88007509Y-82165410D01*
X88007516Y-82165416D01*
X88283234Y-82316994D01*
X88283239Y-82316996D01*
X88283241Y-82316997D01*
X88283242Y-82316998D01*
X88575771Y-82432818D01*
X88575774Y-82432819D01*
X88720297Y-82469926D01*
X88880527Y-82511066D01*
X88946010Y-82519338D01*
X89192670Y-82550499D01*
X89192679Y-82550499D01*
X89192682Y-82550500D01*
X89192684Y-82550500D01*
X89507316Y-82550500D01*
X89507318Y-82550500D01*
X89507321Y-82550499D01*
X89507329Y-82550499D01*
X89737290Y-82521448D01*
X89819473Y-82511066D01*
X90124225Y-82432819D01*
X90199691Y-82402940D01*
X90416757Y-82316998D01*
X90416758Y-82316997D01*
X90416756Y-82316997D01*
X90416766Y-82316994D01*
X90692484Y-82165416D01*
X90947030Y-81980478D01*
X91176390Y-81765094D01*
X91376947Y-81522663D01*
X91545537Y-81257007D01*
X91679503Y-80972315D01*
X91776731Y-80673079D01*
X91835688Y-80364015D01*
X91848908Y-80153888D01*
X91855444Y-80050005D01*
X95644555Y-80050005D01*
X95664309Y-80364004D01*
X95664310Y-80364011D01*
X95664311Y-80364015D01*
X95704959Y-80577102D01*
X95723269Y-80673083D01*
X95820496Y-80972316D01*
X95820498Y-80972321D01*
X95954460Y-81257003D01*
X95954463Y-81257009D01*
X96123050Y-81522661D01*
X96123053Y-81522665D01*
X96323605Y-81765090D01*
X96323607Y-81765092D01*
X96552967Y-81980476D01*
X96552977Y-81980484D01*
X96807503Y-82165408D01*
X96807508Y-82165410D01*
X96807515Y-82165416D01*
X97083233Y-82316994D01*
X97083238Y-82316996D01*
X97083240Y-82316997D01*
X97083241Y-82316998D01*
X97375770Y-82432818D01*
X97375773Y-82432819D01*
X97520296Y-82469926D01*
X97680526Y-82511066D01*
X97746009Y-82519338D01*
X97992669Y-82550499D01*
X97992678Y-82550499D01*
X97992681Y-82550500D01*
X97992683Y-82550500D01*
X98307315Y-82550500D01*
X98307317Y-82550500D01*
X98307320Y-82550499D01*
X98307328Y-82550499D01*
X98537289Y-82521448D01*
X98619472Y-82511066D01*
X98924224Y-82432819D01*
X98999690Y-82402940D01*
X99164413Y-82337722D01*
X102082760Y-82337722D01*
X102082761Y-82337737D01*
X102093164Y-82469927D01*
X102093165Y-82469934D01*
X102148162Y-82688192D01*
X102148163Y-82688195D01*
X102241251Y-82893136D01*
X102241257Y-82893146D01*
X102369434Y-83078159D01*
X102369438Y-83078164D01*
X102369441Y-83078168D01*
X102528606Y-83237333D01*
X102528610Y-83237336D01*
X102528614Y-83237339D01*
X102667863Y-83333811D01*
X102713634Y-83365521D01*
X102918577Y-83458610D01*
X102918581Y-83458611D01*
X103136839Y-83513608D01*
X103136841Y-83513608D01*
X103136848Y-83513610D01*
X103269043Y-83524014D01*
X105397476Y-83524013D01*
X105529672Y-83513610D01*
X105747943Y-83458610D01*
X105952886Y-83365521D01*
X106137914Y-83237333D01*
X106297079Y-83078168D01*
X106425267Y-82893140D01*
X106518356Y-82688197D01*
X106573356Y-82469926D01*
X106583760Y-82337731D01*
X106583759Y-80709298D01*
X106573356Y-80577102D01*
X106518356Y-80358831D01*
X106425267Y-80153888D01*
X106297079Y-79968860D01*
X106137914Y-79809695D01*
X106137910Y-79809692D01*
X106137905Y-79809688D01*
X105952892Y-79681511D01*
X105952890Y-79681509D01*
X105952886Y-79681507D01*
X105747943Y-79588418D01*
X105747941Y-79588417D01*
X105747938Y-79588416D01*
X105529680Y-79533419D01*
X105529673Y-79533418D01*
X105485607Y-79529950D01*
X105397477Y-79523014D01*
X105397475Y-79523014D01*
X103269051Y-79523014D01*
X103269036Y-79523015D01*
X103136846Y-79533418D01*
X103136839Y-79533419D01*
X102918581Y-79588416D01*
X102918578Y-79588417D01*
X102713637Y-79681505D01*
X102713627Y-79681511D01*
X102528614Y-79809688D01*
X102528602Y-79809698D01*
X102369444Y-79968856D01*
X102369434Y-79968868D01*
X102241257Y-80153881D01*
X102241251Y-80153891D01*
X102148163Y-80358832D01*
X102148162Y-80358835D01*
X102093165Y-80577093D01*
X102093164Y-80577100D01*
X102082760Y-80709291D01*
X102082760Y-82337722D01*
X99164413Y-82337722D01*
X99216756Y-82316998D01*
X99216757Y-82316997D01*
X99216755Y-82316997D01*
X99216765Y-82316994D01*
X99492483Y-82165416D01*
X99747029Y-81980478D01*
X99976389Y-81765094D01*
X100176946Y-81522663D01*
X100345536Y-81257007D01*
X100479502Y-80972315D01*
X100576730Y-80673079D01*
X100635687Y-80364015D01*
X100648907Y-80153888D01*
X100655443Y-80050005D01*
X100655443Y-80049994D01*
X100635688Y-79735995D01*
X100635687Y-79735988D01*
X100635687Y-79735985D01*
X100576730Y-79426921D01*
X100479502Y-79127685D01*
X100479095Y-79126821D01*
X100423694Y-79009087D01*
X100345536Y-78842993D01*
X100176946Y-78577337D01*
X100133689Y-78525048D01*
X99976392Y-78334909D01*
X99976390Y-78334907D01*
X99747030Y-78119523D01*
X99747020Y-78119515D01*
X99492494Y-77934591D01*
X99492487Y-77934586D01*
X99492483Y-77934584D01*
X99216765Y-77783006D01*
X99216762Y-77783004D01*
X99216757Y-77783002D01*
X99216756Y-77783001D01*
X98924227Y-77667181D01*
X98924224Y-77667180D01*
X98619475Y-77588934D01*
X98619462Y-77588932D01*
X98307328Y-77549500D01*
X98307317Y-77549500D01*
X97992681Y-77549500D01*
X97992669Y-77549500D01*
X97680535Y-77588932D01*
X97680522Y-77588934D01*
X97375773Y-77667180D01*
X97375770Y-77667181D01*
X97083241Y-77783001D01*
X97083240Y-77783002D01*
X96807515Y-77934584D01*
X96807503Y-77934591D01*
X96552977Y-78119515D01*
X96552967Y-78119523D01*
X96323607Y-78334907D01*
X96323605Y-78334909D01*
X96123053Y-78577334D01*
X96123050Y-78577338D01*
X95954463Y-78842990D01*
X95954460Y-78842996D01*
X95820498Y-79127678D01*
X95820496Y-79127683D01*
X95723269Y-79426916D01*
X95664310Y-79735988D01*
X95664309Y-79735995D01*
X95644555Y-80049994D01*
X95644555Y-80050005D01*
X91855444Y-80050005D01*
X91855444Y-80049994D01*
X91835689Y-79735995D01*
X91835688Y-79735988D01*
X91835688Y-79735985D01*
X91776731Y-79426921D01*
X91679503Y-79127685D01*
X91679096Y-79126821D01*
X91623695Y-79009087D01*
X91545537Y-78842993D01*
X91376947Y-78577337D01*
X91333690Y-78525048D01*
X91176393Y-78334909D01*
X91176391Y-78334907D01*
X90947031Y-78119523D01*
X90947021Y-78119515D01*
X90692495Y-77934591D01*
X90692488Y-77934586D01*
X90692484Y-77934584D01*
X90416766Y-77783006D01*
X90416763Y-77783004D01*
X90416758Y-77783002D01*
X90416757Y-77783001D01*
X90124228Y-77667181D01*
X90124225Y-77667180D01*
X89819476Y-77588934D01*
X89819463Y-77588932D01*
X89507329Y-77549500D01*
X89507318Y-77549500D01*
X89192682Y-77549500D01*
X89192670Y-77549500D01*
X88880536Y-77588932D01*
X88880523Y-77588934D01*
X88575774Y-77667180D01*
X88575771Y-77667181D01*
X88283242Y-77783001D01*
X88283241Y-77783002D01*
X88007516Y-77934584D01*
X88007504Y-77934591D01*
X87752978Y-78119515D01*
X87752968Y-78119523D01*
X87523608Y-78334907D01*
X87523606Y-78334909D01*
X87323054Y-78577334D01*
X87323051Y-78577338D01*
X87154464Y-78842990D01*
X87154461Y-78842996D01*
X87020499Y-79127678D01*
X87020497Y-79127683D01*
X86923270Y-79426916D01*
X86864311Y-79735988D01*
X86864310Y-79735995D01*
X86844556Y-80049994D01*
X86844556Y-80050005D01*
X81750500Y-80050005D01*
X81750500Y-78030125D01*
X81770185Y-77963086D01*
X81822989Y-77917331D01*
X81892147Y-77907387D01*
X81955703Y-77936412D01*
X81980617Y-77965975D01*
X82023473Y-78036868D01*
X82224954Y-78294039D01*
X82455960Y-78525045D01*
X82713131Y-78726526D01*
X82713134Y-78726528D01*
X82713137Y-78726530D01*
X82992721Y-78895545D01*
X83290639Y-79029627D01*
X83290652Y-79029631D01*
X83290657Y-79029633D01*
X83602547Y-79126821D01*
X83923896Y-79185710D01*
X84250000Y-79205436D01*
X84576104Y-79185710D01*
X84897453Y-79126821D01*
X85209361Y-79029627D01*
X85507279Y-78895545D01*
X85786863Y-78726530D01*
X86044036Y-78525048D01*
X86275048Y-78294036D01*
X86476530Y-78036863D01*
X86645545Y-77757279D01*
X86779627Y-77459361D01*
X86876821Y-77147453D01*
X86935710Y-76826104D01*
X86955436Y-76500000D01*
X86935710Y-76173896D01*
X86876821Y-75852547D01*
X86779633Y-75540657D01*
X86779631Y-75540652D01*
X86779627Y-75540639D01*
X86645545Y-75242721D01*
X86476530Y-74963137D01*
X86476528Y-74963134D01*
X86476526Y-74963131D01*
X86275045Y-74705960D01*
X86044039Y-74474954D01*
X85786868Y-74273473D01*
X85783379Y-74271364D01*
X85715974Y-74230616D01*
X85668788Y-74179089D01*
X85656949Y-74110230D01*
X85684218Y-74045901D01*
X85741936Y-74006527D01*
X85780125Y-74000500D01*
X146719875Y-74000500D01*
X146786914Y-74020185D01*
G37*
%TD.AperFunction*%
%TD*%
M02*
