M48
; DRILL file {KiCad 8.0.1} date 2024-04-21T18:30:59+0200
; FORMAT={-:-/ absolute / inch / decimal}
; #@! TF.CreationDate,2024-04-21T18:30:59+02:00
; #@! TF.GenerationSoftware,Kicad,Pcbnew,8.0.1
; #@! TF.FileFunction,Plated,1,2,PTH
FMAT,2
INCH
; #@! TA.AperFunction,Plated,PTH,ViaDrill
T1C0.0118
; #@! TA.AperFunction,Plated,PTH,ComponentDrill
T2C0.0157
; #@! TA.AperFunction,Plated,PTH,ComponentDrill
T3C0.0354
; #@! TA.AperFunction,Plated,PTH,ComponentDrill
T4C0.0394
; #@! TA.AperFunction,Plated,PTH,ComponentDrill
T5C0.0472
; #@! TA.AperFunction,Plated,PTH,ComponentDrill
T6C0.0591
; #@! TA.AperFunction,Plated,PTH,ComponentDrill
T7C0.0787
; #@! TA.AperFunction,Plated,PTH,ComponentDrill
T8C0.0866
; #@! TA.AperFunction,Plated,PTH,ComponentDrill
T9C0.0984
%
G90
G05
T1
X3.2579Y-4.2815
X3.2579Y-4.3602
X3.2579Y-4.4193
X3.2579Y-4.5965
X3.3169Y-3.3661
X3.376Y-4.0945
X3.4055Y-4.1634
X3.4252Y-4.124
X3.435Y-5.7087
X3.4744Y-4.2323
X3.5039Y-4.2717
X3.5039Y-4.3209
X3.5039Y-4.3701
X3.5236Y-4.4488
X3.5531Y-5.7087
X3.563Y-4.5866
X3.6909Y-3.9272
X3.6909Y-3.9862
X3.7205Y-3.9567
X3.7598Y-4.1142
X3.8878Y-6.2402
X4.2421Y-5.4035
X4.2815Y-4.9902
X4.2913Y-5.3642
X4.3307Y-5.8563
X4.4587Y-5.1083
X4.4587Y-5.3839
X4.4587Y-5.4724
X4.5079Y-5.3839
X4.5079Y-5.4724
X4.5177Y-4.9902
X4.5276Y-5.8366
X4.5571Y-5.3839
X4.5571Y-5.4724
X4.8228Y-4.3307
X4.8228Y-4.4291
X4.8228Y-4.8425
X5.4528Y-6.2402
T2
X3.252Y-3.0118
X3.252Y-6.3189
X3.271Y-2.9659
X3.271Y-3.0577
X3.271Y-6.273
X3.271Y-6.3648
X3.3169Y-2.9469
X3.3169Y-3.0768
X3.3169Y-6.2539
X3.3169Y-6.3839
X3.3629Y-2.9659
X3.3629Y-3.0577
X3.3629Y-6.273
X3.3629Y-6.3648
X3.3819Y-3.0118
X3.3819Y-6.3189
X5.7717Y-3.0118
X5.7717Y-6.3189
X5.7907Y-2.9659
X5.7907Y-3.0577
X5.7907Y-6.273
X5.7907Y-6.3648
X5.8366Y-2.9469
X5.8366Y-3.0768
X5.8366Y-6.2539
X5.8366Y-6.3839
X5.8825Y-2.9659
X5.8825Y-3.0577
X5.8825Y-6.273
X5.8825Y-6.3648
X5.9016Y-3.0118
X5.9016Y-6.3189
T3
X5.502Y-3.8413
X5.502Y-3.9413
X5.502Y-4.0413
X5.502Y-4.1413
X5.502Y-4.2413
X5.502Y-4.3413
X5.502Y-4.4413
X5.502Y-4.5413
X5.502Y-4.6413
X5.502Y-4.7413
T4
X3.5925Y-3.4272
X3.6909Y-3.4272
X3.7894Y-3.4272
X4.4783Y-3.4272
X4.4783Y-5.7579
X4.4783Y-6.3287
X4.5768Y-3.4272
X4.5768Y-6.3287
X4.6752Y-3.4272
X4.6752Y-5.7579
X4.6752Y-6.3287
X5.3642Y-3.4272
X5.4626Y-3.4272
X5.561Y-3.4272
T5
X3.4941Y-5.9449
X4.0846Y-5.9449
X5.0689Y-5.9449
X5.6594Y-5.9449
T6
X3.6535Y-5.1463
X3.6535Y-5.5963
X3.9035Y-5.1463
X3.9035Y-5.5963
X4.1535Y-5.1463
X4.1535Y-5.5963
X5.0Y-5.1518
X5.0Y-5.6018
X5.25Y-5.1518
X5.25Y-5.6018
X5.5Y-5.1518
X5.5Y-5.6018
T8
X3.3169Y-3.0118
X3.3169Y-6.3189
X5.8366Y-3.0118
X5.8366Y-6.3189
T9
X5.8274Y-3.9961
T4
G00X4.147Y-3.2096
M15
G01X4.0682Y-3.2096
M16
G05
G00X4.147Y-3.4458
M15
G01X4.0682Y-3.4458
M16
G05
G00X4.2926Y-3.2883
M15
G01X4.2926Y-3.3671
M16
G05
T7
G00X4.3563Y-6.0551
M15
G01X4.3563Y-6.0118
M16
G05
G00X4.7972Y-6.0551
M15
G01X4.7972Y-6.0118
M16
G05
M30
