%TF.GenerationSoftware,KiCad,Pcbnew,8.0.1*%
%TF.CreationDate,2024-04-21T18:31:03+02:00*%
%TF.ProjectId,Hypersonic_pedal_pcb,48797065-7273-46f6-9e69-635f70656461,rev?*%
%TF.SameCoordinates,Original*%
%TF.FileFunction,Legend,Top*%
%TF.FilePolarity,Positive*%
%FSLAX46Y46*%
G04 Gerber Fmt 4.6, Leading zero omitted, Abs format (unit mm)*
G04 Created by KiCad (PCBNEW 8.0.1) date 2024-04-21 18:31:03*
%MOMM*%
%LPD*%
G01*
G04 APERTURE LIST*
%ADD10C,0.100000*%
%ADD11C,0.200000*%
%ADD12C,0.300000*%
%ADD13C,0.120000*%
G04 APERTURE END LIST*
D10*
X98839598Y-103872419D02*
X98839598Y-104586704D01*
X98839598Y-104586704D02*
X98791979Y-104729561D01*
X98791979Y-104729561D02*
X98696741Y-104824800D01*
X98696741Y-104824800D02*
X98553884Y-104872419D01*
X98553884Y-104872419D02*
X98458646Y-104872419D01*
X99791979Y-104872419D02*
X99315789Y-104872419D01*
X99315789Y-104872419D02*
X99315789Y-103872419D01*
X100696741Y-104777180D02*
X100649122Y-104824800D01*
X100649122Y-104824800D02*
X100506265Y-104872419D01*
X100506265Y-104872419D02*
X100411027Y-104872419D01*
X100411027Y-104872419D02*
X100268170Y-104824800D01*
X100268170Y-104824800D02*
X100172932Y-104729561D01*
X100172932Y-104729561D02*
X100125313Y-104634323D01*
X100125313Y-104634323D02*
X100077694Y-104443847D01*
X100077694Y-104443847D02*
X100077694Y-104300990D01*
X100077694Y-104300990D02*
X100125313Y-104110514D01*
X100125313Y-104110514D02*
X100172932Y-104015276D01*
X100172932Y-104015276D02*
X100268170Y-103920038D01*
X100268170Y-103920038D02*
X100411027Y-103872419D01*
X100411027Y-103872419D02*
X100506265Y-103872419D01*
X100506265Y-103872419D02*
X100649122Y-103920038D01*
X100649122Y-103920038D02*
X100696741Y-103967657D01*
X101411027Y-103872419D02*
X101411027Y-104586704D01*
X101411027Y-104586704D02*
X101363408Y-104729561D01*
X101363408Y-104729561D02*
X101268170Y-104824800D01*
X101268170Y-104824800D02*
X101125313Y-104872419D01*
X101125313Y-104872419D02*
X101030075Y-104872419D01*
X102363408Y-104872419D02*
X101887218Y-104872419D01*
X101887218Y-104872419D02*
X101887218Y-103872419D01*
X103268170Y-104777180D02*
X103220551Y-104824800D01*
X103220551Y-104824800D02*
X103077694Y-104872419D01*
X103077694Y-104872419D02*
X102982456Y-104872419D01*
X102982456Y-104872419D02*
X102839599Y-104824800D01*
X102839599Y-104824800D02*
X102744361Y-104729561D01*
X102744361Y-104729561D02*
X102696742Y-104634323D01*
X102696742Y-104634323D02*
X102649123Y-104443847D01*
X102649123Y-104443847D02*
X102649123Y-104300990D01*
X102649123Y-104300990D02*
X102696742Y-104110514D01*
X102696742Y-104110514D02*
X102744361Y-104015276D01*
X102744361Y-104015276D02*
X102839599Y-103920038D01*
X102839599Y-103920038D02*
X102982456Y-103872419D01*
X102982456Y-103872419D02*
X103077694Y-103872419D01*
X103077694Y-103872419D02*
X103220551Y-103920038D01*
X103220551Y-103920038D02*
X103268170Y-103967657D01*
X103982456Y-103872419D02*
X103982456Y-104586704D01*
X103982456Y-104586704D02*
X103934837Y-104729561D01*
X103934837Y-104729561D02*
X103839599Y-104824800D01*
X103839599Y-104824800D02*
X103696742Y-104872419D01*
X103696742Y-104872419D02*
X103601504Y-104872419D01*
X104934837Y-104872419D02*
X104458647Y-104872419D01*
X104458647Y-104872419D02*
X104458647Y-103872419D01*
X105839599Y-104777180D02*
X105791980Y-104824800D01*
X105791980Y-104824800D02*
X105649123Y-104872419D01*
X105649123Y-104872419D02*
X105553885Y-104872419D01*
X105553885Y-104872419D02*
X105411028Y-104824800D01*
X105411028Y-104824800D02*
X105315790Y-104729561D01*
X105315790Y-104729561D02*
X105268171Y-104634323D01*
X105268171Y-104634323D02*
X105220552Y-104443847D01*
X105220552Y-104443847D02*
X105220552Y-104300990D01*
X105220552Y-104300990D02*
X105268171Y-104110514D01*
X105268171Y-104110514D02*
X105315790Y-104015276D01*
X105315790Y-104015276D02*
X105411028Y-103920038D01*
X105411028Y-103920038D02*
X105553885Y-103872419D01*
X105553885Y-103872419D02*
X105649123Y-103872419D01*
X105649123Y-103872419D02*
X105791980Y-103920038D01*
X105791980Y-103920038D02*
X105839599Y-103967657D01*
X106553885Y-103872419D02*
X106553885Y-104586704D01*
X106553885Y-104586704D02*
X106506266Y-104729561D01*
X106506266Y-104729561D02*
X106411028Y-104824800D01*
X106411028Y-104824800D02*
X106268171Y-104872419D01*
X106268171Y-104872419D02*
X106172933Y-104872419D01*
X107506266Y-104872419D02*
X107030076Y-104872419D01*
X107030076Y-104872419D02*
X107030076Y-103872419D01*
X108411028Y-104777180D02*
X108363409Y-104824800D01*
X108363409Y-104824800D02*
X108220552Y-104872419D01*
X108220552Y-104872419D02*
X108125314Y-104872419D01*
X108125314Y-104872419D02*
X107982457Y-104824800D01*
X107982457Y-104824800D02*
X107887219Y-104729561D01*
X107887219Y-104729561D02*
X107839600Y-104634323D01*
X107839600Y-104634323D02*
X107791981Y-104443847D01*
X107791981Y-104443847D02*
X107791981Y-104300990D01*
X107791981Y-104300990D02*
X107839600Y-104110514D01*
X107839600Y-104110514D02*
X107887219Y-104015276D01*
X107887219Y-104015276D02*
X107982457Y-103920038D01*
X107982457Y-103920038D02*
X108125314Y-103872419D01*
X108125314Y-103872419D02*
X108220552Y-103872419D01*
X108220552Y-103872419D02*
X108363409Y-103920038D01*
X108363409Y-103920038D02*
X108411028Y-103967657D01*
D11*
G36*
X88300160Y-137243135D02*
G01*
X88375247Y-137258108D01*
X88448820Y-137287388D01*
X88481716Y-137307020D01*
X88538724Y-137355012D01*
X88583354Y-137413809D01*
X88615604Y-137483411D01*
X88620568Y-137498628D01*
X88636263Y-137571468D01*
X88640481Y-137651089D01*
X88634596Y-137727556D01*
X88624232Y-137788422D01*
X88536304Y-138210840D01*
X88515811Y-138290731D01*
X88488402Y-138365538D01*
X88454079Y-138435261D01*
X88412840Y-138499902D01*
X88365625Y-138558497D01*
X88313372Y-138610086D01*
X88248566Y-138659748D01*
X88193754Y-138692243D01*
X88118860Y-138725184D01*
X88040083Y-138747344D01*
X87966798Y-138757991D01*
X87909822Y-138760387D01*
X87835862Y-138756128D01*
X87760649Y-138741155D01*
X87687004Y-138711874D01*
X87654099Y-138692243D01*
X87597091Y-138644179D01*
X87552462Y-138585167D01*
X87520212Y-138515208D01*
X87515247Y-138499902D01*
X87499701Y-138426824D01*
X87495515Y-138347313D01*
X87499239Y-138298601D01*
X87709490Y-138298601D01*
X87715845Y-138377297D01*
X87744322Y-138450393D01*
X87751919Y-138462166D01*
X87804568Y-138514521D01*
X87874361Y-138545143D01*
X87952686Y-138554124D01*
X88026978Y-138546850D01*
X88102999Y-138521705D01*
X88172150Y-138478600D01*
X88191556Y-138462166D01*
X88243459Y-138405510D01*
X88284176Y-138339407D01*
X88313706Y-138263856D01*
X88325279Y-138217801D01*
X88416137Y-137781095D01*
X88426502Y-137699999D01*
X88420277Y-137621245D01*
X88391858Y-137548418D01*
X88384263Y-137536730D01*
X88331779Y-137484375D01*
X88261978Y-137453753D01*
X88183496Y-137444773D01*
X88109352Y-137452047D01*
X88033360Y-137477191D01*
X87964094Y-137520296D01*
X87944626Y-137536730D01*
X87892694Y-137593090D01*
X87851890Y-137659129D01*
X87822215Y-137734847D01*
X87810537Y-137781095D01*
X87719678Y-138217801D01*
X87709490Y-138298601D01*
X87499239Y-138298601D01*
X87501331Y-138271235D01*
X87511584Y-138210840D01*
X87599511Y-137788422D01*
X87620142Y-137707937D01*
X87647596Y-137632809D01*
X87681874Y-137563040D01*
X87722976Y-137498628D01*
X87770191Y-137440353D01*
X87829329Y-137383060D01*
X87894844Y-137334519D01*
X87942062Y-137307020D01*
X88016985Y-137274079D01*
X88095849Y-137251919D01*
X88169259Y-137241272D01*
X88226360Y-137238876D01*
X88300160Y-137243135D01*
G37*
G36*
X89233129Y-138760387D02*
G01*
X89146687Y-138755286D01*
X89070086Y-138739985D01*
X88993154Y-138709240D01*
X88929617Y-138664611D01*
X88885816Y-138615307D01*
X88848046Y-138546119D01*
X88825459Y-138465501D01*
X88818182Y-138387302D01*
X88822059Y-138300706D01*
X88833810Y-138222127D01*
X88837090Y-138205711D01*
X89034926Y-137254263D01*
X89239724Y-137254263D01*
X89040422Y-138212672D01*
X89029522Y-138289586D01*
X89031493Y-138365111D01*
X89054366Y-138441598D01*
X89068265Y-138465097D01*
X89126328Y-138519348D01*
X89200462Y-138547082D01*
X89275994Y-138554124D01*
X89355219Y-138547082D01*
X89426793Y-138525955D01*
X89497347Y-138485963D01*
X89522923Y-138465097D01*
X89573584Y-138408989D01*
X89613869Y-138341230D01*
X89640969Y-138271220D01*
X89655914Y-138212672D01*
X89855216Y-137254263D01*
X90060013Y-137254263D01*
X89862177Y-138205711D01*
X89842320Y-138285456D01*
X89817097Y-138359370D01*
X89786507Y-138427451D01*
X89742715Y-138501451D01*
X89691195Y-138567053D01*
X89642358Y-138615307D01*
X89577851Y-138664611D01*
X89507702Y-138703715D01*
X89431912Y-138732618D01*
X89350480Y-138751319D01*
X89263407Y-138759820D01*
X89233129Y-138760387D01*
G37*
G36*
X90332588Y-138745000D02*
G01*
X90617254Y-137376263D01*
X90822051Y-137376263D01*
X90537386Y-138745000D01*
X90332588Y-138745000D01*
G37*
G36*
X90188974Y-137452833D02*
G01*
X90230373Y-137254263D01*
X91259490Y-137254263D01*
X91218091Y-137452833D01*
X90188974Y-137452833D01*
G37*
G36*
X143944993Y-134254263D02*
G01*
X143635048Y-135745000D01*
X143430617Y-135745000D01*
X143740561Y-134254263D01*
X143944993Y-134254263D01*
G37*
G36*
X144008374Y-135743900D02*
G01*
X144317951Y-134254263D01*
X144503698Y-134254263D01*
X144977041Y-135406479D01*
X144947365Y-135433224D01*
X145192463Y-134254263D01*
X145395062Y-134254263D01*
X145085484Y-135743900D01*
X144897906Y-135743900D01*
X144422732Y-134608904D01*
X144452407Y-134582159D01*
X144210973Y-135743900D01*
X144008374Y-135743900D01*
G37*
G36*
X102553715Y-77458415D02*
G01*
X103368143Y-77458415D01*
X103326744Y-77657351D01*
X102512316Y-77657351D01*
X102553715Y-77458415D01*
G37*
G36*
X103129274Y-77141510D02*
G01*
X102956350Y-77974256D01*
X102751919Y-77974256D01*
X102924842Y-77141510D01*
X103129274Y-77141510D01*
G37*
G36*
X104279422Y-76744644D02*
G01*
X104356874Y-76765360D01*
X104427257Y-76806676D01*
X104474930Y-76859410D01*
X104507651Y-76925768D01*
X104524480Y-77004673D01*
X104526171Y-77084009D01*
X104517936Y-77159658D01*
X104510467Y-77200129D01*
X104510101Y-77201228D01*
X104490022Y-77277827D01*
X104462794Y-77352934D01*
X104443056Y-77398698D01*
X104410613Y-77464443D01*
X104373733Y-77529330D01*
X104332417Y-77593358D01*
X104323621Y-77606060D01*
X103879954Y-78245000D01*
X103659403Y-78245000D01*
X104120780Y-77588810D01*
X104115735Y-77593535D01*
X104079623Y-77611556D01*
X104005577Y-77629817D01*
X103956891Y-77632805D01*
X103883503Y-77625340D01*
X103813806Y-77599097D01*
X103752340Y-77547778D01*
X103727913Y-77513370D01*
X103696801Y-77439986D01*
X103684036Y-77364344D01*
X103684361Y-77290117D01*
X103687699Y-77265440D01*
X103894173Y-77265440D01*
X103902257Y-77339416D01*
X103917690Y-77375983D01*
X103975678Y-77427725D01*
X104047966Y-77442231D01*
X104053977Y-77442295D01*
X104127307Y-77431291D01*
X104195187Y-77394826D01*
X104216643Y-77375617D01*
X104263987Y-77312432D01*
X104293373Y-77244894D01*
X104308600Y-77187672D01*
X104308600Y-77186939D01*
X104317943Y-77112156D01*
X104308046Y-77035260D01*
X104293946Y-77004490D01*
X104236165Y-76953892D01*
X104158391Y-76939644D01*
X104084587Y-76950346D01*
X104016466Y-76985809D01*
X103994993Y-77004490D01*
X103948007Y-77065829D01*
X103916872Y-77138335D01*
X103904134Y-77187672D01*
X103903768Y-77188771D01*
X103894173Y-77265440D01*
X103687699Y-77265440D01*
X103695416Y-77208387D01*
X103697871Y-77196099D01*
X103698237Y-77195000D01*
X103718176Y-77116968D01*
X103744193Y-77045815D01*
X103782231Y-76971495D01*
X103828543Y-76906538D01*
X103874825Y-76858311D01*
X103935473Y-76811773D01*
X104002011Y-76776666D01*
X104074439Y-76752989D01*
X104152758Y-76740742D01*
X104200157Y-76738876D01*
X104279422Y-76744644D01*
G37*
G36*
X104942044Y-78245000D02*
G01*
X104776448Y-76754263D01*
X104999197Y-76754263D01*
X105106175Y-77922965D01*
X105699319Y-76754263D01*
X105921702Y-76754263D01*
X105136584Y-78245000D01*
X104942044Y-78245000D01*
G37*
D12*
X104250000Y-76000000D02*
X102250000Y-74000000D01*
X106250000Y-74000000D01*
X104250000Y-76000000D01*
G36*
X104250000Y-76000000D02*
G01*
X102250000Y-74000000D01*
X106250000Y-74000000D01*
X104250000Y-76000000D01*
G37*
X86250000Y-142000000D02*
X82250000Y-138000000D01*
X86250000Y-134000000D01*
X86250000Y-142000000D01*
G36*
X86250000Y-142000000D02*
G01*
X82250000Y-138000000D01*
X86250000Y-134000000D01*
X86250000Y-142000000D01*
G37*
X150250000Y-139000000D02*
X146250000Y-135000000D01*
X150250000Y-131000000D01*
X150250000Y-139000000D01*
G36*
X150250000Y-139000000D02*
G01*
X146250000Y-135000000D01*
X150250000Y-131000000D01*
X150250000Y-139000000D01*
G37*
D13*
%TO.C,SW1*%
X109940000Y-160060000D02*
X109940000Y-155450000D01*
X112700000Y-160060000D02*
X109940000Y-160060000D01*
X114800000Y-160060000D02*
X115400000Y-160060000D01*
X117100000Y-160060000D02*
X117900000Y-160060000D01*
X119600000Y-160060000D02*
X122560000Y-160060000D01*
X122560000Y-155450000D02*
X122560000Y-160060000D01*
X109950000Y-151050000D02*
X109950000Y-146440000D01*
X109950000Y-146440000D02*
X112650000Y-146440000D01*
X114850000Y-146440000D02*
X117650000Y-146440000D01*
X119850000Y-146440000D02*
X122560000Y-146440000D01*
X122560000Y-146440000D02*
X122560000Y-151050000D01*
%TO.C,J5*%
X85750000Y-123500000D02*
X85750000Y-94500000D01*
X88250000Y-92000000D02*
X138250000Y-92000000D01*
X138250000Y-126000000D02*
X88250000Y-126000000D01*
X140750000Y-94500000D02*
X140750000Y-123500000D01*
X96750000Y-94000000D02*
X135750000Y-94000000D01*
X135750000Y-124000000D01*
X96750000Y-124000000D01*
X96750000Y-94000000D01*
X85750000Y-94500000D02*
G75*
G02*
X88250000Y-92000000I2500000J0D01*
G01*
X88250000Y-126000000D02*
G75*
G02*
X85750000Y-123500000I0J2500000D01*
G01*
X138250000Y-92000000D02*
G75*
G02*
X140750000Y-94500000I0J-2500000D01*
G01*
X140750000Y-123500000D02*
G75*
G02*
X138250000Y-126000000I-2500000J0D01*
G01*
%TO.C,RV3*%
X133780000Y-86170000D02*
X135379000Y-86170000D01*
X133780000Y-86170000D02*
X133780000Y-82305000D01*
X137121000Y-86170000D02*
X137880000Y-86170000D01*
X139621000Y-86170000D02*
X140380000Y-86170000D01*
X142120000Y-86170000D02*
X143720000Y-86170000D01*
X143720000Y-86170000D02*
X143720000Y-82305000D01*
X133780000Y-77795000D02*
X133780000Y-73930000D01*
X143720000Y-77795000D02*
X143720000Y-73930000D01*
X133780000Y-73930000D02*
X143720000Y-73930000D01*
%TO.C,RV2*%
X111280000Y-86170000D02*
X112879000Y-86170000D01*
X111280000Y-86170000D02*
X111280000Y-82305000D01*
X114621000Y-86170000D02*
X115380000Y-86170000D01*
X117121000Y-86170000D02*
X117880000Y-86170000D01*
X119620000Y-86170000D02*
X121220000Y-86170000D01*
X121220000Y-86170000D02*
X121220000Y-82305000D01*
X111280000Y-77795000D02*
X111280000Y-73930000D01*
X121220000Y-77795000D02*
X121220000Y-73930000D01*
X111280000Y-73930000D02*
X121220000Y-73930000D01*
%TO.C,RV1*%
X88780000Y-86170000D02*
X90379000Y-86170000D01*
X88780000Y-86170000D02*
X88780000Y-82305000D01*
X92121000Y-86170000D02*
X92880000Y-86170000D01*
X94621000Y-86170000D02*
X95380000Y-86170000D01*
X97120000Y-86170000D02*
X98720000Y-86170000D01*
X98720000Y-86170000D02*
X98720000Y-82305000D01*
X88780000Y-77795000D02*
X88780000Y-73930000D01*
X98720000Y-77795000D02*
X98720000Y-73930000D01*
X88780000Y-73930000D02*
X98720000Y-73930000D01*
%TD*%
M02*
